<svg xmlns="http://www.w3.org/2000/svg" viewBox="0 0 1349 171.2">
    <g data-name="Layer 2">
        <path fill="currentColor" d="M1349 81.55c-.7 1.35-1.47 2.67-2.08 4.06-1.79 4.07-2.93 8.55-5.36 12.17-6 9-16.15 10.85-25.4 4.94-7.14-4.57-13.91-9.71-20.94-14.44-7.66-5.15-15.79-9.15-25.16-10.32-8.41-1-14.35 2.78-14.92 11.29a183 183 0 0 0 .4 25.21c.88 12.27 1.63 24.47-1.58 36.52a45.6 45.6 0 0 1-2.51 7c-4.73 10.45-13.48 14.91-24.82 12.65-15.24-3-26.42-11.93-35.23-24.28-7.42-10.43-12-22.07-15.49-34.27-5.56-19.58-14.79-37-31.55-49.42-17.08-12.66-36.11-14.13-56-8.14-3.07.92-5.7 3.33-8.48 5.14-12.51 8.1-26 10.76-40.57 7.19-11.15-2.73-22.17-6.06-33.4-8.36-17-3.49-29.56 1.65-38.34 16.34-7.84 13.11-19.05 20.2-33.85 22.9-16.1 3-37-8.59-42.16-24.07-3.82-11.46-6.56-23.3-10.93-34.56-7-18-16.83-22.36-35.44-16.28-8.06 2.63-15.78 6.28-23.84 8.88-17.24 5.55-34.79 4.76-52.37 1.65-3.92-.7-7.9-1.12-11.87-1.52-13.5-1.34-23.75 3.34-31.34 15-7.29 11.18-20.53 14.5-36.31 10.32-4-1.06-7.81-2.83-11.75-4.16-13.83-4.69-27.54-9.8-41.56-13.85-10.46-3-17.53 1.12-21.06 11.42a53.63 53.63 0 0 0-3 15 285.88 285.88 0 0 0 0 31.8c1.67 24-14.55 35.39-30.62 38.36-8.45 1.57-17.52.88-26.18 0-10.68-1.14-17.49-8.52-20.84-17.94a208.74 208.74 0 0 1-8.25-32.07A168.88 168.88 0 0 1 524 59c-.31-15-7.38-26.27-18.47-35.39-26.36-21.71-64.75-22-92.35-.33-10.3 8.08-19.66 17.37-29.18 26.4-11.11 10.55-22.68 13.48-36.47 6.53-10.76-5.42-20.64-12.64-30.69-19.39-9.7-6.51-16.6-7.36-25.31.5-8.29 7.48-14.9 16.78-22.49 25.07-4.67 5.11-9.3 10.46-14.81 14.55-8.59 6.36-18.38 6.89-27.8 1.71C215.66 72.73 205.34 66 194.59 60c-11.66-6.5-23.86-2.64-30.47 9.09-5.21 9.23-6.43 19.37-7.07 29.68-.6 9.55-.14 19.38-2.33 28.58-3.54 14.94-11.85 27-28.38 30-15.22 2.72-27.82-2.77-34.83-16.13-4.49-8.55-6.17-17.48-6.24-26.79-.13-15.07.3-30.15.38-45.22.06-10.08.9-20.32-7.52-28.3-9.72-9.19-20.65-15.95-34.41-16a99.54 99.54 0 0 0-23.18 2.49C10.91 29.72 5.2 37.3 0 45.6V0h1349Z" data-name="Layer 1"/>
    </g>
</svg>