<svg xmlns="http://www.w3.org/2000/svg" viewBox="0 0 1965 172.96">
    <defs>
        <pattern id="7614aeb6-4e3d-4065-9643-880a3f36bfaf" patternUnits="userSpaceOnUse" width="1310" height="200">
            <path fill="currentColor" d="M1350 72.59c-11.82 2.22-23.19-.09-34.51-3.23-8.5-2.37-17-5-25.58-6.81-20.05-4.23-33.45 1.2-44.3 18.51-7.64 12.19-17.77 20.27-31.83 23.79-19.34 4.84-34.77-1.81-47.42-15.91-3.07-3.42-4.8-8.29-6.3-12.78-3.84-11.45-6.67-23.26-10.87-34.57-7.58-20.45-17.9-25.25-38.89-19a75.38 75.38 0 0 0-10.79 3.89c-23.66 11.22-48.32 12.63-73.77 8.21a130.73 130.73 0 0 0-22.35-1.84c-10.16 0-18.56 4.43-23.89 13.12-9.36 15.24-24.15 19.19-41.25 15.27-5-1.15-9.8-3.16-14.68-4.82-15.1-5.13-30-10.81-45.34-15.28-13.34-3.89-21.7 1.11-25.27 14.48a99.75 99.75 0 0 0-3 21.08 190.12 190.12 0 0 0 .44 27.3c2.45 24.66-13 40.63-35.32 44.58-9 1.58-18.54.71-27.73-.17-10.69-1-17.57-8-22.39-17.14-6.63-12.54-9.2-26.19-10.76-40-1.25-11-2.22-22.1-2.74-33.17-.43-9.08-4-16.7-9.46-23.56-13.41-16.89-31-26.23-52.52-28.35-25.09-2.48-47.17 4.6-66 21.2-9.1 8-18 16.28-26.54 24.88-11.88 11.95-25.7 14.95-40.6 7.79-10.71-5.14-20.67-12-30.47-18.81-16.62-11.52-24.42-11.49-38.71 2.88C480.4 50.92 475 59 468.75 66.32 464.12 71.7 459.59 77.4 454 81.7c-10.69 8.26-22.6 9.38-34.58 2.46-11.53-6.65-22.7-13.91-34.32-20.39-12-6.72-25.38-3.45-32.13 8.68a73.21 73.21 0 0 0-7.8 23.22c-1.5 9.07-.91 18.47-1.28 27.73a62.61 62.61 0 0 1-12.51 36c-14.5 19.37-50.84 18.8-61.52-6.57-3.71-8.79-6-17.48-6.06-26.84 0-20.22-.35-40.45.27-60.64.36-11.86-4.72-20.3-13.47-27.33-18-14.41-38.12-16.11-59.5-10a28.87 28.87 0 0 0-17.39 14.17c-4.42 8-8.32 16.22-12 24.56-8 18.36-22.4 23-39.52 12.3a38.28 38.28 0 0 1-14.86-17.45A292.46 292.46 0 0 0 91.1 30.36a43.26 43.26 0 0 0-12.46-12.61c-10.42-7.15-22.47-6.07-30.77 3.33-7.33 8.28-13.14 17.86-19.77 26.76-3.46 4.64-6.84 9.44-11 13.44-4.56 4.44-10.21 7.38-17.1 6.34V0h1350Z"/>
        </pattern>
    </defs>
    <rect width="100%" height="100%" fill="url(#7614aeb6-4e3d-4065-9643-880a3f36bfaf)"/>
</svg>