<svg xmlns="http://www.w3.org/2000/svg" viewBox="0 0 1965 172.96">
    <defs>
        <pattern id="7614aeb2-4e3d-4065-9643-880a3f36bfaf" patternUnits="userSpaceOnUse" width="1269" height="200">
            <path fill="currentColor" d="M1349 45C1349 45 1327 8.84 1281 33C1262.25 43.91 1262 72.34 1263 87C1264 101.66 1276.5 162.34 1224 160C1200 158.41 1192.5 130.59 1193 106C1193.5 81.41 1174.75 48.09 1156 60C1137.25 71.91 1100 98.09 1052 76C1004 53.91 981.5 52.84 967 75C952.5 97.16 919.75 110.09 902 89C884.25 67.91 880.25 6.59 847 22C813.75 37.41 810 38.59 748 33C739.25 31.41 729 46.09 724 51C719 55.91 706 70.59 660 47C643 39.16 611.5 27.84 612 62C612.5 96.16 621 141.59 570 138C519 134.41 525 61.09 521 45C517 28.91 461.75 -17.16 411 25C360.25 67.16 360.25 66.34 334 49C307.75 31.66 300.25 24.34 279 51C257.75 77.66 243.5 92.84 215 73C186.5 53.16 160.8 55.27 159 81C157.2 106.73 156.2 162.67 123 159C89.8 155.33 84.2 135.07 85 99C85.8 62.93 88 29.07 49 26C10 22.93 8.8 39.27 0 46C0 32.33 0 0 0 0L1349 0L1349 45Z" />
        </pattern>
    </defs>
    <rect width="100%" height="100%" fill="url(#7614aeb2-4e3d-4065-9643-880a3f36bfaf)"/>
</svg>