<svg xmlns="http://www.w3.org/2000/svg" xmlns:xlink="http://www.w3.org/1999/xlink" width="215" height="216" viewBox="0 0 215 216">
  <defs>
    <filter id="Rectangle_912" x="0" y="0" width="215" height="216" filterUnits="userSpaceOnUse">
      <feOffset dy="2" input="SourceAlpha"/>
      <feGaussianBlur stdDeviation="5" result="blur"/>
      <feFlood flood-color="#ff53d7" flood-opacity="0.2"/>
      <feComposite operator="in" in2="blur"/>
      <feComposite in="SourceGraphic"/>
    </filter>
  </defs>
  <g id="Group_10999" data-name="Group 10999" transform="translate(8948 -9964)">
    <g transform="matrix(1, 0, 0, 1, -8948, 9964)" filter="url(#Rectangle_912)">
      <rect id="Rectangle_912-2" data-name="Rectangle 912" width="177" height="178" rx="6" transform="translate(19 17)" fill="#fff" stroke="#ff53d7" stroke-linecap="round" stroke-linejoin="round" stroke-width="8"/>
    </g>
    <g id="Rectangle_899" data-name="Rectangle 899" transform="translate(-8929 9981)" fill="#ffe8fa" stroke="#fff" stroke-linecap="round" stroke-linejoin="round" stroke-width="3">
      <rect width="177" height="178" rx="6" stroke="none"/>
      <rect x="1.5" y="1.5" width="174" height="175" rx="4.5" fill="none"/>
    </g>
    <g id="Uniform" transform="translate(-1 64)" style="mix-blend-mode: luminosity;isolation: isolate">
      <path id="Path_28057" data-name="Path 28057" d="M98.037,2072.71s21.951,10.127,37.057,10.127,33.451-7.274,37.767-9.353c0,0-2.158-21.823-16.186-35.332a30.182,30.182,0,0,1-21.642,8.244,33.52,33.52,0,0,1-21.521-8.763s-10.251,9.353-15.646,35.332" transform="translate(-8977.999 7970.163)" fill="#292f35" stroke="#000" stroke-miterlimit="10" stroke-width="0.588"/>
      <path id="Path_28058" data-name="Path 28058" d="M156.675,2038.16s11.143,14.509,10.967,29.6c0,0-29.311,19.764-64.381-.5,0,0,3.777-18.186,10.251-29.617,0,0,7.553,8.313,21.521,8.763C149.114,2046.85,156.675,2038.16,156.675,2038.16Z" transform="translate(-8977.999 7970.163)" fill="#fff" stroke="#000" stroke-miterlimit="10" stroke-width="0.588"/>
      <path id="Path_28059" data-name="Path 28059" d="M157.754,2038.16s3.237,14.548-18.344,18.186-28.6-11.951-25.9-18.186c0,0,9.712,7.274,21.581,7.274s14.567-2.078,22.121-7.274" transform="translate(-8977.999 7970.163)" fill="#727272" opacity="0.2"/>
      <path id="Path_28060" data-name="Path 28060" d="M164.808,2034.38a189.574,189.574,0,0,1,27.776-8.165.773.773,0,0,0-.123-.471c-5.572-9.93-12.287-45.2-57.232-41.467a.61.61,0,0,0-.375-.091c-23.2.51-41.844-.587-56.711,41.038-.114.32-.184.658-.269.99,0,0,7.435,0,27.615,7.16l2.022-4.067a32.65,32.65,0,0,0,27.822,16.63c19.014.734,27.393-15.824,27.393-15.824Z" transform="translate(-8977.999 7970.163)" fill="#292f35" stroke="#000" stroke-miterlimit="10" stroke-width="0.588"/>
      <g id="Group_10980" data-name="Group 10980" transform="translate(-10266.43 8096.209)" opacity="0.57">
        <path id="Path_28061" data-name="Path 28061" d="M167.048,2022.52c-1.926-2.906-1.156-6.424-1.74-9.825-.258-1.5-3.625-3.331-4.855-2.375-2.154,9.257-5.125,19.6-13.767,24.156-6.865,3.616-16.955,2.67-23.462-1.517s-9.722-11.183-12.869-18.083c-.763-1.672-1.684-3.572-3.509-4.07s-3.916,2.034-2.38,3.1c-1.7.061-2.386,2.192-2.156,3.813s.883,3.36.1,4.811c-.385.714-1.075,1.242-1.456,1.957a4.889,4.889,0,0,0-.349,2.693,27.414,27.414,0,0,0,.68,4.3q1.895.638,3.965,1.371l2.022-4.067a32.65,32.65,0,0,0,27.822,16.63c19.014.734,27.393-15.824,27.393-15.824l2.082,4.266s1.976-.78,5.273-1.914a18.159,18.159,0,0,0-2.794-9.424Z" transform="translate(1288.431 -126.047)" fill="#1b2023"/>
      </g>
      <path id="Path_28062" data-name="Path 28062" d="M105.414,2032.94s-17.8-6.217-28.049-6.737l2.7-7.274,26.977,11.431-1.625,2.58" transform="translate(-8977.999 7970.163)" fill="#f45a37" stroke="#000" stroke-miterlimit="10" stroke-width="0.588"/>
      <path id="Path_28063" data-name="Path 28063" d="M164.768,2034.52a134.891,134.891,0,0,1,28.054-8.4l-3.017-7.157-26.446,12.53,1.409,3.032" transform="translate(-8977.999 7970.163)" fill="#f45a37" stroke="#000" stroke-miterlimit="10" stroke-width="0.588"/>
      <path id="Path_28064" data-name="Path 28064" d="M113.313,2037.61l-1.619,2.6s21.242,20.291,46.6.027l-1.619-2.078s-10.251,8.833-22.121,7.794-21.042-8.313-21.042-8.313" transform="translate(-8977.999 7970.163)" fill="#f45a37" stroke="#000" stroke-miterlimit="10" stroke-width="0.588"/>
      <ellipse id="Ellipse_472" data-name="Ellipse 472" cx="1.079" cy="1.039" rx="1.079" ry="1.039" transform="translate(-8860.709 9972.99)" fill="#bcbcbc" stroke="#000" stroke-miterlimit="10" stroke-width="0.588"/>
      <ellipse id="Ellipse_473" data-name="Ellipse 473" cx="1.079" cy="1.039" rx="1.079" ry="1.039" transform="translate(-8861.789 9981.3)" fill="#bcbcbc" stroke="#000" stroke-miterlimit="10" stroke-width="0.588"/>
      <ellipse id="Ellipse_474" data-name="Ellipse 474" cx="1.079" cy="1.039" rx="1.079" ry="1.039" transform="translate(-8861.789 9989.609)" fill="#bcbcbc" stroke="#000" stroke-miterlimit="10" stroke-width="0.588"/>
      <ellipse id="Ellipse_475" data-name="Ellipse 475" cx="1.079" cy="1.039" rx="1.079" ry="1.039" transform="translate(-8860.709 9998.45)" fill="#bcbcbc" stroke="#000" stroke-miterlimit="10" stroke-width="0.588"/>
      <ellipse id="Ellipse_476" data-name="Ellipse 476" cx="1.079" cy="1.039" rx="1.079" ry="1.039" transform="translate(-8828.879 9972.99)" fill="#bcbcbc" stroke="#000" stroke-miterlimit="10" stroke-width="0.588"/>
      <ellipse id="Ellipse_477" data-name="Ellipse 477" cx="1.079" cy="1.039" rx="1.079" ry="1.039" transform="translate(-8827.799 9981.3)" fill="#bcbcbc" stroke="#000" stroke-miterlimit="10" stroke-width="0.588"/>
      <ellipse id="Ellipse_478" data-name="Ellipse 478" cx="1.079" cy="1.039" rx="1.079" ry="1.039" transform="translate(-8827.799 9989.609)" fill="#bcbcbc" stroke="#000" stroke-miterlimit="10" stroke-width="0.588"/>
      <ellipse id="Ellipse_479" data-name="Ellipse 479" cx="1.079" cy="1.039" rx="1.079" ry="1.039" transform="translate(-8828.879 9998.45)" fill="#bcbcbc" stroke="#000" stroke-miterlimit="10" stroke-width="0.588"/>
      <path id="Path_28065" data-name="Path 28065" d="M164.808,2034.38a189.574,189.574,0,0,1,27.776-8.165.773.773,0,0,0-.123-.471c-5.572-9.93-12.287-45.2-57.232-41.467a.61.61,0,0,0-.375-.091c-23.2.51-41.844-.587-56.711,41.038-.114.32-.184.658-.269.99,0,0,7.435,0,27.615,7.16l2.022-4.067a32.65,32.65,0,0,0,27.822,16.63c19.014.734,27.393-15.824,27.393-15.824Z" transform="translate(-8977.999 7970.163)" fill="none" stroke="#000" stroke-miterlimit="10" stroke-width="0.588"/>
      <path id="Path_28066" data-name="Path 28066" d="M107.033,2027.27s-2.7-8.833,0-16.107" transform="translate(-8977.999 7970.163)" fill="none" stroke="#000" stroke-miterlimit="10" stroke-width="0.588"/>
      <path id="Path_28067" data-name="Path 28067" d="M105.954,2021.03a15.812,15.812,0,0,0-2.7-8.832" transform="translate(-8977.999 7970.163)" fill="none" stroke="#000" stroke-miterlimit="10" stroke-width="0.588"/>
      <path id="Path_28068" data-name="Path 28068" d="M162.6,2027.27s2.7-8.833,0-16.107" transform="translate(-8977.999 7970.163)" fill="none" stroke="#000" stroke-miterlimit="10" stroke-width="0.588"/>
      <path id="Path_28069" data-name="Path 28069" d="M163.684,2021.03a15.811,15.811,0,0,1,2.7-8.832" transform="translate(-8977.999 7970.163)" fill="none" stroke="#000" stroke-miterlimit="10" stroke-width="0.588"/>
      <line id="Line_60" data-name="Line 60" x1="21.52" y1="11.93" transform="translate(-8892.01 9988.079)" fill="none" stroke="#000" stroke-miterlimit="10" stroke-width="0.588"/>
      <line id="Line_61" data-name="Line 61" y1="11.95" x2="19.96" transform="translate(-8815.39 9989.119)" fill="none" stroke="#000" stroke-miterlimit="10" stroke-width="0.588"/>
      <path id="Path_28070" data-name="Path 28070" d="M117.829,2039.71s-7.553-21.3-1.619-40.528c0,0,14.567,6.235,36.688,0,0,0,5.935,20.264.54,40.528" transform="translate(-8977.999 7970.163)" fill="none" stroke="#000" stroke-miterlimit="10" stroke-width="0.588"/>
      <path id="Path_28071" data-name="Path 28071" d="M123.764,1985.16s0,11.431,12.409,11.431,12.409-10.392,12.409-11.951" transform="translate(-8977.999 7970.163)" fill="#f45a37" stroke="#000" stroke-miterlimit="10" stroke-width="0.588"/>
    </g>
  </g>
</svg>
