<svg xmlns="http://www.w3.org/2000/svg" xmlns:xlink="http://www.w3.org/1999/xlink" width="215" height="215" viewBox="0 0 215 215">
  <defs>
    <filter id="Rectangle_907" x="0" y="0" width="215" height="215" filterUnits="userSpaceOnUse">
      <feOffset dy="2" input="SourceAlpha"/>
      <feGaussianBlur stdDeviation="5" result="blur"/>
      <feFlood flood-color="#ffa144" flood-opacity="0.2"/>
      <feComposite operator="in" in2="blur"/>
      <feComposite in="SourceGraphic"/>
    </filter>
  </defs>
  <g id="Group_10991" data-name="Group 10991" transform="translate(8948 -9308)">
    <g transform="matrix(1, 0, 0, 1, -8948, 9308)" filter="url(#Rectangle_907)">
      <rect id="Rectangle_907-2" data-name="Rectangle 907" width="177" height="177" rx="6" transform="translate(19 17)" fill="#fff" stroke="#ffa144" stroke-linecap="round" stroke-linejoin="round" stroke-width="8"/>
    </g>
    <g id="Rectangle_897" data-name="Rectangle 897" transform="translate(-8929 9325)" fill="#ffede2" stroke="#fff" stroke-linecap="round" stroke-linejoin="round" stroke-width="3">
      <rect width="177" height="177" rx="6" stroke="none"/>
      <rect x="1.5" y="1.5" width="174" height="174" rx="4.5" fill="none"/>
    </g>
    <g id="Toque" style="mix-blend-mode: luminosity;isolation: isolate">
      <ellipse id="Ellipse_471" data-name="Ellipse 471" cx="35.902" cy="8.961" rx="35.902" ry="8.961" transform="translate(-8874.831 9378.848)" fill="#ce5555" stroke="#000" stroke-miterlimit="10" stroke-width="3.213"/>
      <path id="Path_28005" data-name="Path 28005" d="M181,1480.54s-35.844,20.909-83.636,0l5.642-62.727s27.215,14.935,72.02,0Z" transform="translate(-8977.999 7970.163)" fill="#c13636" stroke="#000" stroke-miterlimit="10" stroke-width="3.585"/>
      <path id="Path_28006" data-name="Path 28006" d="M151.546,1489.44c17.848-2.187,28.79-8.565,28.79-8.565l-5.974-62.727a129.275,129.275,0,0,1-26.257,5.921Z" transform="translate(-8977.999 7970.163)" fill="#a82f2f"/>
      <path id="Path_28007" data-name="Path 28007" d="M141.761,1409.14q-.1-.133-.206-.266c-.042-.012-.084-.022-.127-.037a5.624,5.624,0,0,0-1.677-.569,5.912,5.912,0,0,0-1.428.317l.272.155a2.443,2.443,0,0,0-1.621,1.3,5.728,5.728,0,0,0-.547,2.067,4.172,4.172,0,0,0,.62,3.221,4.69,4.69,0,0,0,2.949,1.216c.976.155,2.145.242,2.78-.515a2.9,2.9,0,0,0,.506-1.47,8.226,8.226,0,0,0,.137-1.755,7.1,7.1,0,0,0-1.657-3.665Z" transform="translate(-8977.999 7970.163)"/>
      <path id="Path_28008" data-name="Path 28008" d="M142.191,1408.89a2.82,2.82,0,0,0-.284-.366,1.307,1.307,0,0,0-.46-.207c-.345-.133-.669-.315-1.021-.429a3.772,3.772,0,0,0-2.235.219.5.5,0,0,0-.119.91l.272.155.119-.91c-1.657.367-2.3,2.058-2.5,3.564-.19,1.44-.178,3.147,1.04,4.159a4.593,4.593,0,0,0,1.982.884,9.721,9.721,0,0,0,2.18.281,2.627,2.627,0,0,0,1.886-.682,3.675,3.675,0,0,0,.767-2.171,5.944,5.944,0,0,0-.2-2.913,9.742,9.742,0,0,0-1.427-2.494c-.379-.507-1.244-.012-.86.5a6.545,6.545,0,0,1,1.6,3.573,7.6,7.6,0,0,1-.265,2.178,1.257,1.257,0,0,1-1.1.982,5.167,5.167,0,0,1-1.618-.089,6.618,6.618,0,0,1-1.71-.447c-1.2-.557-1.429-1.762-1.352-2.976.081-1.27.369-3.065,1.848-3.393a.5.5,0,0,0,.119-.91l-.272-.155-.119.91a3.03,3.03,0,0,1,1.644-.239,6.153,6.153,0,0,1,.73.3,1.319,1.319,0,0,1,.5.264C141.714,1409.9,142.579,1409.4,142.191,1408.89Z" transform="translate(-8977.999 7970.163)"/>
      <path id="Path_28009" data-name="Path 28009" d="M167.393,1441.55c0-3.934,0-7.871-.222-11.8-.114-2.068-.306-4.126-.527-6.184-.183-1.7.055-3.405-.923-4.919-1.906-2.951-5.8-3.928-9.057-4.408-4.015-.592-8.063-1-12.092-1.481-1.9-.229-1.888,2.76,0,2.987,3.615.435,7.239.824,10.847,1.311,2.4.324,7.249.921,8.05,3.785a12.506,12.506,0,0,1,.128,2.236c.078.888.206,1.774.289,2.662.169,1.8.287,3.6.365,5.4.151,3.468.154,6.94.154,10.41a1.494,1.494,0,0,0,2.987,0Z" transform="translate(-8977.999 7970.163)"/>
      <path id="Path_28010" data-name="Path 28010" d="M166.12,1439.61a1.639,1.639,0,0,0-2.282.7,1.921,1.921,0,0,0,.456,2.033,3.088,3.088,0,0,0,1.992.84,2.727,2.727,0,0,0,1.07-.1,2.192,2.192,0,0,0,1.386-2.308,2.634,2.634,0,0,0-1.805-2.091,3.315,3.315,0,0,0-2.786.433" transform="translate(-8977.999 7970.163)"/>
      <path id="Path_28011" data-name="Path 28011" d="M166.371,1439.18a2.138,2.138,0,0,0-3.014,1,2.336,2.336,0,0,0,.177,1.971,2.978,2.978,0,0,0,1.613,1.3,3.807,3.807,0,0,0,2.211.148,2.53,2.53,0,0,0,1.494-1.146,2.824,2.824,0,0,0-.559-3.531,3.616,3.616,0,0,0-4.395-.237c-.538.344-.039,1.206.5.86a2.717,2.717,0,0,1,2.8-.2,1.943,1.943,0,0,1,.993,2.136,1.708,1.708,0,0,1-.643.948,2.013,2.013,0,0,1-1.439.244c-.9-.123-1.906-.7-1.908-1.722a1.007,1.007,0,0,1,.587-.937,1.1,1.1,0,0,1,1.074.027.5.5,0,0,0,.5-.86Z" transform="translate(-8977.999 7970.163)"/>
      <path id="Path_28012" data-name="Path 28012" d="M165.3,1442.77c-2.2,3.514-2.118,8.3-1.946,12.729l.607,15.64a2.539,2.539,0,0,0,.333,1.407,1.845,1.845,0,0,0,1.26.608,33.555,33.555,0,0,0,9.282.31,1.441,1.441,0,0,0,.985-.378,2.133,2.133,0,0,0,.223-1.647q-.732-5.528-1.572-11.042a58.284,58.284,0,0,0-2.227-10.241,19.346,19.346,0,0,0-5.386-8.532" transform="translate(-8977.999 7970.163)"/>
      <path id="Path_28013" data-name="Path 28013" d="M164.841,1442.5c-2.549,4.245-2.156,9.472-1.972,14.221l.351,9.042.161,4.154c.036.938-.105,2.217.538,3.008.663.815,1.94.83,2.887.957a34.249,34.249,0,0,0,3.863.3,29.835,29.835,0,0,0,4.171-.18,1.752,1.752,0,0,0,1.711-1.2,7.34,7.34,0,0,0-.179-2.946q-.308-2.283-.635-4.563c-.421-2.941-.829-5.89-1.36-8.813-1.006-5.539-2.743-11.406-7.135-15.234-.518-.451-1.279.3-.758.758,3.385,2.951,5.133,7.217,6.175,11.491a143.747,143.747,0,0,1,2.349,14.244c.172,1.232.37,2.465.5,3.7.1.89-.15,1.438-1.134,1.536-.615.061-1.234.1-1.852.119-1.084.039-2.171.025-3.254-.041q-.932-.057-1.86-.166a6.263,6.263,0,0,1-2.06-.32c-1.194-.761-.9-2.654-.948-3.872l-.152-3.91-.285-7.331c-.185-4.761-.766-10.144,1.8-14.414a.536.536,0,0,0-.925-.541Z" transform="translate(-8977.999 7970.163)"/>
      <path id="Path_28014" data-name="Path 28014" d="M181,1480.54s-35.844,20.909-83.636,0l5.642-62.727s27.215,14.935,72.02,0Z" transform="translate(-8977.999 7970.163)" fill="none" stroke="#000" stroke-miterlimit="10" stroke-width="3.585"/>
      <line id="Line_59" data-name="Line 59" y1="53.76" x2="5.98" transform="translate(-8874.83 9393.789)" fill="#ce5555" stroke="#ce5555" stroke-miterlimit="10" stroke-width="3.213"/>
    </g>
  </g>
</svg>
