<svg xmlns="http://www.w3.org/2000/svg" xmlns:xlink="http://www.w3.org/1999/xlink" width="215" height="215" viewBox="0 0 215 215">
  <defs>
    <filter id="Rectangle_922" x="0" y="0" width="215" height="215" filterUnits="userSpaceOnUse">
      <feOffset dy="2" input="SourceAlpha"/>
      <feGaussianBlur stdDeviation="5" result="blur"/>
      <feFlood flood-color="#ffa144" flood-opacity="0.2"/>
      <feComposite operator="in" in2="blur"/>
      <feComposite in="SourceGraphic"/>
    </filter>
  </defs>
  <g id="Group_10996" data-name="Group 10996" transform="translate(8948 -10955)">
    <g transform="matrix(1, 0, 0, 1, -8948, 10955)" filter="url(#Rectangle_922)">
      <rect id="Rectangle_922-2" data-name="Rectangle 922" width="177" height="177" rx="6" transform="translate(19 17)" fill="#fff" stroke="#ffa144" stroke-linecap="round" stroke-linejoin="round" stroke-width="8"/>
    </g>
    <g id="Rectangle_902" data-name="Rectangle 902" transform="translate(-8929 10972)" fill="#ffede2" stroke="#fff" stroke-linecap="round" stroke-linejoin="round" stroke-width="3">
      <rect width="177" height="177" rx="6" stroke="none"/>
      <rect x="1.5" y="1.5" width="174" height="174" rx="4.5" fill="none"/>
    </g>
    <g id="Flavour" transform="translate(6.03 188.954)" style="mix-blend-mode: luminosity;isolation: isolate">
      <path id="Path_28112" data-name="Path 28112" d="M129.955,2899.44s3.143,7.857,3.143,44c0,0,0,17.285-17.285,17.285h36.141s-17.285-1.571-17.285-17.285-1.571-31.428,1.571-44" transform="translate(-8977.999 7970.163)" fill="#fff" stroke="#000" stroke-miterlimit="10" stroke-width="1.746"/>
      <path id="Path_28113" data-name="Path 28113" d="M108,2853.06c2.5,44.992,18.483,47.954,24.826,47.319,6.343.635,22.322-2.327,24.826-47.319" transform="translate(-8977.999 7970.163)" fill="#fff" stroke="#000" stroke-miterlimit="10" stroke-width="1.792"/>
      <path id="Path_28114" data-name="Path 28114" d="M122.915,2893.1c-5.163-4.568-8.687-13.11-9.291-24.982,0,0,17.376,9.485,37.791-12.24a.346.346,0,0,1,.607.225c-.027,2.136-.152,7.865-.744,14.293a38.041,38.041,0,0,1-7.636,19.614,17.68,17.68,0,0,1-3.291,3.533,13.782,13.782,0,0,1-17.437-.443Z" transform="translate(-8977.999 7970.163)" fill="#bf2828" stroke="#000" stroke-miterlimit="10" stroke-width="1.715"/>
      <path id="Path_28115" data-name="Path 28115" d="M114.126,2868.12s-4.5-11.121,29.366-4.67C143.492,2863.45,130.253,2874.57,114.126,2868.12Z" transform="translate(-8977.999 7970.163)" fill="#ea5c5c" stroke="#000" stroke-miterlimit="10" stroke-width="1.792"/>
      <ellipse id="Ellipse_482" data-name="Ellipse 482" cx="24.826" cy="1.613" rx="24.826" ry="1.613" transform="translate(-8870.001 10822.166)" fill="none" stroke="#000" stroke-miterlimit="10" stroke-width="1.86"/>
    </g>
  </g>
</svg>
