<svg id="aroma_2" data-name="aroma 2" xmlns="http://www.w3.org/2000/svg" width="133.676" height="143.162" viewBox="0 0 133.676 143.162">
  <path id="Path_7440" data-name="Path 7440" d="M290.59,93.1a86.433,86.433,0,0,1-.736,10.388,77.124,77.124,0,0,1-7.051,23.535,69.7,69.7,0,0,1-14.7,20.273A61.5,61.5,0,0,1,245.883,161a57.257,57.257,0,0,1-10.217,2.555,59.928,59.928,0,0,1-9.063.675c-1.19,0-2.379.112-3.568.183a43.424,43.424,0,0,1-5.035,0c-1.46-.083-2.917-.19-4.37-.367a56.779,56.779,0,0,1-10.294-2.234,60.947,60.947,0,0,1-22.784-13.21,69.9,69.9,0,0,1-16.5-22.71,76.932,76.932,0,0,1-5.836-18.529,79.033,79.033,0,0,1-.734-23.7,77.273,77.273,0,0,1,7.029-24.46,69.832,69.832,0,0,1,14.984-20.76A61.614,61.614,0,0,1,200.74,25.132a56.6,56.6,0,0,1,11.216-2.886,50.368,50.368,0,0,1,7.276-.627q2.358-.009,4.707-.184a48.218,48.218,0,0,1,7.306.071,58.412,58.412,0,0,1,28.118,9.8,65.947,65.947,0,0,1,18.259,18.272A74.85,74.85,0,0,1,288.211,73.5a78.739,78.739,0,0,1,1.564,7.962A83.2,83.2,0,0,1,290.59,93.1Z" transform="translate(-156.914 -21.327)"/>
  <path id="Path_7441" data-name="Path 7441" d="M263.146,112.934a76.349,76.349,0,0,1,11.323-40.27,65.526,65.526,0,0,1,16.917-18.343,58.307,58.307,0,0,1,20.267-9.613,55.639,55.639,0,0,1,34.725,2.424,60.811,60.811,0,0,1,20.771,14.059,69.9,69.9,0,0,1,15.435,24.49,75.865,75.865,0,0,1,3.964,15.128,77.1,77.1,0,0,1,.891,14.736,76.153,76.153,0,0,1-7.27,30.179,68.279,68.279,0,0,1-14.764,20.521,60.037,60.037,0,0,1-22.232,13.53,55.615,55.615,0,0,1-11.3,2.551,54.9,54.9,0,0,1-10.7.243,56.28,56.28,0,0,1-20.189-5.425,61.754,61.754,0,0,1-19.284-14.511,70.81,70.81,0,0,1-14.474-24.889,75.817,75.817,0,0,1-3.211-13.236c-.363-2.41-.616-4.833-.739-7.27C263.195,115.778,263.14,114.317,263.146,112.934Z" transform="translate(-255.225 -41.386)" fill="#f79ba5"/>
  <path id="Path_7442" data-name="Path 7442" d="M192.279,622.014c.146-.63.3-1.258.435-1.892a75.536,75.536,0,0,1,3.021-10.428c.055-.151.09-.309.135-.464a1.155,1.155,0,0,1,.9-.45,28.857,28.857,0,0,0,3.2-.162.969.969,0,0,1,.891.254v0c.13.094.117.2.018.3-.078.171-.169.336-.232.512a79.392,79.392,0,0,0-3.308,12.379c-.024.133-.027.269-.04.4-.6.5-1.345.215-2.013.355a9.215,9.215,0,0,1-2.4.076C192.325,622.867,192.021,622.623,192.279,622.014Z" transform="translate(-189.557 -564.82)" fill="#de7480"/>
  <path id="Path_7443" data-name="Path 7443" d="M174.83,818.076c.048-.669.106-1.338.142-2.008.113-2.094.318-4.178.629-6.251.072-.478.156-.953.234-1.43a.389.389,0,0,1,.236-.209,35.441,35.441,0,0,1,4.24-.535c.625-.044.7.2.522,1.171a4.752,4.752,0,0,0-.245,1.423,70.061,70.061,0,0,0-.6,7.55,1.8,1.8,0,0,0,.027.239,5.4,5.4,0,0,0-.055,1.52c.006.431-.152.667-.577.7a19.017,19.017,0,0,1-4.175-.186.472.472,0,0,1-.454-.552A5.719,5.719,0,0,1,174.83,818.076Z" transform="translate(-173.415 -749.016)" fill="#de7480"/>
  <path id="Path_7444" data-name="Path 7444" d="M189.192,1139.087c-.2-.782-.394-1.562-.587-2.344a71.62,71.62,0,0,1-1.509-7.675c.452-.455,1.064-.3,1.6-.391.953-.163,1.931-.014,2.893-.141a.522.522,0,0,1,.5.2,7.808,7.808,0,0,1,.327,1.75,83.642,83.642,0,0,0,1.839,8.318,2.054,2.054,0,0,0,.131.294c.138.6-.35.563-.642.528-1.269-.155-2.541-.077-3.811-.132A.794.794,0,0,1,189.192,1139.087Z" transform="translate(-184.846 -1045.984)" fill="#de7480"/>
  <path id="Path_7445" data-name="Path 7445" d="M179.991,985.6c.007.567-.012,1.135.027,1.7.1,1.509.232,3.017.358,4.525a4.39,4.39,0,0,0,.116.553c.184,1.075.032,1.3-1.019,1.2-1.023-.1-2.045-.132-3.07-.15a.985.985,0,0,1-1.094-.754c-.07-.89-.146-1.778-.21-2.669-.087-1.214-.164-2.43-.248-3.645-.011-.161-.031-.322-.047-.484a7.429,7.429,0,0,1-.076-1.61c-.055-.64.306-.886.873-.9,1.191-.039,2.382-.026,3.573-.006.585.009.8.293.763.875A3.847,3.847,0,0,0,179.991,985.6Z" transform="translate(-173.393 -911.614)" fill="#de7480"/>
  <path id="Path_7446" data-name="Path 7446" d="M349.608,1549.171a29.187,29.187,0,0,1-2.213-2.356,66.939,66.939,0,0,1-5.331-6.911c-.075-.111-.159-.216-.239-.323-.021-.312.236-.351.428-.364a27.971,27.971,0,0,1,3.845,0,.727.727,0,0,1,.418.224c.3.126.422.4.584.65a66.785,66.785,0,0,0,4.322,5.851c.775.933,1.584,1.837,2.382,2.751a4.249,4.249,0,0,0,.353.325c0,.248-.186.331-.367.344a16.326,16.326,0,0,1-3.9-.048A.831.831,0,0,1,349.608,1549.171Z" transform="translate(-328.038 -1425.991)" fill="#de7480"/>
  <path id="Path_7447" data-name="Path 7447" d="M258.08,474.911a2.733,2.733,0,0,0-.452.757,72.683,72.683,0,0,0-3.467,7.564c-.1.251-.206.5-.31.746a.512.512,0,0,1-.426.2c-1.238-.113-2.482-.008-3.718-.1-.375-.028-.814-.117-.527-.7.307-.684.617-1.367.919-2.053q1.334-3.026,2.937-5.918c.078-.14.139-.289.208-.434a4.457,4.457,0,0,1,2.175-.454c.671-.064,1.349-.014,2.024-.078C257.747,474.414,258.193,474.318,258.08,474.911Z" transform="translate(-242.215 -440.639)" fill="#de7480"/>
  <path id="Path_7448" data-name="Path 7448" d="M274.432,1406.8a77.232,77.232,0,0,0,4.1,7.854c.152.252.326.49.49.735-.055.373-.371.389-.618.368a34.434,34.434,0,0,1-4.166-.5.957.957,0,0,1-.428-.219,76.472,76.472,0,0,1-4.008-7.365c-.068-.144-.156-.28-.235-.419,0-.446.343-.537.664-.54,1.1-.01,2.2-.13,3.3-.19A1.157,1.157,0,0,1,274.432,1406.8Z" transform="translate(-261.169 -1303.248)" fill="#de7480"/>
  <path id="Path_7449" data-name="Path 7449" d="M225.481,1293.928c-.05-.153-.09-.31-.152-.458-.845-2.023-1.619-4.072-2.292-6.158a3.761,3.761,0,0,0-.162-.369c-.147-.3-.087-.566.243-.638a17.708,17.708,0,0,1,4.42-.281c.078,0,.138.081.2.13.379,1.123.736,2.253,1.141,3.365.488,1.341,1.013,2.669,1.529,4,.077.2.189.385.285.577.132.387-.155.518-.411.51a22.256,22.256,0,0,1-4.38-.33A.668.668,0,0,1,225.481,1293.928Z" transform="translate(-217.886 -1191.715)" fill="#de7480"/>
  <path id="Path_7450" data-name="Path 7450" d="M328.625,351.205a3.894,3.894,0,0,0-.271.294,70.718,70.718,0,0,0-4.7,7.073c-.08.138-.136.29-.2.435a.708.708,0,0,1-.318.328h-.009a13.271,13.271,0,0,1-3.837-.129c-.372-.027-.59-.25-.344-.658.166-.243.339-.482.5-.73a65.534,65.534,0,0,1,4.835-6.773,10.6,10.6,0,0,1,4.076-.16C328.5,350.894,328.671,350.981,328.625,351.205Z" transform="translate(-306.768 -326.206)" fill="#de7480"/>
  <path id="Path_7451" data-name="Path 7451" d="M473.893,1693.007a55.782,55.782,0,0,1-5.62-4.073c-1.235-1-2.414-2.065-3.576-3.149-.157-.146-.325-.28-.487-.42-.131-.35.168-.445.364-.467a24.375,24.375,0,0,1,3.5-.159.652.652,0,0,1,.287.137c.254.241.515.475.762.724a64.213,64.213,0,0,0,7.946,6.76c.239.172.5.321.744.48.394.5-.123.52-.331.489C476.293,1693.147,475.058,1693.45,473.893,1693.007Z" transform="translate(-441.27 -1560.718)" fill="#de7480"/>
  <path id="Path_7452" data-name="Path 7452" d="M414.928,240.3c-.2.176-.413.343-.6.529a66.425,66.425,0,0,0-5.507,6.023c-.169.21-.342.416-.513.625-1.244.413-2.491,0-3.736,0-.232,0-.478-.151-.307-.485.308-.337.62-.669.922-1.01a65.449,65.449,0,0,1,5.4-5.445c.179-.16.342-.339.512-.509a7.593,7.593,0,0,1,3.407-.239C414.726,239.806,415.171,239.814,414.928,240.3Z" transform="translate(-385.766 -223.437)" fill="#de7480"/>
  <path id="Path_7453" data-name="Path 7453" d="M517.363,138.162c.491-.375.983-.748,1.472-1.125a61.312,61.312,0,0,1,8.244-5.369c.189-.1.367-.221.551-.333a5.871,5.871,0,0,1,2.311-.194c.2.041.756.038.268.506-.167.086-.341.162-.5.26a63.425,63.425,0,0,0-8.7,6.521,2.643,2.643,0,0,0-.214.241,1.909,1.909,0,0,1-.174.126v0a6.9,6.9,0,0,1-2.922-.131C517.458,138.629,517.235,138.492,517.363,138.162Z" transform="translate(-490.456 -122.901)" fill="#de7480"/>
  <path id="Path_7454" data-name="Path 7454" d="M634.415,1810.951a25,25,0,0,0,2.749,1.691,46.562,46.562,0,0,0,4.686,2.364c-.089.522-.522.359-.822.376-.865.051-1.662-.377-2.521-.4-.143-.071-.282-.151-.429-.211a60.308,60.308,0,0,1-6.593-3.181c-.138-.078-.291-.131-.437-.2-.2-.337.063-.469.289-.479C632.363,1810.872,633.395,1810.536,634.415,1810.951Z" transform="translate(-595.635 -1677.339)" fill="#dd737f"/>
  <path id="Path_7455" data-name="Path 7455" d="M694.6,76.843c-.441.2-.88.4-1.323.6-1.653.725-3.267,1.529-4.849,2.4-.259.142-.526.27-.789.405-.374-.059-.738.154-1.113.042-.295-.088-.66-.082-.723-.5.715-.308,1.428-.619,2.145-.923a55.458,55.458,0,0,1,5.682-2.067c.153-.046.312-.073.469-.109C694.3,76.631,694.539,76.462,694.6,76.843Z" transform="translate(-646.373 -72.479)" fill="#da727e"/>
  <path id="Path_7456" data-name="Path 7456" d="M182.546,1104.9a.641.641,0,0,0,.658.477c.807.029,1.614.066,2.42.1.591.028,1.182.067,1.773.089.278.01.34-.059.339-.32,0-.214,0-.429-.008-.644a.461.461,0,0,1,.168.418q-.009.786-.021,1.573l-5,.331c-.111-.57-.225-1.139-.33-1.709A1.825,1.825,0,0,1,182.546,1104.9Z" transform="translate(-180.63 -1023.838)" fill="#100809"/>
  <path id="Path_7457" data-name="Path 7457" d="M194.136,791.087a3.981,3.981,0,0,1,0-.4c.065-.6.034-.625-.609-.552-1.013.114-2.023.25-3.034.373-.453.055-.906.1-1.359.153a.935.935,0,0,1,0-.319,3.525,3.525,0,0,0,.136-1.27c0-.211-.038-.436.171-.588v.556a27.134,27.134,0,0,0,5.018-.1,2.064,2.064,0,0,0-.153.854c.016.318,0,.637,0,.956A.408.408,0,0,1,194.136,791.087Z" transform="translate(-186.717 -731.289)" fill="#100809"/>
  <path id="Path_7458" data-name="Path 7458" d="M326.477,1520.76c1.281.144,2.563.29,3.844.43.373.041.749.066,1.124.089a.242.242,0,0,0,.243-.171c.19.447.57.8.625,1.313a19.366,19.366,0,0,1-2.485.028q-.924-.012-1.847-.022a.4.4,0,0,0-.358.133Z" transform="translate(-313.835 -1408.972)" fill="#0f0708"/>
  <path id="Path_7459" data-name="Path 7459" d="M220.723,1271.472l-4.533.3c-.3.021-.3.027-.331.486-.048-.063-.137-.128-.136-.191a3.685,3.685,0,0,0-.469-1.7.794.794,0,0,1-.036-.238.718.718,0,0,0,.519.176c.566.012,1.131.039,1.7.055.862.025,1.724.042,2.586.07.217.007.368-.048.394-.289a.49.49,0,0,1,.159.491A1.8,1.8,0,0,0,220.723,1271.472Z" transform="translate(-210.871 -1177.032)" fill="#110809"/>
  <path id="Path_7460" data-name="Path 7460" d="M178.9,951.956a2.147,2.147,0,0,1-.1-.874c-.017-.3-.014-.592-.029-.887a.249.249,0,0,0-.255-.252,2.233,2.233,0,0,0-.242-.011c-1.372.032-2.743.061-4.115.1-.369.01-.424.073-.431.428-.011.591-.012,1.182-.017,1.773-.045-.066-.127-.131-.128-.2a7.063,7.063,0,0,1,.082-2.167,1.336,1.336,0,0,0,0-.8,5.251,5.251,0,0,1-.08-1.843c0-.067.085-.13.131-.2q.011.767.021,1.534a.282.282,0,0,0,.3.3c.484.025.969.051,1.453.061.971.02,1.941.036,2.912.042.314,0,.365-.06.38-.386s.011-.647.023-.971a1.329,1.329,0,0,1,.093-.633,7.156,7.156,0,0,1-.11,2.327.552.552,0,0,0,0,.318A7.169,7.169,0,0,1,178.9,951.956Z" transform="translate(-172.304 -877.972)" fill="#12090a"/>
  <path id="Path_7461" data-name="Path 7461" d="M305.99,455.154c-.01.407-.011.417.264.439.935.076,1.871.143,2.806.215a3.914,3.914,0,0,1,1.112.134,3.032,3.032,0,0,0-.343.969c0,.059-.1.114-.15.171-.031-.072-.044-.169-.1-.209a.374.374,0,0,0-.233-.038c-1.5.118-3.009.118-4.5.312a6.838,6.838,0,0,0,1.026-1.9C305.878,455.2,305.948,455.183,305.99,455.154Z" transform="translate(-293.813 -422.811)" fill="#11080a"/>
  <path id="Path_7462" data-name="Path 7462" d="M600.645,1795l-3.121.2a.228.228,0,0,0-.245.249l-2.791-1.769,3.487.117a2.879,2.879,0,0,0,.325.005c.227-.019.144-.166.111-.289.078.02.184.013.229.063a5.777,5.777,0,0,0,1.966,1.357C600.626,1794.936,600.632,1794.973,600.645,1795Z" transform="translate(-561.865 -1661.385)" fill="#110809"/>
  <path id="Path_7463" data-name="Path 7463" d="M258.77,1392.32a.743.743,0,0,0,.432.2c.3.024.59.078.886.1,1.051.066,2.1.124,3.155.182a4.113,4.113,0,0,0,.566,0c.186-.015.153-.183.174-.307l.456,1.165-4.441.162c-.2.007-.371.069-.424.294-.047-.063-.13-.122-.136-.188a2.486,2.486,0,0,0-.494-1.168A.713.713,0,0,1,258.77,1392.32Z" transform="translate(-251.176 -1290.107)" fill="#110809"/>
  <path id="Path_7464" data-name="Path 7464" d="M451.753,1672.645c-1.208.077-2.416.151-3.623.233-.2.014-.445-.018-.531.255a13.466,13.466,0,0,1-1.37-1.467c1.042.02,2.085.043,3.127.06.374.006.749,0,1.123,0a.283.283,0,0,0,.3-.21A8.265,8.265,0,0,1,451.753,1672.645Z" transform="translate(-424.659 -1548.486)" fill="#12090a"/>
  <path id="Path_7465" data-name="Path 7465" d="M242.249,594.61c0,.027,0,.054,0,.081.01.36.014.37.24.387.161.012.322.016.484.021l3.951.111-.331.712-4.289.2a1.334,1.334,0,0,0-.7.157,3.46,3.46,0,0,0,.495-1.5C242.1,594.722,242.194,594.667,242.249,594.61Z" transform="translate(-235.285 -551.87)" fill="#130809"/>
  <path id="Path_7466" data-name="Path 7466" d="M392.733,337.356c.016.1,0,.224.133.257a1.671,1.671,0,0,0,.317.033l3.593.193a1.492,1.492,0,0,0-.51.8c-.014.062-.111.1-.169.156-.062-.194-.223-.212-.388-.211q-.809,0-1.618.014c-.781.011-1.563.025-2.344.037a.273.273,0,0,1,.036-.07A6.316,6.316,0,0,0,392.733,337.356Z" transform="translate(-374.239 -313.795)" fill="#150b0d"/>
  <path id="Path_7467" data-name="Path 7467" d="M498.2,226.024c0,.2.127.275.307.295q.919.1,1.837.2c.372.042.745.089,1.117.133a4.277,4.277,0,0,0-.8.88c-.028.054-.139.065-.212.1,0-.1.034-.236-.1-.261a3.377,3.377,0,0,0-.555-.041c-.851-.02-1.7-.031-2.554-.058a2.053,2.053,0,0,0-.627.09c.191-.3.594-.3.8-.6a6.232,6.232,0,0,1,.631-.7C498.085,226.032,498.153,226.036,498.2,226.024Z" transform="translate(-471.297 -210.763)" fill="#130a0b"/>
  <path id="Path_7468" data-name="Path 7468" d="M786.456,1881.476a17.8,17.8,0,0,1-2.76-.586c-.99-.25-1.966-.56-2.949-.84-.128-.037-.262-.053-.394-.079.087-.519.516-.4.814-.372a15.112,15.112,0,0,1,1.579.209,29.477,29.477,0,0,0,3,1.14c.3.11.6.221.9.332C786.686,1881.445,786.632,1881.519,786.456,1881.476Z" transform="translate(-733.874 -1741.029)" fill="#d36f7b"/>
  <path id="Path_7469" data-name="Path 7469" d="M737.97,1868.729c-.664-.007-1.328-.015-1.991-.018-.156,0-.325,0-.4.181-.079-.008-.18.013-.233-.028a13.4,13.4,0,0,0-2.487-1.033,1.55,1.55,0,0,0-.548-.065.4.4,0,0,1-.338-.171c.941.052,1.881.107,2.822.153.182.009.383.05.521-.132l.97.517a3.283,3.283,0,0,0,1.422.444A.36.36,0,0,1,737.97,1868.729Z" transform="translate(-689.097 -1729.95)" fill="#150b0d"/>
  <path id="Path_7470" data-name="Path 7470" d="M657.8,119.244a.266.266,0,0,0,.222.192c.283.047.567.089.851.128a1.841,1.841,0,0,1,.763.142,3.842,3.842,0,0,0-1.286.935c-.037.047-.15.034-.228.049.022-.109.166-.272-.084-.278-.831-.019-1.663-.024-2.495-.034.26-.264.653-.188.951-.384C656.909,119.719,657.359,119.492,657.8,119.244Z" transform="translate(-618.365 -111.944)" fill="#12090a"/>
  <path id="Path_7471" data-name="Path 7471" d="M797.575,71.258c-.123-.191-.33-.121-.5-.162a6.322,6.322,0,0,1,1.76-.507c.129-.056.2-.014.2.127A8.316,8.316,0,0,1,797.575,71.258Z" transform="translate(-749.348 -66.894)" fill="#ae636d"/>
  <path id="Path_7472" data-name="Path 7472" d="M880.371,1907.23l.837.247c-.508.073-.837.131-1.147-.083l.039-.088A.631.631,0,0,0,880.371,1907.23Z" transform="translate(-826.147 -1766.629)" fill="#50282c"/>
  <path id="Path_7473" data-name="Path 7473" d="M862.2,1902.659l.188-.2a1.384,1.384,0,0,1,.649.164.129.129,0,0,1,.049.127c-.01.045-.022.068-.036.068a.289.289,0,0,1-.22-.014A.943.943,0,0,1,862.2,1902.659Z" transform="translate(-809.622 -1762.212)" fill="#b26772"/>
  <path id="Path_7474" data-name="Path 7474" d="M833.479,64.885a.369.369,0,0,1,.351-.15.612.612,0,0,1,.147.048c-.016.04-.022.1-.052.117a.721.721,0,0,1-.448.155c-.056-.038-.075-.076-.055-.114S833.46,64.885,833.479,64.885Z" transform="translate(-782.98 -61.495)" fill="#2c1c1f"/>
  <path id="Path_7475" data-name="Path 7475" d="M820.876,69.089l-.2-.127a.666.666,0,0,1,.53-.155l.054.06a.105.105,0,0,1-.077.128Z" transform="translate(-771.193 -65.266)" fill="#745a63"/>
  <path id="Path_7476" data-name="Path 7476" d="M870.654,1906.03l.205-.038a.411.411,0,0,1,.4,0l.071.008c.057.023.08.051.066.084s-.029.054-.046.054v.059A1.256,1.256,0,0,1,870.654,1906.03Z" transform="translate(-817.442 -1765.435)" fill="#a23f44"/>
  <path id="Path_7477" data-name="Path 7477" d="M828.142,66.792c0,.057,0,.113,0,.17a.716.716,0,0,1-.142.008.272.272,0,0,1-.35,0l.011-.027C827.783,66.773,827.97,66.807,828.142,66.792Z" transform="translate(-777.643 -63.402)" fill="#54474e"/>
  <path id="Path_7478" data-name="Path 7478" d="M376.451,461.625l.318-.328C376.775,461.515,376.683,461.638,376.451,461.625Z" transform="translate(-360.084 -428.496)" fill="#11080a"/>
  <path id="Path_7479" data-name="Path 7479" d="M308.544,612.447l-.018-.3C308.739,612.232,308.714,612.336,308.544,612.447Z" transform="translate(-297.223 -568.095)" fill="#130809"/>
  <path id="Path_7480" data-name="Path 7480" d="M827.5,69.166h.35a.375.375,0,0,1-.362.161C827.49,69.274,827.494,69.22,827.5,69.166Z" transform="translate(-777.493 -65.6)" fill="#722023"/>
  <path id="Path_7481" data-name="Path 7481" d="M873.81,1904.819l-.4,0a.357.357,0,0,0,0-.142A.443.443,0,0,1,873.81,1904.819Z" transform="translate(-819.989 -1764.258)" fill="#6d5e68"/>
  <path id="Path_7482" data-name="Path 7482" d="M879.8,1906.944a.677.677,0,0,0-.02-.138l.331.032A.277.277,0,0,1,879.8,1906.944Z" transform="translate(-825.891 -1766.236)" fill="#785c65"/>
  <path id="Path_7483" data-name="Path 7483" d="M561.575,232.942a.165.165,0,0,1,.174-.126A.175.175,0,0,1,561.575,232.942Z" transform="translate(-531.406 -217.048)" fill="#130a0b"/>
  <path id="Path_7484" data-name="Path 7484" d="M404.711,138.79a2.513,2.513,0,0,0,1.516.1,5.559,5.559,0,0,1,1.124-.1c.487,0,.975,0,1.462,0a1.8,1.8,0,0,1,.486.013,10.1,10.1,0,0,0,2.258.151,41.681,41.681,0,0,1,3.76.472,26.106,26.106,0,0,1,3.178.561,39.746,39.746,0,0,1,4.992,1.353c1.08.339,2.13.775,3.19,1.179a54.627,54.627,0,0,1,5.644,2.669c.886.459,1.725,1.006,2.581,1.521a43.552,43.552,0,0,1,4.257,2.947c.766.6,1.494,1.239,2.268,1.824.673.509,1.211,1.163,1.863,1.682a20.546,20.546,0,0,1,2.174,2.065q1.189,1.268,2.326,2.587c.6.7,1.186,1.4,1.754,2.119.418.529.856,1.044,1.242,1.6,1.113,1.593,2.236,3.179,3.208,4.867.89,1.546,1.8,3.08,2.571,4.69.617,1.291,1.206,2.6,1.745,3.923.62,1.527,1.217,3.061,1.732,4.626a61.729,61.729,0,0,1,1.695,6.076c.282,1.286.569,2.575.737,3.886.113.879.359,1.744.428,2.625a11.806,11.806,0,0,1,.2,2.01c.312.94.011,1.945.3,2.889a1.705,1.705,0,0,1,.014.485q0,3.656,0,7.311a2.376,2.376,0,0,1-.092.883.741.741,0,0,0-.055.317,17.924,17.924,0,0,1-.186,2.662c-.041.642-.16,1.28-.261,1.917-.071.452-.118.906-.191,1.358a63.245,63.245,0,0,1-1.75,8.045c-.316,1.06-.606,2.129-.956,3.177q-.834,2.5-1.878,4.917c-.651,1.515-1.333,3.016-2.087,4.483-.208.4-.449.789-.676,1.183a1.176,1.176,0,0,1-.2-.195.668.668,0,0,0-.369-.113.776.776,0,0,1-.315-.1c-.3-.368.01-.658.146-.949.612-1.31,1.338-2.565,1.882-3.908a1.844,1.844,0,0,1,.089-.218q.838-1.8,1.51-3.663a1.8,1.8,0,0,0,.094-.713,38.371,38.371,0,0,0,1.295-5.11c.418-3.219.9-6.426,1.06-9.679.121-2.539.369-5.075.284-7.619a73.889,73.889,0,0,0-1.282-12.906,43.05,43.05,0,0,0-4.345-11.171c-1.663-3.137-3.518-6.158-5.393-9.168a35.457,35.457,0,0,0-7.041-8.218,42.746,42.746,0,0,0-3.564-3.07,63.8,63.8,0,0,0-12.522-6.667,54.476,54.476,0,0,0-12.071-3.487,49.063,49.063,0,0,0-8.085-.587,37.635,37.635,0,0,0-12.786,2.781,60.172,60.172,0,0,0-16.626,9.707,40.65,40.65,0,0,0-11.976,15.827,68.652,68.652,0,0,0-4.747,17.008,65.1,65.1,0,0,0-.5,12.639,69.989,69.989,0,0,0,3.766,19.392,67.191,67.191,0,0,0,8.624,16.965,32.182,32.182,0,0,0,4.877,5.1,49.16,49.16,0,0,0,11.876,8.023,50.951,50.951,0,0,0,15.84,4.619,54.648,54.648,0,0,0,9,.261,45.372,45.372,0,0,0,10.688-1.928,69,69,0,0,0,7.691-2.843,29.377,29.377,0,0,0,5.467-3.49c2.116-1.508,4.212-3.053,6.224-4.7a39.879,39.879,0,0,0,5.373-5.409c.257-.31.471-.672.91-.765.474.369.019.622-.146.855a52.478,52.478,0,0,1-3.648,4.567,53.458,53.458,0,0,1-8.241,7.8,28,28,0,0,1-4.6,2.73,4.874,4.874,0,0,0-.575.3c-.2.13-.468.252-.372.552.088.274.356.177.563.178a.47.47,0,0,1,.37.126,3.172,3.172,0,0,1-1,.658c-1.293.682-2.591,1.357-3.921,1.962A44.477,44.477,0,0,1,424.045,261c-1.334.439-2.667.884-4.032,1.21a35.021,35.021,0,0,1-3.717.755c-.479.061-.949.192-1.427.265-.5.078-1.019.143-1.522.178a18.149,18.149,0,0,1-2.742.2,2.673,2.673,0,0,0-1.124.107,1.783,1.783,0,0,1-.564.039c-.6,0-1.192,0-1.787,0a2.267,2.267,0,0,1-.8-.087,2.854,2.854,0,0,0-.886-.066c-.7-.032-1.395-.026-2.1-.118-.662-.086-1.331-.2-2.007-.221a9.97,9.97,0,0,1-1.279-.178,52.412,52.412,0,0,1-5.909-1.329q-2.487-.721-4.9-1.681a59.8,59.8,0,0,1-5.788-2.746,44.409,44.409,0,0,1-4.271-2.639c-1.359-.928-2.692-1.889-3.955-2.949q-1.4-1.172-2.738-2.4c-.556-.511-1.15-.986-1.659-1.544-.89-.977-1.826-1.913-2.657-2.945-.423-.525-.9-1.005-1.331-1.524-.379-.456-.738-.929-1.086-1.409-.807-1.114-1.636-2.214-2.394-3.361a49.957,49.957,0,0,1-3.171-5.369c-.191-.387-.448-.742-.632-1.131-.924-1.953-1.833-3.913-2.611-5.932-.613-1.59-1.15-3.2-1.643-4.833-.648-2.141-1.18-4.312-1.625-6.507-.23-1.135-.418-2.277-.584-3.419-.084-.582-.146-1.181-.238-1.759a14.759,14.759,0,0,0-.26-2.243.437.437,0,0,1-.021-.161c.079-1.058-.191-2.094-.179-3.15.023-1.976.008-3.953.009-5.93.679.135.739-.372.823-.819.379-1.995.676-4,1.068-6a81.74,81.74,0,0,1,5.709-18.17,66.6,66.6,0,0,1,6.7-11.49,62,62,0,0,1,8.845-9.708,51.733,51.733,0,0,1,11.184-7.609,50.327,50.327,0,0,1,11.9-4.272,43.462,43.462,0,0,1,5.039-.87A1.428,1.428,0,0,0,404.711,138.79Z" transform="translate(-337.829 -130.014)" fill="#df7681"/>
  <path id="Path_7485" data-name="Path 7485" d="M403.081,139.022c-.015.443-.019.47-.328.517-.615.094-1.234.16-1.85.25a51.014,51.014,0,0,0-24.586,10.657,60.12,60.12,0,0,0-14.8,17.3,72.1,72.1,0,0,0-7,16.905,92.047,92.047,0,0,0-2.3,10.7c-.124.8-.289,1.6-.438,2.394a3.429,3.429,0,0,1-.116.47c-.235.692-.36.71-.881.135a2.376,2.376,0,0,1-.1-1.274,76.889,76.889,0,0,1,6.891-25.147,63.176,63.176,0,0,1,11.038-16.443,51.755,51.755,0,0,1,21.758-14.105,46.015,46.015,0,0,1,9.322-2.083A27.6,27.6,0,0,1,403.081,139.022Z" transform="translate(-336.199 -130.247)" fill="#0e0708"/>
  <path id="Path_7486" data-name="Path 7486" d="M1423.59,1431.152c-.184.035-.37.066-.553.1a.828.828,0,0,1-.476-.04.416.416,0,0,1-.21-.655,1.558,1.558,0,0,1,.353-.326,2.5,2.5,0,0,1,.431-.223,27.7,27.7,0,0,0,6.294-3.946,55.624,55.624,0,0,0,7.142-7.047q1.777-2.053,3.383-4.243a1.809,1.809,0,0,0,.414-.685,15.984,15.984,0,0,1,1.681-2.671c.626-.851,1.175-1.751,1.734-2.646.21-.336.363-.744.825-.837l.257,0c.144.126.41-.042.5.209q.006.125.012.251a6.051,6.051,0,0,1-.427.959,69.649,69.649,0,0,1-10.137,13.354,49.035,49.035,0,0,1-6.352,5.549,28.89,28.89,0,0,1-4.6,2.734C1423.771,1431.035,1423.683,1431.1,1423.59,1431.152Z" transform="translate(-1327.926 -1304.558)" fill="#010000"/>
  <path id="Path_7487" data-name="Path 7487" d="M540.828,327.791a19.5,19.5,0,0,1-1.79,2.562,1.309,1.309,0,0,0-.606.522c-.3.388-.645.731-.93,1.12a8.7,8.7,0,0,1-.858.969c-.781.789-1.576,1.565-2.349,2.362a20.832,20.832,0,0,1-1.846,1.573c-1.4,1.143-2.878,2.185-4.316,3.277-.751.571-1.5,1.144-2.289,1.667-.9.6-1.766,1.24-2.646,1.864a15.038,15.038,0,0,1-2.369,1.241c-.61.287-1.238.536-1.863.791-.575.235-1.151.466-1.734.68a56.6,56.6,0,0,1-6.579,1.991c-1.39.327-2.785.606-4.2.814-.906.133-1.813.226-2.721.329-2.4.273-4.811.065-7.215.134a2.06,2.06,0,0,1-.8-.1,1.145,1.145,0,0,0-.4-.057,23.6,23.6,0,0,1-2.887-.306c-1.421-.169-2.809-.476-4.2-.776a47.073,47.073,0,0,1-5.824-1.691c-1.067-.378-2.1-.861-3.154-1.272a26.442,26.442,0,0,1-2.856-1.359c-1.262-.673-2.515-1.363-3.716-2.149-1.333-.872-2.662-1.747-3.914-2.729-.784-.615-1.554-1.251-2.317-1.894-1.557-1.312-2.9-2.834-4.375-4.229a8.888,8.888,0,0,1-1.274-1.568c-.881-1.328-1.779-2.645-2.62-4-.6-.962-1.135-1.965-1.667-2.967-.5-.932-.959-1.882-1.418-2.832a50.5,50.5,0,0,1-2.058-4.845c-.4-1.118-.846-2.222-1.217-3.349A68.57,68.57,0,0,1,450,306.944c-.35-1.573-.678-3.155-.879-4.761a21.507,21.507,0,0,1-.313-2.561c-.253-.585-.058-1.24-.285-1.833a1.551,1.551,0,0,1-.028-.484,6.5,6.5,0,0,0-.145-1.852,1.626,1.626,0,0,1-.017-.485q0-3.453,0-6.906a2.4,2.4,0,0,1,.106-.881.954.954,0,0,0,.047-.4,12.083,12.083,0,0,1,.189-2.66c.148-1.01.244-2.027.413-3.036.165-.982.366-1.957.537-2.937.27-1.541.684-3.049,1.083-4.559.372-1.411.852-2.789,1.334-4.165.447-1.274.927-2.533,1.475-3.77.636-1.437,1.357-2.829,2.062-4.23.364-.722.789-1.415,1.211-2.106.437-.714.911-1.4,1.357-2.112a14.422,14.422,0,0,1,2.037-2.51,9.043,9.043,0,0,0,1.308-1.437,1.669,1.669,0,0,1,.522-.505,5,5,0,0,0,.913-.8,47.455,47.455,0,0,1,3.768-3.311,62.667,62.667,0,0,1,5.268-3.762c.769-.5,1.585-.927,2.368-1.406,1.087-.666,2.252-1.18,3.379-1.767,1.393-.726,2.855-1.29,4.308-1.876,1.429-.577,2.9-1.04,4.37-1.493,1.107-.341,2.225-.66,3.357-.9.571-.121,1.172-.169,1.757-.246.863-.114,1.736-.03,2.58-.165a24.225,24.225,0,0,1,3.154-.126,2.556,2.556,0,0,1,1.122.115.533.533,0,0,0,.24.031,18.3,18.3,0,0,1,2.824.181c.642.053,1.276.183,1.916.259,1.26.148,2.484.477,3.723.728.712.144,1.407.372,2.106.573,1.87.538,3.689,1.215,5.5,1.914,1.336.514,2.662,1.056,3.968,1.634a41.84,41.84,0,0,1,3.835,1.943c.844.483,1.7.953,2.531,1.45,1.533.912,3,1.923,4.433,2.979a2.608,2.608,0,0,1,.239.22c2.062,1.954,4.125,3.906,6.114,5.936a4.723,4.723,0,0,1,.9,1.239,8.258,8.258,0,0,0,1.409,2.068,3.29,3.29,0,0,1,.6.86,23.339,23.339,0,0,0,1.832,2.962c.535.814,1.032,1.646,1.494,2.5.7,1.308,1.476,2.579,2.169,3.893a39.307,39.307,0,0,1,1.933,4.022c.677,1.736,1.35,3.473,1.909,5.252a13.851,13.851,0,0,1,.6,2.758c.087.854.258,1.7.419,2.545a5.272,5.272,0,0,0,.192,1.439c-.048.814.238,1.6.191,2.417a3.409,3.409,0,0,0,.117,1.286,2.749,2.749,0,0,1,.038.726,9.076,9.076,0,0,0,.148,2.339,1.439,1.439,0,0,1,.011.4q0,2.112,0,4.225a2.759,2.759,0,0,1-.088.8,2.666,2.666,0,0,0-.065.641,11.778,11.778,0,0,1-.151,2.583,3.007,3.007,0,0,0-.015.648,6.468,6.468,0,0,1-.141,1.852,2,2,0,0,0-.023.566,2.469,2.469,0,0,1-.1.881,1.158,1.158,0,0,0-.054.4,17.4,17.4,0,0,1-.3,2.481c-.087.558-.113,1.125-.2,1.683-.148.956-.315,1.91-.485,2.863a24.245,24.245,0,0,1-1.128,3.713,9.382,9.382,0,0,1-.891,2.61c-.233.595-.464,1.2-.747,1.772l0,0A68.66,68.66,0,0,1,540.828,327.791Z" transform="translate(-426.594 -220.82)" fill="#f7949f"/>
  <path id="Path_7488" data-name="Path 7488" d="M1689.063,1350.662a.514.514,0,0,1,.087-.381,71.384,71.384,0,0,0,3.99-7.365,1.872,1.872,0,0,1,.449-.752,1.415,1.415,0,0,1-.245.83q-.916,1.826-1.827,3.655c-.066.132-.191.28,0,.421a2.212,2.212,0,0,0-.482.643c-.49.776-.976,1.553-1.471,2.326A1.7,1.7,0,0,1,1689.063,1350.662Z" transform="translate(-1574.83 -1243.691)" fill="#d1717b"/>
  <path id="Path_7489" data-name="Path 7489" d="M1749.82,1287.81a3.743,3.743,0,0,1,.5-1.441c.414-.968.776-1.954,1.136-2.942a.283.283,0,0,1,.123.349q-.479,1.237-.969,2.47c-.108.274-.214.55-.341.815A1.719,1.719,0,0,1,1749.82,1287.81Z" transform="translate(-1631.063 -1189.333)" fill="#d1717b"/>
  <path id="Path_7490" data-name="Path 7490" d="M1725.964,1407.932l-.5-.209C1725.667,1407.7,1725.883,1407.652,1725.964,1407.932Z" transform="translate(-1608.521 -1304.346)" fill="#d1717b"/>
  <path id="Path_7491" data-name="Path 7491" d="M863.438,370.566a31.533,31.533,0,0,1-.2,3.481,27.18,27.18,0,0,1-.641,4,47.6,47.6,0,0,1-8.405,17.941,40.1,40.1,0,0,1-4.445,5.049,23.315,23.315,0,0,1-4.277,3.336,7.578,7.578,0,0,1-1.29.633,1.385,1.385,0,0,1,.314-.606,18.2,18.2,0,0,0,2.415-5.026,28.241,28.241,0,0,0,.943-4.1,38.127,38.127,0,0,0,.488-6.46c-.011-.948-.028-1.9-.007-2.843a39.6,39.6,0,0,0-.223-4.13c-.139-1.693-.342-3.383-.566-5.07q-.49-3.695-1.141-7.361c-.33-1.861-.694-3.717-.968-5.586-.207-1.415-.429-2.828-.557-4.256-.133-1.48-.223-2.963-.34-4.444-.2-2.517-.087-5.031-.1-7.547.186-1.068.079-2.159.258-3.23.106-.638.1-1.29.179-1.936a48.47,48.47,0,0,1,1.074-5.975,34.684,34.684,0,0,1,2.982-7.869,45.131,45.131,0,0,1,3.17-5.1c1.048-1.48,2.185-2.89,3.341-4.285.466-.562.962-1.1,1.447-1.646,1.634-1.846,3.373-3.592,5.158-5.289,1.293-1.229,2.606-2.44,3.985-3.576,1.127-.929,2.235-1.879,3.356-2.815.394-.328.8-.641,1.2-.96.433-.119.522-.862,1.148-.63a.328.328,0,0,1,.01.233,1.33,1.33,0,0,1-.113.226c-.022.038-.045.073-.067.112-.044.08-.092.156-.143.231-4.7,5.863-6.694,12.777-7.738,20.046a91.98,91.98,0,0,0-.859,10.99c-.045,1.972-.206,3.949-.108,5.917.188,3.806.195,7.617.419,11.423.167,2.83.274,5.668.4,8.5.107,2.488.141,4.973.136,7.461C863.667,369.8,863.75,370.227,863.438,370.566Z" transform="translate(-792.939 -283.13)" fill="#fff"/>
  <path id="Path_7492" data-name="Path 7492" d="M1090.289,370.524q-.005-3.007-.011-6.013a3.457,3.457,0,0,0-.111-1.125,2.118,2.118,0,0,1-.042-.645c-.006-.731,0-1.463-.009-2.194a3.326,3.326,0,0,0-.107-1.044,2.184,2.184,0,0,1-.047-.644c-.007-.6,0-1.192-.009-1.788a3.148,3.148,0,0,0-.1-.964,2.268,2.268,0,0,1-.052-.643c-.008-.542,0-1.084-.008-1.625a3.166,3.166,0,0,0-.1-.964,2.265,2.265,0,0,1-.056-.642c-.008-.6,0-1.192-.01-1.788a5.425,5.425,0,0,0-.128-1.611,2.243,2.243,0,0,1-.027-.646c0-1.138,0-2.275-.01-3.413a4.7,4.7,0,0,0-.122-1.449,2.185,2.185,0,0,1-.03-.646q0-2.4,0-4.795a3.12,3.12,0,0,1,.1-.963,2.237,2.237,0,0,0,.048-.644c.007-.7,0-1.409.009-2.113a6.34,6.34,0,0,1,.132-1.773,2.91,2.91,0,0,0,.028-.728,5.825,5.825,0,0,1,.135-1.691,2.053,2.053,0,0,0,.028-.565,2.934,2.934,0,0,1,.123-1.122.687.687,0,0,0,.032-.24c.027-.891.211-1.763.307-2.644a56.711,56.711,0,0,1,1.684-8.306,29.761,29.761,0,0,1,1.405-4.057c.36-.845.679-1.713,1.112-2.519a30.064,30.064,0,0,1,2.2-3.684c.528-.716,1.06-1.429,1.59-2.143.055-.053.1-.112.161-.165h0c.055-.054.107-.11.162-.163h0c.071-.131.152-.241.328-.163a1.405,1.405,0,0,1-.154.623,22.349,22.349,0,0,0-1.14,3.966c-.244,1.187-.483,2.381-.613,3.584a25.073,25.073,0,0,0-.227,3.638,6.255,6.255,0,0,1-.092,1.372,3.62,3.62,0,0,0-.014,1.293,14.816,14.816,0,0,1,.117,2.509c.023,1.19.167,2.366.291,3.547.067.643.1,1.29.2,1.932.1.665.178,1.335.28,2,.175,1.146.351,2.291.548,3.433q.234,1.355.521,2.7c.479,2.243.975,4.482,1.574,6.7.493,1.824.973,3.653,1.505,5.466.631,2.151,1.318,4.286,1.97,6.432.66,2.171,1.327,4.339,1.954,6.519.5,1.737.889,3.5,1.24,5.278.272,1.375.518,2.755.767,4.134a10.247,10.247,0,0,1,.192,1.36,13.789,13.789,0,0,1,.193,1.851,18.822,18.822,0,0,1,.271,2.493,13.024,13.024,0,0,1,.058,2.108,8.331,8.331,0,0,0,.1,1.372,3.331,3.331,0,0,1,0,1.211,8.416,8.416,0,0,0-.106,1.534,22.182,22.182,0,0,1-.5,4.09,18.579,18.579,0,0,1-1.414,4.216,16.81,16.81,0,0,1-1.839,2.958,20.09,20.09,0,0,1-2.582,2.906c-.72.652-1.474,1.268-2.233,1.876a30.4,30.4,0,0,1-3.824,2.587,27.545,27.545,0,0,1-3.665,1.911,11.266,11.266,0,0,1-1.335.584l-.181.137-.152.019c-.171.058-.205-.025-.177-.172l.006,0a.618.618,0,0,0,.163-.161,12.031,12.031,0,0,0,1.288-1.662,10.582,10.582,0,0,0,1.01-2.291,14.937,14.937,0,0,0,.575-2.521,14.076,14.076,0,0,0,.223-2.172c-.015-.974,0-1.949,0-2.924a39.33,39.33,0,0,0-.285-3.952c-.065-.671-.184-1.336-.219-2.011a9.16,9.16,0,0,0-.18-1.28c-.216-1.111-.386-2.23-.58-3.344-.431-2.472-1.011-4.911-1.522-7.365-.1-.475-.2-.949-.325-1.419A1.374,1.374,0,0,0,1090.289,370.524Z" transform="translate(-1019.791 -283.088)" fill="#e0e0e0"/>
  <path id="Path_7493" data-name="Path 7493" d="M1199.859,292.034l-.328.163c-.062-.1-.161-.16-.256-.1a3.058,3.058,0,0,0-.407.354.666.666,0,0,1-.472.232,7.888,7.888,0,0,1,1.754-1.647.136.136,0,0,1,.132.012.175.175,0,0,1,.04.145A2.522,2.522,0,0,1,1199.859,292.034Z" transform="translate(-1120.75 -270.921)" fill="#f3f2f2"/>
  <path id="Path_7494" data-name="Path 7494" d="M1097.86,1621.21l.177.172c-.085.054-.165.141-.256.155-.146.022-.268.185-.452.071C1097.419,1621.359,1097.682,1621.338,1097.86,1621.21Z" transform="translate(-1027.217 -1501.933)" fill="#e9bfc4"/>
  <path id="Path_7495" data-name="Path 7495" d="M1104.691,1619.02a.214.214,0,0,1-.162.162Z" transform="translate(-1033.88 -1499.906)" fill="#e9bfc4"/>
  <path id="Path_7496" data-name="Path 7496" d="M1108.87,1621.564l.181-.137Z" transform="translate(-1037.898 -1502.134)" fill="#e9bfc4"/>
  <path id="Path_7497" data-name="Path 7497" d="M1209.456,308.9l-.161.165Z" transform="translate(-1130.837 -287.464)" fill="#f3f2f2"/>
  <path id="Path_7498" data-name="Path 7498" d="M1211.616,306.71l-.161.163Z" transform="translate(-1132.835 -285.434)" fill="#f3f2f2"/>
</svg>
