<svg xmlns="http://www.w3.org/2000/svg" width="42.89" height="42.893" viewBox="0 0 42.89 42.893">
  <g id="aroma_1" data-name="aroma 1" transform="translate(0)">
    <path id="Path_7499" data-name="Path 7499" d="M54.86,64.595a21.446,21.446,0,1,1,21.458-21.4A21.421,21.421,0,0,1,54.86,64.595Z" transform="translate(-33.428 -21.702)"/>
    <path id="Path_7500" data-name="Path 7500" d="M96.525,64.041A20.975,20.975,0,1,1,75.591,43.058,20.96,20.96,0,0,1,96.525,64.041Z" transform="translate(-54.102 -42.58)" fill="#f79ba5"/>
    <path id="Path_7501" data-name="Path 7501" d="M185.845,175.64c-.2.042-.4.066-.6.1s-.421.018-.625.079a.763.763,0,0,1-.194.011,1.275,1.275,0,0,0-.338.035,1.033,1.033,0,0,1-.242.014,2.883,2.883,0,0,0-.727.045,4.7,4.7,0,0,1-.874-.029.976.976,0,0,0-.194-.013c-.163,0-.325,0-.488,0a.769.769,0,0,1-.289-.032.214.214,0,0,0-.1-.013,3.069,3.069,0,0,1-.677-.059c-.28-.036-.56-.072-.839-.119-.455-.077-.907-.165-1.355-.273-.464-.111-.926-.239-1.378-.4s-.89-.305-1.327-.479c-.143-.057-.286-.116-.425-.181-.346-.162-.7-.316-1.033-.494-.416-.219-.827-.449-1.228-.695-.3-.187-.6-.383-.9-.585a12.9,12.9,0,0,1-1.122-.852c-.276-.238-.559-.467-.838-.7-.043-.036-.082-.079-.123-.119-.207-.207-.413-.415-.622-.62-.3-.3-.567-.623-.849-.936-.354-.393-.663-.819-.976-1.241-.279-.377-.53-.776-.778-1.176a18.036,18.036,0,0,1-.925-1.714,14.328,14.328,0,0,1-.587-1.389c-.114-.321-.233-.64-.337-.965a16.163,16.163,0,0,1-.444-1.641c-.044-.214-.1-.426-.136-.641a1.56,1.56,0,0,1-.008-.243.356.356,0,0,0,.167-.432,13.756,13.756,0,0,1-.229-2.934,18.5,18.5,0,0,1,1.524-6.834,20.206,20.206,0,0,1,3.337-5.218,17.831,17.831,0,0,1,4.636-3.837,14.436,14.436,0,0,1,4.309-1.646,2.318,2.318,0,0,0,.355-.087c.066-.024.169-.041.151-.129s-.125-.088-.2-.078a6.518,6.518,0,0,0-.671.124c-.1.023-.2.071-.3-.009a.436.436,0,0,1,.24-.1c.607-.174,1.225-.3,1.843-.424.253-.05.514-.062.766-.119.207-.047.421-.019.625-.081a.655.655,0,0,1,.17-.01,1.366,1.366,0,0,0,.362-.036,1.017,1.017,0,0,1,.242-.013,3.729,3.729,0,0,0,.679-.04,1.764,1.764,0,0,1,.413-.007,3.213,3.213,0,0,1,.606.036,2.644,2.644,0,0,0,.462.011,3.145,3.145,0,0,1,.557.038,3.276,3.276,0,0,0,.481.051c.317.016.625.081.938.118s.635.119.951.184a17.467,17.467,0,0,1,2.128.591c.529.181,1.048.39,1.56.617.357.158.707.329,1.052.509.425.22.836.464,1.245.714.325.2.635.42.949.635s.586.433.866.665c.261.217.525.432.786.649.044.036.083.078.123.118.271.27.54.541.812.809.307.3.584.629.864.956a18.632,18.632,0,0,1,1.508,2.055c.162.252.306.516.454.777.167.3.346.589.49.9.279.594.55,1.192.778,1.809.208.564.384,1.136.545,1.714.111.4.191.8.273,1.206.071.348.142.7.182,1.049a3.958,3.958,0,0,1,.065.627.616.616,0,0,0,.024.192.86.86,0,0,1,.022.217,1.3,1.3,0,0,0,.041.434.211.211,0,0,1,.006.073q0,.573-.005,1.146c-.138-.091-.274.066-.413,0a4.055,4.055,0,0,0-.175-1.642c-.136-.557-.221-1.127-.4-1.675a1.017,1.017,0,0,0-.256-.514,4.044,4.044,0,0,1-.289-.8,17.7,17.7,0,0,0-1.74-3.428c-.437-.707-.947-1.361-1.41-2.048-.239-.354-.514-.688-.772-1.032a5.929,5.929,0,0,0-.862-.787c-.345-.308-.705-.6-1.062-.9a13.514,13.514,0,0,0-2.819-1.686,24.266,24.266,0,0,0-3.3-1.272,16.925,16.925,0,0,0-3.79-.774c-.478-.037-.955-.087-1.433-.089a13.211,13.211,0,0,0-3.943.549,22.445,22.445,0,0,0-3.648,1.441,20.924,20.924,0,0,0-4.035,2.72,12.287,12.287,0,0,0-3.251,4.655,17.451,17.451,0,0,0-1.318,5.13,15.441,15.441,0,0,0-.1,1.944,19.747,19.747,0,0,0,1.574,7.419,19.231,19.231,0,0,0,2.739,4.567,9.51,9.51,0,0,0,1.022.975,1.021,1.021,0,0,1,.261.286.636.636,0,0,0,.172.232,14.768,14.768,0,0,0,6.427,3.843,16.791,16.791,0,0,0,3.482.7c.638.067,1.281.05,1.922.064.682.015,1.352-.1,2.028-.144.19-.013.375-.1.57-.125.115-.013.249-.041.293.1s-.088.194-.191.236C186.437,175.375,186.137,175.5,185.845,175.64Z" transform="translate(-161.28 -135.788)" fill="#de7480"/>
    <path id="Path_7502" data-name="Path 7502" d="M525.6,1502.959c.031-.037.054-.089.094-.109.15-.077.3-.147.46-.214.134-.058.272-.1.407-.16.075-.031.107-.082.093-.124a.126.126,0,0,0-.141-.072c-.167.03-.333.063-.5.1a.2.2,0,0,0-.087.039.176.176,0,0,1-.2.022.169.169,0,0,0-.184.023.142.142,0,0,1-.157.027.3.3,0,0,0-.238,0,.59.59,0,0,1-.305.035.737.737,0,0,0-.451.064.2.2,0,0,1-.188.012.629.629,0,0,0-.264-.03h-1.293a.681.681,0,0,1-.288-.032.181.181,0,0,0-.071-.014c-.243,0-.484-.02-.726-.045-.177-.017-.351-.052-.529-.068a6.932,6.932,0,0,1-.737-.133c-.285-.057-.569-.117-.853-.177a14.282,14.282,0,0,1-1.633-.464c-.391-.132-.77-.3-1.15-.462s-.719-.341-1.075-.517c-.408-.2-.791-.445-1.182-.676a8.867,8.867,0,0,1-.809-.538.713.713,0,0,0-.185-.114c-.112-.037-.14-.156-.228-.211a.9.9,0,0,1-.241-.161.389.389,0,0,1-.06-.076.275.275,0,0,0-.159-.142.562.562,0,0,1-.257-.218,1.992,1.992,0,0,0-.29-.327c-.109-.107-.222-.211-.335-.314a.272.272,0,0,1-.093-.191c.123-.038.2.05.278.113a18.094,18.094,0,0,0,3.373,2.13,18.682,18.682,0,0,0,5.635,1.655,20.9,20.9,0,0,0,3.38.13,15.5,15.5,0,0,0,2.963-.417,20.727,20.727,0,0,0,3.549-1.13,9.466,9.466,0,0,0,1.367-.8c.781-.5,1.56-1,2.313-1.54a17.781,17.781,0,0,0,1.786-1.579c.063-.059.1-.151.212-.145.115.083.034.157-.018.222a10.534,10.534,0,0,1-2.358,2.2,2.115,2.115,0,0,1-.538.488,20.358,20.358,0,0,1-5.486,2.869c-.254.083-.508.165-.755.273a1.87,1.87,0,0,0,.578-.115c.355-.115.705-.248,1.071-.329a.374.374,0,0,1,.416.121,1.048,1.048,0,0,1-.392.182c-.262.108-.53.2-.8.284-.472.143-.948.272-1.422.406a.316.316,0,0,1-.073,0,.4.4,0,0,0-.292.052c-.044.062-.116.047-.176.061A5.13,5.13,0,0,1,525.6,1502.959Z" transform="translate(-501.032 -1463.106)" fill="#e07782"/>
    <path id="Path_7503" data-name="Path 7503" d="M162.891,167.9c.213-.011.411-.094.619-.125.12-.018.24-.04.361-.056a.491.491,0,0,1,.285.045.1.1,0,0,1,.023.164.433.433,0,0,1-.188.109c-.109.032-.218.065-.33.087a14.681,14.681,0,0,0-4.88,1.959,18.154,18.154,0,0,0-4.56,4.038,20.485,20.485,0,0,0-2.465,3.795,17.731,17.731,0,0,0-1.582,4.618,19.439,19.439,0,0,0-.325,2.634,15.414,15.414,0,0,0,.026,2.022,11.276,11.276,0,0,0,.19,1.448c0,.024.012.047.015.071.029.178-.028.249-.214.269-.016,0-.032,0-.049,0a.453.453,0,0,1-.134-.3c-.06-.4-.144-.8-.176-1.2-.025-.324-.066-.647-.077-.972q-.023-.621-.009-1.243a15.369,15.369,0,0,1,.394-3.089,20.3,20.3,0,0,1,2.63-6.363,18.8,18.8,0,0,1,5.909-5.923,15.719,15.719,0,0,1,4.4-1.933C162.8,167.937,162.845,167.918,162.891,167.9Z" transform="translate(-146.821 -164.448)"/>
    <path id="Path_7504" data-name="Path 7504" d="M1511.277,991.328a10.921,10.921,0,0,0,1.869-1.644c.167-.186.327-.379.489-.57a.225.225,0,0,0,.074-.122c0-.012,0-.025,0-.037a.223.223,0,0,1,.028-.068,20.462,20.462,0,0,0,2.165-3.525,15.633,15.633,0,0,0,1.087-2.868,21.165,21.165,0,0,0,.743-3.708c.041-.362.087-.723.1-1.087a.2.2,0,0,1,.072-.173.825.825,0,0,1,.047-.084c.086-.117.17-.123.282-.021a.563.563,0,0,1,.047.055,11.128,11.128,0,0,1-.073,1.325c-.011.1-.015.208-.021.313a20.835,20.835,0,0,1-1.768,6.24,14.791,14.791,0,0,1-.919,1.767c-.044.067-.091.133-.133.2a15.848,15.848,0,0,1-1.992,2.666c-.233.249-.475.489-.728.717-.06.054-.116.112-.174.168a4.722,4.722,0,0,1-.838.661,1.313,1.313,0,0,1-.15.08.2.2,0,0,1-.267-.037C1511.146,991.485,1511.192,991.4,1511.277,991.328Z" transform="translate(-1478.105 -955.959)"/>
    <path id="Path_7505" data-name="Path 7505" d="M1213.616,1582.068a.659.659,0,0,0-.054.107.123.123,0,0,0,.147.158,1,1,0,0,0,.218-.1,5.773,5.773,0,0,0,.708-.5c.056-.044.1-.106.175-.123a1.41,1.41,0,0,1-.36.386c-.035.033-.082.053-.116.087-.278.272-.591.5-.89.749a14.91,14.91,0,0,1-1.237.9q-.606.4-1.246.753-.48.265-.972.5c-.313.151-.634.287-.953.426a.486.486,0,0,1-.119.018.071.071,0,0,1-.024,0,.651.651,0,0,0-.533-.021c-.313.087-.617.2-.925.3-.192.065-.391.1-.587.146a.159.159,0,0,1-.115-.026.047.047,0,0,1-.028-.036.048.048,0,0,1,.015-.042.5.5,0,0,1,.232-.123c.354-.112.712-.214,1.058-.352.316-.125.634-.246.949-.373.217-.089.434-.18.645-.281.264-.125.524-.261.785-.39.233-.115.449-.259.677-.381.631-.337,1.2-.768,1.8-1.15.2-.126.37-.287.56-.425a.208.208,0,0,0,.081-.116A.125.125,0,0,1,1213.616,1582.068Z" transform="translate(-1180.444 -1546.699)" fill="#de7480"/>
    <path id="Path_7506" data-name="Path 7506" d="M1704.036,1064.218a.262.262,0,0,1,.054-.133,25.056,25.056,0,0,0,1.95-4.766,21.6,21.6,0,0,0,.628-2.824.671.671,0,0,1,.055-.283,1.6,1.6,0,0,1-.027.483c-.034.149-.035.3-.06.456-.075.454-.15.908-.248,1.358a19.083,19.083,0,0,1-.589,2.078c-.145.422-.3.839-.486,1.245-.127.281-.242.567-.378.843-.154.313-.323.618-.491.924-.093.171-.2.336-.292.505C1704.124,1064.153,1704.1,1064.2,1704.036,1064.218Z" transform="translate(-1666.643 -1033.055)" fill="#dc7681"/>
    <path id="Path_7507" data-name="Path 7507" d="M1172.38,1789.191a.14.14,0,0,1,.121-.1c.061,0,.126-.017.171.044A.522.522,0,0,1,1172.38,1789.191Z" transform="translate(-1146.886 -1749.531)" fill="#de7480"/>
    <path id="Path_7508" data-name="Path 7508" d="M294.658,258.619a1.375,1.375,0,0,1-.086.329,19.346,19.346,0,0,1-2.088,4.5,15.1,15.1,0,0,1-1,1.442c-.03.038-.064.072-.1.109-.021.014-.044.027-.047.056v0a.083.083,0,0,0-.089.022,2.168,2.168,0,0,1-.282.3q-.417.408-.869.777a.3.3,0,0,0-.036.033,5.907,5.907,0,0,1-1.163.914c-.2.137-.4.278-.6.411-.569.373-1.137.748-1.712,1.112a5.534,5.534,0,0,1-.847.478c-.27.111-.54.22-.812.326a22.05,22.05,0,0,1-2.907.868,9.346,9.346,0,0,1-1.071.2,6.013,6.013,0,0,1-.865.111,1.5,1.5,0,0,1-.506.045.439.439,0,0,0-.121,0,1.828,1.828,0,0,1-.58.042c-.577,0-1.154,0-1.731,0a.709.709,0,0,1-.289-.032.155.155,0,0,0-.072-.012,5.906,5.906,0,0,1-.75-.053c-.17-.006-.336-.043-.505-.06-.24-.024-.475-.1-.715-.125a5.94,5.94,0,0,1-.667-.122c-.291-.068-.583-.13-.871-.214-.381-.11-.765-.211-1.141-.338-.422-.143-.841-.3-1.249-.476-.319-.141-.64-.276-.953-.43a17.16,17.16,0,0,1-2.14-1.251c-.407-.28-.8-.572-1.186-.886a1.265,1.265,0,0,0-.166-.1.525.525,0,0,0-.075-.095c-.2-.157-.373-.337-.562-.5-.085-.074-.173-.145-.258-.221a5.448,5.448,0,0,1-.683-.79c-.312-.414-.622-.83-.894-1.272-.183-.3-.379-.585-.542-.894-.136-.258-.3-.5-.42-.768-.178-.391-.379-.769-.55-1.164a19.706,19.706,0,0,1-.749-2.03q-.268-.869-.453-1.762c-.082-.4-.143-.795-.222-1.19a3.524,3.524,0,0,1-.058-.554,3.439,3.439,0,0,1-.054-.384,1.03,1.03,0,0,0-.036-.386.873.873,0,0,1-.011-.218,2.952,2.952,0,0,0-.046-.751,4.68,4.68,0,0,1,.035-.922.852.852,0,0,0,.01-.17,3.558,3.558,0,0,1,.047-.824.278.278,0,0,0,0-.073,4.93,4.93,0,0,1,.088-.794c.025-.159.038-.321.06-.481.012-.088.031-.175.047-.262a17.813,17.813,0,0,1,1.149-3.879,14.425,14.425,0,0,1,.708-1.442c.229-.4.456-.8.721-1.183.19-.272.387-.539.582-.808a.613.613,0,0,1,.066-.072c.316-.316.62-.646.953-.943.259-.231.516-.466.8-.674.246-.183.477-.389.729-.566.325-.228.64-.47.984-.671.315-.184.623-.379.934-.57.035-.021.067-.047.1-.066.352-.185.7-.381,1.058-.551.506-.239,1.017-.466,1.54-.666.379-.145.757-.289,1.144-.412.664-.212,1.335-.4,2.014-.551a7.275,7.275,0,0,1,.864-.118c.284-.029.57-.008.848-.049a9.122,9.122,0,0,1,1.069-.038,1.531,1.531,0,0,1,.386.033,2.061,2.061,0,0,0,.389.014,1.175,1.175,0,0,1,.386.036.545.545,0,0,0,.169.012.8.8,0,0,1,.312.038.184.184,0,0,0,.072.009,4.452,4.452,0,0,1,.792.1c.31.056.619.115.927.181a22.515,22.515,0,0,1,2.609.77q.8.279,1.585.619c.447.195.892.39,1.323.618.452.239.894.495,1.335.752a8.029,8.029,0,0,1,1.127.841c.259.22.528.428.786.649.154.132.293.279.455.4.115.088.209.2.331.286a1.019,1.019,0,0,1,.286.359,2.771,2.771,0,0,0,.5.657,1.026,1.026,0,0,1,.206.27,4.713,4.713,0,0,0,.512.738,10.14,10.14,0,0,1,.682,1c.2.317.394.633.586.953s.381.623.553.944c.126.235.224.486.33.731.1.223.193.447.28.674.11.288.2.581.319.867.036.09,0,.2.08.274a.738.738,0,0,1,.109.344,21.077,21.077,0,0,1,.314,3.194,25.979,25.979,0,0,1-.255,4.413C294.813,257.957,294.736,258.288,294.658,258.619Z" transform="translate(-255.737 -232.021)" fill="#f7949f"/>
    <path id="Path_7509" data-name="Path 7509" d="M1772.05,819.18a2.042,2.042,0,0,1,.059-.48c.014-.184.061-.366.077-.551a3.451,3.451,0,0,1,.059-.358,5.752,5.752,0,0,1,.079-.625.679.679,0,0,0,.011-.17,1.46,1.46,0,0,1,.033-.313,1.559,1.559,0,0,0,.016-.315,1.461,1.461,0,0,1,.038-.435.629.629,0,0,0,.01-.194c0-.358,0-.716,0-1.073a1.144,1.144,0,0,1,.035-.386.278.278,0,0,0,0-.168,1.787,1.787,0,0,1-.04-.532,3.548,3.548,0,0,0,0-.414c-.044-.313-.02-.631-.085-.941a.568.568,0,0,1-.008-.121,6.448,6.448,0,0,0-.12-.937,8.12,8.12,0,0,1-.125-.935.118.118,0,0,1,.112.078c.059.141.13.279.175.425.072.23.128.466.19.7.025.094.045.188.074.28a.587.587,0,0,1,.036.165,3.322,3.322,0,0,0,.242,1.03.222.222,0,0,1,.016.185.126.126,0,0,0-.008.094c.072.143.021.3.077.452a.431.431,0,0,1-.053.347.275.275,0,0,0-.024.164,7.928,7.928,0,0,1-.071.969c-.056.564-.126,1.126-.23,1.684a22.785,22.785,0,0,1-.528,2.269A.2.2,0,0,1,1772.05,819.18Z" transform="translate(-1733.129 -792.583)" fill="#e07883"/>
    <path id="Path_7510" data-name="Path 7510" d="M1624.067,1494.961a.054.054,0,0,1,.047-.056A.053.053,0,0,1,1624.067,1494.961Z" transform="translate(-1588.464 -1461.93)" fill="#e07782"/>
    <path id="Path_7511" data-name="Path 7511" d="M714,326.157a7.292,7.292,0,0,1-.263,1.728,13.139,13.139,0,0,1-1.208,3,14.2,14.2,0,0,1-1.309,1.964,13.991,13.991,0,0,1-1.621,1.719,8.489,8.489,0,0,1-1.471,1.078,2.361,2.361,0,0,1-.573.26c-.032-.056.016-.076.037-.1a4.9,4.9,0,0,0,.613-.964,6.2,6.2,0,0,0,.443-1.236,10.378,10.378,0,0,0,.231-1.316,12.744,12.744,0,0,0,.081-1.823c-.016-.4-.029-.81-.075-1.214-.025-.225-.025-.453-.06-.679-.031-.208-.05-.418-.08-.627-.023-.16-.033-.322-.063-.482-.069-.374-.116-.753-.184-1.127-.114-.63-.238-1.258-.357-1.887-.072-.382-.146-.764-.215-1.147-.054-.3-.107-.606-.134-.914-.018-.21-.052-.418-.079-.627a.322.322,0,0,1-.005-.048c0-.325-.06-.646-.061-.972,0-.471-.069-.941-.034-1.412.029-.389.019-.78.05-1.168.034-.428.079-.856.144-1.28a12.789,12.789,0,0,1,.374-1.709,10.208,10.208,0,0,1,1.54-3.079,18.506,18.506,0,0,1,1.242-1.531c.413-.46.85-.9,1.3-1.323q.564-.537,1.161-1.04c.3-.25.6-.5.9-.746.454-.369.922-.718,1.394-1.064.268-.2.54-.389.81-.584a.842.842,0,0,0,.137-.089c.085-.05.133-.021.139.077a1.116,1.116,0,0,1-.294.383,10.077,10.077,0,0,0-2.057,4.133,21.52,21.52,0,0,0-.588,3.923c-.048.665-.066,1.334-.063,1.995,0,.883-.011,1.77.061,2.653.035.436.036.876.055,1.314.034.762.089,1.523.116,2.286.03.827.082,1.654.09,2.482C714.122,325.365,713.976,325.752,714,326.157Z" transform="translate(-692.453 -299.333)" fill="#fff"/>
    <path id="Path_7512" data-name="Path 7512" d="M982.672,322.579a3.3,3.3,0,0,1,0-.536,10.827,10.827,0,0,0,.041-1.434,1.227,1.227,0,0,0-.036-.435.562.562,0,0,1-.009-.17c0-.2,0-.39,0-.586a1.437,1.437,0,0,0-.036-.411,1.02,1.02,0,0,1-.012-.242,4.569,4.569,0,0,0-.041-.776,2.437,2.437,0,0,1-.009-.462,1.036,1.036,0,0,0-.036-.362.473.473,0,0,1-.011-.145,5.127,5.127,0,0,0-.042-.8,3.057,3.057,0,0,1-.009-.511,2.09,2.09,0,0,0-.041-.581.687.687,0,0,1-.006-.194q0-.732,0-1.464a2.069,2.069,0,0,0-.027-.289,2.461,2.461,0,0,1,0-.728,1.991,1.991,0,0,0,.026-.289c0-.3,0-.6,0-.9a2.1,2.1,0,0,1,.035-.459,1.923,1.923,0,0,0,.013-.389.79.79,0,0,1,.035-.313.1.1,0,0,0,.009-.048,6.349,6.349,0,0,1,.057-.7,4.165,4.165,0,0,1,.062-.554c.029-.183.065-.365.086-.55a4.729,4.729,0,0,1,.1-.548c.078-.331.138-.665.227-.993a12.658,12.658,0,0,1,.5-1.522c.127-.307.257-.614.408-.91a8.733,8.733,0,0,1,.846-1.332,6.2,6.2,0,0,1,.567-.665.876.876,0,0,0,.075-.1c.04-.082.073-.174.195-.147-.082.22-.171.438-.243.661a9.14,9.14,0,0,0-.354,1.413c-.067.433-.107.866-.148,1.3-.038.415-.017.827-.036,1.24-.009.189.048.369.047.557a3.97,3.97,0,0,0,.034.558c.027.2.038.4.063.6s.047.4.078.6c.052.336.11.671.167,1.005.034.2.065.4.109.6.181.806.376,1.609.6,2.4.327,1.156.709,2.294,1.1,3.429.249.721.518,1.435.747,2.163.2.649.372,1.309.526,1.972.13.561.217,1.128.32,1.693.033.183.029.373.066.554.055.272.019.551.081.821a.9.9,0,0,1,.01.194c0,.423.014.846,0,1.268a6.432,6.432,0,0,1-.321,1.861,5.043,5.043,0,0,1-.876,1.563,8.387,8.387,0,0,1-.846.875,7.679,7.679,0,0,1-.728.569,12.835,12.835,0,0,1-1.368.841,16.311,16.311,0,0,1-1.819.819,1.068,1.068,0,0,1-.139.037c-.005,0-.013-.008-.027-.016a.443.443,0,0,1,.062-.073,2.648,2.648,0,0,0,.921-1.481,7.754,7.754,0,0,0,.207-1.8c-.024-.355-.026-.712-.079-1.065-.027-.176-.02-.354-.053-.532-.064-.342-.1-.689-.159-1.031-.082-.446-.186-.887-.272-1.332-.089-.462-.22-.914-.327-1.371-.055-.237-.118-.472-.177-.707a.464.464,0,0,0-.086-.2c-.016.138-.009.254-.013.369C982.711,322.458,982.724,322.526,982.672,322.579Z" transform="translate(-961.128 -295.755)" fill="#e0e0e0"/>
    <path id="Path_7513" data-name="Path 7513" d="M1109.145,290.726l-.2.147a.063.063,0,0,0-.1-.017.2.2,0,0,1-.153.06,2.222,2.222,0,0,1,.494-.429c.022-.016.058-.045.084-.006a.078.078,0,0,1-.01.09C1109.225,290.625,1109.185,290.675,1109.145,290.726Z" transform="translate(-1084.628 -284.447)" fill="#f3f3f3"/>
  </g>
</svg>
