<svg xmlns="http://www.w3.org/2000/svg" width="166.5" height="196.471" viewBox="0 0 166.5 196.471">
  <g id="Buy_CHEF" data-name="Buy CHEF" transform="translate(-21.723 -27.902)">
    <path id="rgba_84_84_84_1_" data-name="rgba(84,84,84,1)" d="M171.4,128h15.95l6.121,3.047.471.568.319,2.233v4.572c-3.246,1.659-3.391,1.631-3.721,1.7l-5,2.339q-.361.872.532.638l4.678.851,4.678,1.914,2.551,1.7c2.131,2.6,2.275,2.7,4.146,5l.851,1.7.851,2.977v1.065l.319.319h5.316l.319.319v11.264l-.319.107-1.595.319.638,2.551c.284,1.488.354,1.7.851,1.914l.851,3.19.532.744q.319-.532.638.212l3.19,1.065,5.209,2.764q-.234.574.319.425l2.869,1.7q-.234.574.319.425L225.2,186.9l1.595-1.276c3.225-3.332,3.544-3.509,5.737-7.017.383.156.525.05.638-.744l-.851-1.276-.851-2.339-.425-2.551v-3.19l.638-2.551.638-1.382c.383.156.525.05,2.233-2.551l1.914-1.7,3.509-3.083,2.658-2.869,1.176-.965q-.319-1.276.319-1.595l3.19-.851,3.19-1.7,2.02-.425.212.956-3.614,3.19a46.565,46.565,0,0,0-3.509,3.721l-1.17.744-3.721,3.934-2.764,2.764c-.312-.1-.418.007-1.382,1.382l-1.488,3.4-.212.851v2.551l.851,2.339.532.532,1.065-.212,1.595-1.382c1.921-1.694,2.027-1.8,1.914-2.126l1.7-1.382,1.807-2.339q.492.17.319-.319l.851-1.17q.574.234.425-.319l1.914-2.126,2.02-3.083c6.117-5.273,6.223-5.415,6.592-5.316a7.851,7.851,0,0,1,4.572-2.551c-2.119,3.941-2.225,4.047-2.126,4.359-4.672,5.749-4.777,5.854-4.678,6.167l-1.595,2.02q-1.084-.128-1.382.532l-4.678,4.253-1.595,1.807-.744.532-3.827,4.572q-.574-.234-.425.319l-.425,1.065a2.66,2.66,0,0,0,2.02,1.17l3.19.212,2.126-.638,2.551-1.488,2.126-2.339c1.765-1.545,1.906-1.651,1.807-2.02l1.276-1.065,2.764-3.083a56.9,56.9,0,0,0,4.465-5l2.339-3.083h1.065l.212.956-1.488,3.721c-.468-.184-3.062,4.189-2.977,4.572l-1.807,2.02-1.17,1.488-.638.319-1.807,2.233c-.312-.1-1.12,1.588-1.488,1.488l-3.19,3.827-3.614,1.7c-.212-.354-2.084.043-2.339.425a12.51,12.51,0,0,0-3.19-.638l-2.339-.425-2.551-1.065-.532.212c.184.425-7.966,7.6-7.868,7.974,3.785,3.565,3.927,3.672,3.827,4.04l.956,1.17c.328-.1,2.757,2.928,4.572,5.848l4.465,7.655c-.311.184.581.6,3.19,6.592l5.528,13.821,1.276,2.126v1.382l-2.339.425.425,2.551,1.807-.638h1.17l.212,3.934c.255,3.852.956,8.4,1.382,8.611l6.379-2.977.957,24.347v.425L259.756,299.7l-.212,2.551-2.233-.107q-.574.276-.107.532l-.212,2.02,3.19,1.065v2.869l-.638,2.339-.851,1.488-.956,1.595-1.914-.638a3.817,3.817,0,0,0-.744,2.658l1.065,1.7-1.595,3.083-1.276.425-2.764.212-2.764.638-3.827,1.065h-3.4l-1.276-.425-2.339-.638h-1.488c-.241.439-.865.851-2.977.425-2.474-1.566-2.687-2.417-2.446-3.721l-.744-.956-.107.425a15.123,15.123,0,0,1-4.253-1.382,4.151,4.151,0,0,1-.425-2.977l.638-1.276a12.388,12.388,0,0,1-1.276-7.017l.638-3.19a13.225,13.225,0,0,0,2.126-3.827l1.488-4.359-.851-.319v-2.977l.212-.425-.212-.212v-3.083l-1.17-.425-.107.957.638,2.977.425,5.316-5.209,2.658c-5.737,1.772-20.271,6.592-34.659,9.569l-5.737.425-5.953.212-3.4-.212-4.253-.425-1.807-.425.212.744-1.914,14.459-.532.744-1.276.638H161.2l-5.953-.851-9.143-.851a2.738,2.738,0,0,1-2.03-1.594l.425-5.1c-.17-.4-.348-.432-2.658-.532l-7.123-.638c-2.084,3.459-2.225,3.565-2.126,3.934l-1.17.956-1.382.532c-.482.7-.588.843-.956.744l-1.065.638-2.764.851-1.488.425-4.04,1.065H115.9a5.149,5.149,0,0,1-2.658-1.382l-1.17-1.17c-2.5-1.229-2.608-1.375-2.977-1.276-2.541-2.119-2.651-2.225-2.977-2.126-.709-.482-1.906-1.864-1.807-2.233-.638-.348-.779-.525-1.488-2.551-1.552-5.125-1.659-5.514-1.914-9.781-.241-1.092-.312-1.517-1.914-16.16v-1.382h.744l1.065.425.532-8.186c2.41-21.051,5.061-35.254,6.167-43.164l.425-2.02-.532-.212H104l-.319-.319.212-1.382.425-.107V230.6l3.614-10.419,5.316-11.695.638-.638.638-1.7,3.4-5.737,2.977-3.827.638-1.276,3.721-4.359,1.595-1.382.744-.956,1.914-1.7.744-.212q-.234-.574.319-.425a27.253,27.253,0,0,1,9.671-5.953l-1.595-1.914-3.3-2.658v-.319h-.638q.234-.574-.319-.425l-2.339-1.7-2.551-.425-1.914.425-2.339,1.7-1.488.638H121L118.453,175l-3.4-1.7-1.065-.851-1.807.956.638,5.953.212.212.212,5.316-.212.212-.212,2.977-1.276,4.04.212.851-.212.425.851,4.253-.532.744-.638.212-.851-.212-.532-.532-.638-2.339v-4.04l1.276-4.678.212-2.126h-.212v.425l-.956,1.17-1.7.425a3.247,3.247,0,0,1-2.446-1.595,5.683,5.683,0,0,1-.425-3.4l.851-4.04.212-3.19.425-.851-.212-.212v-2.339l-.425-1.276v-.425l-.212-1.276-1.17-2.658-.744-.319-.212-.744q-.574.234-.425-.319l-.638-.638-.212-3.19.744-.956q.492.17.319-.319v-.425a8.777,8.777,0,0,0-2.126-4.04q.383-.893,2.02-.532l2.551,3.827.851-.212.851-.851,1.065-.425,1.914-.212.956.532.638,1.7-.212.425.425.744.638.319a2.765,2.765,0,0,1,.212,2.126l-.212.638.744.744,1.595.638.212,1.488,1.7.956q.383,1.339-.212,1.7.744.319.425,1.7l-.425.851,1.595,1.17,1.488.425.425.425h1.488l4.04-2.551q.319.532.638-.212l1.065-.425,2.551-.212,1.914.425,4.359,2.658q-.149.492.319.319l4.146,2.764q-.234.574.319.425l3.19,2.551h.638l.851-.425h.851l3.083-.851v-1.595l.638-2.764v-.425l.212-1.065v-.425l.212-1.7-1.914-2.977-.212-1.914v-.425l.425-1.7,1.17-1.807,2.126-1.065.319.107.425-1.488,2.869-4.572c.242.082.332-1.02,3.77-4.2.962-.892,3.132-2.065,4.947-3.664l5.1-1.914,2.977-.212c.688-.595-1.4-1.584-1.488-1.488l-7.652-3.4-.532-.532.212-5.737q-.468-.276.107-.532A44.814,44.814,0,0,1,171.4,128ZM191.92,145.861ZM192.558,146.073Zm1.488.851h0c1.984.921,3.614,3.332,5.953,5.1l-.638-1.065a11.775,11.775,0,0,0-2.117-2.065,26.052,26.052,0,0,0-3.2-1.973Zm-39.124,11.269-.851,1.065.212.212.425-.212Zm-46.566,20.626-.425.425-.212,2.339-.212.212v1.7l.212.212q-.212.425.425.212l.212-.425Zm34.021,59.112-2.551,4.678a72.108,72.108,0,0,0-4.04,11.695l-.425,2.126-.638,1.065-1.276,5.528-.425,1.71-.638,2.117-2.339,9.781-.638,4.467v1.065l.638.851.425.638c.779-1.276,2.055-.993,1.914-1.7l.638-1.065,1.065-4.678c3.473-8.86,4.323-10.915,4.89-13.183.5-1.418,8.933-14.388,9.569-14.671l-1.276-1.914c-1.134-1.842-1.276-2.056-4.465-7.016q.424-1.7-.427-1.492ZM213.4,239l-.425.638a1.742,1.742,0,0,1-.1,1.1,1.33,1.33,0,0,1-.321.809l.321.328.317.308s.256.212.738.691.29.727,1.18,1.223l1.914,1.7q-.212.425.425.212l.212.212-.212-1.065,1.488-.638-.638-1.488-1.7.638h-.851l-1.914-4.04Zm-4.465,8.293-1.276,1.914.212.425q-.212.425.425.212l.425.638,2.339,2.977c-.142.284,0,.354.425.638,4.323,6.662,4.465,6.734,4.89,6.592l4.89,9.994,1.914,5.737q-.212.851.425.638l.425,1.488.425-2.126.851-.638-.851-.638v-.212l-.425-.212-.638-1.914v-.425l.212-1.065.851-1.488c.921-1.065.851-1.557.425-2.764l-3.827-8.933c-2.977-2.623-3.119-2.693-3.614-3.614l-.638-.638a31.29,31.29,0,0,0-5.1-5.1l-1.914-1.488Zm15.736,33.171a1.557,1.557,0,0,0,.425,1.914l.638-.851Zm-93.134,15.52a6.181,6.181,0,0,0,2.126,4.253l1.276,4.465c-.142.425,0,.567.638,5.737l7.868.851h.425l1.065.212.212-.425.425-5.1.638-1.065q.851-1.276,3.4-.851l.638.212h1.488l-8.933-3.19-1.276-.638-3.827-1.7c-.567.142-.779,0-1.7-.638l-2.977-1.488C132.454,296.76,132.241,296.618,131.532,295.98Zm18.287,12.12v1.065l1.276.425,9.569,1.065a1.363,1.363,0,0,0,1.68-.536c.16-.372-1.042-.952-1.042-.952l-9.994-.851Zm-.638,4.465s-.448.052-.5.67a.721.721,0,0,0,.5.776s1.065.328,12.12,1.317c.851-.07.921-.284.638-.851l-.212-.425Zm-.638,4.465c-.567.142-1.121.372-.352,1.282l13.113,1.617s.532-.14.638-.44-.212-.757-.212-.757l-4.89-.851-4.04-.425-1.921-.214Z" transform="translate(-77.275 -100.098)" fill="#454545"/>
    <g id="Group_373" data-name="Group 373" transform="translate(83.165 83.905)">
      <path id="Layer" d="M356.339,369.976a45.7,45.7,0,0,0-8.127,1.806c-3.659,1.27-8.535,1.778-10.384-5.87s19.7-12.218,27.315-9.029,10.223,6.067,14,12.416.344,16.677-4.064,22.8c-1.642,2.286-5.413,8.381-5.418,14.222s-2.479,6.687-3.611,4.966-1.125-.2-1.129,1.129-.226,10.384-.226,10.384.114,6.8-4.064,5.87c-1.7-.593-1.805-5.277-3.386-4.515s-3.048,1.157-4.064-4.289-.959-5.108-.452-10.159,2.151-10.638,11.288-22.575S361.7,368.565,356.339,369.976Z" transform="translate(-337.716 -355.855)" fill="#e9f4ff" stroke="#e5f3ff" stroke-width="1" fill-rule="evenodd"/>
      <path id="Layer-2" data-name="Layer" d="M386.2,692.263s-2.928-12.2,4.741-13.77a9.858,9.858,0,0,1,11.965,9.029c-.082,3.922-.9,10.15-3.386,8.353s-2.175,1.872-2.032,2.484-.519,5.86-2.709,3.838-2.175-8.738-4.064-7.449S386.353,695.65,386.2,692.263Z" transform="translate(-374.35 -602.24)" fill="#e9f4ff" stroke="#e5f3ff" stroke-width="1" fill-rule="evenodd"/>
    </g>
  </g>
</svg>
