<svg xmlns="http://www.w3.org/2000/svg" width="49.353" height="41.673" viewBox="0 0 29.353 41.673">
  <g id="kitchen_2_1_" data-name="kitchen 2 (1)" transform="translate(-3.738 -10.265)">
    <path id="Path_22379" data-name="Path 22379" d="M221.79,198.723a16.088,16.088,0,0,0-.647,4.008l-2.457-4.59s-4.978,8.922-.517,17.521,16.357,7.37,20.172,5.366c6.881-3.144,6.463-14.365,4.523-17.986,0,0-1.456,2.982-2.965,2.93-1.942-.763.252-6.6-4.08-16.366l-3.427,3.491s-1.665-3.371-1.228-9.439l-2,2.134A30.077,30.077,0,0,0,221.79,198.723Z" transform="translate(-211.813 -171.341)" fill="#fb2" stroke="#c65f12" stroke-width="1.5"/>
    <path id="Path_22380" data-name="Path 22380" d="M266.837,203.491c-.069-.159-.141-.31-.215-.448,0,0-1.456,2.982-2.965,2.93-1.942-.763.252-6.6-4.08-16.366L256.15,193.1s-1.665-3.371-1.228-9.439l-2,2.134a30.077,30.077,0,0,0-7.37,12.931,16.088,16.088,0,0,0-.647,4.008l-2.457-4.59s-.241.432-.569,1.2c.8,2.288,2.334,5.572,4.427,6.549,0,0,1.526-9.571,6.242-13.87,0,0,1.248,3.953,2.635,4.508l3.953-3.051S261.48,216.015,266.837,203.491Z" transform="translate(-235.64 -171.341)" fill="#ffdc4a"/>
    <path id="Path_22381" data-name="Path 22381" d="M221.79,198.723a16.088,16.088,0,0,0-.647,4.008l-2.457-4.59s-4.978,8.922-.517,17.521,16.357,7.37,20.172,5.366c6.881-3.144,6.463-14.365,4.523-17.986,0,0-1.456,2.982-2.965,2.93-1.942-.763.252-6.6-4.08-16.366l-3.427,3.491s-1.665-3.371-1.228-9.439l-2,2.134A30.077,30.077,0,0,0,221.79,198.723Z" transform="translate(-211.813 -171.341)" fill="none" stroke="#c65f12" stroke-width="1.5"/>
  </g>
</svg>
