<svg xmlns="http://www.w3.org/2000/svg" id="Layer_1" data-name="Layer 1" viewBox="0 0 1888.74509 1888.74509">
  <defs>
    <style>
      .cls-12,.cls-13,.cls-15,.cls-16,.cls-2,.cls-33,.cls-37,.cls-39,.cls-4,.cls-40,.cls-42,.cls-6,.cls-8{stroke:#000}.cls-12,.cls-13,.cls-15,.cls-16,.cls-2,.cls-20,.cls-24,.cls-29,.cls-33,.cls-37,.cls-39,.cls-4,.cls-40,.cls-42,.cls-6,.cls-8{stroke-miterlimit:10}.cls-2{fill:#f4f4f4}.cls-12,.cls-13,.cls-15,.cls-16,.cls-2,.cls-20,.cls-4,.cls-40,.cls-42,.cls-8{stroke-width:6.92447px}.cls-6{fill:#ab91e5}.cls-20,.cls-24,.cls-29,.cls-39,.cls-4{fill:none}.cls-6{stroke-width:4.84713px}.cls-8{fill:#326a70}.cls-11{fill:#2d5d72}.cls-12{fill:#919191}.cls-13{fill:#111}.cls-15{fill:#dbbda9}.cls-16{fill:#a38778}.cls-17{fill:#ba9983}.cls-18{fill:#f7e3d7}.cls-20,.cls-24,.cls-29{stroke:#353535}.cls-24{stroke-width:5.77039px}.cls-26{fill:#353535}.cls-29{stroke-width:13.84894px}.cls-33{fill:#fff;stroke-width:7.5957px}.cls-37{fill:#f4624a}.cls-37,.cls-39{stroke-width:6.38501px}.cls-38{fill:#ffab8a}.cls-40{fill:#a5d9e5}.cls-41{fill:#8fc3cc}.cls-42{fill:#a6e8db}
    </style>
  </defs>
  <circle cx="944.37254" cy="944.37254" r="940.37254" fill="#ffe36e" stroke="#000" stroke-miterlimit="10" stroke-width="8"/>
  <path d="M2001.23928 1120.31253s149.07518-61.12442 320.83343-97.92976c0 0 .39385-2.29675-1.41527-5.64422-64.36722-119.10093-141.92132-542.18621-661.08085-497.36209a6.86466 6.86466 0 0 0-4.33057-1.08972c-267.97713 6.1218-483.32824-7.0347-655.05516 492.21974-1.3196 3.8364-2.12824 7.88676-3.11039 11.87629 0 0 97.53746 7.49662 330.63795 93.37574l24.9281-49.8562s75.46306 183.722 308.13107 193.047c219.631 8.80244 316.41243-189.80033 316.41243-189.80033Z" class="cls-2" transform="translate(-715.27737 -11.23575)"/>
  <path d="M1242.43711 1573.8774s253.546 121.45949 428.04271 121.45949 386.38558-87.24836 436.24179-112.17646c0 0-24.92811-261.74507-186.96077-423.77774 0 0-94.88122 104.26786-249.98144 98.87413s-248.5806-105.10615-248.5806-105.10615-118.40848 112.17646-180.72874 423.77773" class="cls-2" transform="translate(-715.27737 -11.23575)"/>
  <circle cx="749.54561" cy="1067.13061" r="6.23203" fill="#ab91e5"/>
  <path d="M1090.90145 953.72585s155.80064 62.32026 186.96077 99.71241" class="cls-4" transform="translate(-715.27737 -11.23575)"/>
  <path fill="#ab91e5" stroke="#000" stroke-miterlimit="10" stroke-width="6.92447" d="M1316.65993 1048.43453s149.56861-56.08822 199.42482-68.55228"/>
  <path d="m1376.7728 631.91964 19.4979 66.29317c-6.4851-30.2638-12.21892-52.27081-16.944-68.11811q-1.25991.92165-2.5539 1.82494Z" class="cls-6" transform="translate(-715.27737 -11.23575)"/>
  <path fill="#c6c6c6" d="M2156.57781 1034.74218c-12.46405-6.232-118.40848 24.9281-118.40848 24.9281l68.55228-37.39215c-31.16013 0-93.48039 18.69608-93.48039 18.69608s11.39512-3.79933 25.289-20.292c-10.00778-3.57322-18.38958-9.78116-26.17539-17.567-6.96589-6.966-12.75432-14.96767-18.48036-22.95372-7.63518-10.64866-15.08423-21.3717-21.88842-32.578-14.179-23.35217-28.01495-47.93692-35.44042-74.38753-7.23392-25.768-17.88022-73.8218-16.78483-100.19895-20.42685-97.47463-12.464-230.58494-12.464-230.58494l-68.55228-18.69608-12.46406 230.58501c-124.64051 43.62417-330.29735-6.232-330.29735-6.232l-6.232-218.12089-74.7843 6.232s12.46405 87.24836-18.69608 199.42482q-2.849 10.25623-5.69021 19.80558-.4548 2.85279-.91855 5.70381c-2.95 18.11039-5.32345 36.31942-8.36136 54.40758q-4.58006 27.26955-10.19677 54.352-6.07583 29.06326-13.61709 57.79069-3.44655 13.17205-7.28625 26.23718c-1.78454 6.05215-3.87659 12.03431-5.55412 18.11875-2.01749 8.66878-3.65229 17.66451-7.49376 25.69764-5.50023 11.50162-9.13034 27.93913-21.89822 30.79193-8.63586 1.9295-22.317-7.975-30.65081-10.1142-11.502-2.95262-22.29761-8.11926-33.65605-11.43315a353.92787 353.92787 0 0 1-50.85181-15.80964q-2.38905-.921-4.77308-1.85622c12.04031 12.19458 29.30708 24.59134 40.43374 32.093-40.60195-24.03549-82.53465-24.03989-82.53465-24.03989l87.24835 43.62418c-49.8562-24.9281-149.56861-18.69608-93.48038-6.232s168.26469 68.55228 168.26469 68.55228 18.69607-62.32025 68.55228-87.24835 436.24178 31.16012 436.24178 31.16012l205.65685 31.16013s12.46405 6.232 37.39215 0 105.9444-37.39214 93.48035-43.62417Z" transform="translate(-715.27737 -11.23575)"/>
  <path d="m1933.21037 668.67474-19.4979 66.29316c6.4851-30.2638 12.21892-52.27081 16.944-68.11811q1.25993.92164 2.5539 1.82495Z" class="cls-6" transform="translate(-715.27737 -11.23575)"/>
  <path d="M1919.76084 1159.38269s128.71209 174.02754 126.6763 354.99087c0 0-338.56517 237.05156-743.64682-5.99744 0 0 43.62418-218.12089 118.40848-355.22545 0 0 87.24836 99.71241 248.5806 105.10615 162.64437 5.4376 249.98144-98.87413 249.98144-98.87413Z" class="cls-8" transform="translate(-715.27737 -11.23575)"/>
  <path d="M1427.43083 531.333s-12.46405 416.85326-81.01633 547.7258c0 0 80.95417 179.29039 323.37287 180.03629 225.04537.69245 299.82968-166.87979 299.82968-166.87979s-43.17332-148.0228-62.27214-324.75776c-8.05166-74.50771-11.82459-154.1184-6.28014-229.89251l-49.85621-12.464s-12.46405 162.03266-12.46405 236.817c0 0-130.87254 49.8562-355.22545 0l-9.066-237.27145Z" class="cls-8" transform="translate(-715.27737 -11.23575)"/>
  <path d="M1552.07134 1003.58206s-6.232 74.7843 99.71241 81.01633S1757.72818 997.35 1757.72818 997.35s-24.9281 68.55228-105.94443 68.55228-99.71241-62.32022-99.71241-62.32022Z" class="cls-11" transform="translate(-715.27737 -11.23575)"/>
  <path d="M1901.2503 763.97577a31.02035 31.02035 0 0 1-4.24107 3.73906c-2.36448 1.88429-4.46481 4.0585-6.6637 6.126-3.38211 3.18009-6.5037 6.71147-9.86383 9.95038 6.22095 96.22313 22.06432 205.89986 57.97522 300.80715 0 0-174.49672 180.72874-336.52938 130.87253s-211.88887-143.33658-211.88887-143.33658 34.49372-117.85636 50.77172-281.334a4.67644 4.67644 0 0 1-.88179-.4152c-5.237-3.1609-8.88525-8.29289-12.37225-13.18735-2.86387-4.01986-5.833-8.98846-10.40387-11.27492-12.40758 125.53075-32.817 264.91011-64.506 312.4435 0 0 81.01633 180.72874 311.60128 174.49672 243.04012-6.56862 299.13722-162.03267 299.13722-162.03267s-42.96854-153.47011-62.13468-326.85462Z" class="cls-11" transform="translate(-715.27737 -11.23575)"/>
  <path d="M2013.24122 1495.91207s-87.24835 68.55228-162.03266 68.55228" class="cls-4" transform="translate(-715.27737 -11.23575)"/>
  <path d="m1192.019 749.297-37.392 37.392-31.16-36.699M768.242 749.297l-37.392 37.392-31.161-36.699" class="cls-4"/>
  <circle cx="730.84953" cy="736.83326" r="12.46405" class="cls-13"/>
  <circle cx="1154.62727" cy="736.83326" r="12.46405" class="cls-13"/>
  <path d="m768.242 755.529-37.392 37.392-31.161-37.392v18.696l31.161 31.161 43.624-49.857h-6.232zM1123.467 755.529l31.16 37.392 31.16-31.16v18.696l-31.16 24.929-37.392-43.625" class="cls-11"/>
  <path d="m1788.88831 1308.9513-454.93787 99.71241-6.232 18.69608s361.45748-37.39215 467.40191-99.71241c0 0 112.17646 62.32026 230.58495 87.24836v-18.69608Z" class="cls-11" transform="translate(-715.27737 -11.23575)"/>
  <path d="M1774.05284 524.691c0-43.41539-29.379-88.61341-70.38519-105.79928a90.75574 90.75574 0 0 0-35.19265-7.20811c-21.70393 0-41.87824 8.02724-58.65458 20.94591-28.2944 21.78817-46.92326 57.49-46.92326 92.06148 0 55.06964 47.26881 86.41742 105.57784 86.41742s105.57784-31.34779 105.57784-86.41742ZM2305.81989 1027.61545c6.5779 6.57825 136.05864 274.55534-50.19975 361.8037-158.59414 74.28969-330.2472-49.8562-940.63948-268.32332 0 0 17.68457-78.84688 68.20606-106.29066 56.08823-30.46768 698.29222 75.13053 698.29222 75.13053s217.76306-68.8985 224.34095-62.32025Z" class="cls-15" transform="translate(-715.27737 -11.23575)"/>
  <path d="M1445.8532 1013.09073s-49.8562 55.37911-56.08823 127.39363l-68.55228-22.15646s24.9281-131.54646 124.64051-105.23717Z" class="cls-17" transform="translate(-715.27737 -11.23575)"/>
  <path d="M1327.96036 1118.62893a.8798.8798 0 0 0-.595 1.65108c88.5138 38.933 697.28777 301.44638 817.16717 287.74588 218.12087-24.92811-442.47384-218.12089-816.57217-289.39696Z" class="cls-17" transform="translate(-715.27737 -11.23575)"/>
  <path d="M1003.72561 1022.42209s-101.73669 352.086 124.64051 386.38559c205.65684 31.16012 660.59471-105.94444 660.59471-105.94444l-473.63394-180.72874-.34623-12.81027s-130.87253-68.55223-311.25505-86.90214Z" class="cls-15" transform="translate(-715.27737 -11.23575)"/>
  <path d="M1807.31068 1059.468s356.4374 42.53462 391.45632 82.64522-156.37672-19.67102-391.45632-82.64522Z" class="cls-18" transform="translate(-715.27737 -11.23575)"/>
  <path d="m1452.77767 1196.137 168.26469 93.48038s-74.7843 62.32026-330.29735 105.94444v12.464s180.72874-18.69608 492.33-105.94444l-398.84963-149.56861Z" class="cls-17" transform="translate(-715.27737 -11.23575)"/>
  <path d="M1439.62117 1177.87651s-236.817-99.71241-286.67317-81.01633 49.85621 24.9281 286.67317 81.01633ZM2299.64069 1034.53992s180.72874 311.60128-130.87253 373.92153c0 0 236.817-56.08823 93.48038-367.6895Z" class="cls-18" transform="translate(-715.27737 -11.23575)"/>
  <path d="M1209.07616 1090.63931c34.12982 8.43024 79.15418 20.23679 106.37363 30.09907" class="cls-16" transform="translate(-715.27737 -11.23575)"/>
  <path d="M1059.46762 1034.53992h-56.08823c-68.55228 324.06533 68.55228 355.22546 118.40848 367.68951 8.49512 2.12383 85.986 5.21854 137.10457 0-44.29072-2.56405-124.164-16.02958-155.80064-31.16013-143.33659-68.5523-43.62418-336.52938-43.62418-336.52938Z" class="cls-18" transform="translate(-715.27737 -11.23575)"/>
  <path d="M2175.00025 1112.93837a706.72629 706.72629 0 0 0-93.48045-22.31022" class="cls-16" transform="translate(-715.27737 -11.23575)"/>
  <path fill="#a38778" d="M1775.11188 455.30777s-6.57825-12.81027-24.9281-18.69607" transform="translate(-715.27737 -11.23575)"/>
  <path d="M1805.00728 437.8332a60.3682 60.3682 0 0 0-11.356-14.49906c-9.79264-9.55464-21.388-15.75756-34.26349-20.10806-17.17341-5.80274-38.60014 6.66615-42.58961 24.18162-4.36663 19.17141 5.79468 36.37683 24.18162 42.58962 1.55422.52515 3.06725 1.08619 4.58594 1.70618l-8.27057-3.49023a53.551 53.551 0 0 1 10.67256 6.2459l-7.00713-5.41369a45.47987 45.47987 0 0 1 7.42806 7.3897l-5.41366-7.00718a24.76859 24.76859 0 0 1 2.24153 3.3543c8.43719 16.05789 32.14391 22.23726 47.37 12.42083 16.34368-10.537 21.44548-30.194 12.42083-47.37Z" transform="translate(-715.27737 -11.23575)"/>
  <path d="M1492.16861 410.97824c-.36631-6.26336-.02706-12.54382-.24706-18.81034-.22045-6.28335-2.22327-12.33131-1.36871-18.65155a103.13852 103.13852 0 0 0-15.23763-9.20472c-66.50327-33.25164-86.45425 33.25163-59.85294 66.50327s79.80392 13.30065 79.80392 13.30065.54842-.54887 1.43925-1.56683c-2.92215-10.25872-3.91508-20.93872-4.53683-31.57048Z" class="cls-15" transform="translate(-715.27737 -11.23575)"/>
  <path d="m742.304 378.938 19.951 19.951-19.951 6.651" class="cls-15"/>
  <path d="M1836.30655 412.963c.39373-6.73231.02908-13.483.26555-20.2187.237-6.75379 2.38973-13.25457 1.47119-20.048a110.86036 110.86036 0 0 1 16.37848-9.89389c71.48244-35.74122 92.92718 35.74122 64.3342 71.48244S1832.977 448.5813 1832.977 448.5813s-.58948-.59-1.547-1.68414c3.141-11.02676 4.20824-22.50648 4.87655-33.93416Z" class="cls-15" transform="translate(-715.27737 -11.23575)"/>
  <path d="m1165.75 379.774-22.051 22.05 22.051 14.7" class="cls-15"/>
  <path d="M1488.926 371.32841s-30.58987 177.42125 177.42125 177.42125 171.30328-183.53922 171.30328-183.53922S1813.17867 242.851 1672.46526 242.851 1501.162 310.14867 1488.926 371.32841Z" class="cls-15" transform="translate(-715.27737 -11.23575)"/>
  <path d="M1632.814 317.857s-12.46406-6.232-31.16013 0" class="cls-16" transform="translate(-715.27737 -11.23575)"/>
  <path d="M1670.20612 417.77726s-30.05787-7.82328-29.64612 14.82306 29.64612 14.82306 29.64612 14.82306" class="cls-4" transform="translate(-715.27737 -11.23575)"/>
  <path d="M2093.98385 1096.86018s-74.7843 174.49671 0 305.36925" class="cls-20" transform="translate(-715.27737 -11.23575)"/>
  <path fill="none" stroke="#353535" stroke-miterlimit="10" stroke-width="11.17075" d="M1335.0823 1073.16038s-91.64833 152.93169-28.59114 299.13722"/>
  <path fill="none" stroke="#353535" stroke-miterlimit="10" stroke-width="7.64054" d="M1197.97774 1054.4643s-78.51914 93.90793-57.38881 261.74507"/>
  <path fill="none" stroke="#353535" stroke-miterlimit="10" stroke-width="12.37603" d="M1098.26533 1042.00025s-57.74361 99.31034-43.3077 236.817"/>
  <circle cx="1390.82431" cy="1359.48732" r="6.92447" class="cls-24"/>
  <circle cx="1378.01404" cy="1323.13384" r="6.92447" class="cls-24"/>
  <circle cx="1371.78201" cy="1278.12477" r="6.92447" class="cls-24"/>
  <circle cx="1371.78201" cy="1235.19304" r="6.92447" class="cls-24"/>
  <circle cx="1371.78201" cy="1197.80089" r="6.92447" class="cls-24"/>
  <circle cx="1379.39893" cy="1161.10118" r="6.92447" class="cls-24"/>
  <circle cx="1385.63096" cy="1128.55616" r="6.92447" class="cls-24"/>
  <path fill="none" stroke="#353535" stroke-miterlimit="10" stroke-width="11.67365" d="M792.89609 1004.6081s-43.62418 55.10422-56.08823 149.56861"/>
  <path d="M1557.055 1037.69634a17.14368 17.14368 0 0 0-8.92837-4.02232c-7.40543-.36177-18.4506 6.016-24.17293 10.59719-4.1748 3.33781-8.30041 7.02531-10.60758 11.94488-2.07075 4.7954-2.39406 10.89844.86023 15.245 5.24746 6.60023 14.99041 4.57352 21.319.70783 4.65466-2.694 8.36888-7.237 9.27315-12.62229a11.47531 11.47531 0 0 0-.64909-6.70047 7.03846 7.03846 0 0 0-6.70825-4.38 16.81056 16.81056 0 0 0-5.45446 1.905 6.91755 6.91755 0 0 0-3.77228 3.31068c-.48586 1.201-.61992 2.8205.45205 3.74134 1.2587.7599 1.89324 1.1019 4.4398.52018a31.26745 31.26745 0 0 1 3.68826-1.54837 8.008 8.008 0 0 1-1.40882 4.97308c-3.61455 4.86936-11.0685 6.92523-13.42115 6.10134-.34952-.15079-.68932-.32323-1.0221-.50817-.14734-.11073-.28613-.22958-.422-.35367-.13321-.18638-.25409-.38155-.36972-.57994a6.214 6.214 0 0 1-.27167-.701c-.01-.06543-.02451-.13017-.03331-.19594a20.84267 20.84267 0 0 1-.12645-2.32314 13.78065 13.78065 0 0 1 .42839-2.29889c1.40746-3.32471 1.273-2.62922 2.90638-4.81341a28.97153 28.97153 0 0 1 4.85127-4.36422 47.65143 47.65143 0 0 1 12.92752-7.43164c4.00346-1.38633 3.659-1.4575 6.42179-1.67922.21918.03339.43692.075.65272.127a11.37089 11.37089 0 0 1 1.54186.693c.311.18275.53945.32011.68509.40776a9.90925 9.90925 0 0 1 1.01661.77393c.04548.06086.09873.11555.14133.17852.10989.16179.20278.33406.29855.50446.13727.27734.26821.55771.37936.8468.08461.25054.15223.46811.20379.64114a13.146 13.146 0 0 1 .21935 2.03905c-.55771 4.64993-.72921 3.70838-2.25045 7.7454-2.6911 6.18537-4.1229 7.65529-8.93724 13.70711-3.35032 3.90228-2.633 3.23376-6.64232 6.41131a31.84655 31.84655 0 0 1-4.02307 2.56269c-.12578.06974-.22544.12519-.31.17235-6.13279 3.04687-7.46393 2.98754-13.02041 2.101-10.51714-1.44972-14.38088-10.539-14.13744-18.15611.55746-7.22252.854-9.023 3.16047-14.14758 2.50362-4.97274 2.03939-4.51756 4.99345-8.07269 3.35159-3.67356 3.74929-4.01615 8.90816-7.53975.42416-.24741.68247-.3999.78746-.46625a48.98061 48.98061 0 0 1 6.4692-2.66261c.76176-.27717 2.95854-.81958 2.48122-.72051.07151-.01589.1426-.03314.21419-.04835a34.3451 34.3451 0 0 1 7.19428-.48992 22.81973 22.81973 0 0 1 4.53946.65694c.30962.13423 1.567.61655 2.18232.95871a21.6604 21.6604 0 0 0 3.45869 1.73163 6.55875 6.55875 0 0 0 4.961-.20219l-.33287.17472a6.45374 6.45374 0 0 0 .6217-.32391 1.63711 1.63711 0 0 0 .22154-.11859l-.18756.09839a4.09094 4.09094 0 0 0 .93165-.73708 4.44691 4.44691 0 0 0 .49457-.84544l-.01031.03229c.00634-.01556.00972-.03145.01589-.047a4.38172 4.38172 0 0 0 .287-.9047l-.08317.26136c.72152-2.932-1.39369-6.02442-4.02773-7.28887-5.6181-3.54592-12.49245-4.05536-18.94847-3.28067-11.33764 1.62783-21.6372 8.17362-28.7582 17.0341a44.57664 44.57664 0 0 0-8.893 23.84159c-1.06681 9.42 2.1191 19.56747 9.74126 25.53518 3.76645 3.07907 11.813 6.32737 19.98309 5.77608a28.92341 28.92341 0 0 0 11.50179-3.94911 44.4424 44.4424 0 0 0 14.619-12.91188c3.33866-4.27944 6.55636-8.75263 8.59178-13.81741 1.38066-3.40518 2.83977-6.92828 3.07011-10.63345a15.35748 15.35748 0 0 0-4.20536-12.17227Z" class="cls-26" transform="translate(-715.27737 -11.23575)"/>
  <path fill="none" stroke="#353535" stroke-miterlimit="10" stroke-width="10.65836" d="M724.3438 998.37607s-43.62417 63.279-43.62417 137.10456"/>
  <circle cx="741.06567" cy="1031.53987" r="8.20624" class="cls-26"/>
  <circle cx="626.81187" cy="1158.25773" r="8.20624" class="cls-26"/>
  <circle cx="633.0439" cy="1206.03659" r="8.20624" class="cls-26"/>
  <circle cx="635.12124" cy="1255.89279" r="8.20624" class="cls-26"/>
  <circle cx="633.0439" cy="1307.82634" r="8.20624" class="cls-26"/>
  <circle cx="626.81187" cy="1357.68254" r="8.20624" class="cls-26"/>
  <circle cx="726.52428" cy="1064.77734" r="8.20624" class="cls-26"/>
  <circle cx="714.06023" cy="1095.93747" r="8.20624" class="cls-26"/>
  <circle cx="716.13757" cy="1133.32962" r="8.20624" class="cls-26"/>
  <path fill="none" stroke="#353535" stroke-miterlimit="10" stroke-width="5.37836" d="M1235.3699 1060.69632s-78.64714 86.94436-35.7487 274.20913"/>
  <path d="M1085.33177 1201.59949s96.9679-45.63195 114.07989-11.408-22.816 62.74394-62.74394 74.15193" class="cls-29" transform="translate(-715.27737 -11.23575)"/>
  <path d="M1149.74149 1344.01441s101.21953-35.20875 89.51233-71.63732-60.19151-28.88517-96.70722-9.11177" class="cls-29" transform="translate(-715.27737 -11.23575)"/>
  <path d="m387.16639 1178.95575 68.44793 148.30385M472.7263 1321.55561l11.40799 22.81598M495.54228 1310.14762l11.40799 22.81598M386.96412 1150.66502l11.40799 22.81598M415.48409 1144.96103l11.40799 22.81597" class="cls-29"/>
  <path d="M1296.28459 1402.22943c37.39215-118.40849 18.69607-274.20913 18.69607-274.20913" class="cls-20" transform="translate(-715.27737 -11.23575)"/>
  <path d="M1371.06889 1146.71638s37.39216 124.64051 0 249.281" class="cls-29" transform="translate(-715.27737 -11.23575)"/>
  <path fill="none" stroke="#353535" stroke-miterlimit="10" stroke-width="4.4146" d="M724.3438 1154.17671s31.16013 126.65084 12.46406 218.12089"/>
  <path d="m1549.80178 1114.0455.02079-.0131c-.02494.01217-.05494.02789-.08453.04336.02105-.01057.04269-.0197.06374-.03026Z" class="cls-26" transform="translate(-715.27737 -11.23575)"/>
  <path d="M1575.21506 1075.10278a10.41124 10.41124 0 0 0-5.72925-.30447c-3.50932.55982-6.72524 2.095-9.96323 3.48328a78.6238 78.6238 0 0 0-9.56713 4.47488 38.65523 38.65523 0 0 0-6.29982 4.50733c-7.407 6.7899-11.78352 10.99209-15.93356 17.862a16.46151 16.46151 0 0 0-1.55217 2.98914c-.27294.72981-.96167 2.73057-1.14171 3.364a13.92615 13.92615 0 0 0-.84848 3.37449 28.8193 28.8193 0 0 0-3.54034-1.16563c-6.24031-1.76391-12.31427-2.19365-17.98622 1.4723-7.61523 4.14944-12.45222 10.195-14.37014 18.69709a57.22614 57.22614 0 0 0 1.13554 25.32521 47.46139 47.46139 0 0 0 14.86868 23.0904 30.345 30.345 0 0 0 3.94184 2.67993 21.54616 21.54616 0 0 0 6.37184 2.60141c3.76442.95423 8.06508.76776 10.06449-3.07662 1.22142-2.67765-.784-5.28667-3.107-6.50065-1.57009-.78695-3.34753-.81028-5.02624-1.22852-5.87262-2.46659-10.20988-6.68459-14.22645-13.97244a46.9138 46.9138 0 0 1-1.94784-4.37927 35.76465 35.76465 0 0 1-1.31136-4.31039 58.653 58.653 0 0 1-1.18338-10.564c.00972-4.21807-.23871-4.83343 1.22057-10.02789a18.74062 18.74062 0 0 1 1.66925-3.4258 15.37328 15.37328 0 0 1 2.07311-2.5064 32.20858 32.20858 0 0 1 5.28828-3.73459c.206-.121.41613-.23481.6239-.35264a13.99435 13.99435 0 0 1 1.85858-.73066c2.809-.43565 2.11682-.12552 3.71836.00829a26.08234 26.08234 0 0 1 6.61392 1.6749c1.12624.55239 1.90685.93124 2.50758 1.23765-3.34787-.33295-6.7424 1.21812-9.20781 4.56659-2.20988 3.09826-2.77494 7.04145-2.70529 10.7686.02975 7.16233 3.12362 14.19263 7.66916 19.64236 6.514 7.65166 16.12611 12.00549 25.29647 5.955a13.18666 13.18666 0 0 0 4.91762-7.75318c2.14632-6.294.703-13.23562-1.55158-19.30188a43.97491 43.97491 0 0 0-7.68851-12.62694 8.08782 8.08782 0 0 0 1.478.40911c2.2879.25832 4.49583-.57182 6.66091-1.21533a41.877 41.877 0 0 0 9.06268-4.05359c7.08321-4.52305 12.22416-11.5192 15.93981-18.95388 2.94636-6.35827 10.61286-23.91697 1.90692-27.99919Zm-34.93765 80.22777c-.11478.46735-.254.92761-.39592 1.387a15.0286 15.0286 0 0 1-.62686 1.46672c-.081.10321-.16161.20582-.24944.30337-.23236.169-.4736.32475-.72093.47107a10.20936 10.20936 0 0 1-1.75284.637 12.29264 12.29264 0 0 1-2.00135.18918 11.64983 11.64983 0 0 1-1.7629-.29889c-.12426-.04683-.24877-.09273-.37108-.14437-2.30337-1.17181-.94053-.34158-3.66831-2.42027-3.00511-2.73708-1.886-1.46934-4.48434-5.07823-1.1707-1.689-3.42-6.82676-3.45446-9.09649-.1251-4.14023-.4551-2.54714.33278-6.15781.10625-.26169.221-.51984.35206-.76979.06838-.08461.15029-.18537.253-.31047.15088-.15248.25789-.26026.346-.349.11605-.09611.23955-.18216.36127-.27057.07481-.00812.1606-.01691.25493-.02646.09991.04548.1972.096.2945.14683.42331.318.83014.65787 1.227 1.00832l.00474.00457c.01842.02333.03617.04716.05452.07058a3.14776 3.14776 0 0 0-2.4742 1.04213 5.00856 5.00856 0 0 0-.01352 5.75589 13.52219 13.52219 0 0 0 4.6 4.00422c5.66054 2.27531 9.60517-2.82853 9.21051-8.19086a11.88309 11.88309 0 0 0-.59059-2.37927 31.29648 31.29648 0 0 1 5.15489 11.80905c.66718 4.87307.76752 3.48175.12054 7.19655Zm23.14847-56.36556c-2.574 4.58248-1.93111 3.69934-5.72114 8.39947-3.67567 3.89409-2.81282 3.47644-7.88217 6.66794a1.05227 1.05227 0 0 1 .11005-.04911c-.0431.02172-.08773.04057-.13084.06221l-.04142.02612c-.07709.04184-.13136.07142-.176.09585-.08715.04581-.1748.09061-.26186.1366.14817-.08394.29517-.16551.41553-.22831-.49026.24521-.98229.48747-1.48514.70614a37.6905 37.6905 0 0 1-4.958 1.5728 10.14493 10.14493 0 0 0-3.87752 1.32175 4.54951 4.54951 0 0 0-.88348.68281c-.18655.1612-.36676.3234-.52635.49018-.02874.02586-.05647.05342-.08546.07877l.08081-.07353a4.717 4.717 0 0 0-1.41685 4.35332 45.4875 45.4875 0 0 0-6.1846-5.02853 7.73778 7.73778 0 0 0 1.37289-1.75174 55.40915 55.40915 0 0 1 2.799-5.46376c1.23781-2.13558 5.5181-7.2013 10.45788-11.63957.44123-.40615.64908-.59854.68872-.63657.38815-.351.77884-.69905 1.18178-1.033a72.929 72.929 0 0 1 10.01242-7.03935c.11961-.06584.21682-.11952.30447-.16787a100.86075 100.86075 0 0 1 11.35328-4.95262c-.25477 1.18828-.54943 2.36719-.89988 3.53087-.20641.62914-.43329 1.25134-.66286 1.87245a76.65555 76.65555 0 0 1-3.58326 8.06669Z" class="cls-26" transform="translate(-715.27737 -11.23575)"/>
  <path d="M1588.20116 1188.1868c-7.856-5.99568-16.49956-11.31481-25.97109-14.29913-7.16622-2.10042-14.94222-2.97621-22.30361-1.48971a1.28211 1.28211 0 0 1 .26288-.082 18.52654 18.52654 0 0 0-5.78091 1.66941c-1.709 1.14839-2.89827 3.34576-2.18494 5.39284a4.717 4.717 0 0 0 2.24318 2.42137 7.01534 7.01534 0 0 0 .415 3.94691 11.10718 11.10718 0 0 0 2.11344 2.97511 18.7063 18.7063 0 0 0 1.73373 1.93965 25.79126 25.79126 0 0 0 4.048 3.798c10.47386 7.54237 22.73513 13.48616 35.857 13.71269a29.60515 29.60515 0 0 0 5.41575-.304l-.10465.02392c.0596-.01175.11877-.02595.17827-.03787q.38279-.07037.76185-.16186a18.66262 18.66262 0 0 0 4.47834-1.47653c2.93157-1.254 5.62444-3.55183 6.09289-6.861.81992-5.5447-3.44101-8.1708-7.25513-11.1678Zm-20.94594 5.9842c-9.49875-3.3652-16.051-8.13313-18.82684-9.79046-.36634-.21487-.71561-.45856-1.08313-.67064.20083.13423.71763.46626.99454.64249-1.00832-.66049-2.04894-1.27509-3.08634-1.88284q-.25954-.177-.52044-.35315a19.86788 19.86788 0 0 1 2.23507.0557q-.70267-.029-1.40535-.05773c.52238.02738 1.04544.04547 1.56689.08537.03212.00169.06424.0022.09636.00389a43.68855 43.68855 0 0 1 11.99729 2.60234 90.31293 90.31293 0 0 1 15.7492 7.77777q1.01763.61545 2.01784 1.25895-.6157-.39786-1.23123-.79591c.44529.28334.88154.581 1.33012.859.37505.23008.74587.4671 1.11762.70242.61976.405 1.23985.8096 1.85 1.22911.1491.1016.29516.2087.44376.31157-3.69742.10047-6.9551-.38514-13.24536-1.97788Z" class="cls-26" transform="translate(-715.27737 -11.23575)"/>
  <path d="M1540.18934 1172.316c.105-.02139.209-.04489.31342-.06729-.10988.02161-.2185.0446-.31342.06729ZM1540.89987 1172.16348c-.13135.03051-.26474.0568-.39711.0852.44504-.08774.8954-.15333.39711-.0852ZM1646.24771 1044.12785c-3.49435-4.166-8.03364-7.21542-12.59659-10.09036-5.77456-3.80068-12.315-6.68036-19.30543-6.94679a23.93791 23.93791 0 0 0-6.08419.21014q-.18842.04083-.3638.07962l.05131-.01183a30.69688 30.69688 0 0 0-12.83378 5.55893c-5.28861 3.632-9.16182 8.54089-10.45864 14.91323-.34183 1.43976-.65187 2.889-.86725 4.35341-.04209.2988-.08377.60133-.11377.90436-.10592.65255-.2147 1.30476-.31537 1.95832-.44267 2.67031.56066 6.27615 3.43679 7.08263 2.79819.24724 4.89176-2.446 5.48886-4.93707.19-.84029.2344-1.71024.3737-2.5616.1693-.64274.29035-1.30823.49879-1.94041.0142-.04835.02908-.09653.04353-.14488 1.98141-5.37728.931-5.14585 5.60982-9.84539a39.61147 39.61147 0 0 1 4.12426-2.95305c.24445-.1584.50006-.29787.75483-.439a23.23577 23.23577 0 0 1 4.20827-1.59131c.54748-.10684 1.38134-.26559 1.87236-.32476a12.53937 12.53937 0 0 1 1.81413-.12543c7.13756.65153 7.88022.91543 14.2578 4.18088 5.27763 3.2636 5.981 3.22134 11.27272 8.1273a32.75854 32.75854 0 0 1 3.22387 4.13845c1.52234 2.54106.97224 1.13182 2.34166 5.45269.0814.28849.14987.58028.224.87063.06661.36871.12341.7391.15629 1.11238a7.36168 7.36168 0 0 1-.28283 2.94594c-.99049 2.455-.41249 1.22024-1.73906 2.96894q-.53075.61811-1.10942 1.19234a9.82876 9.82876 0 0 1-1.22142.83192l-.11251.05342c-4.12881 1.51811-2.24208 1.082-6.7883 1.52047-.71366.0306-1.42808.05748-2.14251.05275-.4627-.03905-.92447-.08952-1.384-.15621-3.72613-.603-2.96758-.52348-4.45137-1.01348a17.43653 17.43653 0 0 1-3.659-1.7345c-.14462-.09061-.27048-.16922-.38037-.23786a21.32664 21.32664 0 0 1-3.84988-3.43307c-2.63268-3.661-1.82207-2.11276-3.25573-5.54981-.06433-.20523-.1115-.35933-.15114-.49009-.08241-.44411-.1573-.88956-.21368-1.33764-.07811-1.75656-.29982-1.083.35949-4.11293a13.6798 13.6798 0 0 1 .78238-1.59571 8.80139 8.80139 0 0 1 .70082-.77435 7.33146 7.33146 0 0 1 .68306-.49837c.32552-.12679.65966-.23693.90681-.31461.02468-.00322.04894-.00989.0738-.01268.151-.01539.30277-.01539.45433-.02063a5.35565 5.35565 0 0 0-.15435 3.93542 12.519 12.519 0 0 0 3.68894 4.53607c3.90727 3.21525 9.28312 2.68518 11.46325-2.17573 1.96872-4.82033-1.44981-9.71607-5.4149-12.29178a15.49457 15.49457 0 0 0-13.00917-2.632c-8.5042 2.50775-11.55369 13.09826-9.17163 20.93723 2.66109 8.65432 10.22755 15.34389 18.88728 17.668 7.03765 1.89451 15.0155 1.55336 21.463-2.0437 12.61891-8.15593 11.5859-22.90788 2.21394-33.24844ZM1701.465 1072.39478a39.98981 39.98981 0 0 0-1.733-7.51617 44.10563 44.10563 0 0 0-2.81873-5.55411c-4.44487-6.576-10.195-12.22941-16.12214-17.47077a26.46266 26.46266 0 0 0-8.16246-4.64283 13.09133 13.09133 0 0 0-5.16749-1.16758c-4.37141.37505-7.09048 3.95089-4.60944 7.83822-.092 1.00266-.10718 2.00448-.12045 2.893-.17523 7.54946 3.14416 14.61966 6.72507 21.08431a93.33867 93.33867 0 0 0 9.35666 13.84387c4.69228 5.415 8.53844 9.52664 11.72368 12.64173 1.549 1.27365 2.92168 3.38548 4.85812 3.95537a4.67015 4.67015 0 0 0 6.01-3.69359c.01028-3.82238 1.0154-14.59665.06018-22.21145Zm-25.16258-9.50746c-2.22289-3.43722-5.08364-10.42035-5.45936-12.79244a20.21185 20.21185 0 0 1-.29339-2.15832 22.27375 22.27375 0 0 1 3.19986 1.48269c.35079.24311.76041.53574 1.05253.77174a115.96459 115.96459 0 0 1 9.30865 8.82194 36.723 36.723 0 0 1 6.083 7.96881 18.42969 18.42969 0 0 1 1.26579 3.56265 63.2846 63.2846 0 0 1 1.033 12.83546 93.15479 93.15479 0 0 1-16.19011-20.49253ZM2309.24671 1064.57609c-3.03588-1.05346-2.73023-.48578-4.20033-.68568-2.8861-.09814-5.779-.01192-8.66.17252a28.72546 28.72546 0 0 0-3.28371.32492q-1.03665-2.2986-2.13161-4.5714c-1.31474-2.6146-2.19348-5.45438-3.63028-7.99662-1.18388-1.58311-3.552-2.87731-5.39672-1.64017a4.90257 4.90257 0 0 0-1.71591 4.275 21.77108 21.77108 0 0 0 1.61177 4.62364c1.05355 2.52585 2.18385 5.01822 3.29622 7.51862-2.8626 1.1079-5.64811 2.46591-8.42145 3.84962-2.198 1.09607-4.47639 2.02747-6.6599 3.14213-1.78623 1.24365-3.0751 3.54643-2.31351 5.72461.84409 2.1508 3.27391 3.13039 5.46266 2.95474a17.88108 17.88108 0 0 0 4.53-1.66071c3.3417-1.44516 6.59786-3.08634 9.95376-4.49338.45189-.14192.86015-.27091 1.23-.38832 2.44673 6.47276 4.50176 13.09369 6.55408 19.69958 1.57136 5.22091 3.68268 13.57423 4.05562 15.38971.91644 4.02231 1.20248 8.21588 2.43337 12.15333 2.0699 4.34783 6.56793 5.59959 8.05781.021.60167-2.19306-.258-4.41266-.56092-6.58974a131.88486 131.88486 0 0 0-3.74152-16.6304c-2.492-8.74113-5.30138-17.41025-8.62025-25.87574a86.332 86.332 0 0 1 9.8366-.49972c5.57173-.7025 8.18041-5.83145 2.31422-8.81754Z" class="cls-26" transform="translate(-715.27737 -11.23575)"/>
  <path fill="none" stroke="#353535" stroke-miterlimit="10" stroke-width="10.38671" d="M1553.65131 1367.57995s-55.78833-100.8804 40.30767-165.29843"/>
  <path d="M1832.81813 1077.27082c-1.88022-3.11247-3.73644-6.24-5.53915-9.39808-2.28875-4.03483-4.48392-8.12747-7.027-12.01116-1.5362-2.96327-6.07041-4.67148-8.532-1.86264a6.00685 6.00685 0 0 0 .10574 7.18668c.84147 1.34939 1.64279 2.723 2.43168 4.10363a5.0394 5.0394 0 0 0-4.22746.70259 7.46835 7.46835 0 0 0-1.133.9456c-1.82427.35764-3.33562 1.59917-4.21715 4.12958q-.50235 1.35109-1.00469 2.70217c-.278.33929-.56811.668-.86328.99227a6.91079 6.91079 0 0 0-2.9238 1.86222 5.63182 5.63182 0 0 0-1.207 4.49566 6.52473 6.52473 0 0 0-1.55276 4.78746 22.10175 22.10175 0 0 0 .76024 3.561q-1.11894 3.08812-2.21563 6.1841-.70167 2.08279-1.32133 4.19306c-.02519.03947-.04987.07971-.07523.11893a93.09044 93.09044 0 0 0-7.7525 18.41037c-.25916 1.63265-2.63869 5.02025-.90478 8.31833a5.99787 5.99787 0 0 0-.10008 4.08334c.21064.439.4425.86658.6823 1.28989a13.42579 13.42579 0 0 0-.9855 1.0292 4.82492 4.82492 0 0 0-5.75335 1.292 13.30052 13.30052 0 0 0-1.9585 4.52872c-.78154 2.52314-1.47652 5.072-2.1622 7.6225a98.63124 98.63124 0 0 0-2.7479 12.29973c-.05148.43836-.0836.8795-.11825 1.31972a20.27415 20.27415 0 0 0-.19907 2.11022c-.46016 2.99683.92583 6.09264 3.78767 7.09843-.00144.03551-.00144.071-.0022.10651-2.21816 1.11466-2.68923 3.97988-3.36782 6.39787q-1.30595 5.10319-2.4731 10.24183c-.7003 3.11128-1.45386 6.21055-2.28206 9.29013-.0388.14624-.06517.29568-.09958.44318a6.35712 6.35712 0 0 0 1.25929 6.3338 19.77844 19.77844 0 0 0 3.91378 8.14437c.1109.12915.22738.25316.33913.38147a4.21111 4.21111 0 0 0-1.62648 1.856 10.61066 10.61066 0 0 0-.69819 3.92241c-.266 1.49875-.59626 2.98786-.90258 4.47732-.88272 4.127-1.90221 8.221-3.09489 12.269-.271.77706-.541 1.569-.73674 2.37251-.95431 2.73919.06746 4.70935 2.45079 8.57377l.02468.04032.03525.05739-.00144-.00626a33.00765 33.00765 0 0 0 2.28545 2.87528c.30438.35891.61654.71071.92616 1.065a4.48144 4.48144 0 0 0-.90317 1.10427 4.72728 4.72728 0 0 0-.8402 4.86623 22.82785 22.82785 0 0 0 1.94277 4.06179q.1055.31368.198.60268a11.16978 11.16978 0 0 0-.14632 7.442 5.07747 5.07747 0 0 0 .70986 1.29521c-.37843 1.50712-.76675 3.01145-1.14408 4.51629-.23786.62906-.40015 1.29564-.57909 1.95343-.67326 1.92908-1.30079 3.87616-2.13592 5.7432-.05833.14023-.073.1945-.06.19416q-.22962.39787-.451.80115a4.17313 4.17313 0 0 0-.95592 1.83745 5.36965 5.36965 0 0 0 2.80284 6.559 5.50564 5.50564 0 0 0 5.44981-.47191l.009.013a5.44768 5.44768 0 0 1 1.02929-.65382c.155-.08317.31292-.16127.46591-.248l.046-.02434-.04134.02164c1.08829-.61722 2.133-1.31153 3.23013-1.91615.89683-.50995 1.80626-.99717 2.71628-1.483.83141-.40945 3.13867-1.56562 3.85039-1.88614 3.62182-1.74515 7.2335-3.51811 10.75085-5.46723a5.14019 5.14019 0 0 0 .98719-.66041 9.70779 9.70779 0 0 0 3.49022-3.62867c2.13008-4.64553-2.80495-8.11216-5.27679-11.41963-2.8713-3.47948-4.95067-5.8268-9.643-10.92887-2.09755-2.29973-6.09619-6.505-7.52268-8.0333 4.59558-.97637 9.0915-2.51815 13.55116-3.94505a28.64984 28.64984 0 0 0 3.05524-1.05964.709.709 0 0 0 .19526-.07675c5.6689-2.03271 9.30543-6.3704 5.41016-12.09221-4.5441-5.71295-10.27969-10.33625-15.58691-15.30967-.04311-.0393-.09365-.07049-.13828-.10853-1.013-.8839-2.02054-1.77372-3.00926-2.68467-.96572-.90216-1.92916-1.809-2.85026-2.75711-.44622-.55475-.78686-.99142-1.05363-1.35083q4.83707-1.22137 9.644-2.55391c2.98246-.79134 5.97684-1.53755 8.98753-2.21376l.15418-.03568c2.78162-.53607 5.7181-1.65614 7.10062-4.30015 2.28038-4.85973-2.75533-8.15358-5.65943-11.26757q-6.04425-6.01091-11.7618-12.33658a28.45618 28.45618 0 0 1-1.93356-2.14666c4.11047-.85964 7.43459-1.53188 9.09454-1.86949 6.29812-1.03385 12.31308-1.12463 14.95574-2.23135 2.62846-1.04534 5.09057-2.70605 4.906-7.16055a6.818 6.818 0 0 0-.6255-2.02908c.00812.00989.01674.02155.02113.01969-.05021-.10937-.10735-.21571-.16-.324l-.00549-.01107c-.22907-.47-.47352-.93267-.72964-1.38811-5.64828-8.234-8.21774-10.40175-13.57254-18.007q-2.34969-3.2423-4.65492-6.51646c.41537-.13634.83048-.26854 1.24467-.38578 3.12514-1.06158 6.31858-1.90888 9.45479-2.93791 3.48455-1.16293 6.94054-2.4174 10.46972-3.4417a7.68452 7.68452 0 0 0 .84713-.27015l-.06247.0328c4.29475-1.0757 7.58354-4.23 6.0847-8.90571-1.67651-3.88141-4.32306-7.25954-6.7419-10.70216-2.08833-2.92177-4.23456-5.80162-6.31908-8.72609-.54115-.74857-1.00655-1.55395-1.58252-2.27209l.17514.19238c-.3458-.47842-1.09193-1.80263-1.4275-2.39753q-.11689-.23367-.233-.46811c.13609-.39356.27345-.79135.41148-1.19.93116.30523 1.86146.61282 2.79887.89878 6.25459 2.16779 12.95329 1.87811 19.40847.91044.14623-.02045.29314-.03989.44056-.05274a4.17209 4.17209 0 0 0 .76159.00913l.67-.15333a5.04422 5.04422 0 0 0 3.85326-3.55784c1.20724-2.98147-1.41302-5.52975-2.76275-7.95365ZM2095.47559 1109.33725c.05714-.02942.10718-.06729.16686-.09383-.21656.09771-.23939.11445-.16686.09383ZM2102.14327 1119.857c-.15266-2.23668.0142-4.53379-.66219-6.69912-.83648-2.1142-2.73361-4.12181-5.1521-4.05883a5.44513 5.44513 0 0 0-.85339.2382c-1.46638.756-2.14108 2.45019-2.512 3.98123a22.66691 22.66691 0 0 0 .0989 4.52711q.0999 3.04349.30379 6.08233a6.8734 6.8734 0 0 0 1.01635 3.52377c.99337 1.50915 3.0014 2.69363 4.84324 1.99087a5.37365 5.37365 0 0 0 3.08812-4.01268 44.11648 44.11648 0 0 0-.17072-5.57288ZM1899.88848 1074.418c-.74638-.97409-1.50526-1.94556-2.20092-2.96031a15.294 15.294 0 0 0-2.69262-3.386 6.58961 6.58961 0 0 0-5.92189-1.29327 3.88263 3.88263 0 0 0-1.66139 1.12615l-.0136.01835c.02941-.04548-.39889.5747-.55755.86522-.17006.404-.2742.83563-.41367 1.25151a6.99449 6.99449 0 0 0-.09247 1.89366c-.11107.00879-.22316.02037-.33338.027-2.56794.28654-5.14957.45628-7.70111.87722a13.4164 13.4164 0 0 0-5.25574 1.58776 5.44855 5.44855 0 0 0-1.39444 7.56392 8.04067 8.04067 0 0 0 1.6012 1.51177l-.1907-.12332c.12544.09391.25494.17725.38241.26584.03364.02307.06643.04708.10041.06981a9.80882 9.80882 0 0 0 1.01027.613c.79118.7462 1.64051 1.43442 2.4114 2.20548.59558.56118 1.16335 1.14949 1.71675 1.75174l.339.3797c1.4318 1.6192 2.83614 3.26351 4.18029 4.95575-3.70652 1.52225-7.53273 2.74325-11.3209 4.04437a98.54656 98.54656 0 0 0-13.1991 5.2904c-2.16847 1.14069-4.542 2.05333-6.24758 3.87371-2.69025 3.2505-.7588 6.704 1.33536 9.62952 2.039 2.90249 4.28646 5.655 6.30024 8.57816 1.60306 2.2065 3.05473 4.51122 4.4807 6.83166-.56751.08267-1.134.17294-1.69747.284-3.96619.68966-7.89383 1.57779-11.82638 2.43337-4.79692.96919-12.42754 1.97033-11.99966 8.416.22789 2.84452 2.18114 5.15025 3.85326 7.32987 2.0486 2.57436 4.208 5.05676 6.33354 7.56688 1.92275 2.36626 3.84591 4.75618 5.59241 7.26309-2.5534.8074-5.10528 1.62039-7.67676 2.36811-5.70255 1.78116-11.91158 2.33422-17.0893 5.48929-.04235.0306-.07895.06686-.12045.0983a6.182 6.182 0 0 0-2.71147 9.066c1.20232 1.84277 3.14137 2.99251 4.89776 4.24656a64.85426 64.85426 0 0 1 6.14623 4.67554c4.97612 4.62254 4.59626 4.63826 8.23313 8.55467a29.9228 29.9228 0 0 1-6.4447 1.72283 118.75875 118.75875 0 0 1-12.82768 1.31871c-1.832.12924-3.71819-.047-5.47036.59465a6.13781 6.13781 0 0 0-3.44186 7.9803 13.005 13.005 0 0 0 3.54879 4.28579c2.43718 2.18841 4.96615 4.27175 7.49554 6.352a158.80632 158.80632 0 0 1 14.11335 12.89235c-7.19834 1.74118-14.32957 4.145-20.42973 8.44385a29.37642 29.37642 0 0 0-4.89971 4.33608 6.80178 6.80178 0 0 0-2.09 5.3472 6.7126 6.7126 0 0 0 3.88022 5.27407c.96251.60006.53092.31554-.01039-.0344 2.5594 1.64346 2.07024 1.28955 3.25277 2.14311 6.77715 5.21972 13.47542 10.565 19.97751 16.12475q.786.70193 1.5761 1.40045c-2.41883 1.36224-4.823 2.75364-7.23841 4.12409-5.23257 3.04179-10.46481 6.08427-15.74962 9.035-.82854.4611-1.65251.93056-2.4813 1.39132-.14319.06652-.28511.13583-.43151.19483-3.53206.51486-6.74477 3.76637-6.27345 7.47458.36482 3.7902 4.00507 5.78893 6.90884 7.62647 2.91763 1.74769 9.59207 6.35789 15.80017 10.95651 1.944 1.35015 3.87372 2.72093 5.77051 4.13659a8.09658 8.09658 0 0 0 5.63146 1.69207c4.45154-.47614 5.9399-4.93969 3.86788-8.568-.77714-1.68776-2.386-2.75567-3.78251-3.89806-.4993-.39931-1.01247-.78052-1.51794-1.17172a3.19954 3.19954 0 0 0 .41841-.0737 9.59514 9.59514 0 0 0 3.83162-1.00436c2.45357-1.107 5.08507-1.58049 7.46739-2.85634 1.90854-1.27848 3.27416-4.06281 1.80254-6.14294-2.785-3.58919-7.15438-1.33705-10.5861-.14268a19.29 19.29 0 0 0-4.46 2.07083 5.66451 5.66451 0 0 0-2.363 5.21111c-.54571-.40193-1.08888-.80749-1.63577-1.208-2.99041-2.25519-6.05536-4.40505-9.16791-6.48527 5.84345-3.3657 11.64312-6.807 17.46519-10.20971 2.0956-1.23249 4.21791-2.41773 6.34352-3.59731 2.14352-1.2106 4.68365-2.69794 5.33772-5.24356 1.16327-3.1478-.70648-6.1972-3.056-8.20726 2.2792 2.481-1.12294-1.25371-2.05071-2.06957-4.77393-4.72253-9.93373-9.00992-15.12387-13.26131-2.4-1.98909-4.77926-4.02544-7.25151-5.9317 1.0052-.65128 2.03711-1.2625 3.084-1.84235a53.404 53.404 0 0 1 5.25455-2.10549c2.60657-.94231 5.24762-1.79105 7.92832-2.49668 1.99214-.54444 4.08393-.88061 5.86348-1.98335a6.64515 6.64515 0 0 0 3.02963-8.05452 10.8649 10.8649 0 0 0-2.24783-3.23587c-5.7012-6.18106-11.55268-12.24978-17.76079-17.93094a54.60463 54.60463 0 0 0 17.619-4.87452c.3032-.14031.59947-.2928.89194-.45222.07759-.03778.15586-.07421.23329-.1125a11.23454 11.23454 0 0 0 3.69435-2.564c2.84147-3.24551 1.498-7.55859-1.405-10.26127-4.18926-4.31495-8.08926-9.73686-14.29593-14.88271 5.11948-1.37256 10.222-2.80707 15.23858-4.52779 1.86044-.77021 4.166-.98305 5.849-2.11825 2.84772-1.5433 4.43557-4.44309 3.30882-7.73729-5.14906-9.1357-10.333-15.02861-15.47086-20.95566a122.92356 122.92356 0 0 1 15.64642-3.111c2.0639-.28562 4.19044-.25316 6.18021-.92566 5.71421-2.4922 3.80119-8.52086.85575-12.52711a146.21962 146.21962 0 0 0-9.6454-13.83889c-1.16572-1.52335-1.83585-2.33523-2.339-2.92472 1.41042-.58189 2.835-1.131 4.259-1.67669 5.13723-2.216 10.47707-3.89983 15.71954-5.84168 2.34225-.98508 4.98237-1.60043 6.77942-3.5a5.81155 5.81155 0 0 0 1.26842-2.50682 3.9544 3.9544 0 0 0 1.53028-1.08144 5.50236 5.50236 0 0 0 .63082-5.44051 40.26948 40.26948 0 0 0-3.2253-4.76261q-1.67187-2.27336-3.39639-4.51409c1.87777-.23938 3.779-.38731 5.6509-.67554a5.87042 5.87042 0 0 0 1.95934.76488 5.35784 5.35784 0 0 0 4.944-1.57651 6.04262 6.04262 0 0 0 .06614-6.99033ZM1781.1948 1048.53561a4.47883 4.47883 0 0 0-4.40336.79523c-1.51034 1.19809-2.215 3.08288-3.18474 4.69811-1.40645 2.53227-2.81721 5.06225-4.18114 7.618-1.31879 2.80233-3.66375 5.38176-3.52546 8.63361.17759 3.04383 2.02637 5.22649 5.16107 3.97177a7.8654 7.8654 0 0 0 4.21774-4.75736c.96733-2.27683 2.02223-4.51376 3.07848-6.75027 1.30764-2.75432 2.65187-5.4952 4.18106-8.13431.93855-1.97758.7178-5.02107-1.34365-6.07478ZM1766.60692 1086.75148a6.54971 6.54971 0 0 0 .0295-.84358l-.014.34309a6.27322 6.27322 0 0 0-.26314-1.79214 3.74656 3.74656 0 0 0-2.79819-2.611c-4.266-.55991-6.86293 4.334-6.68154 8.05443.61232 5.07088 4.53869 5.51346 7.61455 1.93027a12.96356 12.96356 0 0 0 1.64888-3.15549 6.93185 6.93185 0 0 0 .45653-1.86645l-.01.24437c.01022-.1019.01124-.20232.01741-.3035ZM1755.56935 1102.79407a5.05184 5.05184 0 0 0-4.48958 1.94844 8.907 8.907 0 0 0-1.4226 3.36064c-.77782 2.84434-1.43011 5.724-1.9994 8.617a6.80416 6.80416 0 0 0 2.1322 6.2131c1.83449 1.5859 4.425.16017 5.66865-1.57356 1.30966-1.6471 1.47043-3.774 1.87718-5.76535q.51084-2.49766 1.09344-4.97993a10.952 10.952 0 0 0 .56583-3.30434c-.13567-1.985-1.34007-4.12725-3.42572-4.516ZM1751.504 1142.888c-.27429-2.00177-1.76992-4.26017-4.02257-4.05891-3.38058.45264-4.32188 3.79367-4.76615 6.68906-.449 2.44825-1.27062 5.04966-.23042 7.456.62812 1.35126 1.74261 2.90089 3.3936 2.83116 2.60969-.41841 4.29736-3.04011 4.65711-5.50721.22553-2.47661 1.08365-4.9201.96843-7.4101ZM1743.771 1179.471c-.35772-1.89823-1.98444-3.79189-4.05832-3.61726a5.16025 5.16025 0 0 0-3.78936 2.89624 19.56081 19.56081 0 0 0-.93444 4.19594c-.40126 3.33916-1.40544 6.894-1.27535 10.23067.74451 4.30362 4.00059 6.56371 7.16783 2.56861 1.87785-2.511 1.57719-5.83923 2.17606-8.78415.20535-2.44416 1.2059-5.07372.71358-7.49005ZM1736.84774 1217.95747a4.07893 4.07893 0 0 0-3.77219-2.44427c-2.51148.31672-4.1213 3.08017-3.991 5.49064-.23608 2.5.41943 5.38523 2.654 6.81509 2.77833 1.83542 5.351-2.068 5.69308-4.55585.04637-1.77845.37981-3.70398-.58389-5.30561ZM1734.73811 1268.50748c-.1737-2.04641-.26583-4.09881-.34166-6.151-.09653-3.3799-.12577-6.76167-.11521-10.14293-.03127-1.6389.22392-3.30628-.30489-4.88931-.72659-1.85343-2.46312-3.59241-4.58864-3.38388a5.29479 5.29479 0 0 0-4.21132 4.25493 47.08118 47.08118 0 0 0-.16846 4.93158c-.04167 4.801.00279 9.60593.37352 14.395.181 2.29086.22687 4.74012 1.71844 6.60733a5.37818 5.37818 0 0 0 2.99658 2.04234 4.99167 4.99167 0 0 0 .76911.02316c.18512-.03541.55856-.098.68188-.13456a4.90293 4.90293 0 0 0 .94476-.53236c2.09578-1.65046 2.62078-4.4975 2.24589-7.0203ZM1730.88046 1276.21332c.102-.015.071-.01843-.01488-.0186-.12358.02367-.16533.03551.01488.0186ZM2027.37942 1083.60605a5.168 5.168 0 0 0-5.74363 1.56891 49.25929 49.25929 0 0 0-3.0631 5.397c-1.52428 2.481-1.77127 6.5807.99066 8.2786 2.2704.86108 4.76041-.505 6.20379-2.25189 1.33029-1.99848 2.29407-4.14775 3.43739-6.245 1.00757-2.3085.59676-5.51462-1.82511-6.74762ZM2010.676 1114.9414c-3.41643-.48958-6.05359 2.78382-5.81785 6.03584.16838 2.91416 2.168 4.90081 5.12574 3.73078a6.367 6.367 0 0 0 3.75216-4.34183c.46844-2.21258-.62483-5.01863-3.06005-5.42479ZM1997.14376 1143.64711a5.41273 5.41273 0 0 0-4.11115 3.19209c-.73986 2.24208-1.19775 4.57089-1.82739 6.84628-.64537 2.53143-1.33105 5.05372-1.845 7.61608-.48848 2.43827.24919 5.3903 2.51224 6.69481a3.07463 3.07463 0 0 0 2.48332-.0836 6.837 6.837 0 0 0 3.7886-4.787c1.12632-4.36194 2.12738-8.75525 3.19859-13.13122.71411-2.74734-.98269-6.56949-4.19921-6.34744ZM1988.13764 1185.89806c-2.19095-.3458-4.23144 1.29783-5.10393 3.21356-.40742 1.15092-.79844 2.85862-1.1286 4.11284-.79524 3.17358-2.11572 6.69879.12544 9.60449 2.63775 3.54195 7.042-.52246 7.62833-3.68352.59338-2.51232 1.24077-5.01771 1.82029-7.5313.32543-2.35721-.82566-5.18262-3.34153-5.71607ZM1981.74112 1226.10607c-.37513-1.96069-2.06246-3.918-4.1841-3.77431a4.84884 4.84884 0 0 0-3.62638 2.9762c-.66878 1.75462-.57 3.673-.86489 5.50932-.42508 3.7569-.93335 7.50332-1.40129 11.255-.62643 4.15266 3.05 9.55006 7.00021 5.39521a8.062 8.062 0 0 0 1.9836-5.57626c.17895-2.21479.344-4.43084.56456-6.642.20033-2.11013.41-4.2196.57174-6.3332a8.08523 8.08523 0 0 0-.04345-2.80996ZM1975.01166 1272.75514c-.782-1.83-2.47851-3.48557-4.61764-3.28557a5.39723 5.39723 0 0 0-4.30709 4.37563 11.44556 11.44556 0 0 0 .46786 5.614c2.50674 5.41194 7.37787 3.8705 8.70816-1.345a11.7834 11.7834 0 0 0-.25129-5.35906ZM1981.32812 1324.95512c-.61079-3.02422-1.23223-6.04649-1.79-9.081-.75593-3.51532-.87849-7.17138-1.77812-10.64088-.90824-2.31487-3.64033-4.3207-6.18967-3.3275-3.59309 1.59528-3.691 5.15312-3.08339 8.55771.65238 5.20578 1.63611 10.36 2.61883 15.51142.40488 5.225 6.53564 9.76485 9.70761 3.73695a7.62585 7.62585 0 0 0 .51474-4.7567ZM1988.871 1360.43847c-.58527-3.21135-3.25143-6.371-6.78822-5.28126a5.3139 5.3139 0 0 0-3.11626 4.79625c-.10135 1.55513.549 3.04247.90368 4.5359 1.35311 4.99286 8.05063 7.66 9.5924 1.21753a9.35121 9.35121 0 0 0-.5916-5.26842ZM1927.53329 1336.83754a5.20615 5.20615 0 0 0-3.87777 3.04509 16.6165 16.6165 0 0 0-.78019 4.259c-.19053 2.2983-.75542 4.57343-.72119 6.88322.41283 2.64452 1.3685 4.47876 3.16149 4.93352 2.99734.34318 5.28481-2.53311 5.77752-5.24086a78.791 78.791 0 0 0 .99311-9.45175c-.29838-2.24446-2.08258-4.64149-4.55297-4.42822ZM1671.43438 1312.26741c-.97891-2.47479-3.24136-3.98935-5.61075-5.014-1.52952-.74359-3.07721-1.44838-4.62871-2.14463a14.14621 14.14621 0 0 0 1.249-3.03436c.43151-1.43721-.00508.07371-.22223.69651a23.87545 23.87545 0 0 0 1.628-7.8432 24.69165 24.69165 0 0 0-3.36892-14.99032 24.17806 24.17806 0 0 0-7.21389-8.24343q1.26638-2.17853 2.564-4.3387c1.36672-2.10887 1.2161-5.57939-1.19006-6.855a4.98884 4.98884 0 0 0-5.45133 1.50467 23.20374 23.20374 0 0 0-1.68615 2.59508q-1.11044 1.834-2.20346 3.679c-2.00405-.54782-4.03845-.99683-6.06187-1.43265-.96716-.1765-1.9175-.45594-2.878-.65644a8.35355 8.35355 0 0 0-4.67833-.07954 6.45712 6.45712 0 0 0-5.60906.81129c-2.47952 1.33071-5.09564 2.52415-7.20105 4.42864a25.96387 25.96387 0 0 0-4.26862 4.75381c-.38984-.25291-.779-.50547-1.18169-.767a56.60875 56.60875 0 0 1-5.384-3.4641c-1.30105-.87976-2.429-2.12129-3.99256-2.51451-2.22062-.82423-5.14247-.021-6.161 2.23929-1.48142 3.4029.48891 6.33718 3.21965 8.32349a81.32217 81.32217 0 0 0 7.198 5.1931c-.27632-.17734-.716-.45341-.92219-.59271.03939.02629.07844.05325.11766.0803.92422.63311 1.84126 1.27628 2.7588 1.91877-1.61278 8.33118.28376 17.49021 4.6064 25.001a19.44929 19.44929 0 0 0 7.06834 6.48746c.0759.04683.1535.09112.22974.13745q-.89058 2.29263-1.75749 4.59439c-.97992 2.38046-1.969 4.9254-1.00461 7.47982.56 1.29546 1.35329 2.56422 2.90884 2.87308 3.3805.35831 5.92215-2.72347 6.67571-5.74.73327-2.02283 1.39757-3.86848 2.028-5.62183a25.48256 25.48256 0 0 0 13.49824-1.2663 31.77492 31.77492 0 0 0 8.49634-5.38041c.378.1699.755.34191 1.13486.50767 2.70758 1.23054 5.41719 2.4616 8.0541 3.83906 2.7839 1.26148 6.39753 1.03292 8.534-1.32235a5.75324 5.75324 0 0 0 .70629-5.8424Zm-23.79763-30.38874q.23672.20148.45932.41926c.42238.48941.83986.98288 1.22133 1.50551a21.34044 21.34044 0 0 1 1.38219 2.167c.04108.08833.08867.17345.12764.26271a23.97765 23.97765 0 0 1 1.32218 3.39335c.58078 4.3824.14209 2.85017.16567 5.87506-.006.06636-.00938.133-.01606.19932a17.248 17.248 0 0 1-.59693 3.09463 12.6508 12.6508 0 0 1-.6725 1.49385 73.05472 73.05472 0 0 1-8.10464-5.13546c-.47048-.34005-.92067-.66269-1.37416-.9882 1.87621-4.16683 3.94311-8.24747 6.08596-12.28703Zm-24.58644-3.94032c1.71243-1.78082.89108-1.21668 3.84945-3.08524.87275-.494 1.334-.75652 1.63146-.92253 1.549 2.97358 5.12159 4.1546 10.59955 5.36545q-2.54355 4.817-4.88153 9.7361c-4.31588-2.96462-8.27294-5.55454-13.052-8.65432.35727-.53981.74466-.95271 1.85307-2.43946Zm2.66489 30.87629c-.37361-.19205-.74131-.39669-1.10477-.60877a12.65264 12.65264 0 0 1-1.558-1.242c-.62922-.55788-3.06175-4.17514-4.31207-9.57238l-.05-.21351c.05612.19137-.16906-.95245-.26356-1.68607a28.09585 28.09585 0 0 1-.2453-3.34956q2.11741 1.50806 4.24581 3.00072c2.331 1.60771 4.6102 3.2871 6.87942 4.98018q-1.70128 4.06377-3.28093 8.17936c-.0732.18731-.14742.37429-.22078.5616-.02972-.01695-.06024-.03267-.08982-.04957Zm16.11309.89649c-.39035.272-.99911.62948-1.43088.87748a16.11824 16.11824 0 0 1-2.04057.8424 10.11007 10.11007 0 0 1-3.80364.51959c.71713-1.94852 1.47432-3.97946 2.32568-6.22248.91475.65856 1.83306 1.312 2.76151 1.95132.85964.59338 1.73517 1.16 2.61831 1.714-.14133.10356-.28299.2073-.43041.31769ZM1034.32173 1357.41815c-.035.00879-.071.01183-.10633.01825-.036.00812-.06872.02418-.1052.03128.18191-.04193.7568-.1748.21153-.04953Z" class="cls-26" transform="translate(-715.27737 -11.23575)"/>
  <path d="M1096.43261 1343.8757c-1.92849-2.30827-4.73407-3.63763-7.1966-5.298-3.70745-2.321-7.634-4.25612-11.40434-6.46718-4.053-2.38147-7.92477-5.0571-11.96246-7.46359-4.6755-2.89861-9.86438-4.85947-14.47834-7.85994l-.21863-.13938c-2.92413-2.0033-5.74574-4.15435-8.54406-6.3289-1.254-.99623-2.49735-2.00608-3.74438-3.011.1606-5.5646.16926-10.20785.26566-14.62457.64736-9.88614 1.409-19.76425 2.35438-29.628.16052-1.70449.28778-3.4116.40316-5.11965.006-.014.014-.02552.02-.03972 1.99222-4.95694 1.18156-17.95841-6.54842-16.46279a5.34934 5.34934 0 0 0-2.07112 1.05524 5.11225 5.11225 0 0 0-2.37036 3.29783c-.20663 1.072-.20354 2.18393-.32657 3.27019-.2573 3.09649-.54081 6.19086-.86767 9.28076-.87541 7.99188-1.74325 15.99577-2.03762 24.034-.11935 5.4701-.12413 11.64718-.157 16.7888a166.68638 166.68638 0 0 1-13.61291-9.9169c-4.59228-3.90009-8.85761-8.16931-13.421-12.10532-.85618-.78576-1.68941-1.59655-2.48637-2.44233-.09184-.103-.1879-.201-.2857-.2972-.06061-.06618-.12646-.1273-.18647-.194l.08664.09518a6.49635 6.49635 0 0 0-3.01969-1.59714 4.56273 4.56273 0 0 0-4.325 1.32251 5.43119 5.43119 0 0 0-.34711 5.9093 16.99366 16.99366 0 0 0 2.652 3.26258c2.3272 2.468 4.84713 4.74469 7.21563 7.17265a129.1013 129.1013 0 0 0 15.65914 13.87836c3.83542 2.91839 7.86953 5.57449 11.66674 8.54055-.422 9.3018-.8429 16.31858-1.07645 27.486-.04759 3.089-.01061 6.17894-.06137 9.26774a9.46836 9.46836 0 0 0 .54224 4.76548c1.16563 2.463 2.83255 3.40915 4.44876 2.89218a4.02944 4.02944 0 0 0 1.91462.015 2.09126 2.09126 0 0 0 1.30346.222 5.47152 5.47152 0 0 0 3.66189-3.94235c.63133-2.13769.31638-4.46439.41629-6.67427-.183-9.31135-.08735-16.9609.11813-24.63631a83.913 83.913 0 0 0 8.05874 5.80567c3.21132 2.15849 6.75187 3.7372 10.13372 5.59875 4.86882 2.73817 3.84878 2.28358 6.722 4.04648 3.287 2.07109 6.51249 4.24276 9.876 6.1896 3.36 1.9399 6.82642 3.69147 10.12543 5.73788.54618.33084 1.08605.67165 1.62411 1.01551a30.97366 30.97366 0 0 0 3.94709 2.59921c2.592 1.08753 5.8489.9036 7.82173-1.272 1.87125-2.33972 1.39937-5.71811-.28792-8.02891ZM1487.93053 1107.60841c.2103-.19331.385-.35223.51291-.4704-.11808.11209-.287.2666-.44546.41013 1.51042-1.44254 3.27974-2.61967 4.7053-4.13947 1.603-2.00405 1.97777-5.318-.14-7.09775-3.18262-2.3649-6.38155-.696-8.99691 1.61675-2.1666 1.731-4.28215 3.52707-6.29424 5.43629a41.91747 41.91747 0 0 0-11.04078 17.77862c-3.866 10.942-4.30624 22.84813-2.43929 34.23852a130.05831 130.05831 0 0 0 4.061 18.64688c1.21837 3.18634 5.86264 5.9776 8.63767 3.01949a6.843 6.843 0 0 0 1.29141-5.20308 36.831 36.831 0 0 0-1.35481-4.27962c-.18308-.54122-.56751-2.10472-.79049-3.03123a98.28488 98.28488 0 0 1-2.51824-22.32534q-.02839.70065-.05723 1.4013c.32112-13.90414 5.59241-24.95177 7.95765-28.27657a46.94144 46.94144 0 0 1 6.87511-7.691c-.33239.2996-.54295.48307.0364-.03352Z" class="cls-26" transform="translate(-715.27737 -11.23575)"/>
  <path d="m1487.94236 1107.59776-.01183.01065-.03635.03356.1038-.09383c-.01792.01708-.0377.03238-.05562.04962ZM1618.03607 555.31311c-.23136-.16052-.129-.08719-.367-.23786-.01192-.00887-.43278-.13613-.44732-.14293-2.14547-.32941-4.13812 1.24187-5.07071 3.07451-1.609 3.44406-3.07975 6.95008-4.62693 10.422-.08893-1.07384-.178-2.14767-.27962-3.2199-.30666-3.88293-.96057-7.72588-1.3701-11.59735-.3955-2.47576-.20532-5.22349-1.34889-7.49283a3.08119 3.08119 0 0 0-4.62617-.51773c-1.45666 1.58188-2.00829 3.82274-3.1702 5.62444a79.24592 79.24592 0 0 0-7.30087 14.51861c-.657 1.95829-2.121 3.89992-1.59 6.045a2.353 2.353 0 0 0 1.61261 1.9746c1.92688.2442 3.50915-1.40488 4.10472-3.09146.66709-1.54122 1.30519-3.09475 1.968-4.6378a62.58618 62.58618 0 0 1 4.516-8.96593c.66523 6.00528 1.48421 13.38916 1.65064 18.57478.133 1.97815.1863 3.96167.36043 5.93677a4.66793 4.66793 0 0 0 .47927 2.2079 3.36459 3.36459 0 0 0 5.53839.663c.87934-1.209 1.11348-2.748 1.69384-4.10892.87664-2.40484 1.955-4.72794 3.04527-7.04175 1.60407-3.35577 3.10452-6.7596 4.6916-10.12341a18.79909 18.79909 0 0 0 1.513-3.643 4.89677 4.89677 0 0 0-.97596-4.22074ZM1641.67191 561.40148c-2.252-1.06855-4.38578-2.38734-6.71349-3.29271-4.608-1.8487-8.37521-1.88547-9.74912 3.665-.94189 2.44555-2.02485 4.83522-2.98711 7.27349-1.72334 4.08469-3.33595 8.21254-4.88838 12.3646-.63437 1.90871-1.73669 3.75842-1.73737 5.80605.10414 1.43633.93335 3.03179 2.453 3.32412 3.679.415 4.80115-3.90562 6.04184-6.62305.81755-1.90063 1.5859-3.82147 2.3485-5.74476a5.98361 5.98361 0 0 0 3.79122 2.67072 9.7564 9.7564 0 0 0 3.60036 1.01783c5.28971.19784 6.10641-4.84975 2.05891-7.532a16.41265 16.41265 0 0 0-4.79464-1.58062 5.19574 5.19574 0 0 0-2.60885.29991c.62609-1.54487 1.26411-3.08478 1.94218-4.60826.45222-1.00351.84376-2.03432 1.23359-3.06479 1.191.58 2.35679 1.2147 3.50391 1.87236 1.82512.971 3.48616 2.44994 5.59309 2.72939 1.65758.18427 3.69147-.25975 4.64485-1.75407 1.57642-2.77896-1.13674-5.89751-3.73249-6.82321ZM1674.11348 582.84719a9.34976 9.34976 0 0 0-5.03944-5.32319c-1.658-.97-3.30653-1.9623-4.93191-3.00752-2.90655-1.79971-5.91014-3.37095-8.83056-5.138-1.53789-.97942-2.988-2.39728-4.841-2.22636a2.80463 2.80463 0 0 0-2.57318 1.56147 5.70366 5.70366 0 0 0 1.3963 5.47918 35.07934 35.07934 0 0 0 2.97376 2.25781c1.31355.84261 2.64384 1.648 3.97548 2.4504-.54249 1.06209-.98288 2.20667-1.57212 3.23477a144.82639 144.82639 0 0 0-7.38134 15.86192c-.40185 1.19636-.899 2.4245-1.29944 3.6791a15.39835 15.39835 0 0 1 6.70665 3.00993c.79075-2.56177 1.71928-5.06276 2.712-7.52348 1.66865-3.96619 3.57127-7.78665 5.261-11.74058.418-1.01327.95558-1.982 1.35557-3.01048 1.7853 1.04864 3.59 2.04869 5.3958 3.047a5.659 5.659 0 0 0 6.24326-.01674 2.01141 2.01141 0 0 0 .62812-.68083 3.70388 3.70388 0 0 0-.17895-1.9144Z" class="cls-26" transform="translate(-715.27737 -11.23575)"/>
  <path d="M2305.81989 1027.61545c6.5779 6.57825 136.05864 274.55534-50.19975 361.8037-158.59414 74.28969-330.2472-49.8562-940.63948-268.32332 0 0 17.68457-78.84688 68.20606-106.29066 56.08823-30.46768 698.29222 75.13053 698.29222 75.13053s217.76306-68.8985 224.34095-62.32025Z" class="cls-4" transform="translate(-715.27737 -11.23575)"/>
  <path d="M1003.72561 1022.42209s-101.73669 352.086 124.64051 386.38559c205.65684 31.16012 660.59471-105.94444 660.59471-105.94444l-473.63394-180.72874-.34623-12.81027s-130.87253-68.55223-311.25505-86.90214Z" class="cls-4" transform="translate(-715.27737 -11.23575)"/>
  <path d="M1483.24535 373.94522S1402.229 330.321 1408.461 405.10535c0 0 12.4641-56.08823 74.78435-31.16013ZM1850.59291 373.94522s81.01633-43.62418 74.7843 31.16013c0 0-12.46405-56.08823-74.7843-31.16013ZM1595.42181 535.97788s-93.48038-31.16013-99.71241-130.87253 62.32026-137.10456 74.78431-137.10456 18.69608 0-18.69608 37.39215-74.7843 143.33658 43.62418 230.58494Z" class="cls-18" transform="translate(-715.27737 -11.23575)"/>
  <path d="M1737.65918 532.1062a3.021 3.021 0 0 0 1.99633 5.40342c23.98133-1.17979 93.45978-40.484 98.8153-126.17225C1844.70283 311.625 1763.589 267.743 1751.125 267.743s-18.69608 0 18.69607 37.39215c36.84073 36.84074 79.82575 140.47729-32.16189 226.97105Z" class="cls-17" transform="translate(-715.27737 -11.23575)"/>
  <path d="M1488.926 371.32841s-30.58987 177.42125 177.42125 177.42125 171.30328-183.53922 171.30328-183.53922S1813.17867 242.851 1672.46526 242.851 1501.162 310.14867 1488.926 371.32841Z" class="cls-4" transform="translate(-715.27737 -11.23575)"/>
  <path d="M1739.158 547.57392c-3.083 5.3371-30.51058 50.3308-82.28281 56.40791a1.728 1.728 0 0 0 .08181 3.4417c36.18232 2.1921 94.73784-4.93423 112.7673-69.47843a1.73382 1.73382 0 0 0-2.313-2.07225l-27.397 10.95881a1.72913 1.72913 0 0 0-.8563.74226Z" class="cls-17" transform="translate(-715.27737 -11.23575)"/>
  <path fill="none" stroke="#353535" stroke-miterlimit="10" stroke-width="9.00181" d="M1634.66685 1149.41208s-76.92112-23.92811-119.71035 75.2465"/>
  <path d="M2079.82283 1091.22322c-.3425-.77782-.94129-1.63966-1.85926-1.62605-3.30028.81375-2.99429 4.88475-4.00321 7.47111q.105-.32966.2098-.65923a77.53246 77.53246 0 0 1-3.49876 9.20426 42.11558 42.11558 0 0 1-5.28346 6.22256c-.98034-3.9366-1.724-7.58742-1.38388-10.3518a56.90051 56.90051 0 0 1 1.44914-7.86323 4.31361 4.31361 0 0 0-.72153-3.5728 1.57345 1.57345 0 0 0-1.33113-.70563c-1.83864.32424-2.89033 2.11183-3.19276 3.82967-.39492 1.56731-.79 3.13495-1.09582 4.72271a28.98413 28.98413 0 0 0-.47656 9.55412c.40843 3.02979 1.0882 6.0158 1.66366 9.01982a17.98435 17.98435 0 0 1-3.4438 2.30032 48.4328 48.4328 0 0 0-5.82157 3.28329 29.56561 29.56561 0 0 0-5.06326 5.13 36.65837 36.65837 0 0 0-5.20883 7.91716 37.48 37.48 0 0 0-2.48189 8.3895c-.51925 3.57043-1.47694 7.10046-1.62867 10.711-.13034 6.13812 4.67537 14.27843 6.207 17.30349 1.03537 1.97439 1.18609 2.05435 1.758 3.36334-1.23072 1.49148-2.3169 3.10435-3.68438 4.47876-.1333.13711-.27353.26728-.41249.3988l-.06154.05393c-.78948.64122-1.63813 1.20637-2.44791 1.821a49.61548 49.61548 0 0 0-6.45492 5.96737 30.46326 30.46326 0 0 0-4.07768 7.45361c-3.9246 8.96361-5.12421 10.14514-3.55454 20.23169a55.82276 55.82276 0 0 0 5.188 18.28485c.01471.02874.02764.05824.04235.087a26.999 26.999 0 0 0-2.21715 4.6222c-1.39242 3.4734-2.62339 8.38747-3.14053 9.72875-1.03157 2.763-2.25392 5.45649-3.02066 8.31275a66.34256 66.34256 0 0 0-1.62563 9.60534 62.716 62.716 0 0 0 2.51477 19.11905c1.0587 2.36211 2.55965 4.49516 3.81674 6.75305a45.88085 45.88085 0 0 0 4.22687 5.90491c2.54148 3.23012 3.88056 4.30531 5.78412 6.57639-.4414.79185-.935 1.71674-1.52225 2.87849-2.79422 5.07383-4.28748 10.726-6.70445 15.97954-1.34415 3.43755-3.3608 6.73741-3.67457 10.47867-.2677 3.031.49246 6.01014.98457 8.97984.40979 2.31047.74689 4.636 1.33376 6.91078 1.25244 6.72887 6.16043 10.34292 11.19969 14.29542-1.22514 5.06419-2.26322 10.26093-1.46874 15.46189.28705 1.91285.36794 3.9858 1.59173 5.57 2.15206 2.56929 5.1144 2.75863 6.00084-1.23816a7.43613 7.43613 0 0 0-.22831-3.22606c-.08554-.50277-.34419-1.897-.39051-2.37251-.55856-5.30561-.45172-3.85326.25307-8.59643.24581.261.49094.52323.73835.78222 2.76717 3.0915 1.69088 1.449 4.14335 5.07654a118.62413 118.62413 0 0 1 6.43515 11.27559c1.05811 1.97169 1.10849 4.33473 2.3338 6.21242 2.08985 2.86108 5.81615 3.21761 7.49013-.46625a7.687 7.687 0 0 0 .09771-5.1281c-.60352-3.58987-2.43608-6.72854-4.18224-9.86366q-.17852-.34664-.35789-.69329a52.1415 52.1415 0 0 0-6.18621-9.77608c-2.65568-2.83555-5.30087-5.70644-8.15992-8.34014q.6091-2.63066 1.20975-5.26283c1.016-4.18951 2.43709-8.29855 3.09091-12.56735a41.61134 41.61134 0 0 0 .05046-8.89886c-.13169-2.70859-.24927-5.41921-.54385-8.11639a46.00407 46.00407 0 0 0-2.95575-12.08021c-.66337-1.84743-1.33747-3.70314-2.16144-5.48684 1.00469-1.78834 2.00532-3.578 2.894-5.42479 1.2483-3.47838 1.01331-3.04577 3.50915-9.35108 1.12742-3.57161 2.63809-7.11576 2.87511-10.89049.41257-4.8779-2.23871-9.20654-3.80212-13.65081-1.91269-5.887-3.12269-11.99915-5.42522-17.76155-1.112-3.06479-2.65525-5.93964-4.00515-8.90122-1.09717-2.57868-2.29475-5.10883-3.49892-7.63636 2.74781-4.06458 4.06035-6.64435 7.40087-11.18651a95.26833 95.26833 0 0 0 7.47947-14.36608c2.11268-5.70931 3.57432-11.912 2.94764-18.02307-.72389-4.227-.95364-4.63007-1.88995-8.73911-.31959-1.1614-.58873-2.3409-.90123-3.50619.183-.20253.36389-.40674.55442-.60335 1.726-2.04218 3.49621-4.05072 5.12421-6.173 1.8454-2.663 1.49241-2.36938 2.93141-4.43785 3.13105-4.9014 6.70132-9.73805 8.27285-15.4105.47555-2.36651.71172-4.7785 1.20214-7.14458a40.87554 40.87554 0 0 0 1.12878-7.7405c.17413-5.36393-1.62783-10.47749-3.51177-15.41177-.17565-.60479-.32458-1.17958-.46236-1.73729a67.40465 67.40465 0 0 0 5.36748-5.51414 20.131 20.131 0 0 0 4.20675-6.48772 87.40245 87.40245 0 0 0 3.40526-10.59346 6.38311 6.38311 0 0 0 .11141-4.13988Zm-43.51446 259.99806a9.8966 9.8966 0 0 1-.81391-1.17983 18.23583 18.23583 0 0 1-.87562-2.1759c-1.26453-4.07337-1.02244-4.14319-2.04657-9.34964-.60733-3.61768-.55788-3.43764-.35848-4.9331.03575-.17666.07784-.35163.12138-.52626 1.14357-3.05989 2.58036-6.00457 3.68648-9.08094 1.42615-3.55724 2.53692-7.25125 4.134-10.736a40.8811 40.8811 0 0 1 2.12425 7.05625 100.9082 100.9082 0 0 1 .94248 12.68086c.163 4.31064.31554 4.25595-.49634 8.40869-1.15194 4.17049-2.27074 8.34749-3.3084 12.54545a30.67791 30.67791 0 0 1-3.10927-2.70958Zm5.71337-82.90889c.88052 2.97781 2.33244 5.74675 3.23688 8.7156.93682 2.68662-.19154 6.68-3.11787 13.80931-1.01331 2.21064-1.65471 4.57343-2.69921 6.76742-.24437.44486-.47048.84417-.68526 1.21558-1.413-1.52791-2.69515-2.81611-3.44668-3.85562-1.19911-1.613-2.50776-3.14374-3.66375-4.78788-1.44187-2.24141-2.79786-4.54072-4.15858-6.83251a10.48476 10.48476 0 0 1-.59033-1.60255c-.12832-.34428-.37023-1.2838-.47961-1.69765a68.46192 68.46192 0 0 1-1.53958-11.90684c-.00034-.18343.00169-.34039.00423-.47065q.02179-.36769.04344-.73522c.17041-2.09306.51866-4.16533.84206-6.23879.6769-4.34013 1.578-5.65893 3.36182-10.47005 1.24948-3.84768 2.08943-7.00156 3.10545-9.82393.38417.89008.7697 1.77947 1.16571 2.66447a101.32929 101.32929 0 0 1 4.08656 9.50137c1.87304 5.13977 3.00646 10.50463 4.53472 15.74794Zm6.73952-76.312c.28038 1.25963-1.50974 10.87841-2.27648 12.05418a87.54241 87.54241 0 0 1-6.28985 12.84966c-1.242 1.95782-4.09348 5.89257-6.39736 9.62377-1.88225-4.81594-2.30708-7.25481-3.05955-12.59642-1.16444-7.90026-.93943-7.67913 2.31622-14.82879 1.62622-3.59908 2.38857-5.65242 3.85005-7.26444 2.99353-3.53552 4.87215-4.0912 8.91111-8.05815.38722-.442.75661-.898 1.12041-1.35869 1.04467 4.46966 1.62757 5.42149 1.82545 9.57891Zm14.74122-51.03358c-.64664 3.04957-1.29411 8.875-1.70238 9.11389-2.23372 5.7176-7.53121 12.43489-8.865 14.93107a56.06477 56.06477 0 0 1-4.1415 5.20282c-1.33756-2.52415-2.46642-4.5113-3.43806-6.41655q.17168.32737.34369.655a34.14006 34.14006 0 0 1-3.30586-8.42863 10.86107 10.86107 0 0 1-.20422-1.69452c-.06847-1.5313 2.22019-13.74616 2.84223-15.033 1.8989-5.25828 5.63907-9.35844 8.39592-12.16643 3.05237-2.41757 5.50822-3.18423 8.17962-4.88154.96936 3.16453 2.25417 6.47868 2.20227 7.31.93804 5.36658.72266 6.36008-.30671 11.40792Z" class="cls-26" transform="translate(-715.27737 -11.23575)"/>
  <path d="M2157.81883 1217.8507c-8.90045-3.65539-19.69156 3.881-21.30059 13.36734s4.27373 19.109 12.4382 24.20026 18.15318 6.37035 27.77428 6.25107 19.21186-1.50963 28.82969-1.23191c-1.47662-8.92365-1.43894-18.03136-2.59244-27.0025s-3.65726-18.09436-9.44508-25.04511-15.45487-11.2294-24.11533-8.62013-14.50234 13.43794-11.58873 18.08098Z" class="cls-20" transform="translate(-715.27737 -11.23575)"/>
  <path d="M2170.11687 1247.05733a2.88334 2.88334 0 0 0-2.4594-.22349c-1.99265.603-3.06749 2.59009-4.46405 3.99324-3.9618 4.67571-7.18178 9.91082-10.57673 14.99835-.14944.22771-.29314.44765-.43887.67047a315.39245 315.39245 0 0 0-6.37031-1.94514c-1.0882-.01742-2.31537-.37835-3.29724.23363a2.82962 2.82962 0 0 0-1.45961 3.20849 2.9347 2.9347 0 0 0-.51427.26507 2.84522 2.84522 0 0 0-1.20941 2.42205 5.78089 5.78089 0 0 0-.81113.36262 3.30369 3.30369 0 0 0-1.21364 3.63264c-.01809.00254-.02045.00507.0022.00795l.00253.009a4.34676 4.34676 0 0 0-2.20261.62356 3.08155 3.08155 0 0 0 .10921 5.08862 2.99212 2.99212 0 0 0 1.94836.5168c.5572.04531.55128.02781 2.68695.11429.6845.027 1.50272.03135 2.35408.01893a2.19707 2.19707 0 0 0 1.10038.41528 8.95564 8.95564 0 0 0 3.39174-.41815c.817 3.0565 2.66971 5.72621 4.34014 8.38806a2.81482 2.81482 0 0 0 4.87874-.26356 4.86936 4.86936 0 0 0-.02079-3.08795 2.80816 2.80816 0 0 0 1.19065-1.60559c.00507-.02.00507-.04015.0098-.06027a2.61274 2.61274 0 0 0 1.12033-.343c3.01914-1.62512.79185-5.33841-.15875-7.62783-.85406-1.66028-1.37492-3.57643-2.51519-5.04856 2.90165-4.78069 5.45421-8.57765 9.29749-14.04893 1.31643-1.79773 2.77148-3.48861 4.2431-5.16 1.30392-1.23801 2.36237-3.58178 1.0363-5.13658ZM2214.16234 1205.19673a9.24729 9.24729 0 0 0-.921-3.38777 5.45946 5.45946 0 0 0-.53049-.68036 2.723 2.723 0 0 0 .04158-1.97692c-.54266-1.629-2.28426-2.12628-3.83753-2.19974a48.89525 48.89525 0 0 0-5.39758-.32771c-1.79569.06044-3.83179.121-5.21229 1.42336a3.00929 3.00929 0 0 0 .753 4.918c1.5974.62711 3.27155.16 4.93538-.03152-1.19251 1.41955-2.34479 2.87587-3.62149 4.221a5.08725 5.08725 0 0 0-1.70931 3.12658 2.03924 2.03924 0 0 0 .46034 1.73957 3.30108 3.30108 0 0 0 3.23029.12815c1.49445-.71679 2.48646-2.15376 3.59562-3.341.62246-.70225 1.22751-1.42107 1.8307-2.14158a4.74481 4.74481 0 0 0 2.18249 2.14361 8.16838 8.16838 0 0 0 .6539 1.19953 2.88175 2.88175 0 0 0 1.17256 1.035 3.06687 3.06687 0 0 0 1.47534-1.118 5.29813 5.29813 0 0 0 .89849-4.7302ZM1082.96518 1097.23637a24.03571 24.03571 0 0 0-4.14962-10.58771 18.8411 18.8411 0 0 0-5.96069-5.71962 20.47317 20.47317 0 0 0-10.707-2.75187 35.099 35.099 0 0 0-12.41777 2.743 42.59417 42.59417 0 0 0-11.08879 6.43641 29.67813 29.67813 0 0 0-9.48447 15.28566c-.88149 2.64807-1.336 5.40467-1.97168 8.115a19.17678 19.17678 0 0 0-4.62347 1.89071 19.58026 19.58026 0 0 0-6.50458 5.51616 27.23336 27.23336 0 0 0-3.62462 10.32382 28.58824 28.58824 0 0 0 .43832 10.59355c-2.0467 2.01716-8.68568 6.78162-13.091 9.73872a19.41716 19.41716 0 0 0-7.062 8.97206 24.96516 24.96516 0 0 0-1.63024 12.60429 29.20664 29.20664 0 0 0 4.1322 10.78551 31.73945 31.73945 0 0 0 9.98259 10.89911c9.58577 7.23257 23.08283 3.155 28.61577-8.94341 1.83872-3.5367 3.66916-7.07932 5.36832-10.68585.79359-1.66138 1.78268-3.47179 1.25954-5.36444a2.72468 2.72468 0 0 0-1.83618-2.3015c-3.83674-.30937-4.94582 4.08308-6.38164 6.7877-2.99459 5.88572-6.3376 12.78805-8.43 14.04032-2.3939 1.648-.9874.8686-3.47627 1.908a8.79513 8.79513 0 0 1-2.96521.68493c-.29488.01817-.59026.02164-.88564.0191-.5703-.04133-1.13845-.10752-1.70736-.16407a13.58463 13.58463 0 0 1-1.53409-.27091c-.42686-.16931-.84671-.3567-1.25641-.56286-2.04624-1.13977-.97731-.46338-3.62817-2.53286-3.13866-2.77191-2.82291-2.3251-5.438-6.105-2.40958-3.64109-3.58721-6.63615-3.93344-9.26435-.52973-5.62614.83868-8.82228 3.27514-12.15367.24923-.27294.43257-.46524.5441-.58214 1.645-1.38126 3.53316-2.44427 5.28511-3.68243 3.31609-2.24859 6.55509-4.61248 9.65868-7.14728 3.13359-2.23727 4.46536-5.00157 3.2439-8.77782a19.8961 19.8961 0 0 1-.52813-3.50408 21.32515 21.32515 0 0 1 1.39394-8.876 13.61325 13.61325 0 0 1 .82993-1.86493 10.48637 10.48637 0 0 1 1.03094-1.17146c.03-.0251.04814-.04057.08288-.06931 3.53319-2.70673 2.95279-2.28537 6.75385-3.50078 4.66371-1.65065 4.487-7.0527 5.73492-11.065.19209-.86776 2.22476-7.2565 4.15532-9.55378 4.05621-6.1939 15.29018-10.18587 18.75706-10.51536 5.59879-.94434 7.60818.39846 10.10921 1.748 1.76066 1.54837 1.86395 1.63653 3.83618 4.80977a19.92316 19.92316 0 0 1 1.5447 5.165c1.09733 7.02735 1.37107 9.67466.41059 15.1254a10.53625 10.53625 0 0 1-.64706 1.30746 13.82043 13.82043 0 0 1-.8992 1.1522c-.16018.18638-.32446.36963-.49419.54765-.53319.42365-1.10849.79354-1.67816 1.16681a24.52052 24.52052 0 0 1-6.71691 2.98508l-.11027.02156c-.71071.1229-1.42813.18545-2.13537.31511.06741-.01538.127-.02874.16166-.03575-.05883.00938-.11471.02688-.17307.03761-.08292.0153-.165.03643-.24767.05385-.16406.03575-.3291.0688-.48949.1147-.01467.00406-.02967.00617-.04434.01031-.05562.015-.04146.01277.00753.00186a9.06376 9.06376 0 0 0-2.22451.99945 5.644 5.644 0 0 0-.9552.76852c.31973-.29263.312-.282-.13034.11953-.02692.025-.05313.04851-.08034.07362l.07671-.07041-.10951.0994a2.95146 2.95146 0 0 0-.72795 1.34246 3.74124 3.74124 0 0 0 1.0784 2.89151c4.6075 5.01526 14.11926-.70326 16.38819-1.93322a16.97271 16.97271 0 0 0 8.35416-10.26474 42.83294 42.83294 0 0 0 .72745-9.075 56.42 56.42 0 0 0-1.05724-9.1033Z" class="cls-26" transform="translate(-715.27737 -11.23575)"/>
  <path d="m1058.44555 1123.15665-.134.12274.00363-.00321c.04382-.04066.08714-.07918.13037-.11953ZM1086.49487 1132.61445c-2.09906-.98247-4.43371-.25832-6.56253.263a24.91189 24.91189 0 0 0-10.53594 6.19948c-4.14166 3.99552-7.4392 8.77385-10.74244 13.46156-2.67427 4.08436-5.54241 8.05122-7.965 12.29331a68.195 68.195 0 0 0-7.1934 19.46967c-.06471.51088-.16838 1.02878-.263 1.5487-.3404.93741-.659 1.88327-.9487 2.84046a10.42919 10.42919 0 0 0 .02008 6.13084 4.54269 4.54269 0 0 0 5.82448 2.53929 7.08946 7.08946 0 0 0 2.39782-1.75555c.11974-.10726.242-.21174.35717-.32442 2.57766-2.18629 1.53219-1.00114 4.22848-2.98913 3.07514-2.17218 5.078-5.415 7.23439-8.42838 2.93073-4.22535 6.29521-8.14353 8.85279-12.62288 3.16995-5.37382 5.58476-11.16952 8.92431-16.44757 1.50894-2.24978 3.13452-4.41951 4.58767-6.7069 2.82803-4.28236 7.77583-11.71467 1.78382-15.47148ZM1455.60781 1348.65774c.50531-.70124 1.06285-1.37035 1.61786-2.04116-.09315 5.57356-.28757 10.269-.6272 13.27551a114.7743 114.7743 0 0 1-1.3406 14.6058c-.34622 2.20092-.74773 4.39255-1.14052 6.58586q1.2906-.54469 2.5812-1.08939a14.80748 14.80748 0 0 1 3.3718-.60589 32.16272 32.16272 0 0 1 3.542-.36549c.01115-.00034.02223.00033.03347.00016.42264-2.37639.77511-4.77 1.221-7.12987a105.751 105.751 0 0 0 2.01589-20.27707c1.28194-16.47792.45611-33.03664.04361-49.53636.00778-21.22124-2.72059-42.28509-5.22463-63.32139-1.58116-12.95955-5.50991-25.46823-8.39423-38.168-1.71354-7.88352-3.86729-15.65512-5.94869-23.44583-.12273-.5408-.37632-1.6263-.53455-2.20937-.12223-.55129-.244-1.10274-.35282-1.65682-.20827-3.029-2.87621-6.483-6.1901-5.35624a5.01771 5.01771 0 0 0-3.13148 4.29534 6.71439 6.71439 0 0 0-1.24957.98888c-2.65745 2.22079-5.2215 4.55019-7.77473 6.88906a418.57193 418.57193 0 0 0-30.676 31.90287c-3.89637 4.41536-7.6585 8.94568-11.35725 13.52715-1.87481 2.57673-4.54875 4.83411-5.34592 8.011-.30794 1.55708-.11623 3.55809 1.06005 4.65069 1.79266 1.296 4.31715.47885 5.9929-.65779a20.367 20.367 0 0 0 3.29783-3.74912q2.88767-3.74844 5.827-7.45649c3.634-4.64426 7.56832-9.042 11.47779-13.45369 7.50078-8.48688 15.30636-16.69912 23.48869-24.53269 3.32843-3.171 4.40513-4.155 6.42339-5.93668 1.01306 4.48636.8533 3.87 1.40358 6.15172.69439 2.75339 1.34034 5.61937 2.00346 8.66971a5.52874 5.52874 0 0 0-1.30358.79743c-1.94886 1.64388-3.8798 3.30865-5.82063 4.962-11.57212 9.66079-21.88529 20.67249-31.96432 31.85046-3.37948 3.69342-6.63125 7.49968-9.81116 11.36571a23.55937 23.55937 0 0 0-3.16217 4.35983 6.34167 6.34167 0 0 0 .2568 5.88462c2.25434 2.86336 6.74155 1.19961 8.70681-1.19742q9.29973-11.15151 18.98144-21.97945c6.60944-7.35708 13.29529-14.66548 20.53353-21.414 4.78441-4.433 1.96864-1.84049 5.536-5.07248.02857-.02789.05908-.05409.088-.08165.5168 2.36964 1.07062 4.85592 1.68353 7.48607.62905 2.888 1.17873 4.95972 1.98225 8.73074-.05528.02071-.113.03609-.16745.05849-1.47652.60843-2.46245 1.90634-3.60272 2.96885q-3.01445 2.94205-6.07988 5.83137a287.9331 287.9331 0 0 0-21.57338 22.24512 316.00116 316.00116 0 0 0-20.446 25.03046q-2.19576 2.99228-4.32171 6.035c-1.71692 2.142-2.44132 5.38227-.81146 7.78327 2.14987 2.77883 6.66937.79506 8.21842-1.73509a300.65949 300.65949 0 0 1 21.19182-27.99746c6.90909-7.966 14.12628-15.66315 21.69274-23.00849q3.89033-3.80918 7.731-7.66865c.99827 5.83306 1.84422 11.68758 2.573 17.55842a6.68138 6.68138 0 0 0-1.76408 1.40257c-3.23621 2.96766-2.33262 2.12924-5.002 4.5594l.80335-.73133c-.05866.05342-.11876.10515-.1781.15772a176.03264 176.03264 0 0 0-12.85845 12.22214 384.47317 384.47317 0 0 0-25.28329 30.42558c-4.43134 5.97591-8.77215 12.01826-13.20265 17.99484-1.62208 2.22637-3.35286 4.37682-4.85136 6.69-.109.16516-.21918.32965-.32855.49465-.20439.30109-.40033.60809-.58324.92338a7.63542 7.63542 0 0 0-.89329 2.55973 6.34254 6.34254 0 0 0 .43016 3.40468c1.18736 2.72888 4.32112 2.16474 6.78889.65322a17.88786 17.88786 0 0 0 3.3898-3.82469q2.436-3.413 4.88669-6.81517c5.76848-8.02663 11.39-16.16136 17.39571-24.01462a326.82473 326.82473 0 0 1 23.80068-27.57685c2.82912-2.85761 5.672-5.70415 8.63361-8.42517.79557 6.475 1.57584 12.957 2.223 19.4504a5.68318 5.68318 0 0 0-2.10785.413 13.51644 13.51644 0 0 0-3.40189 2.61663c-3.271 3.0325-3.74286 3.424-5.48979 5.085a289.07723 289.07723 0 0 0-23.688 25.178c-6.1584 7.12785-12.347 14.23-18.36422 21.47829-7.59207 8.98863-16.70183 20.315-20.7468 27.673-.833 1.93567-1.19361 4.79979.47412 6.35881 2.21317.9528 4.78813-.43971 6.32906-2.05384 4.25147-5.0576 7.98073-10.52043 11.98309-15.7716 4.18325-5.44051 8.57056-10.72042 12.96057-15.99442 9.66078-11.20781 19.49756-22.26972 29.777-32.91559 3.31575-3.53062 6.72406-6.971 10.18562-10.35831.89117-.97747 1.919-1.85757 2.88213-2.788.45315 5.89189.7533 11.79425.81087 17.71006.01876.73294.03719 1.48557.05562 2.24632a5.94085 5.94085 0 0 0-3.22075.95473c-1.29994 1.04-2.46667 2.25426-3.66129 3.41549-3.35607 3.35878-6.54191 6.88348-9.73425 10.39686-8.6173 9.81877-17.31566 19.56662-25.87827 29.43323q-9.00849 10.21275-18.01453 20.42753c-2.71823 3.06564-5.43781 6.12958-7.9585 9.3619-1.32995 1.74008-2.89844 3.4335-3.41743 5.61481a2.87387 2.87387 0 0 0-.11057.792 6.49114 6.49114 0 0 0 .233 2.40091 3.50765 3.50765 0 0 0 .89946 1.4723c2.28434 1.4728 5.39182.2174 7.12294-1.592 8.02442-8.674 15.35733-17.96762 23.18887-26.81745 10.17513-11.88335 20.72363-23.43763 31.00383-35.2291 3.02693-3.34272 6.05182-6.69109 9.2166-9.90457.17455-.19424.3573-.38155.54343-.56565.10887 6.19162.18292 12.67418.18351 18.72988-2.26863-.44808-4.48832 1.01239-5.84549 2.8266q-2.24432 2.47178-4.45247 4.97628c-6.14555 7.06733-11.54287 14.74037-17.43214 22.01733-1.80094 2.453-3.67634 4.85271-5.29479 7.43315-1.70322 2.19991-2.52533 5.41651-.93428 7.88859a3.091 3.091 0 0 0 2.78966 1.076 7.567 7.567 0 0 0 5.4127-3.0768c5.2423-6.16913 9.59427-13.02412 14.59524-19.38412 3.15084-4.15029 6.28782-8.31103 9.475-12.43329ZM1426.349 1166.95677c-2.573-1.99958-5.7656-.70631-7.90947 1.284-1.54236 1.21609-3.06867 2.45349-4.53657 3.75918q-8.0345 7.04108-15.47906 14.71763c-1.88648 1.97422-3.76408 3.95858-5.52884 6.04311a9.833 9.833 0 0 0-2.61561 4.94053c-.46245 4.00964 2.17767 6.02189 5.97709 4.9123 2.6796-.84637 4.36473-3.31456 6.30759-5.19783 2.99455-3.27425 5.97168-6.5654 9.03073-9.77963 3.58843-3.74355 7.32293-7.34306 11.125-10.86818 1.90677-1.83957.84925-.64849 3.63264-3.35624 1.42083-1.80224 1.9006-4.81555-.0035-6.45487ZM1403.41063 1157.60569a5.03526 5.03526 0 0 0-4.69338-.63007 12.472 12.472 0 0 0-3.70229 2.70521 70.60481 70.60481 0 0 0-7.3712 7.58632 60.67427 60.67427 0 0 0-3.88183 5.63036c-1.23351 1.77508-2.23245 3.84667-1.86281 6.064.25755 1.5575.92667 2.95 2.74722 2.75965 2.57774-.1038 4.54224-1.9323 6.015-3.88589 1.29462-1.495 2.60513-2.9757 3.90085-4.4698 2.2846-2.7042 4.54258-5.43587 7.03241-7.95689.68509-.81358 1.02058-.53 2.34665-2.6146.83052-1.61575.97709-3.91852-.53062-5.18829Z" class="cls-26" transform="translate(-715.27737 -11.23575)"/>
  <path d="M1675.7467 364.28313s0 40.74739 40.7474 40.74739 47.53862-33.95616 47.53862-33.95616ZM1640.47328 363.55821s0 40.7474-40.7474 40.7474-47.53863-33.95617-47.53863-33.95617Z" class="cls-33" transform="translate(-715.27737 -11.23575)"/>
  <path stroke="#000" stroke-miterlimit="10" stroke-width=".74133" d="M984.01227 352.49402s-.327 17.33022 11.77147 23.54294 29.10169-6.21272 29.42867-17.65721"/>
  <path stroke="#000" stroke-miterlimit="10" stroke-width=".66836" d="M867.32732 354.86571s.81777 15.26038 12.34284 19.90671 26.3571-7.42671 25.91917-17.51181"/>
  <circle cx="992.24838" cy="406.88213" r="31.16013" class="cls-37"/>
  <path d="m1705.0917 449.17434 33.06732-36.74155a30.91341 30.91341 0 0 0-2.22991-7.12518h-2.575l-39.6962 40.714a30.95972 30.95972 0 0 0 11.43379 3.15273ZM1719.69446 389.33039l-39.57126 39.57135a31.20325 31.20325 0 0 0 9.56815 13.87439l42.20733-45.72455a31.16324 31.16324 0 0 0-12.20422-7.72119Z" class="cls-38" transform="translate(-715.27737 -11.23575)"/>
  <circle cx="992.24838" cy="406.88213" r="31.16013" class="cls-39"/>
  <circle cx="892.53597" cy="406.88213" r="31.16013" class="cls-37"/>
  <path d="m1605.3793 449.17434 33.06731-36.74155a30.91341 30.91341 0 0 0-2.22991-7.12518h-2.575l-39.6962 40.714a30.95971 30.95971 0 0 0 11.4338 3.15273ZM1619.98206 389.33039l-39.57127 39.57135a31.20333 31.20333 0 0 0 9.56815 13.87439l42.20733-45.72455a31.16313 31.16313 0 0 0-12.20421-7.72119Z" class="cls-38" transform="translate(-715.27737 -11.23575)"/>
  <circle cx="892.53597" cy="406.88213" r="31.16013" class="cls-39"/>
  <path d="M1639.31969 411.53963s18.34986-19.0423 37.39216 0" class="cls-39" transform="translate(-715.27737 -11.23575)"/>
  <path d="M1649.7064 460.481s-65.14177-21.43131-96.87-1.56388-13.19039 25.647 0 26.00827c0 0-27.69559 17.22487-44.91884 31.7-6.30674 5.30044-11.2093 10.23218-12.83368 13.8145-6.06045 13.36536-.3565 25.64705 12.83389 26.00827 0 0-32.44123 19.145-51.33557 45.51448s-13.19039 25.64705 0 26.00828c0 0-64.526 97.16981-83.42032 97.531 0 0 12.4774 12.64292 38.50169 6.50207 0 0-26.02429 25.64705-44.91863 78.02483s-38.50168 45.51448-38.50168 45.51448 6.06045 12.64291 32.08473 13.00414c0 0-6.77344 12.64291-12.83389 39.01241 0 0 25.31129 12.64291 44.91863-6.50207 0 0-26.02429 45.15326-57.75253 52.01655 0 0-.35649 19.145 19.25084 26.00828 0 0-19.60733 38.65119-32.08473 45.51448 0 0 18.89434-.36122 32.08473 0s12.8339 32.51035 12.8339 32.51035 6.06045 6.14084 19.25084-26.00828c0 0 31.72824 25.64705 57.75252 26.00828 0 0 18.89435-6.8633 12.8339-39.01242 0 0 44.56213 32.14912 89.83726 19.50621s70.22992 25.64705 70.58642 39.01241c0 0 6.06045-19.86743 25.66778-19.5062s38.50169 32.51034 38.50169 32.51034 12.47739-.36122 25.66779-19.50621 31.72823-13.36536 51.33557 19.50621c0 0 16.671 7.69995 11.72222-25.59 0 0 20.006 38.23286 46.03031 32.092s18.89434-19.86743 38.50168-13.00414 18.89434-.36122 19.25084-6.50207 25.31129 6.14085 32.08474 6.50207 6.41694-6.50207 6.41694-6.50207 44.56214 6.14085 51.33558 19.50621c0 0-.3565-19.86743 19.25084-13.00414a317.69875 317.69875 0 0 1 32.08474 13.00414l-19.25084-39.01241s6.06045-.36123 19.25084 0-19.60734-13.36537-38.50169-58.51862c0 0-.35649 6.14084 19.25085 0s-38.50169-91.029-38.50169-91.029 18.89435 12.64291 25.66779 6.50207c0 0-32.44123-39.37364-38.50168-52.01655 0 0 18.89434 6.14084 25.66779 0 0 0-19.60734-65.38191-64.16947-110.53517s-38.50169-97.531-38.50169-97.531-.35649 6.14084 12.8339 6.50206c0 0-13.19039-39.37363-44.91863-58.51862h12.83392s-26.02428-39.37363-51.33557-52.01655l19.25084 13.57592c19.25084 0 11.41074-21.12694 6.41694-25.66779-10.60273-9.641-30.21017-22.31567-43.42368-28.74963a2.52614 2.52614 0 0 1 .68014-4.76711l20.5799-3.43a6.11121 6.11121 0 0 0 3.77979-9.83247c-13.69119-17.22591-54.84077-46.02699-154.25796-30.59391Z" class="cls-40" transform="translate(-715.27737 -11.23575)"/>
  <path d="M1978.44744 997.77372c1.238 1.39529 5.312 2.93428 18.711-1.26216 19.60728-6.1409-38.50166-91.029-38.50166-91.029s18.89438 12.64292 25.66772 6.50209c0 0-32.44122-39.37368-38.50166-52.01659 0 0 18.89438 6.14086 25.66772 0 0 0-19.60728-65.38192-64.16938-110.53515s-38.50165-97.53106-38.50165-97.53106-.35654 6.14087 12.83377 6.50209c0 0-13.19031-39.37364-44.91846-58.51864h12.83377s-15.42115-23.32872-34.06651-39.83828l1.98183 1.39765c19.25091 0 11.41084-21.12695 6.417-25.6678-10.60276-9.641-30.21021-22.31566-43.42368-28.74962a2.52612 2.52612 0 0 1 .6801-4.76708l20.57986-3.43a6.11117 6.11117 0 0 0 3.77989-9.83246c-9.297-11.69722-31.26376-28.727-75.5295-33.62444a248.97258 248.97258 0 0 0-35.10434 3.03039s49.8562 18.69607 43.62418 49.8562-49.85621 12.46405-49.85621 12.46405 31.16013 37.39215 49.85621 43.62418-6.232 0-6.232 0-18.69607 24.9281-37.39215 18.69608 6.232 12.46405 24.9281 18.69607 12.46405 37.39216-6.232 24.92811c0 0 0 24.9281 37.39215 43.62417 0 0-43.62418 18.69608-56.08823 12.46405 0 0 31.16013 31.16013 43.62418 31.16013 0 0-18.69608 31.16013-37.39216 18.69608 0 0-12.46405 43.62418 12.46406 62.32025 0 0-24.92811 24.92811-43.62418 0 0 0-6.232 12.464 12.46405 31.16013 0 0-18.69608 18.69608-43.62418 6.232 0 0-6.232 37.39215 24.9281 49.8562 0 0-37.39215-6.232-37.39215 12.464 0 0 37.39215 12.46405 31.16013 37.39215s-49.85621 6.232-49.85621 6.232 12.46405 43.62418 37.39215 49.8562c0 0-31.16012 6.232-49.8562-6.232s-6.232 31.16012 6.232 43.62417c3.96855 3.96856 2.879 11.72918-.44462 20.46287 11.39191 9.5777 17.42648 22.03347 17.60027 28.5555 0 0 6.0606-19.86745 25.66788-19.50618s38.50166 32.51036 38.50166 32.51036 12.47741-.36126 25.66772-19.50618c13.19047-19.145 31.72832-13.36545 51.3356 19.50618 0 0 16.671 7.69993 11.72224-25.58995 0 0 20.00608 38.23287 46.03033 32.092 26.02425-6.14074 18.89437-19.86737 38.50165-13.0041 19.60745 6.86336 18.89438-.36118 19.25092-6.50209.35653-6.14082 25.31135 6.14091 32.08468 6.50209 6.77351.36119 6.417-6.50209 6.417-6.50209s44.56209 6.14091 51.3356 19.50619c0 0-.35654-19.86737 19.25074-13.0041a317.72 317.72 0 0 1 32.08486 13.0041l-19.25092-39.01237s6.06044-.36127 19.25092 0c13.06593.35781-18.99137-13.11346-37.96199-57.25639Z" class="cls-41" transform="translate(-715.27737 -11.23575)"/>
  <path d="M1651.78375 461.39584s-65.14178-21.43132-96.87-1.56389-13.19039 25.647 0 26.00828c0 0-27.6956 17.22486-44.91885 31.7-6.30674 5.30044-11.2093 10.23218-12.83368 13.8145-6.06045 13.36536-.35649 25.64705 12.8339 26.00828 0 0-32.44124 19.145-51.33558 45.51448s-13.19039 25.64705 0 26.00827c0 0-64.526 97.16981-83.42031 97.531 0 0 12.47739 12.64291 38.50168 6.50207 0 0-26.02429 25.64705-44.91863 78.02482s-38.50168 45.51448-38.50168 45.51448 6.06045 12.64292 32.08473 13.00414c0 0-6.77344 12.64291-12.83389 39.01242 0 0 25.31129 12.64291 44.91863-6.50207 0 0-26.02429 45.15325-57.75253 52.01655 0 0-.35649 19.145 19.25085 26.00827 0 0-19.60734 38.65119-32.08474 45.51449 0 0 18.89434-.36123 32.08474 0s12.83389 32.51034 12.83389 32.51034 6.06045 6.14084 19.25084-26.00828c0 0 31.72824 25.647 57.75253 26.00828 0 0 18.89434-6.86329 12.83389-39.01241 0 0 44.56213 32.14912 89.83726 19.5062s70.22992 25.647 70.58642 39.01242c0 0 6.06045-19.86744 25.66779-19.50621s38.50168 32.51034 38.50168 32.51034 12.4774-.36122 25.66779-19.5062 31.72824-13.36537 51.33557 19.5062c0 0 16.671 7.7 11.72222-25.58994 0 0 20.006 38.23286 46.03031 32.092s18.89434-19.86743 38.50168-13.00413 18.89435-.36123 19.25084-6.50207 25.31129 6.14084 32.08474 6.50207 6.417-6.50207 6.417-6.50207 44.56213 6.14084 51.33557 19.5062c0 0-.35649-19.86743 19.25084-13.00413a317.69752 317.69752 0 0 1 32.08474 13.00413l-19.25084-39.01241s6.06045-.36123 19.25084 0-19.60734-13.36536-38.50168-58.51862c0 0-.3565 6.14084 19.25084 0s-38.50168-91.029-38.50168-91.029 18.89434 12.64291 25.66778 6.50206c0 0-32.44123-39.37363-38.50168-52.01655 0 0 18.89435 6.14085 25.66779 0 0 0-19.60734-65.38191-64.16947-110.53517s-38.50168-97.531-38.50168-97.531-.3565 6.14084 12.83389 6.50207c0 0-13.19039-39.37364-44.91863-58.51862h12.83389s-26.02428-39.37364-51.33557-52.01655l19.25084 13.57591c19.25084 0 11.41074-21.12694 6.417-25.66778-10.60274-9.641-30.21018-22.31568-43.42368-28.74964a2.52614 2.52614 0 0 1 .68013-4.76711l20.5799-3.43a6.1112 6.1112 0 0 0 3.77979-9.83247c-13.69125-17.22596-54.84084-46.02704-154.25802-30.59395Z" class="cls-4" transform="translate(-715.27737 -11.23575)"/>
  <path d="M1596.61779 355.11656s29.96785-.33672 30.30456-6.06091-.33671-12.45855-18.18273-12.12183-42.76311-.33672-42.42639 12.12183 30.30456 6.06091 30.30456 6.06091ZM1700.33285 306.62915s-19.454-.29371-12.73355 10.57339 56.94725 20.85309 50.93418 5.2867-38.20063-15.86009-38.20063-15.86009Z" class="cls-42" transform="translate(-715.27737 -11.23575)"/>
  <path d="M1658.68151 192.5192c-116.044 1.6818-115.164-61.42071-115.164-61.42071-44.53 67.5628-17.65842 105.183-17.65842 105.183-8.44721 7.80968-15.13913 17.50412-20.44131 28.01962a61.20494 61.20494 0 0 0 4.22649 61.7619q.40362.59673.80736 1.19275c13.24965-33.8355 41.93143-48.16232 48.4211-53.35406 7.67761-6.14209 116.69943-15.35518 163.01 4.94957 46.31062 20.3048 53.49814 1.19247 53.49814 1.19247 16.12288-16.12293-10.74867-89.06006-116.69936-87.52454ZM1816.60361 339.22847l.07433-.04428a23.2827 23.2827 0 0 0 10.06105-12.21328q.647-1.82984 1.31029-3.65419.6045-1.66143 1.2259-3.31933a50.59616 50.59616 0 0 0-7.72879-49.71606 38.4588 38.4588 0 0 0-7.56441-7.26805c-9.859-6.95176-23.66509-1.34612-26.15 10.4586-1.64287 7.80454-2.57972 17.81454.60072 25.76586 3.86882 9.67182 17.47399 23.00671 28.17091 39.99073Z" class="cls-40" transform="translate(-715.27737 -11.23575)"/>
  <path d="M1525.8591 236.2815s6.14207 19.96174 27.63933 18.42623" class="cls-42" transform="translate(-715.27737 -11.23575)"/>
  <path d="M1776.42426 261.971s-74.78431-43.62418-155.80064-31.16013-81.01633-31.16012-81.01633-31.16012-18.69608 37.39215 12.46405 56.08823c0 0-43.62418 24.9281-43.62418 62.32025 0 0 31.16013-49.8562 105.94443-49.8562s81.01633 0 93.48038 6.232 49.85621 18.69608 56.08823 12.464 18.69608-12.46396 12.46406-24.92803ZM1813.81641 336.75533s-31.16013-43.62418-24.9281-56.08823 31.16012 24.9281 24.9281 56.08823Z" class="cls-41" transform="translate(-715.27737 -11.23575)"/>
  <path d="M1658.68151 192.5192c-116.044 1.6818-115.164-61.42071-115.164-61.42071-44.53 67.5628-17.65842 105.183-17.65842 105.183-8.44721 7.80968-15.13913 17.50412-20.44131 28.01962a61.20494 61.20494 0 0 0 4.22649 61.7619q.40362.59673.80736 1.19275c13.24965-33.8355 41.93143-48.16232 48.4211-53.35406 7.67761-6.14209 116.69943-15.35518 163.01 4.94957 46.31062 20.3048 53.49814 1.19247 53.49814 1.19247 16.12288-16.12293-10.74867-89.06006-116.69936-87.52454ZM1816.60361 339.22847l.07433-.04428a23.2827 23.2827 0 0 0 10.06105-12.21328q.647-1.82984 1.31029-3.65419.6045-1.66143 1.2259-3.31933a50.59616 50.59616 0 0 0-7.72879-49.71606 38.4588 38.4588 0 0 0-7.56441-7.26805c-9.859-6.95176-23.66509-1.34612-26.15 10.4586-1.64287 7.80454-2.57972 17.81454.60072 25.76586 3.86882 9.67182 17.47399 23.00671 28.17091 39.99073Z" class="cls-4" transform="translate(-715.27737 -11.23575)"/>
  <path d="M1658.01577 511.252s56.78068 6.92447 68.55228-24.9281M1726.56805 467.62786s31.16013 0 24.9281 24.9281M2232.57221 1049.55888c10.59262-.59972 17.34415-.89962 17.34415-.89962-5.56511 0-11.36672.31528-17.34415.89962ZM1807.58438 941.2618s6.232 31.16013 12.46405 43.62418-18.69607 0-24.9281-12.46405-6.232 24.9281-6.232 24.9281" class="cls-42" transform="translate(-715.27737 -11.23575)"/>
  <path d="M1552.07134 199.65077s6.232 37.39215 49.8562 37.39215" class="cls-4" transform="translate(-715.27737 -11.23575)"/>
  <path d="M1545.83931 673.2847s-37.39215 43.62418-68.55228 43.62418 12.46405 18.69608 37.39215 18.69608l-18.69607 31.16013s6.232 6.232 18.69607 0 24.92811 6.232 37.39216-37.39216h-24.9281s24.9281-43.62417 18.69607-56.08823Z" class="cls-41" transform="translate(-715.27737 -11.23575)"/>
  <path d="M1554.24557 674.08114s-15.00424 42.817-27.81274 48.30635c0 0 18.29786 7.31914 24.88508 1.46382 0 0-7.31914 18.29786-7.6851 24.51913M1732.78212 754.405s15.00424 42.817 27.81274 48.30634c0 0-18.29786 7.31914-24.88508 1.46383 0 0 7.31914 18.29786 7.6851 24.51913M1495.98311 810.38927s-12.464 31.16012-31.16013 37.39215c0 0 18.69608 6.232 24.9281 0M1851.20856 791.69319s-.34622 30.8139 18.69608 49.8562h-24.9281s24.58187 18.34986 31.16012 62.32026" class="cls-42" transform="translate(-715.27737 -11.23575)"/>
  <path d="M1596.6492 353.97741s29.96785-.33672 30.30456-6.06091-.33671-12.45854-18.18273-12.12183-42.76311-.33671-42.42639 12.12183 30.30456 6.06091 30.30456 6.06091ZM1700.36426 305.49s-19.454-.29371-12.73355 10.5734 56.94725 20.85308 50.93418 5.28669-38.20063-15.86009-38.20063-15.86009Z" class="cls-40" transform="translate(-715.27737 -11.23575)"/>
</svg>
