<svg xmlns="http://www.w3.org/2000/svg" baseProfile="tiny-ps" version="1.2" viewBox="0 0 664 109">
    <style>

    </style>
    <g id="Folder 1">
        <path id="Shape 1" fill="#ffcaca" d="M40.04 84.06C19.56 84.06 3 67.51 3 47.02 3 26.54 19.56 9.99 40.04 9.99s37.04 16.55 37.04 37.03c0 20.49-16.56 37.04-37.04 37.04Z" opacity=".49"/>
        <path id="Shape 2" fill="#ffdc00" d="M135.48 33.25h39.18l-18.04 42.27-21.14-42.27Z" opacity=".231"/>
        <path id="Shape 3" fill="#a0ebfb" d="M325.31 81.21c-12.02 0-21.73-10.02-21.73-22.43s9.71-22.44 21.73-22.44c12.01 0 21.72 10.03 21.72 22.44 0 12.41-9.71 22.43-21.72 22.43Z" opacity=".412"/>
        <path id="CryptoChefs" fill="#000" d="M53.55 84.01q-8.18 0-15.35-3.13-7.07-3.13-12.52-8.69-5.36-5.65-8.39-12.92-3.03-7.38-3.03-15.76 0-8.28 2.93-15.56 3.03-7.37 8.38-12.92 5.46-5.56 12.53-8.69 7.17-3.23 15.45-3.23 7.27 0 13.23 2.12Q72.74 7.35 78.3 12q.9.7 1.01 1.71.2.91-.21 1.82-.4.81-1.21 1.21-.2.81-1.01 1.22-.81.4-1.92.3-1.01-.1-2.02-.91-3.94-3.43-8.58-5.05-4.65-1.72-10.81-1.72-6.56 0-12.32 2.63-5.66 2.62-10 7.17-4.34 4.54-6.87 10.5-2.42 5.96-2.42 12.63 0 6.87 2.42 12.83 2.53 5.96 6.87 10.5 4.34 4.55 10 7.17 5.76 2.53 12.32 2.53 5.56 0 10.51-1.82 4.94-1.82 9.39-5.25 1.21-1.01 2.52-.81 1.42.2 2.43 1.21 1.01 1.01 1.01 2.63 0 .8-.31 1.51-.2.61-.8 1.31-5.15 4.75-11.52 6.77-6.36 1.92-13.23 1.92Zm49.09-35.05h-4.45q.31-6.26 3.24-11.21 3.03-4.95 7.77-7.78 4.85-2.82 10.71-2.82 4.64 0 7.17 1.31 2.52 1.31 1.92 3.84-.41 1.51-1.42 2.02-.9.5-2.32.4-1.31-.1-3.03-.2-5.65-.51-10.1 1.21-4.34 1.62-6.97 5.05-2.52 3.44-2.52 8.18ZM98.8 83q-1.82 0-2.83-1.01t-1.01-2.83V31.59q0-1.82 1.01-2.83t2.83-1.01q1.82 0 2.83 1.01t1.01 2.83v47.57q0 1.82-1.01 2.83T98.8 83Zm51.91 24.04q-.8 0-1.81-.41-3.44-1.51-1.92-4.84l32.62-71.92q1.51-3.23 4.85-1.81 3.43 1.41 1.92 4.74l-32.73 71.92q-1.01 2.32-2.93 2.32Zm11.21-25.76q-1.51.71-2.82.31-1.32-.51-2.12-2.02L134.45 32.9q-.7-1.51-.2-2.82.51-1.32 2.02-2.02 1.52-.71 2.83-.21 1.31.41 2.02 1.92l22.12 46.67q.81 1.51.5 2.82-.3 1.32-1.82 2.02Zm38.59 25.35q-1.82 0-2.93-1.01-1.01-1.11-1.01-2.93V55.02q.1-7.88 3.73-14.14 3.74-6.36 10-10 6.37-3.63 14.24-3.63 8.08 0 14.45 3.73 6.36 3.64 10 10 3.73 6.37 3.73 14.45 0 7.98-3.63 14.34-3.54 6.36-9.7 10.1-6.16 3.63-13.94 3.63-6.76 0-12.32-2.82-5.45-2.93-8.79-7.68v29.69q0 1.82-1.11 2.93-1.01 1.01-2.72 1.01Zm24.03-30.19q5.86 0 10.51-2.73 4.64-2.73 7.27-7.48 2.73-4.84 2.73-10.8 0-6.06-2.73-10.81-2.63-4.75-7.27-7.47-4.65-2.83-10.51-2.83-5.75 0-10.4 2.83-4.64 2.72-7.27 7.47t-2.63 10.81q0 5.96 2.63 10.8 2.63 4.75 7.27 7.48 4.65 2.73 10.4 2.73ZM291.71 83h-2.12q-5.35 0-9.6-2.53-4.14-2.52-6.56-6.86-2.43-4.45-2.43-10.1V14.12q0-1.72 1.01-2.83 1.12-1.11 2.83-1.11 1.72 0 2.83 1.11t1.11 2.83v49.39q0 5.15 3.03 8.48 3.03 3.23 7.78 3.23h2.73q1.61 0 2.62 1.11t1.01 2.83q0 1.72-1.21 2.83-1.21 1.01-3.03 1.01Zm-1.52-46.46h-25.75q-1.52 0-2.53-.91-1.01-1.01-1.01-2.42 0-1.52 1.01-2.43 1.01-1.01 2.53-1.01h25.75q1.52 0 2.53 1.01 1.01.91 1.01 2.43 0 1.41-1.01 2.42-1.01.91-2.53.91Zm43.54 46.96q-8.08 0-14.45-3.63-6.36-3.64-10-10-3.63-6.36-3.63-14.44 0-8.18 3.63-14.55 3.64-6.36 10-10 6.37-3.63 14.45-3.63 8.08 0 14.34 3.63 6.36 3.64 10 10 3.63 6.37 3.73 14.55 0 8.08-3.73 14.44-3.64 6.36-10 10-6.26 3.63-14.34 3.63Zm0-7.06q5.85 0 10.5-2.73t7.27-7.48q2.63-4.74 2.63-10.8 0-6.06-2.63-10.81-2.62-4.85-7.27-7.58-4.65-2.72-10.5-2.72-5.86 0-10.51 2.72-4.64 2.73-7.37 7.58-2.63 4.75-2.63 10.81 0 6.06 2.63 10.8 2.73 4.75 7.37 7.48 4.65 2.73 10.51 2.73Zm79.68 7.57q-8.18 0-15.35-3.13-7.07-3.13-12.52-8.69-5.35-5.65-8.38-12.92-3.03-7.38-3.03-15.76 0-8.28 2.92-15.56 3.03-7.37 8.39-12.92 5.45-5.56 12.52-8.69 7.17-3.23 15.45-3.23 7.28 0 13.24 2.12 5.95 2.12 11.51 6.77.91.7 1.01 1.71.2.91-.2 1.82-.41.81-1.21 1.21-.21.81-1.01 1.22-.81.4-1.92.3-1.01-.1-2.02-.91-3.94-3.43-8.59-5.05-4.64-1.72-10.81-1.72-6.56 0-12.32 2.63-5.65 2.62-10 7.17-4.34 4.54-6.86 10.5-2.43 5.96-2.43 12.63 0 6.87 2.43 12.83 2.52 5.96 6.86 10.5 4.35 4.55 10 7.17 5.76 2.53 12.32 2.53 5.56 0 10.51-1.82t9.39-5.25q1.21-1.01 2.53-.81 1.41.2 2.42 1.21t1.01 2.63q0 .8-.3 1.51-.2.61-.81 1.31-5.15 4.75-11.51 6.77-6.37 1.92-13.24 1.92ZM502.19 83q-1.71 0-2.82-1.11-1.12-1.11-1.12-2.73V52.9q0-6.26-2.42-10.3-2.32-4.04-6.46-6.06-4.04-2.02-9.19-2.02-4.95 0-8.99 1.92-3.94 1.92-6.27 5.25-2.32 3.33-2.32 7.58h-5.55q.2-6.37 3.43-11.32 3.23-5.05 8.59-7.87 5.35-2.93 11.91-2.93 7.17 0 12.83 3.03 5.66 2.93 8.89 8.68 3.33 5.76 3.33 14.04v26.26q0 1.62-1.11 2.73-1.11 1.11-2.73 1.11Zm-43.43 0q-1.81 0-2.93-1.01-1.01-1.11-1.01-2.83V31.69q0-1.82 1.01-2.83 1.12-1.11 2.93-1.11 1.72 0 2.73 1.11 1.11 1.01 1.11 2.83v47.47q0 1.72-1.11 2.83-1.01 1.01-2.73 1.01Zm0-22.52q-1.81 0-2.93-1.11-1.01-1.12-1.01-2.83V8.06q0-1.82 1.01-2.83 1.12-1.11 2.93-1.11 1.72 0 2.73 1.11 1.11 1.01 1.11 2.83v48.48q0 1.71-1.11 2.83-1.01 1.11-2.73 1.11Zm89.49 23.02q-8.18 0-14.54-3.53-6.27-3.64-9.9-10-3.54-6.36-3.54-14.54 0-8.29 3.34-14.55 3.43-6.36 9.39-10 5.96-3.63 13.73-3.63 7.68 0 13.34 3.53 5.75 3.44 8.88 9.6 3.14 6.16 3.14 14.04 0 1.61-1.01 2.62-1.01.91-2.63.91h-42.93v-6.46h43.74l-4.35 3.13q.11-5.86-2.12-10.51-2.22-4.64-6.36-7.27-4.04-2.62-9.7-2.62-5.75 0-10.1 2.72-4.34 2.73-6.76 7.58-2.33 4.75-2.33 10.91t2.63 10.9q2.73 4.75 7.37 7.48 4.65 2.73 10.71 2.73 3.63 0 7.27-1.22 3.74-1.31 5.96-3.23 1.11-.91 2.53-.91 1.41-.1 2.42.71 1.31 1.21 1.31 2.63.1 1.41-1.11 2.42-3.33 2.83-8.48 4.75-5.15 1.81-9.9 1.81Zm43.83-.5q-1.51 0-2.62-1.01-1.11-1.11-1.11-2.93V27.85q0-7.07 2.42-12.42t7.17-8.28q4.75-3.03 11.62-3.03 1.71 0 2.82 1.01 1.12 1.01 1.12 2.52 0 1.52-1.12 2.53-1.11 1.01-2.82 1.01-4.55 0-7.58 2.12-2.93 2.02-4.44 5.76-1.42 3.63-1.42 8.38v51.61q0 1.82-1.11 2.93Q594 83 592.08 83Zm16.16-46.46h-26.36q-1.61 0-2.62-.91-.91-1.01-.91-2.42 0-1.52.91-2.43 1.01-1.01 2.62-1.01h26.36q1.62 0 2.53 1.01 1.01.91 1.01 2.43 0 1.41-1.01 2.42-.91.91-2.53.91Zm33.23 46.96q-5.96 0-11.82-2.02-5.85-2.01-9.49-6.06-1.11-1.21-.91-2.72.2-1.52 1.52-2.63 1.41-1.01 2.93-.81 1.51.21 2.52 1.32 2.42 2.83 6.36 4.34 4.04 1.52 8.89 1.52 7.48 0 10.81-2.53 3.33-2.63 3.43-6.26 0-3.64-3.43-5.96-3.43-2.42-11.31-3.74-10.2-1.61-14.95-5.65t-4.75-9.6q0-5.15 2.73-8.58 2.73-3.44 7.27-5.16 4.55-1.71 10-1.71 6.77 0 11.61 2.32 4.95 2.32 7.98 6.26 1.01 1.32.81 2.73-.2 1.41-1.61 2.32-1.22.71-2.83.51-1.52-.3-2.63-1.52-2.52-2.93-5.86-4.24-3.33-1.41-7.67-1.41-5.56 0-8.89 2.32-3.33 2.22-3.33 5.66 0 2.32 1.21 4.04 1.31 1.71 4.34 3.03 3.13 1.31 8.69 2.22 7.57 1.21 11.92 3.63 4.44 2.33 6.26 5.56 1.92 3.13 1.92 6.87 0 4.74-2.83 8.38-2.73 3.54-7.68 5.55-4.84 2.02-11.21 2.02Z" aria-label="CryptoChefs"/>
    </g>
</svg>
