<svg xmlns="http://www.w3.org/2000/svg" width="312.433" height="252.815" viewBox="0 0 312.433 252.815">
  <g id="recipe_on_plate" data-name="recipe on plate" transform="translate(0.009)">
    <path id="Path_19817" data-name="Path 19817" d="M92.4,241.3a30.855,30.855,0,0,1-4.319-.7,204.625,204.625,0,0,1-22.665-5.539,149.251,149.251,0,0,1-30.787-13.194c-2.064-1.195-4.077-2.476-6.114-3.717-1.088-.072-1.746-.96-2.645-1.4a85.145,85.145,0,0,1-14.245-12.3c-5.4-5.9-9.713-12.417-11.543-20.39a53.062,53.062,0,0,1-1.561-7.579,16.169,16.169,0,0,1,.085-2.571c.244-.942.23-1.93.483-2.871a12.005,12.005,0,0,1,.385-1.4c.037-.128.085-.254.133-.378a5.256,5.256,0,0,0,.194-.78,27.033,27.033,0,0,1,6.114-10.022,56.645,56.645,0,0,1,17.422-12.315c1.225-.52,2.314-1.395,3.724-1.431a137.084,137.084,0,0,1,25.174-7.932c4.9-1.079,9.833-1.98,14.805-2.661.7-.1.764-.181.671-.98-.211-1.8-.45-3.587-.651-5.383a102.341,102.341,0,0,1-.49-14.791,132.958,132.958,0,0,1,1.56-16.187,120.579,120.579,0,0,1,7.732-27.117C78.9,62.256,81.817,54.8,85.3,47.59c2.423-5.011,4.5-10.175,6.547-15.349a33.8,33.8,0,0,0,2.477-12.576,22.709,22.709,0,0,0-2.442-9.871c-.3-.627-.328-.616-1.01-.528-1.691.217-3.392.359-5.084.553A54.331,54.331,0,0,0,76.2,11.7a48.971,48.971,0,0,1-4.979,1.15c-1.037.2-1.619-.183-1.761-1.2-.074-.531-.161-1.052-.279-1.576A3.575,3.575,0,0,1,69.328,8.2c.25-.79.46-1.593.685-2.391a11.333,11.333,0,0,1,1.071-2.559,8.925,8.925,0,0,1,5.642-4.336c.7-.189,1.423-.331,2.139-.473C81.207-2.024,83.45-2.873,85.8-3.3c2.683-.489,5.344-1.105,8.036-1.533C95.906-5.163,98-5.3,100.09-5.5c3.93-.374,7.86-.754,11.794-1.087,2.866-.243,5.735-.467,8.607-.611,7.941-.4,15.888-.564,23.836-.3q6.357.21,12.7.728c3.644.3,7.288.6,10.919,1.019q7.7.885,15.295,2.437c2,.411,4.009.815,6,1.264a14,14,0,0,1,7.23,3.89,29.581,29.581,0,0,1,8.226,16.5,43.54,43.54,0,0,1,.208,12.277,58.05,58.05,0,0,1-2.1,9.727,99.66,99.66,0,0,1-3.7,9.866c-2.386,5.457-5.017,10.8-7.535,16.193-2.559,5.482-4.937,11.045-7.059,16.72-1.9,5.082-3.458,10.266-4.9,15.487a73.321,73.321,0,0,0-1.845,9.485c-.277,1.983-.471,3.978-.7,5.967.3,1.886.046,3.809.381,5.691a56.736,56.736,0,0,0,.928,7.315c.111.972.682,1.869.479,2.894.162.511.294,1.034.491,1.53a84.858,84.858,0,0,0,4.712,9.746,1.676,1.676,0,0,0,1.156.785c2.055.6,4.12,1.176,6.168,1.8a186.991,186.991,0,0,1,26.7,10.242c2.852,1.378,5.641,2.874,8.4,4.428q4.2,2.368,8.281,4.949a64.374,64.374,0,0,1,12,9.779,37.8,37.8,0,0,1,8.01,12.155,22.259,22.259,0,0,1,.479,15.764c-.248.739-.451,1.494-.658,2.247a34.359,34.359,0,0,1-7.041,13.2,48.407,48.407,0,0,1-11.31,9.659,85.126,85.126,0,0,1-15.9,7.664,143.76,143.76,0,0,1-20.928,5.888q-7.3,1.513-14.686,2.529c-4.78.658-9.576,1.182-14.383,1.613-5.295.475-10.6.8-15.906,1.012-5.261.21-10.528.266-15.795.213-5.071-.051-10.142-.138-15.2-.444-3.405-.206-6.806-.493-10.208-.757q-2.187-.169-4.369-.392c-.677-.069-1.347-.2-2.021-.3a5.633,5.633,0,0,1,3.807-2.344c4.7.444,9.412.785,14.125,1.114,8.422.587,16.851.668,25.277.494,6.615-.136,13.227-.527,19.832-1.071a248.481,248.481,0,0,0,28.093-3.829,135.057,135.057,0,0,0,26.095-7.571c7.9-3.316,15.156-7.62,21.053-13.982,1.262-1.362,2.369-2.854,3.623-4.217a6.475,6.475,0,0,0,.575-.823c-.22.184-.3.522-.535.755-3.687,4.3-8.335,7.34-13.236,10.009-13.507,7.355-28.167,11.068-43.181,13.658-7.357,1.269-14.769,2.088-22.206,2.617a260.033,260.033,0,0,1-27.613.586c-6.124-.216-12.268-.321-18.365-1.095-.523-.066-1.089-.006-1.489-.469.047-1.116,1.16-.985,1.745-1.467a3.61,3.61,0,0,1,1.693-.791q9.706.429,19.415.809c4.351.165,8.662-.358,12.991-.122a4.9,4.9,0,0,0,2.263-.5,127.837,127.837,0,0,1,12.347-4.565,18.219,18.219,0,0,1,5.335-.8c4.291-.07,8.57.364,12.846.447,6.448.125,12.382-1.4,16.431-7.166a31.286,31.286,0,0,1,5.418-5.933,7.848,7.848,0,0,1,1.685-1.146c.472-.234.959-.44,1.439-.659,3.132-1.094,5.861-2.97,8.708-4.6,1.4-.8,2.067-2.416,3.166-3.574-1.076.045-2.028,1.233-3.207.348a4.64,4.64,0,0,1,.489-3.093c.986-.848,2.172-1.424,3.14-2.3a24.345,24.345,0,0,0,5.283-5.225c4.194-5.784,4.335-11.89.17-18.15A41.071,41.071,0,0,0,221.233,166.4a93.715,93.715,0,0,0-12.524-6.639c-.674-.286-1.083-.486-1.312.5-.163.7-.913.956-1.555,1.22a15.3,15.3,0,0,0-1.953.584q-1.38.707-.13,1.622c3.728,2.725,7.326,5.63,11.176,8.186.78.518,1.728.926,1.578,2.046-.161,1.2-1.079,1.77-2.161,2.121-3.014.978-6.147,1.447-9.226,2.141-1.848.417-3.662.987-5.538,1.28-.217.052-.427.125-.643.181-10.422,2.548-20.918,4.773-31.6,7.28a16.435,16.435,0,0,0,3.39,1.663,135.729,135.729,0,0,0,17.932,6.73c.8.222,1.627.328,2.425.55.5.137,1.105.191,1.128.931a.673.673,0,0,1-.266.391,1.422,1.422,0,0,1-.444.2c-.081.009-.162.015-.243.025-4.73-.663-9.1-2.508-13.537-4.138-3.94-1.447-7.775-3.148-11.63-4.8a5.573,5.573,0,0,0-3.817-.323c-4.2,1.105-8.442,2.03-12.627,3.164-5.313,1.44-10.63,2.879-15.9,4.471-2.112.638-4.373.6-6.453,1.186a24.4,24.4,0,0,1-6.789.664,37.061,37.061,0,0,1-7.961-1.021,5.221,5.221,0,0,0-3.131.266c-5.253,2.022-10.063,4.934-15.072,7.447-4.788,2.4-9.478,5.04-14.618,6.677a12.367,12.367,0,0,1-2.316.576c1.767.22,3.66.839,5.591,1.263A281.461,281.461,0,0,0,114.735,218c6.54.669,13.079,1.293,19.658,1.454,1.118.027,2.353-.077,3.312.788-.448,1.183-1.594,1.3-2.563,1.687-2.636.312-5.255-.136-7.868-.3-6.46-.4-12.9-1.066-19.321-1.916a265.6,265.6,0,0,1-39.891-8.268c-3.836-1.123-7.639-2.357-11.385-3.743-2.85-1.054-5.649-.695-8.486-.153-2.441.466-4.81,1.25-7.263,1.669-4.488.765-8.918.849-13.183-1.088-.452-.347-1.075-.458-1.384-1,.1-.407.422-.474.764-.517,2.021.256,3.957.9,6,1.151a30.782,30.782,0,0,0,11.392-1.023,40.677,40.677,0,0,1,6.257-1.307c.1-.01.222.055.322-.042a.326.326,0,0,1-.242,0c-8.981-3.7-17.587-8.047-24.913-14.542-4.449-3.944-8.061-8.493-9.275-14.559a14.876,14.876,0,0,1,1.731-10.328c2.916-5.334,7.547-8.874,12.681-11.83,8.766-5.046,18.314-7.916,28.111-10.091,2.762-.613,5.542-1.117,8.327-1.607,1.554-.274,1.583-.334,1.219-1.929-.207-.906-.415-1.812-.553-2.73-.171-1.142-.69-1.554-1.9-1.357-6.594,1.08-13.162,2.281-19.628,3.985A117.2,117.2,0,0,0,21.8,149.787a52.948,52.948,0,0,0-14.609,11.1,3.153,3.153,0,0,0-.914,2.506c.136,2.1.068,4.2.038,6.3a3.957,3.957,0,0,0,1.4,3.384c2.837,2.282,3.736,5.294,3.617,8.839a29.762,29.762,0,0,0,1.551,11.259c1.706,4.694,5.079,8.025,9.109,10.767a15.93,15.93,0,0,1,2.069,1.367c.26.278.192.722.492.981.048.034.092.072.14.106s.1.064.151.094c.215.121.435.23.645.361a14.265,14.265,0,0,0,1.911,1.11c15.9,9.142,33.025,15.028,50.744,19.367,4.023.985,8.076,1.819,12.132,2.644a3.458,3.458,0,0,1,1.762.638,1.691,1.691,0,0,1-.835,2.044,4.142,4.142,0,0,1-2.3-.056A233.239,233.239,0,0,1,41.69,218.3a116.846,116.846,0,0,1-25.939-14.884,17.316,17.316,0,0,1-1.869-1.635c-.158-.14-.3-.3-.467-.429a8.167,8.167,0,0,1-.637-.52,16.452,16.452,0,0,1-1.348-1.51c.389.446.728.933,1.147,1.355.095.1.19.194.286.29s.206.182.31.274c.055.044.108.089.164.132a3.583,3.583,0,0,1,.315.293,97.02,97.02,0,0,0,23.3,17.97,134.013,134.013,0,0,0,20.145,9.3,198.068,198.068,0,0,0,24.347,7.257,13.18,13.18,0,0,0,7.175-.225c.547-.174,1.107-.44,1.681-.058a14.876,14.876,0,0,0,2.088,4.7A.691.691,0,0,1,92.4,241.3Z" transform="translate(34.698 7.624)"/>
    <path id="Path_19818" data-name="Path 19818" d="M-152.017,1139.355a14.792,14.792,0,0,1-.538,2.987c-.352.829-.115,1.732-.327,2.579a4.531,4.531,0,0,1-.048.66,4.843,4.843,0,0,0-.176,1.09,54.85,54.85,0,0,1-5.782,16.29,12.979,12.979,0,0,1-4.886,5.08c-4.182,2.325-6.751,6.029-9,10.018a12.174,12.174,0,0,0-.918,8.8c.533,2.471,1.19,4.9,3.042,6.815a10.934,10.934,0,0,0,5.146,3.081,45.208,45.208,0,0,0,25.324-.238,30.092,30.092,0,0,0,14.029-9.6c.382-.447.662-1,1.248-1.236l2.359,1.588c-.667.727-1.351,1.438-1.994,2.185a37.058,37.058,0,0,1-12.378,9.02,26.158,26.158,0,0,1-5.949,1.775,53.792,53.792,0,0,1-14.325.813,38.271,38.271,0,0,1-9.466-1.675,14.56,14.56,0,0,1-4.582-2.373,11.852,11.852,0,0,1-3.634-4.612,23.106,23.106,0,0,1-1.989-8.318,13.911,13.911,0,0,1,2.073-8.213c1.124-1.806,2.3-3.575,3.563-5.29a13.415,13.415,0,0,1,3.419-3.258q1.112-.739,2.241-1.451a12.9,12.9,0,0,0,4.688-5.237,51.147,51.147,0,0,0,3.78-10.12,89.3,89.3,0,0,0,2.166-11.653,67.658,67.658,0,0,1,1.709-9.775,24.516,24.516,0,0,1,8.77-13.072,22.927,22.927,0,0,1,11.8-4.781,14.531,14.531,0,0,1,6.7.95c.648.241,1.289.5,1.933.757l-3.664,1.73c-5.883-1.447-10.911.45-15.423,4.08-5.029,4.045-7.263,9.6-8.154,15.8-.14.978-.417,1.93-.482,2.918A2.787,2.787,0,0,0-152.017,1139.355Z" transform="translate(186.2 -961.826)" fill="#a76b23"/>
    <path id="Path_19819" data-name="Path 19819" d="M1329,843.736a13.57,13.57,0,0,1-.82-2.615c2.386-1.2,5.01-1.469,7.588-1.844a71.029,71.029,0,0,1,24.325.873c5.626,1.126,11.162,2.669,16.823,3.61a21.64,21.64,0,0,0,10.261-.755,11.244,11.244,0,0,0,4.9-2.956,41.973,41.973,0,0,0,4.677-5.155c2.54-3.782,2.057-8.164-1.2-10.806a13.257,13.257,0,0,0-3.307-1.65c-4.948-2.12-10.056-3.219-15.469-2.291a18.677,18.677,0,0,0-5.491,2.163,43.41,43.41,0,0,1-12.653,4.526,31.807,31.807,0,0,1-5.775.157,57.913,57.913,0,0,0-10.641.627,101.919,101.919,0,0,0-13.04,3.442c-1.311.419-1.342,1.56-1.936,2.39a3.093,3.093,0,0,1-.255-1.586c-.019-1.28.011-2.56.037-3.84a1.13,1.13,0,0,1,.169-.385c.178.252-.069.607.262.879a55.013,55.013,0,0,1,5.427-1.748c2.775-.706,5.51-1.573,8.33-2.093a29.675,29.675,0,0,1,3.083-.421,89.376,89.376,0,0,1,9.336-.338c.988.027,1.978-.006,2.967-.007a12.4,12.4,0,0,0,3.936-.642c2.06-.689,4.1-1.428,6.142-2.182a29.392,29.392,0,0,0,4.113-2.04,15.21,15.21,0,0,1,4.677-1.812c.679-.125,1.366-.222,2.053-.295a35.073,35.073,0,0,1,6.518-.024,18.773,18.773,0,0,1,4.879,1.2,35.235,35.235,0,0,1,7.018,3.492,9.714,9.714,0,0,1,4.685,7.049,11.073,11.073,0,0,1-1.2,6.9,35.241,35.241,0,0,1-7.453,8.374,18.931,18.931,0,0,1-6.13,2.536,22.661,22.661,0,0,1-10.291.148c-3.046-.628-6.073-1.351-9.1-2.052-4.14-.957-8.3-1.811-12.5-2.44a48.145,48.145,0,0,0-9.308-.666,67.313,67.313,0,0,0-14.093,1.771A4.906,4.906,0,0,0,1329,843.736Z" transform="translate(-1116.582 -706.006)" fill="#a76b23"/>
    <path id="Path_19820" data-name="Path 19820" d="M700.844,1733.017a3.729,3.729,0,0,0-1.276.647q-1.157.727-2.313,1.458a34.929,34.929,0,0,1-3.37,1.058,12.974,12.974,0,0,1-9.969-2.156c-.438-.3-.878-.6-1.316-.905a3.7,3.7,0,0,0-.361-.621,7.87,7.87,0,0,1-1.884-4.761,3.31,3.31,0,0,1,.954-3.557,4.8,4.8,0,0,0,.895-1.8,12.527,12.527,0,0,1,9.5-6.3,13.433,13.433,0,0,1,6.433.741,14.4,14.4,0,0,0,9.731.1,7.907,7.907,0,0,1,9.484,2.885,5.778,5.778,0,0,1,1.01,4.917,3.065,3.065,0,0,1-1.668,2.147,16.788,16.788,0,0,1-3.333,1.778,2.366,2.366,0,0,1-1.7.777c-3.484.641-7,1.164-9.989,3.305C701.446,1732.889,701.11,1732.882,700.844,1733.017Z" transform="translate(-555.841 -1484.245)" fill="#a76b23"/>
    <path id="Path_19821" data-name="Path 19821" d="M1926.015,904.56a14.943,14.943,0,0,1,3.748-9.592,14.748,14.748,0,0,1,7.232-4.695,7.8,7.8,0,0,1,8.039,2.032,5.028,5.028,0,0,1,.735,6.031,6.474,6.474,0,0,1-1.615,1.914,8.991,8.991,0,0,1-1.069.795,11.221,11.221,0,0,0-3.732,3.741c-.56.872-1.154,1.724-1.745,2.576a11.57,11.57,0,0,1-1.891,2.273,6.312,6.312,0,0,1-5.487,1.568,4.433,4.433,0,0,1-3.3-2.485A8.495,8.495,0,0,1,1926.015,904.56Z" transform="translate(-1634.021 -769.253)" fill="#a76b23"/>
    <path id="Path_19822" data-name="Path 19822" d="M-233.738,1324a9.284,9.284,0,0,1,3.327,9.769,10.921,10.921,0,0,1-3.2,5.411,6.253,6.253,0,0,1-3.98,1.766,6.37,6.37,0,0,1-5.346-2.379,10.413,10.413,0,0,1-2.341-5.669,21.645,21.645,0,0,1-.1-2.368,8.4,8.4,0,0,1,10.074-7.827c.649.146,1.379.11,1.863.706C-233.583,1323.587-234.116,1323.564-233.738,1324Z" transform="translate(245.368 -1143.658)" fill="#a76c24"/>
    <path id="Path_19823" data-name="Path 19823" d="M-163.933,1329.732c-.211-.111-.424-.217-.627-.341-.017-.011.032-.2.06-.2.288-.028.578-.033.867-.045C-163.588,1329.412-163.891,1329.506-163.933,1329.732Z" transform="translate(175.563 -1149.234)" fill="#c5b896"/>
    <path id="Path_19824" data-name="Path 19824" d="M457.617,497.361l-.091.1a1.443,1.443,0,0,1-.1-.227c-.005-.019.061-.057.1-.087Z" transform="translate(-362.849 -429.216)" fill="#b3baba"/>
    <path id="Path_19825" data-name="Path 19825" d="M668.835,189.047c1.45.939,2.732,2.119,4.244,2.969a.3.3,0,0,1,.184.36c-.054.168-.211.167-.343.207-2.369.712-4.789,1.219-7.2,1.744q-9.273,2.014-18.551,4.007c-5.315,1.143-10.64,2.246-15.948,3.423-8.107,1.8-16.172,3.772-24.226,5.791-6.569,1.647-13.174,3.13-19.78,4.617a2.129,2.129,0,0,0-.292.051,14.465,14.465,0,0,1-6.595.52,38.112,38.112,0,0,1-10.687-2.335,77.637,77.637,0,0,1-8.1-3.682,38.7,38.7,0,0,1-12.37-10.242,51.5,51.5,0,0,1-7.135-11.931c-1.759-4.194-3.659-8.332-5.068-12.663a148.974,148.974,0,0,1-4.788-19.119,103.144,103.144,0,0,1-1.341-24.1,118.262,118.262,0,0,1,8.807-39.478c2.915-7.032,5.6-14.162,8.935-21.015,2.816-5.788,5.107-11.792,7.445-17.778a37.388,37.388,0,0,0,2.5-12.45,24.8,24.8,0,0,0-2.041-10.552,26.061,26.061,0,0,0-2.978-5.291,17.25,17.25,0,0,0-6.5-5.511,6.768,6.768,0,0,1-.633-.365c-.029-.018-.026-.088-.053-.193a13.292,13.292,0,0,1,2.512-.571c2.721-.5,5.424-1.116,8.179-1.425,2.31-.26,4.616-.555,6.929-.788,3.986-.4,7.971-.836,11.966-1.126,4.046-.294,8.1-.564,12.161-.481q7.793.158,15.584.352c4.254.109,8.512.175,12.76.4,3.753.2,7.51.347,11.258.68,3.105.276,6.2.6,9.288,1.029a88.258,88.258,0,0,1,11.921,2.333,40.292,40.292,0,0,1,5.829,2.162,5.3,5.3,0,0,1,1.774,1.31,30.132,30.132,0,0,1,7.634,16.582,51.08,51.08,0,0,1,.246,9.632,43.225,43.225,0,0,1-1.02,6.142,81.026,81.026,0,0,1-5.046,15.17c-2.039,4.776-4.379,9.412-6.594,14.107-2.6,5.5-5,11.078-7.05,16.813-2.184,6.106-4.037,12.3-5.622,18.585a61.781,61.781,0,0,0-1.409,8.631c-.444,4.187-.638,8.387-.7,12.594a43.694,43.694,0,0,0,.4,7.55,8.892,8.892,0,0,0,1.117,3.2,5.433,5.433,0,0,1,.49,1.069,53.061,53.061,0,0,0,4.082,9.365c.978,1.718,1.888,3.473,2.9,5.173a70.424,70.424,0,0,0,9.678,12.358,141.14,141.14,0,0,0,11.464,10.759.457.457,0,0,1,.076.127,3.593,3.593,0,0,1-2.3.888q-16.261,3.443-32.615,6.411c-14.75,2.659-29.585,4.836-44.276,7.823-4.437.9-8.752.3-13.07-.683-3.383-.77-6.6-2.1-9.961-2.938a6.259,6.259,0,0,0-2.492-.268c-.819.127-.672.572-.25,1.011a7.088,7.088,0,0,0,2.338,1.55,61.209,61.209,0,0,0,13.8,3.947c5.238.92,10.359-.013,15.447-1.065,14.2-2.936,28.581-4.833,42.817-7.553,9.669-1.847,19.328-3.746,28.962-5.77A5.276,5.276,0,0,0,668.835,189.047Z" transform="translate(-427.269 -8.997)" fill="#d5d2ce"/>
    <path id="Path_19826" data-name="Path 19826" d="M220.755,1148.582a8.391,8.391,0,0,1,.691,2.088,91.545,91.545,0,0,0,3.489,10.079c1.521,3.649,3,7.319,4.764,10.861a45.009,45.009,0,0,0,4.772,7.492c1.241,1.6,2.5,3.192,3.864,4.684a36.09,36.09,0,0,0,4.584,3.979,45.943,45.943,0,0,0,10.247,5.9c1.862.8,3.687,1.68,5.6,2.345a2.028,2.028,0,0,1,.368.219.509.509,0,0,1-.37.424q-3.564,1.475-7,3.22c-3.481,1.773-6.943,3.579-10.369,5.461-2.427,1.333-4.9,2.589-7.427,3.726a36.448,36.448,0,0,1-6.561,2.312,7.7,7.7,0,0,1-1.464.194,4.087,4.087,0,0,0-1.033.075,6.155,6.155,0,0,1-3.644-.154,189.112,189.112,0,0,1-21.006-7.233c-3.145-1.32-6.257-2.726-9.273-4.325a81.692,81.692,0,0,1-12.379-7.851,24.95,24.95,0,0,1-4.519-4.26c-2.721-5.252-4.553-10.643-2.437-16.6,1.358-3.819,4.054-6.642,7.14-9.089a50.075,50.075,0,0,1,13.794-7.385,123.575,123.575,0,0,1,26.755-6.373A1.667,1.667,0,0,1,220.755,1148.582Z" transform="translate(-115.001 -993.92)" fill="#464646"/>
    <path id="Path_19827" data-name="Path 19827" d="M637.7,1474.533c-.116-.086-.226-.237-.349-.249a32.07,32.07,0,0,0-3.535-.285c-2.723.038-5.419-.433-8.14-.371-1.587-.45-3.239-.256-4.857-.461-1.506-.191-3.039-.322-4.566-.42-1.472-.094-2.934-.337-4.4-.505-1.126-.129-2.255-.239-3.381-.368-.93-.106-1.86-.214-2.787-.344-2-.281-4-.556-5.995-.871-1.849-.293-3.692-.628-5.535-.958-2.037-.364-4.075-.726-6.106-1.121-1.548-.3-3.091-.635-4.628-.989-2.306-.531-4.606-1.089-6.906-1.646-.42-.1-.828-.251-1.469-.448a32.9,32.9,0,0,0,9.319-3.048c2.1-1,4.18-2.027,6.273-3.034,2.759-1.329,5.442-2.816,8.136-4.274a73.548,73.548,0,0,1,7.182-3.514q2.058-.84,4.1-1.717a1.742,1.742,0,0,1,1.14-.079,45.4,45.4,0,0,0,4.5.875,29.984,29.984,0,0,0,4.717.4c1.087-.042,2.176,0,3.265,0a4.055,4.055,0,0,0,2.28-.455,3.625,3.625,0,0,1,1.71-.409,36.842,36.842,0,0,0,9.1-1.881c2.557-.745,5.085-1.577,7.7-2.112a17.232,17.232,0,0,0,2.8-.9,29.015,29.015,0,0,1,3.707-1q5.388-1.323,10.782-2.623c.719-.175,1.455-.3,2.153-.533a1.859,1.859,0,0,1,1.421.111c2.319.983,4.658,1.918,6.966,2.927,2.265.99,4.581,1.844,6.889,2.719,1.8.683,3.6,1.378,5.417,2.009a52.113,52.113,0,0,0,6.855,1.839,7.491,7.491,0,0,1,.841.271c.156.425-.161.646-.41.862a163.543,163.543,0,0,1-18.124,13.859,42.363,42.363,0,0,1-16.96,5.911c-4.74.712-9.519,1.15-14.233,2.038a30.664,30.664,0,0,0-3.62.785C638.547,1474.655,638.122,1474.9,637.7,1474.533Z" transform="translate(-465.426 -1246.819)" fill="#464646"/>
    <path id="Path_19828" data-name="Path 19828" d="M309.256,1612.638c.057-.375.353-.581.583-.824a2.61,2.61,0,0,0,.614-1.156,5.264,5.264,0,0,0-.965-5,9.837,9.837,0,0,0-3.038-2.484,5.789,5.789,0,0,0-4.36-.482,10.712,10.712,0,0,0-1.254.354,21.988,21.988,0,0,1-4.092.9,3.1,3.1,0,0,1-1.014.015,15.757,15.757,0,0,1-3.973-.715,13.309,13.309,0,0,0-3.488-.955c-2.832-.32-5.589-.162-8.065,1.6-.953.678-1.846,1.428-2.776,2.131a5.157,5.157,0,0,0-.863.989,4.047,4.047,0,0,1-1.114,1.145c-2.984-.609-5.982-1.161-8.951-1.84-5.189-1.186-10.345-2.508-15.457-4.012-5.534-1.629-11-3.452-16.4-5.509a154.3,154.3,0,0,1-16.479-7.366,80.287,80.287,0,0,1-7.361-4.166c.011-.508.289-.455.614-.3.505.169,1.02.313,1.514.511a17.165,17.165,0,0,0,5.117,1,25.612,25.612,0,0,0,7.788-.719c2.077-.477,4.142-1.011,6.221-1.481a18.275,18.275,0,0,1,3.734-.537,11.985,11.985,0,0,1,4.552.708,197.852,197.852,0,0,0,25.51,7.58c4.341,1.006,8.716,1.873,13.1,2.676,3.38.619,6.77,1.2,10.185,1.613,2.788.336,5.564.775,8.353,1.095,2.454.282,4.921.449,7.379.691,2.895.284,5.8.441,8.7.641,1.644.114,3.293.124,4.932.3a2.924,2.924,0,0,1-1.612,1.807,6.759,6.759,0,0,0-2.647,3.436c-.929,2.095.47,3.642,1.563,5.048,1.676,2.153,4.14,2.729,6.757,2.888,8.563.517,16.51-1.713,24.17-5.4a75.012,75.012,0,0,1,23.216-6.849,135.211,135.211,0,0,0,19.4-3.861,48.39,48.39,0,0,0,6.8-2.61c.6-.27,1.2-.747,1.885-.181a22.377,22.377,0,0,0-5.5,5.215c-.859,1-1.6,2.11-2.456,3.122a15.662,15.662,0,0,1-8.27,5.457,40.286,40.286,0,0,1-6.744.967,9.98,9.98,0,0,1-1.449-.062c-.241-.017-.478-.084-.719-.1a97.427,97.427,0,0,0-12.349-.294,15.774,15.774,0,0,0-4.7.855q-5.333,1.954-10.661,3.918a6.372,6.372,0,0,0-1.058.49,5.029,5.029,0,0,1-2.635.655c-3.343.026-6.69.247-10.028.15-3.682-.107-7.367-.092-11.047-.254-3.29-.144-6.577-.373-9.864-.578A12.661,12.661,0,0,1,309.256,1612.638Z" transform="translate(-148.676 -1370.018)" fill="#676767"/>
    <path id="Path_19829" data-name="Path 19829" d="M1242.109,1120.029a1.194,1.194,0,0,1,.994.036,212.417,212.417,0,0,1,26.149,9.155,138.334,138.334,0,0,1,15.038,7.385,12.714,12.714,0,0,1,3.668,2.953,19.812,19.812,0,0,0,3.488,3.21,5.5,5.5,0,0,0,1,.628c1.307.611,2.439,1.507,3.678,2.22a29.16,29.16,0,0,1,6.69,5.8,42.133,42.133,0,0,1,3.969,4.988,27.51,27.51,0,0,1,4.221,9.735,19.985,19.985,0,0,1-1.174,12.337,27.626,27.626,0,0,1-5.41,8.1,49.583,49.583,0,0,1-10.957,8.559,91.393,91.393,0,0,1-14.744,6.943,140.383,140.383,0,0,1-15.306,4.661q-6.185,1.537-12.473,2.587c-2.971.494-5.943.984-8.925,1.407-2.053.291-4.121.471-6.184.689-2.6.275-5.2.569-7.811.794-1.969.17-3.946.269-5.921.353-1.38.059-2.761.094-4.179.29a1,1,0,0,1,.738-.56c3.563-1.187,7.124-2.383,10.691-3.559a18.173,18.173,0,0,1,5.251-.849c3.116-.079,6.235-.046,9.352-.048a15.114,15.114,0,0,1,2.513.175,8.528,8.528,0,0,0,1.777.058,40.438,40.438,0,0,0,8.485-1.256,6.9,6.9,0,0,0,1.388-.513,19.44,19.44,0,0,0,6.621-5.158,66.909,66.909,0,0,1,6.176-6.4,7.26,7.26,0,0,1,3.25-1.71,12.6,12.6,0,0,0,3.242-1.425,30.609,30.609,0,0,1,3-1.628,12.114,12.114,0,0,0,4.544-3.725c.938-1.213,1.84-2.453,2.761-3.678a25.014,25.014,0,0,1,1.969-2.407,12.811,12.811,0,0,0,2.078-3.059,7.968,7.968,0,0,1,.866-1.377,13.87,13.87,0,0,0,3.251-7.826,23.218,23.218,0,0,0-.178-7.218,20.789,20.789,0,0,0-2.7-6.234,35.385,35.385,0,0,0-6.69-7.7,34.634,34.634,0,0,0-4.214-3.272c-1.084-.688-2.194-1.338-3.3-1.984-1.709-1-3.426-1.977-5.142-2.961a114.321,114.321,0,0,0-11.975-5.884c-4.5-1.926-9.108-3.577-13.778-5.05a3.474,3.474,0,0,1-1.756-1.248,64.609,64.609,0,0,1-3.9-5.776A.666.666,0,0,1,1242.109,1120.029Z" transform="translate(-1022.391 -969.4)" fill="#676767"/>
    <path id="Path_19830" data-name="Path 19830" d="M-109.7,1400.1a6.053,6.053,0,0,1-1.616,2.259,31.939,31.939,0,0,1-8.211,6.515,30.71,30.71,0,0,1-3.676,1.922,25.861,25.861,0,0,1-5.267,1.469c-1.7.3-3.411.5-5.128.693a41.636,41.636,0,0,1-6.366.174,40.432,40.432,0,0,1-11.492-1.918,10.636,10.636,0,0,1-5.55-4.469,13.568,13.568,0,0,1-1.318-3.135,18.568,18.568,0,0,1-.948-5.377,11.128,11.128,0,0,1,1.66-6.508c1.1-1.7,2.2-3.4,3.375-5.053a10.388,10.388,0,0,1,2.86-2.774c.749-.48,1.468-1.008,2.227-1.472a16.639,16.639,0,0,0,6.452-7.728,61.74,61.74,0,0,0,2.778-7.184c.668-2.173,1.2-4.378,1.684-6.6.225-.267.019-.65.245-.917l.047-.551c.325-.188.4.117.548.278a30.983,30.983,0,0,0,1.442,6.8c.231.648.334,1.341.5,2.011a35.865,35.865,0,0,0,3.905,9.257,57.346,57.346,0,0,0,7.691,10.146,87.3,87.3,0,0,0,12.608,11.011C-110.726,1399.334-110.215,1399.722-109.7,1400.1Z" transform="translate(170.998 -1176.245)" fill="#ffc242"/>
    <path id="Path_19831" data-name="Path 19831" d="M98.764,1129.4a59.5,59.5,0,0,0-6.9,1.5,32.184,32.184,0,0,1-8.882,1.182,29.269,29.269,0,0,1-8.262-1.338c-.185-.061-.381-.091-.571-.136-1.055-.241-2.195-.273-2.967-1.207-1.425-.977-2.983-1.749-4.332-2.846a27.3,27.3,0,0,1-6.176-6.957,14.531,14.531,0,0,1-1.407-3.261,28.438,28.438,0,0,1-1.24-6.382c-.155-2.026-.194-4.049-.22-6.076a12,12,0,0,0-.272-2.352,6.917,6.917,0,0,0-2.04-3.708c-.469-.44-.927-.894-1.417-1.31a3.724,3.724,0,0,1-1.316-3.019q.008-3.044.005-6.087a2.742,2.742,0,0,0-.024-1.031c-.429-.967.115-1.6.672-2.225a47.22,47.22,0,0,1,6.462-6.108,71.217,71.217,0,0,1,14.888-8.553,132.346,132.346,0,0,1,23.661-7.655c4.375-1.022,8.783-1.907,13.235-2.547.879-.126,1.748-.32,2.625-.464a7.411,7.411,0,0,1,1.034-.084c.46-.01.579.081.692.582.392,1.734.769,3.472,1.15,5.209a2.481,2.481,0,0,1,.039.294c.041.43-.11.637-.552.712-1.266.216-2.535.409-3.8.638a138.749,138.749,0,0,0-20.8,5.3,77.773,77.773,0,0,0-13.536,6.01,39.452,39.452,0,0,0-9.789,7.633,20.187,20.187,0,0,0-3.988,6.378,15.122,15.122,0,0,0-.2,10.171,24.428,24.428,0,0,0,4.495,7.96,45.083,45.083,0,0,0,8.954,8.187,91.332,91.332,0,0,0,16.688,9.3c1.357.6,2.727,1.165,4.091,1.747A.318.318,0,0,1,98.764,1129.4Z" transform="translate(-12.005 -916.549)" fill="#676767"/>
    <path id="Path_19832" data-name="Path 19832" d="M1328.889,850.306a4.751,4.751,0,0,0,.042-1.475.692.692,0,0,1,.445-.7c.453-.2.9-.4,1.364-.575a67.913,67.913,0,0,1,7.806-2.309c1.434-.362,2.865-.743,4.312-1.048a36.792,36.792,0,0,1,3.808-.5c4-.415,8-.191,12-.266a15.413,15.413,0,0,0,4.223-.7,64.459,64.459,0,0,0,8.323-3.108c1.073-.5,2.092-1.117,3.133-1.685a13.874,13.874,0,0,1,6.546-1.626c.841-.014,1.683.018,2.523-.017a14.079,14.079,0,0,1,4.677.62c1.323.4,2.653.776,3.976,1.175a11.152,11.152,0,0,1,2.053.843,12.26,12.26,0,0,0,1.355.594,7.169,7.169,0,0,1,4.781,5.558,9.032,9.032,0,0,1-1.845,7.371,39.9,39.9,0,0,1-5.4,5.7,11.468,11.468,0,0,1-4.476,2.224,22.558,22.558,0,0,1-8.8.834,31.277,31.277,0,0,1-5.234-.956c-4.686-1.191-9.415-2.187-14.164-3.076-2.321-.434-4.667-.761-7.019-1.042a60.191,60.191,0,0,0-10.514-.167,54.559,54.559,0,0,0-11.67,1.821,3.435,3.435,0,0,1-1.31.171,9.268,9.268,0,0,1-.522-2.571A41.26,41.26,0,0,1,1328.889,850.306Z" transform="translate(-1118.239 -722.86)" fill="#ffc242"/>
    <path id="Path_19833" data-name="Path 19833" d="M831.789,1649.209a12.281,12.281,0,0,1,5.435-2.877,38.728,38.728,0,0,1,4.78-.984,21.438,21.438,0,0,0,2.3-.513c.124.077.245.212.373.22.886.054,1.774.28,2.636.279,1.933,0,3.827.415,5.757.37a9.312,9.312,0,0,1,2.943.226,3.808,3.808,0,0,0,1.033.048c1.385.012,2.77.015,4.155.029a7.024,7.024,0,0,1,2.058.19,4.084,4.084,0,0,0,1.178.073q7.939,0,15.878,0a3.285,3.285,0,0,0,.74-.017,28.487,28.487,0,0,1,5.463-.267,13.42,13.42,0,0,0,2.353-.2,12.6,12.6,0,0,1,2.217-.09,7.416,7.416,0,0,0,2.5-.23.7.7,0,0,1,.293-.038,43.35,43.35,0,0,0,5.013-.352c1.469-.06,2.934-.288,4.394-.49a9.381,9.381,0,0,0,2.634-.335c1.829-.028,3.605-.492,5.419-.663,1.319-.124,2.626-.39,3.934-.62,1.452-.255,2.9-.558,4.348-.812,3.834-.672,7.606-1.616,11.387-2.528,3.213-.776,6.384-1.7,9.52-2.729a102.84,102.84,0,0,0,9.836-3.689c1.578-.7,3.2-1.321,4.732-2.109,2.15-1.105,4.236-2.335,6.35-3.509a50.2,50.2,0,0,0,4.912-3.3,29.12,29.12,0,0,0,2.513-2.062,26.669,26.669,0,0,0,2.757-2.465c.221-.264.446-.526.669-.788.266-.075.409-.024.292.289a38.793,38.793,0,0,1-7.545,8.507,46.408,46.408,0,0,1-6.809,4.955c-2.117,1.276-4.242,2.531-6.463,3.608a77.782,77.782,0,0,1-8.042,3.4c-1.442.509-2.874,1.051-4.331,1.517-4.414,1.412-8.871,2.656-13.408,3.626-2.358.5-4.7,1.083-7.073,1.522-1.5.277-3,.53-4.5.78q-2.183.363-4.37.7c-1.215.184-2.42.417-3.65.515-1.173.094-2.338.3-3.5.5-.826.137-1.66.108-2.5.275a32.511,32.511,0,0,1-3.965.386,5.978,5.978,0,0,0-1.9.23.669.669,0,0,1-.292.044c-1.637-.116-3.237.324-4.866.329a9.582,9.582,0,0,0-2.353.21,8.621,8.621,0,0,1-1.772.082,13.477,13.477,0,0,0-3.388.243,3.907,3.907,0,0,1-1.034.042c-1.237.01-2.473.009-3.71.026a7.4,7.4,0,0,0-2.205.2,4,4,0,0,1-1.179.066q-8.756,0-17.511,0a6.315,6.315,0,0,1-1.618-.142,5.677,5.677,0,0,0-1.321-.116c-1.187-.02-2.374-.014-3.561-.028a12.842,12.842,0,0,1-2.5-.2,13.514,13.514,0,0,0-2.366-.089,8.017,8.017,0,0,1-2.351-.219,3.8,3.8,0,0,0-1.032-.067,9.833,9.833,0,0,1-2.939-.257.747.747,0,0,0-.294-.026c-1.638.13-3.234-.38-4.865-.324A5.858,5.858,0,0,1,831.789,1649.209Z" transform="translate(-688.854 -1400.438)" fill="#2e2e2e"/>
    <path id="Path_19834" data-name="Path 19834" d="M1524.976,1291.14a9.014,9.014,0,0,1-2.982,2.067,5.6,5.6,0,0,1-.7-2.966c-.553-5.656-5.562-11.2-11.068-12.3-1.3-.259-2.676.215-3.927-.428a.447.447,0,0,1-.1-.4c.24-.34.772-.148,1.029-.586-2.595-2.911-5.223-5.769-9.207-6.818-.184-.087-.363-.183-.544-.276-.125-.054-.244-.117-.364-.18-.588-.544-1.807-.374-1.807-1.586a38.58,38.58,0,0,0,4.173-.934c2.743-.576,5.484-1.161,8.217-1.781,1.006-.228,1.983-.582,2.983-.845a2.33,2.33,0,0,0,1.4-1.017,1.269,1.269,0,0,0-.405-1.912,42.744,42.744,0,0,1-5.712-3.932c-2.382-1.747-4.731-3.54-7.1-5.312-.118-.089-.246-.165-.357-.261a.463.463,0,0,1-.042-.759,4.017,4.017,0,0,1,1.23-.8,2.4,2.4,0,0,1,1.943.415c8.391,4.269,16.149,9.423,22.613,16.349a20.64,20.64,0,0,1,3.786,19.634A10.827,10.827,0,0,1,1524.976,1291.14Z" transform="translate(-1261.992 -1081.175)" fill="#464646"/>
    <path id="Path_19835" data-name="Path 19835" d="M1059.9,1447.955a2.4,2.4,0,0,0,1.585.2,11.949,11.949,0,0,1,6.244,1.546,11.335,11.335,0,0,1,2.168,1.537,20.037,20.037,0,0,1,3.536,3.969,12.733,12.733,0,0,1,1.961,5.826q.156,1.469.308,2.937a5.5,5.5,0,0,0-.267.968,10.648,10.648,0,0,1-.573,2.389c.029,1.844-1.345,2.862-2.473,3.941a24.677,24.677,0,0,1-6.2,4.069l-1.132.488a2.059,2.059,0,0,0-1.274.307,45.568,45.568,0,0,1-5.617,2.288,48.972,48.972,0,0,1-7,1.841c-1.828.384-3.67.706-5.506,1.052-2.8.529-5.6,1.089-8.409,1.572-1.646.282-3.318.414-4.972.659a60.367,60.367,0,0,0-7.806,1.579c-.709.2-1.385.517-2.078.778-2.353.887-4.718,1.744-7.057,2.669-1.421.562-2.815,1.2-4.2,1.855a55.539,55.539,0,0,1-10.305,3.634c-1.57.4-3.19.57-4.8.811a62.134,62.134,0,0,1-7.389.271,13.444,13.444,0,0,1-3.373-.357,8.9,8.9,0,0,1-5.014-3.218,4.832,4.832,0,0,1-.658-1.481c-.147-.4-.182-.882-.753-1-.188-.039-.257-.3-.2-.5a5.837,5.837,0,0,1,.956-2.757,2.6,2.6,0,0,0,.427-.776,3.041,3.041,0,0,1,1.683-1.773,4.512,4.512,0,0,0,.933-.716c.422-.338.842-.678,1.263-1.017l2.4-1.3a43.914,43.914,0,0,1,8.808-1.781c2.879-.391,5.762-.748,8.633-1.192,2.336-.362,4.661-.8,6.979-1.263a33.216,33.216,0,0,0,5.73-1.983,35.334,35.334,0,0,0,7.83-4.165c1.393-1.02,2.749-2.091,4.132-3.126,1.778-1.331,3.572-2.64,5.347-3.976a23.434,23.434,0,0,0,2.065-1.68c1.612-1.53,3.417-2.829,5.081-4.3l0,0a1.6,1.6,0,0,1,.326-.207l.247-.139a5.421,5.421,0,0,1,1.28-1.411,74.116,74.116,0,0,1,9.291-5.546,20.843,20.843,0,0,1,7.018-1.752C1059.375,1447.714,1059.679,1447.677,1059.9,1447.955Z" transform="translate(-814.79 -1252.541)" fill="#a76b23"/>
    <path id="Path_19836" data-name="Path 19836" d="M1294.318,1390.92c-1.312.208-2.632.379-3.936.634a20.717,20.717,0,0,0-6.55,2.688c-1.868,1.107-3.69,2.292-5.515,3.471-.824.532-1.6,1.132-2.4,1.7a.486.486,0,0,0-.419-.513c-1.108-.232-2.221-.453-3.317-.734a71.985,71.985,0,0,1-8-2.665c-2.164-.833-4.333-1.657-6.47-2.557-2.319-.976-4.607-2.028-6.9-3.068-.291-.132-.692-.176-.787-.6.221-.313.6-.311.9-.38,4.659-1.057,9.326-2.079,13.987-3.13,2.979-.672,5.953-1.372,8.927-2.067q4.1-.958,8.2-1.936a2.638,2.638,0,0,1,1.028-.033c.638.32,1.214.746,1.837,1.093a2.117,2.117,0,0,1,.356.177c.169.117.366.179.541.285.748.377,1.519.7,2.289,1.029,2.7,1.138,4.493,3.286,6.171,5.557a.776.776,0,0,1,.15.949Z" transform="translate(-1049.17 -1194.876)" fill="#464646"/>
    <path id="Path_19837" data-name="Path 19837" d="M861.413,1305.978a2.043,2.043,0,0,1-1.768,2.065c-1.179.342-2.381.608-3.584.857-2.213.458-4.432.888-6.641,1.369-2.783.605-5.567,1.212-8.383,1.676-3.294.543-6.55,1.306-9.83,1.938-1.881.363-3.777.643-5.662.982-2.416.436-4.821.939-7.245,1.328-2.133.343-4.232.887-6.395,1.054-.683.052-1.352.236-2.036.331-2.479.342-4.952.739-7.417,1.174-2.417.426-4.812.988-7.235,1.374-3.109.495-6.167,1.24-9.263,1.78-2.322.4-4.646.8-6.965,1.226a5.974,5.974,0,0,1-1.036.035c-.989,0-1.98-.033-2.968.011a25.9,25.9,0,0,1-6.3-.692,79.464,79.464,0,0,1-10.083-2.862,15.112,15.112,0,0,1-3.669-1.9,3.919,3.919,0,0,1-1.223-1.272.627.627,0,0,1,.493-.98,10.852,10.852,0,0,1,2.94.19c1.334.356,2.667.7,3.971,1.158a74.784,74.784,0,0,0,10.269,2.721,3.524,3.524,0,0,0,.588.062,16.343,16.343,0,0,1,2.643.242,9.975,9.975,0,0,0,2.809.024c1.219-.122,2.427-.366,3.636-.58,1.547-.274,3.091-.564,4.634-.858,2.221-.423,4.438-.861,6.659-1.282,1.446-.275,2.9-.531,4.344-.8,2.076-.381,4.142-.844,6.232-1.124,2.192-.293,4.358-.733,6.552-1.017,2.038-.263,4.079-.582,6.1-1.029,1.963-.434,3.97-.668,5.955-1.007,1.307-.223,2.608-.481,3.913-.719,2.512-.457,5.028-.894,7.537-1.371,2.124-.4,4.25-.811,6.354-1.3.63-.147,1.265-.153,1.894-.292,2.254-.5,4.528-.9,6.79-1.365,2.071-.421,4.136-.871,6.2-1.3,1.828-.381,3.659-.754,5.488-1.13a5.046,5.046,0,0,1,1.7,1.289Z" transform="translate(-620.014 -1128.234)" fill="#efebe4"/>
    <path id="Path_19838" data-name="Path 19838" d="M183.446,1572.413a16.074,16.074,0,0,0-.954,3.557,1.869,1.869,0,0,0-.587.055,19.147,19.147,0,0,1-4.742,1.052,3.5,3.5,0,0,1-1.325-.03q-6.652-1.426-13.19-3.3c-3.228-.923-6.425-1.939-9.6-3.021-3.272-1.114-6.493-2.363-9.692-3.67-2.013-.822-4.01-1.676-5.951-2.661-.7-.357-1.459-.611-2.165-.962A128.823,128.823,0,0,1,119.146,1554c-2.19-1.519-4.287-3.153-6.377-4.808a95.092,95.092,0,0,1-8.1-7.605,2.37,2.37,0,0,1-.25-.365,2.224,2.224,0,0,0-.293-.3h0a2.676,2.676,0,0,0-.29-.3v0c-.062-.272.019-.4.317-.318l.57.34a2.432,2.432,0,0,1,.29.281c1.5,1.285,3.076,2.465,4.668,3.628,2.034,1.486,4.143,2.86,6.271,4.2a134.788,134.788,0,0,0,13.339,7.1c1.687.818,3.412,1.561,5.144,2.281,2.277.947,4.561,1.877,6.866,2.76,3.276,1.255,6.592,2.381,9.919,3.483,4.074,1.349,8.2,2.522,12.34,3.648,2.759.75,5.526,1.465,8.306,2.123,3.352.793,6.73,1.478,10.1,2.185A9.323,9.323,0,0,0,183.446,1572.413Z" transform="translate(-57.02 -1332.479)" fill="#2e2e2e"/>
    <path id="Path_19839" data-name="Path 19839" d="M1552.818,1273.23c.118-.514.565-.8.856-1.19a13.7,13.7,0,0,0,2.175-4.66,15.892,15.892,0,0,0,.776-5.526,33.1,33.1,0,0,0-.674-4.513,22.63,22.63,0,0,0-3.141-6.982,1.518,1.518,0,0,0-.151-.254c-1.675-1.748-3.334-3.512-5.164-5.1-.259-.225-.563-.4-.805-.645a32.7,32.7,0,0,0-3.893-3.169,89.979,89.979,0,0,0-8.528-5.59c-1.971-1.125-4.009-2.134-6.024-3.183a3.96,3.96,0,0,0-.7-.217.63.63,0,0,1,.5-.274,4.442,4.442,0,0,0,1.578-.37c1.253-.416,1.474-.775,1.443-2.266.478.163.937.294,1.375.475,2.1.87,4.125,1.9,6.161,2.913a52.855,52.855,0,0,1,4.881,2.79c1.5.952,3.043,1.831,4.51,2.833.813.555,1.6,1.148,2.36,1.779a37.53,37.53,0,0,1,2.983,2.654c1.093,1.13,2.074,2.369,3.1,3.565.481.561.971,1.117,1.421,1.7a20.021,20.021,0,0,1,2.665,4.776,14.19,14.19,0,0,1-.2,11.9,22.331,22.331,0,0,1-4.711,6.4c-.708.684-1.486,1.3-2.247,1.922A2.039,2.039,0,0,1,1552.818,1273.23Z" transform="translate(-1289.833 -1063.233)" fill="#2e2e2e"/>
    <path id="Path_19840" data-name="Path 19840" d="M200.552,1122.486a26.328,26.328,0,0,0-3.063.411c-.962.238-1.944.235-2.908.46-1.814.423-3.674.649-5.5,1.038-2.4.513-4.788,1.1-7.178,1.667-.765.182-1.525.389-2.278.615-2.641.794-5.28,1.593-7.843,2.623-1.831.736-3.628,1.54-5.411,2.388a45.154,45.154,0,0,0-7.9,4.906c-.9.682-1.623,1.588-2.463,2.351a17.056,17.056,0,0,0-3.825,5.4,13.778,13.778,0,0,0-1.2,7.644,36.412,36.412,0,0,0,.96,4.015,30.738,30.738,0,0,0,1.7,4.878,1.814,1.814,0,0,1,.243.842,11.723,11.723,0,0,1-2.6-2.811,20.96,20.96,0,0,1-3.27-6.117,13.522,13.522,0,0,1-.67-4.069,15.132,15.132,0,0,1,.583-4.677,19.632,19.632,0,0,1,2.185-4.515,14.975,14.975,0,0,1,1.083-1.4.769.769,0,0,1,1.032-.295.769.769,0,0,0,.836-.114,4.947,4.947,0,0,0,1.274-1,6.166,6.166,0,0,1,2.536-1.738.9.9,0,0,1,.563-.115c1.462.355,2.4-.569,3.146-1.5a24.863,24.863,0,0,0,2.419-3.891,2.04,2.04,0,0,1,.98-1.01c1.436-.662,2.855-1.363,4.308-1.984,2.725-1.165,5.511-2.168,8.33-3.084,3.568-1.159,7.192-2.111,10.843-2.958,2.685-.623,5.386-1.179,8.086-1.733,1.156-.237,2.328-.392,3.494-.579a.462.462,0,0,1,.569.342A21.124,21.124,0,0,1,200.552,1122.486Z" transform="translate(-94.626 -966.974)" fill="#2e2e2e"/>
    <path id="Path_19841" data-name="Path 19841" d="M29.586,1328.321a44.453,44.453,0,0,1-10.618-12.637,22.726,22.726,0,0,1-2.752-13.292,21.438,21.438,0,0,1,.886-4.043,1.458,1.458,0,0,1,1.212-1.134,3.168,3.168,0,0,0,.583-.1c1.175-.451,1.11-.016,1.123.922.05,3.5.1,3.664,2.687,6.029a7.429,7.429,0,0,1,2.465,4.891c.26,2.308.457,4.613.559,6.933A25.661,25.661,0,0,0,27.5,1324.1a13.28,13.28,0,0,0,1.55,2.69q.421.609.844,1.216C29.967,1328.283,29.88,1328.4,29.586,1328.321Z" transform="translate(19.509 -1121.653)" fill="#676767"/>
    <path id="Path_19842" data-name="Path 19842" d="M5.477,1153.748a34.222,34.222,0,0,1,2.96-12.005,16.453,16.453,0,0,1,3.152-4.638,24.807,24.807,0,0,1,4.668-4.094,21.022,21.022,0,0,1,7.406-2.911,13.067,13.067,0,0,1,5.739.214.521.521,0,0,1,.408.532,72.243,72.243,0,0,0-10.915,6.535,43.715,43.715,0,0,0-8.082,7.585,27.476,27.476,0,0,0-4.763,8.476c-.117.2-.088.445-.229.633l-.025-.02C5.522,1154.126,5.388,1154.053,5.477,1153.748Z" transform="translate(28.708 -976.98)" fill="#ffc242"/>
    <path id="Path_19843" data-name="Path 19843" d="M544.977,55.242a11.994,11.994,0,0,1,7.1,2.652,14.417,14.417,0,0,1,3.045,3.221c.268.395.143.637-.358.667-.789.047-1.581.051-2.371.092a40.1,40.1,0,0,0-13,2.642,28.2,28.2,0,0,1-3.437.883c-.349.092-.508-.079-.535-.494a7.6,7.6,0,0,1,.481-3.054,15.989,15.989,0,0,1,.958-2.164,7.535,7.535,0,0,1,5.487-4.108A10.587,10.587,0,0,1,544.977,55.242Z" transform="translate(-430.418 -46.671)" fill="#83817e"/>
    <path id="Path_19844" data-name="Path 19844" d="M1449.5,1194.425a21.381,21.381,0,0,1-2.36-2.2c-.693-.766-1.428-1.495-2.166-2.218a7.235,7.235,0,0,1-1.228-1.626c.231-.187.4-.056.581.005,2.088.724,4.177,1.442,6.262,2.173.6.212.6.274.525.976a3.465,3.465,0,0,0,1.24,3.263c.287.232.543.467.175.834C1451.48,1195.34,1450.553,1194.726,1449.5,1194.425Z" transform="translate(-1216.504 -1027.386)" fill="#2d2e2e"/>
    <path id="Path_19845" data-name="Path 19845" d="M1621.36,1592a.767.767,0,0,1,.478-.516,29.34,29.34,0,0,0,5.551-3.836,9.86,9.86,0,0,0,2.645-3.659,20.559,20.559,0,0,0,3.773-1.214c.237.282,0,.484-.119.643q-1.1,1.478-2.25,2.922a6.336,6.336,0,0,1-2.2,1.7,46.155,46.155,0,0,0-5.146,2.879A7.816,7.816,0,0,1,1621.36,1592Z" transform="translate(-1370.87 -1369.196)" fill="#676665"/>
    <path id="Path_19846" data-name="Path 19846" d="M1485.99,1231.939c.111-.079.26-.25.327-.223a11.722,11.722,0,0,1,2.35.988,1.974,1.974,0,0,1,.351.441,4.1,4.1,0,0,1-.348.621.35.35,0,0,1-.515.084A16.885,16.885,0,0,1,1485.99,1231.939Z" transform="translate(-1253.005 -1064.931)" fill="#424141"/>
    <path id="Path_19847" data-name="Path 19847" d="M188.28,1577.5a11.966,11.966,0,0,1,2.967,1.207c-.218.027-.446.031-.593.237-.353.306-.623-.01-.92-.123-.209-.325-.629-.189-.889-.4l.018.013a.168.168,0,0,0-.282-.026C188.077,1578.087,188.077,1578.087,188.28,1577.5Z" transform="translate(-129.108 -1364.64)" fill="#1d1212"/>
    <path id="Path_19848" data-name="Path 19848" d="M90.346,1527.139l-.317.318a1.515,1.515,0,0,1-.361-.237c-.578-.684-1.085-1.42-1.835-2.167.332,0,.448-.035.49.005A16.526,16.526,0,0,1,90.346,1527.139Z" transform="translate(-42.453 -1319.324)" fill="#1e2121"/>
    <path id="Path_19849" data-name="Path 19849" d="M1494.411,1381.231a4.8,4.8,0,0,1-1.824-1.372.446.446,0,0,1,.37-.33c.1.359.413.486.7.654a4.37,4.37,0,0,1,1.324.794C1494.858,1381.211,1494.572,1381.08,1494.411,1381.231Z" transform="translate(-1258.709 -1192.851)" fill="#171212"/>
    <path id="Path_19850" data-name="Path 19850" d="M197.456,1585.721l.884.251a3.152,3.152,0,0,1,1.21.635c-.238.04-.487.059-.626.3a4.935,4.935,0,0,1-1.874-1.151.251.251,0,0,1,.405-.039Z" transform="translate(-136.793 -1371.668)" fill="#475050"/>
    <path id="Path_19851" data-name="Path 19851" d="M-2.116,1343.033l-.549-.278c.131-.832.259-1.664.4-2.494.013-.075.125-.133.191-.2Z" transform="translate(35.717 -1158.706)" fill="#e2ab3a"/>
    <path id="Path_19852" data-name="Path 19852" d="M3.7,1305.09l.318.3c.084.532-.247.974-.32,1.472A1.441,1.441,0,0,1,3.7,1305.09Z" transform="translate(30.488 -1128.429)" fill="#d49934"/>
    <path id="Path_19853" data-name="Path 19853" d="M1863.605,1612.8l-.293-.289a2.419,2.419,0,0,1,1.012-1.051A2.233,2.233,0,0,1,1863.605,1612.8Z" transform="translate(-1579.865 -1393.97)" fill="#141717"/>
    <path id="Path_19854" data-name="Path 19854" d="M391.557,1574.075q0-.268-.007-.535a2.959,2.959,0,0,1,.526.122.236.236,0,0,1,.133.326.334.334,0,0,1-.24.107A2.922,2.922,0,0,1,391.557,1574.075Z" transform="translate(-305.839 -1361.219)" fill="#313535"/>
    <path id="Path_19855" data-name="Path 19855" d="M115.1,1525.361l.311-.315a1.383,1.383,0,0,1,.566.613.28.28,0,0,1-.023.418C115.642,1525.871,115.279,1525.725,115.1,1525.361Z" transform="translate(-66.005 -1319.331)" fill="#464848"/>
    <path id="Path_19856" data-name="Path 19856" d="M405.47,1756.159c-.046-.069-.139-.145-.129-.2.032-.194.135-.348.366-.333.03,0,.077.068.078.106A.415.415,0,0,1,405.47,1756.159Z" transform="translate(-317.772 -1518.497)" fill="#492d0e"/>
    <path id="Path_19857" data-name="Path 19857" d="M121.369,1529.969l.023-.418a.956.956,0,0,1,.485.519c.021.063-.038.159-.077.232a.171.171,0,0,1-.134-.023C121.561,1530.182,121.467,1530.073,121.369,1529.969Z" transform="translate(-71.421 -1323.222)" fill="#2c3434"/>
    <path id="Path_19858" data-name="Path 19858" d="M194.163,1584.486l-.4.039a.533.533,0,0,1-.52-.316C193.574,1584.208,193.924,1584.162,194.163,1584.486Z" transform="translate(-133.5 -1370.433)" fill="#2f3b3b"/>
    <path id="Path_19859" data-name="Path 19859" d="M7.961,1303.458a.518.518,0,0,1,.229-.633.593.593,0,0,1-.229.633Z" transform="translate(26.568 -1126.46)" fill="#a76b23"/>
    <path id="Path_19860" data-name="Path 19860" d="M103.969,1542.81l.29.3Z" transform="translate(-56.391 -1334.675)" fill="#1e2121"/>
    <path id="Path_19861" data-name="Path 19861" d="M110.755,1543.237l-.29-.281Z" transform="translate(-62.002 -1334.801)" fill="#1e2121"/>
    <path id="Path_19862" data-name="Path 19862" d="M106.106,1545.03l.293.3Z" transform="translate(-58.237 -1336.593)" fill="#1e2121"/>
    <path id="Path_19863" data-name="Path 19863" d="M1436.2,1512.8a.321.321,0,0,1-.326.207A.313.313,0,0,1,1436.2,1512.8Z" transform="translate(-1209.61 -1308.752)" fill="#464646"/>
    <path id="Path_19864" data-name="Path 19864" d="M191.3,1583.373c.112-.188.2-.139.282.026Q191.44,1583.393,191.3,1583.373Z" transform="translate(-131.826 -1369.609)" fill="#2f3b3b"/>
    <path id="Path_19865" data-name="Path 19865" d="M-4.7,1363.87c.026.335.073.674-.245.917A.923.923,0,0,1-4.7,1363.87Z" transform="translate(37.703 -1179.292)" fill="#e2ab3a"/>
    <path id="Path_19866" data-name="Path 19866" d="M711.114,1731.9a10.548,10.548,0,0,1,4.161.766,20.57,20.57,0,0,0,3.429.879,15.013,15.013,0,0,0,7-.671,10.767,10.767,0,0,0,3.026-1.54.82.82,0,0,1,.947-.079,8.122,8.122,0,0,1,3.557,3.027,2.774,2.774,0,0,1-.807,4,7.333,7.333,0,0,1-2.591,1.055c-1.446.3-2.888.628-4.346.854a18.734,18.734,0,0,0-7.472,3.05,40.338,40.338,0,0,1-4.08,2.4,10.078,10.078,0,0,1-8.588.339,7.645,7.645,0,0,1-3.2-2.065,4.575,4.575,0,0,1-.821-4.975,12.268,12.268,0,0,1,6.987-6.669A6.725,6.725,0,0,1,711.114,1731.9Z" transform="translate(-573.757 -1497.348)" fill="#ffc242"/>
    <path id="Path_19867" data-name="Path 19867" d="M1937.2,917.329a14.14,14.14,0,0,1,3.463-8.768,14.945,14.945,0,0,1,3.092-2.273,9.64,9.64,0,0,1,5.052-1.472,5.791,5.791,0,0,1,4.352,1.536,3.185,3.185,0,0,1,.81,3.405,4.822,4.822,0,0,1-1.68,2.213,9.115,9.115,0,0,1-.855.587,11.582,11.582,0,0,0-3.726,3.739q-1.348,2.037-2.725,4.055a7.016,7.016,0,0,1-.851,1.019,4.465,4.465,0,0,1-4.266,1.088,2.835,2.835,0,0,1-2.029-1.806A6.774,6.774,0,0,1,1937.2,917.329Z" transform="translate(-1643.662 -782.111)" fill="#ffc242"/>
    <path id="Path_19868" data-name="Path 19868" d="M-229.928,1347.434a5.151,5.151,0,0,1-4.244-2.084,7.525,7.525,0,0,1-1.543-3.169,16.709,16.709,0,0,1-.467-3.51,7.551,7.551,0,0,1,4.835-6.851.777.777,0,0,1,.835.071,6.771,6.771,0,0,0,2.022.894c2.675.94,3.947,2.948,4.517,5.586a6.62,6.62,0,0,1-.2,3.2,8.461,8.461,0,0,1-2,3.753,5.775,5.775,0,0,1-2.618,1.871A5.386,5.386,0,0,1-229.928,1347.434Z" transform="translate(237.427 -1151.614)" fill="#ffc242"/>
    <path id="Path_19869" data-name="Path 19869" d="M778.26,51.522c4.5,0,8.059,0,11.622,0a5.906,5.906,0,0,1,1.762.172,4.739,4.739,0,0,0,1.321.109c1.584.013,3.167,0,4.751.015a13.721,13.721,0,0,1,2.795.216,14.393,14.393,0,0,0,2.663.078,8.326,8.326,0,0,1,2.644.235,3.614,3.614,0,0,0,1.032.058,11.818,11.818,0,0,1,3.238.252,5.08,5.08,0,0,0,1.329.047,7.136,7.136,0,0,1,2.349.224A3.3,3.3,0,0,0,814.8,53a8.267,8.267,0,0,1,2.643.25,2.966,2.966,0,0,0,.884.049,4.694,4.694,0,0,1,1.9.223.8.8,0,0,0,.291.054,55.9,55.9,0,0,1,6.868.878,50.4,50.4,0,0,1,6.017,1.476,4.937,4.937,0,0,1,2.6,2.089,7.557,7.557,0,0,1,.733,1.456,1.535,1.535,0,0,1-1.316,2.134,3.32,3.32,0,0,1-1.169-.136c-1.423-.4-2.9-.534-4.345-.8a22.913,22.913,0,0,1-3.356-.474,3.564,3.564,0,0,0-1.032-.067,5.771,5.771,0,0,1-1.9-.219,3.41,3.41,0,0,0-1.029-.078,5.927,5.927,0,0,1-1.906-.207,3.429,3.429,0,0,0-1.027-.089,7.326,7.326,0,0,1-2.348-.234,3.418,3.418,0,0,0-1.031-.065,6.727,6.727,0,0,1-2.2-.227,3.316,3.316,0,0,0-1.03-.069A8.846,8.846,0,0,1,810.4,58.7a4.289,4.289,0,0,0-1.18-.056,9.212,9.212,0,0,1-2.645-.234,4.792,4.792,0,0,0-1.327-.064,4.514,4.514,0,0,1-1.756-.2.945.945,0,0,0-.435-.074c-1.934.161-3.825-.413-5.755-.322a3.91,3.91,0,0,1-1.464-.171,7.124,7.124,0,0,0-2.064-.118,10.027,10.027,0,0,1-2.646-.232,5.772,5.772,0,0,0-1.476-.065,16.27,16.27,0,0,1-4.126-.271,3.885,3.885,0,0,0-1.035-.025c-1.485,0-2.969,0-4.454-.01a6.687,6.687,0,0,1-2.2-.215,3.753,3.753,0,0,0-1.178-.067q-6.236-.006-12.471,0a5.3,5.3,0,0,0-1.614.165,4.175,4.175,0,0,1-1.172.116c-1.188.016-2.375.008-3.563.014a5.923,5.923,0,0,0-1.906.2,3.9,3.9,0,0,1-1.176.085c-1.188.011-2.375,0-3.563.013a6.916,6.916,0,0,0-2.5.231,2.134,2.134,0,0,1-.736.054c-1.782,0-3.563-.008-5.345.009a2.562,2.562,0,0,1-1.658-.531,1.371,1.371,0,0,1-.04-2.179,2.422,2.422,0,0,1,1.053-.523c1.732-.362,3.477-.65,5.217-.963a31.725,31.725,0,0,0,3.948-.5,3.3,3.3,0,0,1,.885-.057,4.2,4.2,0,0,0,1.609-.194.953.953,0,0,1,.433-.084c1.835.152,3.626-.419,5.458-.327a5.6,5.6,0,0,0,1.907-.19,5.526,5.526,0,0,1,1.472-.093,25.458,25.458,0,0,0,2.967-.03C770.3,51.2,774.752,51.714,778.26,51.522Z" transform="translate(-608.437 -43.445)" fill="#efebe4"/>
    <path id="Path_19870" data-name="Path 19870" d="M769.137,219.958a13.726,13.726,0,0,1,.269-3.172,9.17,9.17,0,0,1,2.538-4.944,11.406,11.406,0,0,1,9.489-3.662,7.588,7.588,0,0,1,3.094.958,3.345,3.345,0,0,1,1.659,2.007,1.471,1.471,0,0,1-.048,1.014c-.136.325-.438.46-.7.245a6.26,6.26,0,0,0-2.179-1.227,9.277,9.277,0,0,0-9.81,3.28,6.743,6.743,0,0,0-1.239,2.674,10.848,10.848,0,0,0,.972,7.768,6.471,6.471,0,0,0,6.866,3.324c.293-.049.586-.1.878-.147a2.948,2.948,0,0,0,2.236-1.54,5.679,5.679,0,0,1,.555-.876,1.473,1.473,0,0,1,1.852-.462,1.4,1.4,0,0,1,.518,1.7,5.246,5.246,0,0,1-2.783,3.316,9.683,9.683,0,0,1-11.791-2.691,11.3,11.3,0,0,1-2.368-6.449C769.12,220.678,769.137,220.281,769.137,219.958Z" transform="translate(-632.688 -178.74)" fill="#2d2c2b"/>
    <path id="Path_19871" data-name="Path 19871" d="M1038.51,264.7c.2-2.435.39-4.55.557-6.666.066-.836.131-1.676.127-2.514a41.343,41.343,0,0,1,.362-4.281,9.034,9.034,0,0,1,.215-1.014,1.354,1.354,0,0,1,.692-.912,5.741,5.741,0,0,1,6.9.479,4.305,4.305,0,0,1,1.632,4.342,7.435,7.435,0,0,1-5.149,5.4,17.363,17.363,0,0,1-1.769.169.547.547,0,0,0-.566.555c-.087,1.381-.2,2.76-.247,4.142a11.628,11.628,0,0,1-.639,3.184.846.846,0,0,1-.854.686.887.887,0,0,1-.878-.667A9.5,9.5,0,0,1,1038.51,264.7Z" transform="translate(-865.796 -213.508)" fill="#2d2c2b"/>
    <path id="Path_19872" data-name="Path 19872" d="M961.56,270.728c-.418.045-.848.127-1.278.131a3.284,3.284,0,0,1-3.317-2.633,9.206,9.206,0,0,1,.231-4.542,1.925,1.925,0,0,1,.5-.9.766.766,0,0,1,1.29.35,4.654,4.654,0,0,1,.074,1.03,16.942,16.942,0,0,0,.27,2.8,2.317,2.317,0,0,0,.223.7.692.692,0,0,0,1.127.172,3.694,3.694,0,0,0,.6-.84,8.273,8.273,0,0,0,1.009-3.081,3.577,3.577,0,0,1,.395-1.419,1.255,1.255,0,0,1,1.357-.671,1.172,1.172,0,0,1,.938,1.18,34.837,34.837,0,0,1-1.875,13.131,9.212,9.212,0,0,1-2.793,3.954,5.136,5.136,0,0,1-2.076,1.106,2.9,2.9,0,0,1-3.545-2.319,1.368,1.368,0,0,1,.274-1.115.812.812,0,0,1,1.176-.164c.078.059.141.139.215.2.916.8,1.381.829,2.3.082A6.584,6.584,0,0,0,960.2,276.1a11.6,11.6,0,0,0,1.481-5.075C961.688,270.94,961.611,270.849,961.56,270.728Z" transform="translate(-793.228 -225.097)" fill="#2d2c2b"/>
    <path id="Path_19873" data-name="Path 19873" d="M1205.7,262.738a.7.7,0,0,0,.538-.295c.251-.238.494-.488.765-.7,2.036-1.6,4.235-1.137,5.451,1.17a5.477,5.477,0,0,1,.688,2.556c0,.692-.01,1.385-.028,2.077a14.063,14.063,0,0,0,.167,3.4,1.91,1.91,0,0,1-.089,1.022,1.183,1.183,0,0,1-2.006.546,2.493,2.493,0,0,1-.758-1.409,12.471,12.471,0,0,1-.213-3.249c.021-.494.068-.987.1-1.481a4.48,4.48,0,0,0-.277-1.895c-.313-.816-.82-.955-1.468-.406a7.865,7.865,0,0,0-.826.848,10.233,10.233,0,0,0-2.319,4.9c-.12.631-.208,1.269-.335,1.9-.169.841-.6,1.264-1.223,1.257-.59-.007-1.11-.592-1.125-1.485a34.556,34.556,0,0,1,.373-4.582c.149-1.28.235-2.56.3-3.844a9.982,9.982,0,0,1,.215-1.612.873.873,0,0,1,1.663-.106C1205.47,261.808,1205.574,262.289,1205.7,262.738Z" transform="translate(-1007.931 -224.23)" fill="#2e2c2b"/>
    <path id="Path_19874" data-name="Path 19874" d="M1291.966,260.651a5.344,5.344,0,0,0-2.127-.541c-.246-.019-.494,0-.74-.024-.54-.046-.9-.285-.894-.592a.983.983,0,0,1,.68-.879,3.19,3.19,0,0,1,.555-.2,5.536,5.536,0,0,1,6.792,6.419,7.42,7.42,0,0,1-4.4,5.574,5.132,5.132,0,0,1-2.6.45,3.041,3.041,0,0,1-2.53-1.572,4.48,4.48,0,0,1-.234-4.13,6.514,6.514,0,0,1,4.047-3.853,13.562,13.562,0,0,1,1.435-.348c.126-.018.165-.087.114-.206C1292.042,260.681,1292.005,260.651,1291.966,260.651Z" transform="translate(-1080.059 -222.026)" fill="#2e2d2c"/>
    <path id="Path_19875" data-name="Path 19875" d="M1119.566,274.623a9.608,9.608,0,0,1,.271-2.233,5.971,5.971,0,0,1,5.59-4.539,3.553,3.553,0,0,1,3.336,1.85,5.2,5.2,0,0,1,.116,5.752,8.262,8.262,0,0,1-3.277,3.143,4,4,0,0,1-3.3.321,4.056,4.056,0,0,1-2.686-3.437,5.74,5.74,0,0,1-.052-.858Z" transform="translate(-935.943 -230.319)" fill="#2e2d2c"/>
    <path id="Path_19876" data-name="Path 19876" d="M1410.615,266.093a10.79,10.79,0,0,1-1.926,5.526,4.565,4.565,0,0,1-2.878,1.951,3.731,3.731,0,0,1-4.465-2.507,5.492,5.492,0,0,1,.523-4.713,7.114,7.114,0,0,1,3.2-2.995c.411-.185.4-.377.218-.787a.811.811,0,0,1,.978-1.15C1409.144,262.035,1410.725,263.192,1410.615,266.093Z" transform="translate(-1179.544 -224.747)" fill="#2e2d2c"/>
    <path id="Path_19877" data-name="Path 19877" d="M698.264,541.432a1.418,1.418,0,0,0-.4-.052.465.465,0,0,1-.609-.261.624.624,0,0,1,.154-.681,1.686,1.686,0,0,1,.207-.211c1.305-1.065,4.3-1.34,5.739.606a6.974,6.974,0,0,1,.7,1.13,2.2,2.2,0,0,1-.512,2.923c-.1.107-.19.224-.312.368a8.634,8.634,0,0,1,.748.684,2.121,2.121,0,0,1,.288,2.6,4.657,4.657,0,0,1-1.871,1.852,10.683,10.683,0,0,1-4.957,1.3,7.038,7.038,0,0,1-1.721-.4c-.8-.174-1.022-.494-.789-1.185q.519-1.539,1.106-3.055C696.746,545.216,697.486,543.388,698.264,541.432Z" transform="translate(-568.355 -465.821)" fill="#2e2d2c"/>
    <path id="Path_19878" data-name="Path 19878" d="M911.674,269.293c.739-.553,1.352-1.041,2-1.484a3.351,3.351,0,0,1,2.088-.632,1.766,1.766,0,0,1,.7.173.952.952,0,0,1,.374,1.281,3.479,3.479,0,0,1-.99,1.086c-.31.242-.647.451-.972.675a4.294,4.294,0,0,0-1.789,2.622,19.96,19.96,0,0,0-.561,4.835c0,.394.018.79-.01,1.183a1.026,1.026,0,0,1-.759.985,1.175,1.175,0,0,1-1.294-.488,3.482,3.482,0,0,1-.589-1.5,7.3,7.3,0,0,1-.117-1.619c.177-1.924.025-3.845.036-5.768,0-.641.034-1.282.059-1.922a1.8,1.8,0,0,1,.3-.977.657.657,0,0,1,.626-.315.582.582,0,0,1,.554.411C911.445,268.262,911.534,268.694,911.674,269.293Z" transform="translate(-754.329 -229.742)" fill="#2e2d2c"/>
    <path id="Path_19879" data-name="Path 19879" d="M671.516,720.1a3.212,3.212,0,0,1-3.4-3.288,1.11,1.11,0,0,1,.644-1.076.4.4,0,0,1,.565.263c.023.2-.005.4.026.591a2.032,2.032,0,0,0,2.1,1.862,4.642,4.642,0,0,0,4.471-2.607,4.077,4.077,0,0,0,.367-.962,1.355,1.355,0,0,0-.828-1.816c-.533-.251-1.106-.418-1.66-.627a6.687,6.687,0,0,1-2.258-1.378,3.654,3.654,0,0,1,.776-5.72,3.5,3.5,0,0,1,3.759.355,5.023,5.023,0,0,1,1.164,1.518.287.287,0,0,1-.052.258c-.054.06-.2.117-.251.085-.369-.244-.729-.5-1.081-.771a3.081,3.081,0,0,0-1.469-.655,2.083,2.083,0,0,0-2.257,1.3,2.107,2.107,0,0,0,.426,2.45,5.223,5.223,0,0,0,1.937,1.051c.51.184,1.038.328,1.525.559a2.918,2.918,0,0,1,1.757,3.877A6.393,6.393,0,0,1,671.516,720.1Z" transform="translate(-545.22 -609.119)" fill="#2f2d2c"/>
    <path id="Path_19880" data-name="Path 19880" d="M1366.387,255.58c.521-.349.871-.612,1.248-.829a2.807,2.807,0,0,1,2.007-.3,1.085,1.085,0,0,1,.857.737,1.039,1.039,0,0,1-.435,1.167,6.176,6.176,0,0,1-1.042.549,4.4,4.4,0,0,0-2.513,2.754,20.622,20.622,0,0,0-1.046,4.455c-.068.637-.191,1.267-.284,1.9a1.437,1.437,0,0,1-.363.793,1.063,1.063,0,0,1-1.8-.355,1.724,1.724,0,0,1-.01-1.016c.309-1.447.633-2.891.9-4.346.345-1.892.636-3.793.959-5.689.091-.534.2-1.067.328-1.592a.582.582,0,0,1,.539-.432.606.606,0,0,1,.581.556C1366.349,254.425,1366.357,254.917,1366.387,255.58Z" transform="translate(-1146.547 -217.825)" fill="#2e2d2c"/>
    <path id="Path_19881" data-name="Path 19881" d="M1048.869,735.259a2.692,2.692,0,0,1-2.781-1.985,3.51,3.51,0,0,1-.035-2.32,5.122,5.122,0,0,1,2.046-2.641,2.011,2.011,0,0,1,2.788.248,3.941,3.941,0,0,1,1.3,3.862A3.5,3.5,0,0,1,1048.869,735.259Z" transform="translate(-872.138 -628.909)" fill="#302e2d"/>
    <path id="Path_19882" data-name="Path 19882" d="M927.294,736.209a3.106,3.106,0,0,0-1.429-.831.491.491,0,0,1-.338-.578.724.724,0,0,1,.5-.5.911.911,0,0,1,.292-.041,2.828,2.828,0,0,1,2.979,2.669,9.632,9.632,0,0,1-.048,1.623,3.634,3.634,0,0,1-1.642,2.689,1.988,1.988,0,0,1-2.221.231,2.171,2.171,0,0,1-1.106-2.249,3.219,3.219,0,0,1,2.407-2.877C926.87,736.295,927.057,736.261,927.294,736.209Z" transform="translate(-766.875 -634.445)" fill="#302e2d"/>
    <path id="Path_19883" data-name="Path 19883" d="M1013.722,556.256c.821.175,1.448.3,2.068.446a.513.513,0,0,1,.379.56.549.549,0,0,1-.393.563,5,5,0,0,1-1.3.229c-.984-.011-1.967-.091-2.95-.155a.724.724,0,0,1-.758-.57.74.74,0,0,1,.322-.77c.585-.451,1.186-.882,1.75-1.358a15.444,15.444,0,0,0,1.505-1.411,3.176,3.176,0,0,0,.863-1.843,2.434,2.434,0,0,0-.088-.869.755.755,0,0,0-.953-.471c-.452.186-.875.438-1.311.663a.289.289,0,0,1-.388-.1.537.537,0,0,1-.111-.394,2.552,2.552,0,0,1,2.226-1.434,2.075,2.075,0,0,1,1.835,1.67,3.845,3.845,0,0,1-.311,2.448,6.687,6.687,0,0,1-1.727,2.186C1014.2,555.806,1014.033,555.971,1013.722,556.256Z" transform="translate(-841.741 -474.415)" fill="#312f2e"/>
    <path id="Path_19884" data-name="Path 19884" d="M1001.473,714.416c-.409-.217-.86.091-1.059-.292-.23-.445.123-.751.412-1a6.358,6.358,0,0,1,1.2-.857.821.821,0,0,1,1.205.816,6.651,6.651,0,0,1-.4,1.567c-.672,1.908-1.368,3.808-2.055,5.711-.117.325-.238.649-.35.976a.959.959,0,0,0,.075.7c.249.634.162.834-.376,1.008a9.8,9.8,0,0,1-1.29.327.958.958,0,0,1-1.126-.487c-.152-.368.025-.712.579-1.031.255-.146.509-.232.63-.563C999.745,719.019,1000.6,716.758,1001.473,714.416Z" transform="translate(-830.404 -615.345)" fill="#312f2e"/>
    <path id="Path_19885" data-name="Path 19885" d="M755.521,762.29a2.021,2.021,0,0,1-2.133-1.471,3.259,3.259,0,0,1,.677-3.557c.268-.285.57-.54.863-.8a1.391,1.391,0,0,1,1.855-.111c.414.342.808.711,1.186,1.092a2.5,2.5,0,0,1,.5,2.983,3.257,3.257,0,0,1-2.949,1.866Z" transform="translate(-618.79 -653.295)" fill="#312f2e"/>
    <path id="Path_19886" data-name="Path 19886" d="M1066.6,559.761a3.046,3.046,0,0,1-2.6,3.113,2.172,2.172,0,0,1-2.8-1.848,3.823,3.823,0,0,1,1.833-3.752,2.771,2.771,0,0,1,3.124.52A2.718,2.718,0,0,1,1066.6,559.761Z" transform="translate(-885.356 -481.032)" fill="#302f2e"/>
    <path id="Path_19887" data-name="Path 19887" d="M1127.889,546.438a13.189,13.189,0,0,1-1.512,2.7,3.348,3.348,0,0,1-.379.455.568.568,0,0,1-.788.135.561.561,0,0,1-.182-.664,8.961,8.961,0,0,1,.42-.948c1.313-2.324,2.605-4.661,3.973-6.952a23.968,23.968,0,0,1,1.87-2.487,2.994,2.994,0,0,1,.666-.574c.23-.158.661.112.648.391a1.035,1.035,0,0,1-.074.432,7.192,7.192,0,0,1-.552.878,42.642,42.642,0,0,0-2.9,4.656c-.191.341-.42.661-.631.991-.185.141-.124.419-.31.559l-.013.028A.783.783,0,0,0,1127.889,546.438Z" transform="translate(-940.613 -464.662)" fill="#312f2e"/>
    <path id="Path_19888" data-name="Path 19888" d="M840.733,750.155a3.906,3.906,0,0,1,1.042-2.76c.194-.225.163-.435-.123-.587a.485.485,0,0,1-.275-.609.688.688,0,0,1,.691-.456,2.876,2.876,0,0,1,2.8,1.534,4.1,4.1,0,0,1,.265,2.733,2.7,2.7,0,0,1-2.923,1.95,1.516,1.516,0,0,1-1.315-1.031A3.709,3.709,0,0,1,840.733,750.155Z" transform="translate(-694.59 -644.379)" fill="#312f2e"/>
    <path id="Path_19889" data-name="Path 19889" d="M880.792,745.535c.443-.277.729-.465,1.024-.639a1.132,1.132,0,0,1,1.584.612,3.106,3.106,0,0,1,.218,1.452c-.039.393-.091.786-.1,1.18a1.51,1.51,0,0,0,.989,1.644,1.408,1.408,0,0,1,.489.318.347.347,0,0,1-.013.523,1.119,1.119,0,0,1-.487.3,2.013,2.013,0,0,1-2.434-1.6,3.693,3.693,0,0,1,.032-1.325,3.886,3.886,0,0,0,.084-1.605c-.311-.076-.456.133-.6.33a7.512,7.512,0,0,0-1.071,2.1,1.514,1.514,0,0,1-.252.519.493.493,0,0,1-.393.131c-.123-.02-.231-.154-.336-.249a.2.2,0,0,1-.036-.141,17.158,17.158,0,0,1,.38-4.262,1.839,1.839,0,0,1,.289-.5c.093-.131.474-.069.5.087C880.718,744.748,880.742,745.085,880.792,745.535Z" transform="translate(-728.138 -643.097)" fill="#312f2e"/>
    <path id="Path_19890" data-name="Path 19890" d="M805.757,553.716a13.3,13.3,0,0,1,.771-3.208,4.035,4.035,0,0,0,.419-1.709.543.543,0,0,1,.112-.415c.585-.494.8-1.245,1.277-1.8a1.534,1.534,0,0,1,.469-.331.41.41,0,0,1,.553.318,1.8,1.8,0,0,1-.1.718c-.213.444-.132.662.311.933.568.347.508.931-.119,1.068-1,.219-1.3.885-1.5,1.747a14.148,14.148,0,0,0-.491,2.915,2.758,2.758,0,0,0,.175,1.161.506.506,0,0,1-.182.652.677.677,0,0,1-.7.045,1.673,1.673,0,0,1-.937-1.255A5.051,5.051,0,0,1,805.757,553.716Z" transform="translate(-664.319 -471.713)" fill="#312f2e"/>
    <path id="Path_19891" data-name="Path 19891" d="M806.252,719.526c-.26,1.286-.543,2.535-.759,3.8a11.766,11.766,0,0,0-.247,3.668c.164,1.151.2,1.194,1.339,1.317.146.016.294.03.438.058a.4.4,0,0,1,.257.572,1.762,1.762,0,0,1-1.794.776,1.461,1.461,0,0,1-1.358-1.171,9.785,9.785,0,0,1-.205-3.378,38.565,38.565,0,0,1,.848-4.946,4.79,4.79,0,0,1,.452-1.081.628.628,0,0,1,.779-.223A.6.6,0,0,1,806.252,719.526Z" transform="translate(-662.673 -621.137)" fill="#323130"/>
    <path id="Path_19892" data-name="Path 19892" d="M872.381,571.266a3.159,3.159,0,0,1,1.9-2.938,2.134,2.134,0,0,1,1.159-.151,1.009,1.009,0,0,1,.895.682,11.494,11.494,0,0,0,.542,1.522,1.219,1.219,0,0,1,.054.723,3,3,0,0,1-1.256,1.94,2.044,2.044,0,0,1-2.234.206A2.1,2.1,0,0,1,872.381,571.266Z" transform="translate(-721.98 -490.681)" fill="#302f2e"/>
    <path id="Path_19893" data-name="Path 19893" d="M933.66,564.88c.422-.229.835-.493,1.279-.683a.85.85,0,0,1,1.216.69,7.349,7.349,0,0,1,.01,1.328,5.684,5.684,0,0,1-.146,1.025,1.218,1.218,0,0,0,.692,1.589c.354.17.267.627-.095.786a1.112,1.112,0,0,1-1-.035,1.52,1.52,0,0,1-.788-1.614c.123-.63.211-1.266.3-1.9.027-.186.074-.407-.174-.492-.222-.076-.368.091-.508.219a3.987,3.987,0,0,0-.955,1.307c-.123.269-.213.552-.333.823-.225.51-.544.724-.871.571-.393-.184-.348-.55-.318-.892q.153-1.7.32-3.391a1.235,1.235,0,0,1,.1-.429.592.592,0,0,1,.585-.373.55.55,0,0,1,.5.467C933.557,564.193,933.359,564.553,933.66,564.88Z" transform="translate(-773.541 -486.578)" fill="#32312f"/>
    <path id="Path_19894" data-name="Path 19894" d="M836.246,568.063a3.1,3.1,0,0,1-3.307-3.675,5.522,5.522,0,0,1,1.949-3.061,2.327,2.327,0,0,1,2.078-.523.936.936,0,0,1,.6.4c.1.158.056.464-.1.509a.862.862,0,0,1-.287.056,2.056,2.056,0,0,0-1.678.8,3.608,3.608,0,0,0-1,1.787,1.847,1.847,0,0,0,.843,2.044,6.688,6.688,0,0,0,1.655.62.4.4,0,0,1,.309.443.532.532,0,0,1-.338.448A4.938,4.938,0,0,1,836.246,568.063Z" transform="translate(-687.77 -484.268)" fill="#312f2e"/>
    <path id="Path_19895" data-name="Path 19895" d="M1106.3,737.767a.432.432,0,0,1-.379-.44,1.2,1.2,0,0,1,.207-.547c.24-.374.5-.74.768-1.091a78,78,0,0,1,6.607-7.416,2.826,2.826,0,0,1,1.172-.874.44.44,0,0,1,.521.174.486.486,0,0,1,0,.418,2.925,2.925,0,0,1-.474.563,75.668,75.668,0,0,0-7.047,8.014,9.5,9.5,0,0,1-1.016,1.075C1106.577,737.732,1106.4,737.736,1106.3,737.767Z" transform="translate(-924.133 -628.501)" fill="#32302f"/>
    <path id="Path_19896" data-name="Path 19896" d="M779.316,579a9.789,9.789,0,0,1-1.4,3.9.9.9,0,0,1-.093.114c-.325.4-.716.549-1.012.4a.947.947,0,0,1-.393-1.024,2.582,2.582,0,0,1,.159-.565c.475-1.074.962-2.144,1.445-3.215a1.32,1.32,0,0,1,.066-.131c.181-.306.4-.57.8-.538.265.022.45.389.443.832C779.325,578.818,779.322,578.867,779.316,579Z" transform="translate(-638.901 -499.146)" fill="#32302f"/>
    <path id="Path_19897" data-name="Path 19897" d="M910.19,569.947a7.851,7.851,0,0,1,.48-2.891,3.2,3.2,0,0,1,.529-.877.561.561,0,0,1,.678-.131.6.6,0,0,1,.368.588c-.009.242-.1.479-.13.722-.09.761-.422,1.495-.01,2.3.214.417-.225,1.127-.654,1.367a.827.827,0,0,1-1.191-.485A2.992,2.992,0,0,1,910.19,569.947Z" transform="translate(-754.686 -488.805)" fill="#343231"/>
    <path id="Path_19898" data-name="Path 19898" d="M1132.746,535.732a2.122,2.122,0,0,1-1.689,1.827,1.7,1.7,0,0,1-1.6-.893,1.342,1.342,0,0,1,.126-1.53,1.706,1.706,0,0,1,2.948-.1A1.08,1.08,0,0,1,1132.746,535.732Z" transform="translate(-944.296 -461.322)" fill="#373332"/>
    <path id="Path_19899" data-name="Path 19899" d="M1151.221,595.039a2,2,0,0,1-.454,1.189,1.314,1.314,0,0,1-1.662.516,1.6,1.6,0,0,1-.734-1.884,1.731,1.731,0,0,1,.969-1.044C1150.362,593.392,1151.177,593.741,1151.221,595.039Z" transform="translate(-960.753 -512.734)" fill="#393736"/>
    <path id="Path_19900" data-name="Path 19900" d="M1129.3,787.117a1.164,1.164,0,0,1-1.268-1.292,2.231,2.231,0,0,1,1.057-1.687.617.617,0,0,1,.421-.069,1.707,1.707,0,0,1,1.438,1.623A1.736,1.736,0,0,1,1129.3,787.117Z" transform="translate(-943.218 -677.522)" fill="#353231"/>
    <path id="Path_19901" data-name="Path 19901" d="M1136.14,714.844a4.983,4.983,0,0,1,.287-.946,1.248,1.248,0,0,1,1.944-.542,1.338,1.338,0,0,1,.323,2.035,2.144,2.144,0,0,1-1.074.734C1136.814,716.39,1136.144,715.889,1136.14,714.844Z" transform="translate(-950.235 -616.106)" fill="#383635"/>
    <path id="Path_19902" data-name="Path 19902" d="M609.161,784.241a2.133,2.133,0,0,1,1.41.356.637.637,0,0,1,.266.65.6.6,0,0,1-.493.495c-.735.08-1.473.151-2.211.18a.736.736,0,0,1-.735-.611.766.766,0,0,1,.461-.84A2.823,2.823,0,0,1,609.161,784.241Z" transform="translate(-492.639 -677.673)" fill="#3a3534"/>
    <path id="Path_19903" data-name="Path 19903" d="M651.347,589.051a1.678,1.678,0,0,1,.865.064.654.654,0,0,1,.273,1.063,1.872,1.872,0,0,1-2.521.048.8.8,0,0,1-.2-.523.531.531,0,0,1,.422-.53A11.422,11.422,0,0,1,651.347,589.051Z" transform="translate(-529.314 -508.727)" fill="#353433"/>
    <path id="Path_19904" data-name="Path 19904" d="M597.928,932.621a1.162,1.162,0,0,1-.724-.158.613.613,0,0,1-.122-.9,2.678,2.678,0,0,1,2.32-.535.679.679,0,0,1,.066,1.257A3.979,3.979,0,0,1,597.928,932.621Z" transform="translate(-483.595 -804.633)" fill="#3c3837"/>
    <path id="Path_19905" data-name="Path 19905" d="M787.45,562.163a.641.641,0,0,1-.722.573.562.562,0,0,1-.541-.58.652.652,0,0,1,.795-.645A.6.6,0,0,1,787.45,562.163Z" transform="translate(-647.367 -484.903)" fill="#423e3c"/>
    <path id="Path_19906" data-name="Path 19906" d="M918.793,552.874a.494.494,0,0,1-.381.523.543.543,0,0,1-.634-.427.467.467,0,0,1,.375-.51A.543.543,0,0,1,918.793,552.874Z" transform="translate(-761.245 -477.074)" fill="#585553"/>
    <path id="Path_19907" data-name="Path 19907" d="M1148.16,592.907a.555.555,0,0,1,.31-.559A.639.639,0,0,1,1148.16,592.907Z" transform="translate(-960.618 -511.601)" fill="#393736"/>
    <path id="Path_19908" data-name="Path 19908" d="M1329.211,275.924c.169.015.417-.031.372.234-.021.124-.238.117-.383.066Q1329.206,276.074,1329.211,275.924Z" transform="translate(-1117.294 -237.299)" fill="#8da09d"/>
    <path id="Path_19909" data-name="Path 19909" d="M1146.32,597.052a.444.444,0,0,1,.238-.394A.4.4,0,0,1,1146.32,597.052Z" transform="translate(-959.025 -515.33)" fill="#393736"/>
    <path id="Path_19910" data-name="Path 19910" d="M1505.98,1390.413c.13-.22.35-.235.57-.253a1.792,1.792,0,0,1,.284.052q.167.114.332.232a18.9,18.9,0,0,1,3.284,1.252,8.415,8.415,0,0,1,2.517,1.754c1.033,1.045,2.091,2.066,3.124,3.113a8.252,8.252,0,0,1,.838,1.014c.237.334.119.583-.255.588-.391.005-.783-.02-1.174-.033a3.68,3.68,0,0,0-.979-1.446,19.616,19.616,0,0,0-3.089-3.312,15.794,15.794,0,0,0-2.383-1.425c-.832-.414-1.671-.812-2.507-1.218q-.154-.134-.32-.252a.593.593,0,0,1-.242-.066Z" transform="translate(-1270.381 -1202.108)" fill="#030202"/>
    <path id="Path_19911" data-name="Path 19911" d="M1512.585,1390.777l-.332-.232Z" transform="translate(-1275.71 -1202.37)" fill="#171212"/>
    <path id="Path_19912" data-name="Path 19912" d="M1002.826,1507.621c-.89,0-1.781-.009-2.671,0a9.734,9.734,0,0,1-3.463-.711,6.261,6.261,0,0,1-2.108-1.348,4.78,4.78,0,0,1-1.3-4.361,1.358,1.358,0,0,1,.447-.752,14.884,14.884,0,0,1,7.433-4.64c2.4-.583,4.836-.936,7.276-1.289,3.851-.557,7.74-.844,11.549-1.7,1.441-.323,2.914-.5,4.363-.8a31.184,31.184,0,0,0,5.727-1.992,36.972,36.972,0,0,0,7.236-3.72c.847-.6,1.7-1.2,2.5-1.854,1.72-1.413,3.571-2.645,5.379-3.935,1.975-1.408,3.821-2.972,5.642-4.561a75.075,75.075,0,0,1,8.893-6.645c1.5-.96,3.006-1.9,4.535-2.81a16.04,16.04,0,0,1,5.718-1.935,18.458,18.458,0,0,1,3.234-.338,11.937,11.937,0,0,1,8.773,3.654,23.883,23.883,0,0,1,1.774,1.989,9.486,9.486,0,0,1,1.863,3.989,13.655,13.655,0,0,1,.343,5.415,7.576,7.576,0,0,1-1.945,3.908,19.1,19.1,0,0,1-4.743,3.521,58.133,58.133,0,0,1-9.365,4.079,62.72,62.72,0,0,1-7.747,1.938c-4.154.839-8.353,1.43-12.5,2.318-2.02.433-4.086.658-6.133.961a39.94,39.94,0,0,0-10.271,2.709c-1.13.493-2.3.893-3.469,1.3a47.922,47.922,0,0,0-5.329,2.228,57.354,57.354,0,0,1-12.961,4.569c-1.2.261-2.435.373-3.649.562A38.479,38.479,0,0,1,1002.826,1507.621Z" transform="translate(-827.374 -1266.806)" fill="#ffc242"/>
    <path id="Path_19913" data-name="Path 19913" d="M1507.76,1392.51l.32.252Z" transform="translate(-1271.821 -1204.071)" fill="#171212"/>
    <path id="Path_19914" data-name="Path 19914" d="M1061.135,271.527c0-.737,0-1.475,0-2.212a.485.485,0,0,1,.422-.518,5.061,5.061,0,0,1,2.617.2,2.252,2.252,0,0,1,1.067,3.614,3.8,3.8,0,0,1-2.62,1.757c-1.676.275-1.531.143-1.53-1.215q0-.811,0-1.623Z" transform="translate(-885.296 -231.072)" fill="#d3d0cc"/>
    <path id="Path_19915" data-name="Path 19915" d="M1306.483,293.231a4.842,4.842,0,0,1,3.45-4.195,4.039,4.039,0,0,1,1.175-.056.564.564,0,0,1,.523.45,3.627,3.627,0,0,1-.818,3.718,5.772,5.772,0,0,1-2.806,1.574c-1.006.247-1.494-.15-1.523-1.2C1306.48,293.428,1306.483,293.33,1306.483,293.231Z" transform="translate(-1097.673 -248.564)" fill="#d4d1cd"/>
    <path id="Path_19916" data-name="Path 19916" d="M1135.81,285.944a5.024,5.024,0,0,1,2.3-4.562,1.28,1.28,0,0,1,1.9.346,5.577,5.577,0,0,1,.827,2.037,2.451,2.451,0,0,1-.31,1.563,5.378,5.378,0,0,1-2.385,2.336,1.4,1.4,0,0,1-2.22-1.042A6.267,6.267,0,0,1,1135.81,285.944Z" transform="translate(-949.965 -241.776)" fill="#d4d1cd"/>
    <path id="Path_19917" data-name="Path 19917" d="M1419.835,290.5a1.62,1.62,0,0,1-1.673-1.311,2.5,2.5,0,0,1,0-1.025,5.714,5.714,0,0,1,3.611-4.352.649.649,0,0,1,.962.365,2.4,2.4,0,0,1,.312,1.565,8.208,8.208,0,0,1-1.786,4A1.808,1.808,0,0,1,1419.835,290.5Z" transform="translate(-1194.275 -244.043)" fill="#d4d1cd"/>
    <path id="Path_19918" data-name="Path 19918" d="M706.121,590.729c.416-1.137.835-2.287,1.259-3.435.068-.184.165-.4.371-.409.1-.006.2.208.325.281a2.893,2.893,0,0,0,1.875.179,3.981,3.981,0,0,1,1.9.146,3.671,3.671,0,0,1,.539.243.7.7,0,0,1,.256.9,2.459,2.459,0,0,1-1.231,1.237,9.266,9.266,0,0,1-5.005,1.022C706.325,590.888,706.25,590.807,706.121,590.729Z" transform="translate(-578.103 -506.887)" fill="#d3d0cc"/>
    <path id="Path_19919" data-name="Path 19919" d="M718.858,553.211c.44-1.259.842-2.422,1.255-3.581a.849.849,0,0,1,.92-.586,2.7,2.7,0,0,1,2.684,2.312.713.713,0,0,1-.3.78,4.271,4.271,0,0,1-2.436.963C720.34,553.1,719.7,553.164,718.858,553.211Z" transform="translate(-589.118 -474.137)" fill="#d2cfcb"/>
    <path id="Path_19920" data-name="Path 19920" d="M1060.493,740.78a2,2,0,0,1-1.529,2.026,1.438,1.438,0,0,1-1.885-1.15,2.069,2.069,0,0,1,.125-1.577,6.185,6.185,0,0,1,.718-1.107c.7-.82.925-.869,1.808-.1A2.694,2.694,0,0,1,1060.493,740.78Z" transform="translate(-881.73 -637.952)" fill="#d2cfcb"/>
    <path id="Path_19921" data-name="Path 19921" d="M935.98,762.252a.537.537,0,0,1-.516-.451,1.726,1.726,0,0,1,1.71-1.951c.185,0,.4.094.389.353a2.25,2.25,0,0,1-1.3,2A.916.916,0,0,1,935.98,762.252Z" transform="translate(-776.535 -656.569)" fill="#c5c4c0"/>
    <path id="Path_19922" data-name="Path 19922" d="M762.455,769.328a2.081,2.081,0,0,1,.969-1.582.457.457,0,0,1,.4-.056,4.3,4.3,0,0,1,1.433,1.248.919.919,0,0,1,.016.982,1.943,1.943,0,0,1-.84.809C763.329,771.276,762.441,770.707,762.455,769.328Z" transform="translate(-626.838 -663.339)" fill="#cfcdc9"/>
    <path id="Path_19923" data-name="Path 19923" d="M1075.212,566.933c-.006,1.2-.483,1.737-1.486,1.861a.974.974,0,0,1-1.055-.819,2.469,2.469,0,0,1,1.407-2.395.7.7,0,0,1,1.017.52A7.469,7.469,0,0,1,1075.212,566.933Z" transform="translate(-895.292 -488.384)" fill="#cecbc7"/>
    <path id="Path_19924" data-name="Path 19924" d="M852.423,762.039a3.61,3.61,0,0,1-.221.655,1.245,1.245,0,0,1-1.389.565c-.313-.177-.4-.627-.249-1.21a2.4,2.4,0,0,1,.974-1.438.334.334,0,0,1,.508.111A3.341,3.341,0,0,1,852.423,762.039Z" transform="translate(-703.023 -657.166)" fill="#c6c4c0"/>
    <path id="Path_19925" data-name="Path 19925" d="M883.932,581.387a3.708,3.708,0,0,1,.044-.407c.114-.545.557-1.064.888-1.054.389.013.751.951.558,1.5a1.426,1.426,0,0,1-.313.488.714.714,0,0,1-.8.227C883.981,582.022,883.947,581.72,883.932,581.387Z" transform="translate(-731.959 -500.857)" fill="#c7c7c3"/>
    <path id="Path_19926" data-name="Path 19926" d="M1138.758,543.287a.352.352,0,0,1-.291-.418.616.616,0,0,1,.693-.564.362.362,0,0,1,.3.418A.658.658,0,0,1,1138.758,543.287Z" transform="translate(-952.229 -468.284)" fill="#9fa29f"/>
    <path id="Path_19927" data-name="Path 19927" d="M1157.614,602.291a.634.634,0,0,1-.156.549.365.365,0,0,1-.251.123.275.275,0,0,1-.242-.3.586.586,0,0,1,.244-.512c.074-.051.189-.112.255-.087S1157.567,602.212,1157.614,602.291Z" transform="translate(-968.24 -520.005)" fill="#aaa9a6"/>
    <path id="Path_19928" data-name="Path 19928" d="M1136.012,793.372a.466.466,0,0,1-.4.486.29.29,0,0,1-.355-.324.476.476,0,0,1,.38-.523C1135.816,792.984,1135.969,793.152,1136.012,793.372Z" transform="translate(-949.448 -685.257)" fill="#aeb3af"/>
    <path id="Path_19929" data-name="Path 19929" d="M1143.054,720.4c-.007.234-.269.451-.6.583a.587.587,0,0,1-.405-.049.3.3,0,0,1-.117-.387,2.3,2.3,0,0,1,.32-.653c.107-.139.282-.288.507-.137A.655.655,0,0,1,1143.054,720.4Z" transform="translate(-955.207 -621.807)" fill="#b6b7b3"/>
  </g>
</svg>
