<svg xmlns="http://www.w3.org/2000/svg" xmlns:xlink="http://www.w3.org/1999/xlink" width="142.555" height="121.551" viewBox="0 0 142.555 121.551">
  <defs>
    <filter id="Path_313" x="2.559" y="0" width="138" height="119" filterUnits="userSpaceOnUse">
      <feOffset dy="5" input="SourceAlpha"/>
      <feGaussianBlur result="blur"/>
      <feFlood flood-color="#eff4fd"/>
      <feComposite operator="in" in2="blur"/>
      <feComposite in="SourceGraphic"/>
    </filter>
  </defs>
  <g id="Group_10347" data-name="Group 10347" transform="translate(-1152.927 -599.093)">
    <g id="Path_312" data-name="Path 312" transform="translate(1152.927 599.093)" fill="#fff">
      <path d="M 121.8946075439453 119.0513229370117 L 20.66010284423828 119.0513229370117 C 15.82436370849609 119.0513229370117 11.27382373809814 117.1032257080078 7.846743583679199 113.5658645629883 C 4.398843765258789 110.0070419311523 2.500003814697266 105.2697067260742 2.500003814697266 100.2265243530273 L 2.500003814697266 21.32480621337891 C 2.500003814697266 16.28162574768066 4.398843765258789 11.54428482055664 7.846743583679199 7.985465049743652 C 11.27382373809814 4.448105335235596 15.82436370849609 2.50000524520874 20.66010284423828 2.50000524520874 L 121.8946075439453 2.50000524520874 C 126.7303466796875 2.50000524520874 131.2808837890625 4.448105335235596 134.7079620361328 7.985465049743652 C 138.1558380126953 11.54428482055664 140.0546875 16.28162574768066 140.0546875 21.32480621337891 L 140.0546875 100.2265243530273 C 140.0546875 105.2697067260742 138.1558380126953 110.0070419311523 134.7079620361328 113.5658645629883 C 131.2808837890625 117.1032257080078 126.7303466796875 119.0513229370117 121.8946075439453 119.0513229370117 Z" stroke="none"/>
      <path d="M 20.66009521484375 5.000007629394531 C 16.50714111328125 5.000007629394531 12.59425354003906 6.678054809570312 9.642257690429688 9.725006103515625 C 6.648666381835938 12.81494140625 5 16.93448638916016 5 21.32479858398438 L 5 100.2265319824219 C 5 104.6168518066406 6.648666381835938 108.7363891601562 9.642257690429688 111.8263244628906 C 12.59425354003906 114.8732757568359 16.50714111328125 116.5513229370117 20.66009521484375 116.5513229370117 L 121.8945922851562 116.5513229370117 C 126.0475463867188 116.5513229370117 129.9604339599609 114.8732757568359 132.9124298095703 111.8263244628906 C 135.9060211181641 108.7363891601562 137.5546875 104.6168518066406 137.5546875 100.2265319824219 L 137.5546875 21.32479858398438 C 137.5546875 16.93448638916016 135.9060211181641 12.81494140625 132.9124298095703 9.725006103515625 C 129.9604339599609 6.678054809570312 126.0475463867188 5.000007629394531 121.8945922851562 5.000007629394531 L 20.66009521484375 5.000007629394531 M 20.66009521484375 7.62939453125e-06 L 121.8945922851562 7.62939453125e-06 C 133.3048400878906 7.62939453125e-06 142.5546875 9.547439575195312 142.5546875 21.32479858398438 L 142.5546875 100.2265319824219 C 142.5546875 112.0038909912109 133.3048400878906 121.5513229370117 121.8945922851562 121.5513229370117 L 20.66009521484375 121.5513229370117 C 9.249847412109375 121.5513229370117 0 112.0038909912109 0 100.2265319824219 L 0 21.32479858398438 C 0 9.547439575195312 9.249847412109375 7.62939453125e-06 20.66009521484375 7.62939453125e-06 Z" stroke="none" fill="#EFF4FD"/>
    </g>
    <g transform="matrix(1, 0, 0, 1, 1152.93, 599.09)" filter="url(#Path_313)">
      <path id="Path_313-2" data-name="Path 313" d="M20,0h98a20,20,0,0,1,20,20V94a20,20,0,0,1-20,20H20A20,20,0,0,1,0,94V20A20,20,0,0,1,20,0Z" transform="translate(2.56)" fill="#fff"/>
    </g>
  </g>
</svg>
