<svg xmlns="http://www.w3.org/2000/svg" data-name="Home Button" viewBox="0 0 258.2 62.1">
  <defs>
    <filter id="a" width="258.2" height="62" x="0" y=".2" filterUnits="userSpaceOnUse">
      <feOffset dy="2"/>
      <feGaussianBlur result="blur"/>
      <feFlood flood-color="#322114"/>
      <feComposite in2="blur" operator="in"/>
      <feComposite in="SourceGraphic"/>
    </filter>
  </defs>
  <g filter="url(#a)">
    <path fill="#ffa631" d="M9 .1h240.2a9 9 0 0 1 9 9v42a9 9 0 0 1-9 9H9a9 9 0 0 1-9-9v-42a9 9 0 0 1 9-9Z" data-name="Path 27650"/>
  </g>
  <path fill="#ffcc3b" d="M9 .2h240.2a9 9 0 0 1 9 9V43a9 9 0 0 1-9 9H9a9 9 0 0 1-9-9V9.2a9 9 0 0 1 9-9Z" data-name="Path 27649"/>
  <path fill="#ffe655" d="M9 .2h240.2a9 9 0 0 1 9 9v6.4a9 9 0 0 1-9 9H9a9 9 0 0 1-9-9V9.2a9 9 0 0 1 9-9Z" data-name="Path 27648"/>
  <path fill="#ffec8d" d="M0 14.7A8.5 8.5 0 0 0 5.5 17C11.7 17 16.7 9.6 17 .3h-4.8C9 .2 5.2-1 2.1 2.9-1 7.4.3 10.8 0 14.7Z" data-name="Path 275"/>
</svg>