<svg xmlns="http://www.w3.org/2000/svg" xmlns:xlink="http://www.w3.org/1999/xlink" width="215" height="216" viewBox="0 0 215 216">
  <defs>
    <filter id="Rectangle_909" x="0" y="0" width="215" height="216" filterUnits="userSpaceOnUse">
      <feOffset dy="2" input="SourceAlpha"/>
      <feGaussianBlur stdDeviation="5" result="blur"/>
      <feFlood flood-color="#8be7fe" flood-opacity="0.2"/>
      <feComposite operator="in" in2="blur"/>
      <feComposite in="SourceGraphic"/>
    </filter>
  </defs>
  <g id="Group_10986" data-name="Group 10986" transform="translate(8948 -9638)">
    <g transform="matrix(1, 0, 0, 1, -8948, 9638)" filter="url(#Rectangle_909)">
      <rect id="Rectangle_909-2" data-name="Rectangle 909" width="177" height="178" rx="6" transform="translate(19 17)" fill="#fff" stroke="#8be7fe" stroke-linecap="round" stroke-linejoin="round" stroke-width="8"/>
    </g>
    <g id="Rectangle_898" data-name="Rectangle 898" transform="translate(-8929 9655)" fill="#dcf8fe" stroke="#fff" stroke-linecap="round" stroke-linejoin="round" stroke-width="3">
      <rect width="177" height="178" rx="6" stroke="none"/>
      <rect x="1.5" y="1.5" width="174" height="175" rx="4.5" fill="none"/>
    </g>
    <g id="Hairstyle" transform="translate(8 41)" style="mix-blend-mode: luminosity;isolation: isolate">
      <path id="Path_28015" data-name="Path 28015" d="M104.474,1728.673a85.878,85.878,0,0,0-16.278-8.6c-1.491-.594-3.145-1.15-4.668-.643a3.765,3.765,0,0,0-1.628,5.689,7.02,7.02,0,0,0,1.783,1.4q4.243,2.623,8.654,4.959a19.3,19.3,0,0,0,7.656,2.676,3.71,3.71,0,0,0,1.539-.161,3.1,3.1,0,0,0,1.661-3.355A9.061,9.061,0,0,0,101.5,1727" transform="translate(-8980.736 7967.739)" fill="#493428" stroke="#000" stroke-miterlimit="10" stroke-width="2.028"/>
      <path id="Path_28016" data-name="Path 28016" d="M88.732,1740.04a181.012,181.012,0,0,0-30.551,15.376,16.935,16.935,0,0,0-3.174,2.38,6.755,6.755,0,0,0-1.942,3.974,3.451,3.451,0,0,0,.591,2.481,4.671,4.671,0,0,0,3.707,1.46,11.8,11.8,0,0,0,4.3-1,46.268,46.268,0,0,0,7.183-3.942l16.432-10.336A10.508,10.508,0,0,0,88,1748.275a9.234,9.234,0,0,0,1.356-7.788" transform="translate(-8977.999 7965.716)" fill="#493428" stroke="#000" stroke-miterlimit="10" stroke-width="2.252"/>
      <path id="Path_28017" data-name="Path 28017" d="M157.6,1730.708c4.6-4.526,10.837-6.963,17.028-8.787a10.46,10.46,0,0,1,3.813-.6,3.764,3.764,0,0,1,3.149,1.952,3.891,3.891,0,0,1-1.289,4.333,13.2,13.2,0,0,1-4.324,2.128,54.994,54.994,0,0,0-15.05,8.352" transform="translate(-8988.164 7967.537)" fill="#493428" stroke="#000" stroke-miterlimit="10" stroke-width="2.028"/>
      <path id="Path_28018" data-name="Path 28018" d="M199.036,1758.251a3.764,3.764,0,0,0-3.263-1.755,10.463,10.463,0,0,0-3.768.837,63.928,63.928,0,0,0-7.772,3.331,6.085,6.085,0,0,1,1.069,1.663,5.9,5.9,0,0,1,.229,3.707l.123-.489a7.33,7.33,0,0,0-.149.967,12.319,12.319,0,0,0,.209,1.279c.146.447.306.888.477,1.325a54.91,54.91,0,0,1,7.638-4.071,13.2,13.2,0,0,0,4.186-2.389A3.892,3.892,0,0,0,199.036,1758.251Z" transform="translate(-8990.753 7964.117)" fill="#493428" stroke="#000" stroke-miterlimit="10" stroke-width="2.028"/>
      <path id="Path_28019" data-name="Path 28019" d="M82.615,1768.785a2.067,2.067,0,0,1,1.777,2.439,2.868,2.868,0,0,1-2.386,2.153,4.793,4.793,0,0,1-3.234-.8,5,5,0,0,1-2.537-3.864c-.055-1.612,1.3-3.273,2.878-3.117" transform="translate(-8980.255 7963.233)" fill="#493428" stroke="#000" stroke-miterlimit="10" stroke-width="2.216"/>
      <path id="Path_28020" data-name="Path 28020" d="M85.14,1767.54a4.411,4.411,0,0,1-1.962.477c-.234.018-.468.03-.7.044-.579-.074-1.154-.17-1.726-.295a12.979,12.979,0,0,1-1.465-.6,10.619,10.619,0,0,1-.937-.746c-.261-.3-.517-.6-.773-.9a9.8,9.8,0,0,1-.7-2.743,3.883,3.883,0,0,1,1.07-3.149,2.288,2.288,0,0,1,3.075-.072l2.708,3.571a2.411,2.411,0,0,1,2.45,1.63,2.471,2.471,0,0,1-1.035,2.784Z" transform="translate(-8980.314 7963.874)" fill="#493428" stroke="#000" stroke-miterlimit="10" stroke-width="2.216"/>
      <path id="Path_28021" data-name="Path 28021" d="M88.6,1757.943a2.725,2.725,0,0,1,.916,3.815,4.371,4.371,0,0,1-3.8,1.819,6.453,6.453,0,0,1-4.73-2.153,6.318,6.318,0,0,1-1.494-5.026c.233-1.557,1.363-3.165,2.913-3.165a4.2,4.2,0,0,1,2.537,1.213" transform="translate(-8980.565 7964.434)" fill="#493428" stroke="#000" stroke-miterlimit="10" stroke-width="2.216"/>
      <path id="Path_28022" data-name="Path 28022" d="M94.356,1755.073a3.835,3.835,0,0,1-.57,3.064,3.152,3.152,0,0,1-2.274.757,11.215,11.215,0,0,1-6.519-1.948,2.814,2.814,0,0,1-.832-.78,3.228,3.228,0,0,1-.37-1.16,11.3,11.3,0,0,1-.107-5.027,4.049,4.049,0,0,1,3.482-3.145c1.638-.03,2.969,1.269,4.1,2.477" transform="translate(-8980.957 7965.056)" fill="#493428" stroke="#000" stroke-miterlimit="10" stroke-width="2.216"/>
      <path id="Path_28023" data-name="Path 28023" d="M99.62,1751.74a1.729,1.729,0,0,1-.575,2.36,4.671,4.671,0,0,1-2.6.561c-1.585.022-3.318-.046-4.518-1.1a6.982,6.982,0,0,1-1.746-3.391l-.731-2.448a9.6,9.6,0,0,1-.6-4.049,4.787,4.787,0,0,1,3.108-3.782c2.544-.867,5.49.828,6.554,3.332" transform="translate(-8981.479 7965.752)" fill="#493428" stroke="#000" stroke-miterlimit="10" stroke-width="2.216"/>
      <path id="Path_28024" data-name="Path 28024" d="M105.153,1749.994a4.428,4.428,0,0,1-1.7,1.428c-1.277.476-2.644-.314-3.772-1.086a9.314,9.314,0,0,1-2.347-2.043,9.846,9.846,0,0,1-1.427-4.146c-.339-1.851-.661-3.853.148-5.547a4.456,4.456,0,0,1,3.675-2.492,1.675,1.675,0,0,1,.925.157,2.02,2.02,0,0,1,.594.6,22.2,22.2,0,0,1,4.191,10.8" transform="translate(-8982.133 7966.1)" fill="#493428" stroke="#000" stroke-miterlimit="10" stroke-width="2.216"/>
      <path id="Path_28025" data-name="Path 28025" d="M184.7,1768.785a2.067,2.067,0,0,0-1.777,2.439,2.868,2.868,0,0,0,2.386,2.153,4.793,4.793,0,0,0,3.234-.8,5,5,0,0,0,2.537-3.863c.055-1.612-1.3-3.273-2.878-3.117" transform="translate(-8990.622 7963.233)" fill="#493428" stroke="#000" stroke-miterlimit="10" stroke-width="2.216"/>
      <path id="Path_28026" data-name="Path 28026" d="M182.044,1767.54a4.411,4.411,0,0,0,1.962.477c.234.018.468.03.7.044.579-.074,1.154-.17,1.727-.295a12.98,12.98,0,0,0,1.465-.6,10.638,10.638,0,0,0,.937-.746c.261-.3.517-.6.773-.9a9.8,9.8,0,0,0,.7-2.742,3.883,3.883,0,0,0-1.07-3.149,2.288,2.288,0,0,0-3.075-.072l-2.708,3.571a2.411,2.411,0,0,0-2.45,1.63,2.471,2.471,0,0,0,1.035,2.784Z" transform="translate(-8990.43 7963.874)" fill="#493428" stroke="#000" stroke-miterlimit="10" stroke-width="2.216"/>
      <path id="Path_28027" data-name="Path 28027" d="M178.471,1757.943a2.725,2.725,0,0,0-.916,3.815,4.371,4.371,0,0,0,3.8,1.819,6.453,6.453,0,0,0,4.73-2.153,6.318,6.318,0,0,0,1.494-5.026c-.233-1.557-1.363-3.165-2.913-3.165a4.2,4.2,0,0,0-2.537,1.212" transform="translate(-8990.064 7964.434)" fill="#493428" stroke="#000" stroke-miterlimit="10" stroke-width="2.216"/>
      <path id="Path_28028" data-name="Path 28028" d="M172.663,1755.073a3.835,3.835,0,0,0,.57,3.064,3.152,3.152,0,0,0,2.274.757,11.216,11.216,0,0,0,6.519-1.948,2.812,2.812,0,0,0,.832-.78,3.229,3.229,0,0,0,.37-1.16,11.3,11.3,0,0,0,.106-5.027,4.049,4.049,0,0,0-3.482-3.145c-1.638-.03-2.969,1.269-4.1,2.477" transform="translate(-8989.622 7965.056)" fill="#493428" stroke="#000" stroke-miterlimit="10" stroke-width="2.216"/>
      <path id="Path_28029" data-name="Path 28029" d="M167.39,1751.74a1.729,1.729,0,0,0,.575,2.36,4.671,4.671,0,0,0,2.6.561c1.585.022,3.318-.046,4.518-1.1a6.982,6.982,0,0,0,1.746-3.391l.731-2.448a9.6,9.6,0,0,0,.6-4.049,4.788,4.788,0,0,0-3.108-3.782c-2.544-.867-5.49.828-6.554,3.332" transform="translate(-8989.092 7965.752)" fill="#493428" stroke="#000" stroke-miterlimit="10" stroke-width="2.216"/>
      <path id="Path_28030" data-name="Path 28030" d="M161.982,1749.994a4.429,4.429,0,0,0,1.7,1.429c1.277.476,2.644-.314,3.772-1.087a9.322,9.322,0,0,0,2.347-2.043,9.846,9.846,0,0,0,1.427-4.146c.339-1.851.661-3.853-.148-5.547a4.456,4.456,0,0,0-3.675-2.492,1.676,1.676,0,0,0-.925.157,2.022,2.022,0,0,0-.594.6,22.2,22.2,0,0,0-4.191,10.8" transform="translate(-8988.563 7966.099)" fill="#493428" stroke="#000" stroke-miterlimit="10" stroke-width="2.216"/>
      <path id="Path_28031" data-name="Path 28031" d="M149.192,1709.981s-16.324-14.206-43.6-1.2c0,0-5-5.3,6.717-11.85S161.083,1696.557,149.192,1709.981Z" transform="translate(-8983.005 7970.163)" fill="#493428" stroke="#000" stroke-miterlimit="10" stroke-width="1.843"/>
      <path id="Path_28032" data-name="Path 28032" d="M154.955,1715.816s-19.829-14.3-52.771-1.458c0,0-6.078-5.326,8.065-11.812S169.273,1702.455,154.955,1715.816Z" transform="translate(-8982.65 7969.609)" fill="#493428" stroke="#000" stroke-miterlimit="10" stroke-width="2.028"/>
      <path id="Path_28033" data-name="Path 28033" d="M155.568,1723.864s-20.373-14.318-54.194-1.5c0,0-6.245-5.331,8.274-11.807S170.262,1710.521,155.568,1723.864Z" transform="translate(-8982.568 7968.828)" fill="#493428" stroke="#000" stroke-miterlimit="10" stroke-width="2.055"/>
      <path id="Path_28034" data-name="Path 28034" d="M157.54,1730.151s-21.394-15.34-55.952,0c0,0-6.583-5.753,8.228-13.423S172.35,1714.812,157.54,1730.151Z" transform="translate(-8982.577 7968.311)" fill="#493428" stroke="#000" stroke-miterlimit="10" stroke-width="2.205"/>
      <path id="Path_28035" data-name="Path 28035" d="M159.206,1738.378s-22.7-13.75-59.359,0c0,0-6.983-5.156,8.729-12.031S174.919,1724.629,159.206,1738.378Z" transform="translate(-8982.4 7967.341)" fill="#493428" stroke="#000" stroke-miterlimit="10" stroke-width="2.15"/>
      <path id="Path_28036" data-name="Path 28036" d="M155.373,1751.74c4.259.115,8.734-2.319,10.109-6.352a13.458,13.458,0,0,0,.577-2.939c.274-2.6.129-5.554-1.776-7.343a4.865,4.865,0,0,0-2.465-1.235,6.089,6.089,0,0,0-4.917,1.55,11.642,11.642,0,0,0-2.945,4.385,21.8,21.8,0,0,0-1.679,9.171,3.145,3.145,0,0,0,.281,1.395c.53.984,1.827,1.188,2.94,1.28" transform="translate(-8987.645 7966.321)" fill="#493428" stroke="#000" stroke-miterlimit="10" stroke-width="2.198"/>
      <path id="Path_28037" data-name="Path 28037" d="M148.228,1749.168a6.156,6.156,0,0,0,5.662-.42,10.436,10.436,0,0,0,3.709-5.216c1.188-2.99,1.968-6.332,1.034-9.411a7.355,7.355,0,0,0-3.925-4.659,5.367,5.367,0,0,0-5.836.965,8.581,8.581,0,0,0-1.909,4.346,58.2,58.2,0,0,0-1.3,11.832,4.183,4.183,0,0,0,.186,1.526,2.262,2.262,0,0,0,3.2,1.04" transform="translate(-8987.003 7966.79)" fill="#493428" stroke="#000" stroke-miterlimit="10" stroke-width="2.198"/>
      <path id="Path_28038" data-name="Path 28038" d="M105.686,1751.32c-4.259.115-8.734-2.319-10.109-6.352A13.455,13.455,0,0,1,95,1742.03c-.274-2.6-.129-5.554,1.776-7.343a4.865,4.865,0,0,1,2.465-1.235,6.09,6.09,0,0,1,4.917,1.55,11.643,11.643,0,0,1,2.945,4.385,21.8,21.8,0,0,1,1.679,9.172,3.144,3.144,0,0,1-.281,1.395c-.53.984-1.827,1.189-2.94,1.28" transform="translate(-8982.068 7966.362)" fill="#493428" stroke="#000" stroke-miterlimit="10" stroke-width="2.198"/>
      <path id="Path_28039" data-name="Path 28039" d="M112.886,1748.748a6.155,6.155,0,0,1-5.662-.42,10.437,10.437,0,0,1-3.709-5.216c-1.188-2.99-1.968-6.332-1.034-9.411a7.355,7.355,0,0,1,3.925-4.659,5.367,5.367,0,0,1,5.836.965,8.581,8.581,0,0,1,1.909,4.346,58.2,58.2,0,0,1,1.3,11.832,4.185,4.185,0,0,1-.186,1.526,2.262,2.262,0,0,1-3.2,1.04" transform="translate(-8982.767 7966.831)" fill="#493428" stroke="#000" stroke-miterlimit="10" stroke-width="2.198"/>
      <path id="Path_28040" data-name="Path 28040" d="M133.935,1738.7c-.4,2.639-.749,5.531.644,7.808,1.352,2.208,4.048,3.25,6.626,3.489a4.831,4.831,0,0,0,4.015-1.043,5.211,5.211,0,0,0,1.023-1.958,33.3,33.3,0,0,0,1.639-7.549c.29-3.032.085-6.277-1.6-8.814s-5.219-4.027-7.917-2.614c-2.106,1.1-3.118,3.528-3.771,5.814a41.969,41.969,0,0,0-1.149,5.3" transform="translate(-8985.816 7966.937)" fill="#493428" stroke="#000" stroke-miterlimit="10" stroke-width="2.198"/>
      <path id="Path_28041" data-name="Path 28041" d="M125.078,1737.641c.4,2.639.749,5.531-.644,7.808-1.352,2.208-4.048,3.25-6.626,3.489a4.831,4.831,0,0,1-4.015-1.043,5.212,5.212,0,0,1-1.023-1.958,33.3,33.3,0,0,1-1.639-7.548c-.29-3.032-.085-6.277,1.6-8.814s5.219-4.027,7.917-2.614c2.106,1.1,3.118,3.528,3.771,5.814a41.976,41.976,0,0,1,1.149,5.3" transform="translate(-8983.636 7967.041)" fill="#493428" stroke="#000" stroke-miterlimit="10" stroke-width="2.198"/>
      <path id="Path_28042" data-name="Path 28042" d="M121.415,1738.492a1.207,1.207,0,0,1,.01.407,9.242,9.242,0,0,0,1.082,6.756c1.352,2.208,4.047,3.25,6.626,3.489a4.831,4.831,0,0,0,4.015-1.043,5.209,5.209,0,0,0,1.023-1.958,33.3,33.3,0,0,0,1.639-7.548c.29-3.032.085-6.277-1.6-8.814s-5.219-4.027-7.917-2.614c-2.106,1.1-3.118,3.528-3.771,5.814a41.98,41.98,0,0,0-1.116,5.086,1.216,1.216,0,0,0,.01.425Z" transform="translate(-8984.63 7967.021)" fill="#493428" stroke="#000" stroke-miterlimit="10" stroke-width="2.198"/>
      <path id="Path_28043" data-name="Path 28043" d="M131.252,1730.808a4.431,4.431,0,0,0-5.23,2.147,8.393,8.393,0,0,0-.663,2.927,8.06,8.06,0,0,0,.4,4.394,4.244,4.244,0,0,0,5.319,1.924,2.808,2.808,0,0,0,1.023-.729,3.521,3.521,0,0,0,.63-1.319,12.821,12.821,0,0,0-.346-7.519,2.342,2.342,0,0,0-1.229-1.632" transform="translate(-8985.016 7966.633)" fill="#604938"/>
      <path id="Path_28044" data-name="Path 28044" d="M131.435,1729.584a5.628,5.628,0,0,0-6.208,2.147,7.961,7.961,0,0,0-1.115,3.831,10.791,10.791,0,0,0,.142,4.182,5.384,5.384,0,0,0,5.236,3.8,4.483,4.483,0,0,0,3.412-1.525,7.457,7.457,0,0,0,1.224-4,14.392,14.392,0,0,0-.465-4.811c-.373-1.432-.855-2.828-2.322-3.425a1.153,1.153,0,0,0-1.409.8,1.174,1.174,0,0,0,.8,1.41c.122.05.272.415.323.535a9.854,9.854,0,0,1,.449,1.49,12.46,12.46,0,0,1,.375,3.076,8.66,8.66,0,0,1-.484,2.994,1.87,1.87,0,0,1-1.6,1.153,3.1,3.1,0,0,1-3.27-1.916,7.127,7.127,0,0,1-.193-2.971,8.781,8.781,0,0,1,.538-2.887,3.288,3.288,0,0,1,3.959-1.667c1.407.452,2.01-1.76.609-2.21Z" transform="translate(-8984.895 7966.755)" fill="#604938"/>
      <path id="Path_28045" data-name="Path 28045" d="M141.346,1732.768c.714,1.752.508,3.728.81,5.6a4.551,4.551,0,0,0,.581,1.727,2.169,2.169,0,0,0,1.452,1.027,2.226,2.226,0,0,0,2.117-1.145,5.04,5.04,0,0,0,.585-2.454,6.729,6.729,0,0,0-.49-3.08,8.014,8.014,0,0,0-1-1.522,5.681,5.681,0,0,0-1.38-1.38,2.082,2.082,0,0,0-1.87-.251,1.3,1.3,0,0,0-.752,1.6" transform="translate(-8986.583 7966.578)" fill="#604938"/>
      <path id="Path_28046" data-name="Path 28046" d="M140.118,1732.953c.749,1.92.454,4.02.887,6.007a4.3,4.3,0,0,0,1.6,2.631,2.966,2.966,0,0,0,3.052.245c2.052-.974,2.4-3.557,2.241-5.578a6.7,6.7,0,0,0-.946-3.1,9.7,9.7,0,0,0-1.973-2.366,3.326,3.326,0,0,0-3.525-.617,2.446,2.446,0,0,0-1.278,2.891,1.174,1.174,0,0,0,1.409.8,1.157,1.157,0,0,0,.8-1.409c-.039-.112-.046-.145-.052-.016a.236.236,0,0,1,.084-.186c-.079.075.063-.04.068-.041a.782.782,0,0,1,.276-.027,2.236,2.236,0,0,1,1.3.909,8.24,8.24,0,0,1,1.162,1.651,4.63,4.63,0,0,1,.41,1.948c.027.966.053,2.809-1.133,3.146a.863.863,0,0,1-.931-.521,4.486,4.486,0,0,1-.48-1.846,19.075,19.075,0,0,0-.752-5.131,1.18,1.18,0,0,0-1.409-.8,1.154,1.154,0,0,0-.8,1.409Z" transform="translate(-8986.46 7966.7)" fill="#604938"/>
      <path id="Path_28047" data-name="Path 28047" d="M155.391,1733.235a1.4,1.4,0,0,0-.51-.279.48.48,0,0,0-.517.182.674.674,0,0,0-.054.4c.131,1.721.878,3.367.874,5.094a9.673,9.673,0,0,0,.034,2.477c.089.341.339.719.689.677.33-.04.489-.417.582-.736a16.376,16.376,0,0,0,.688-3.126,5.662,5.662,0,0,0-.524-3.119,8.233,8.233,0,0,0-1.518-1.888" transform="translate(-8987.843 7966.409)" fill="#604938"/>
      <path id="Path_28048" data-name="Path 28048" d="M155.845,1732.128a1.752,1.752,0,0,0-2.6.314c-.462.791-.11,1.964.074,2.8.175.79.407,1.572.526,2.374a15.34,15.34,0,0,1-.006,2.4,3.05,3.05,0,0,0,.814,2.385,1.649,1.649,0,0,0,2.523-.462,8.594,8.594,0,0,0,.747-2.412,10.438,10.438,0,0,0,.3-2.559,6.589,6.589,0,0,0-.672-2.788,9.024,9.024,0,0,0-1.732-2.188c-1.037-1.052-2.657.568-1.62,1.62a4.854,4.854,0,0,1,1.722,3.126,7.37,7.37,0,0,1-.168,2.015c-.076.358-.167.713-.263,1.066-.052.19-.106.38-.161.569l-.071.243q-.069.189,0,.05-.106.179-.007.043l.942-.015a.125.125,0,0,1,.043.1,1.891,1.891,0,0,1-.073-.276,4.138,4.138,0,0,1-.015-.846,12.681,12.681,0,0,0-.051-2.434c-.1-.7-.269-1.376-.433-2.059-.088-.368-.175-.737-.243-1.11-.02-.111-.042-.223-.057-.335s-.023-.214-.031-.322q-.033-.224.013-.091l-.295.506a.656.656,0,0,1-.6.11,2.764,2.764,0,0,1,.243.167,1.154,1.154,0,0,0,1.568-.411,1.172,1.172,0,0,0-.411-1.568Z" transform="translate(-8987.719 7966.532)" fill="#604938"/>
      <path id="Path_28049" data-name="Path 28049" d="M115.846,1731.342a3.592,3.592,0,0,0-1.477,2.608,26,26,0,0,0-.292,4.783,1.059,1.059,0,0,0,.064.443c.186.406.813.4,1.147.1a2.6,2.6,0,0,0,.6-1.179c.549-1.637,1.592-3.141,1.709-4.864a2.305,2.305,0,0,0-.378-1.582,1.167,1.167,0,0,0-1.475-.351" transform="translate(-8983.932 7966.578)" fill="#604938"/>
      <path id="Path_28050" data-name="Path 28050" d="M115.143,1730.226c-1.441.856-1.91,2.5-2.123,4.057a23.681,23.681,0,0,0-.2,2.774c-.016.868-.2,2.025.343,2.762a1.9,1.9,0,0,0,2.435.423,3.416,3.416,0,0,0,1.318-2.1c.506-1.434,1.411-2.866,1.639-4.464a3.632,3.632,0,0,0-.647-2.967,2.32,2.32,0,0,0-2.863-.531,1.146,1.146,0,1,0,1.157,1.979c-.072.04-.094-.017-.026.009.084.032,0,.019-.039.009-.2-.049.123,0-.048-.018.1.009.135.085.168.169a2.267,2.267,0,0,1-.02,1.337,19.421,19.421,0,0,1-1.226,3.094c-.116.277-.229.555-.327.839-.041.118-.078.238-.119.356-.02.058-.038.118-.062.175.045-.108-.018.028-.034.06-.006.013-.108.188-.027.062-.035.054-.152.087-.044.047.04-.015.106-.061.148-.083-.042.022-.161.01-.026.011a.482.482,0,0,1,.357.109c.092.08.12.23.212.3.053.04,0,.121.013-.032.046-.64,0-1.3.019-1.937s.052-1.29.134-1.929a7.886,7.886,0,0,1,.385-1.683c.045-.124,0-.02-.006,0,.031-.07.065-.139.1-.207a3.173,3.173,0,0,1,.206-.34c.075-.108.007-.009-.008.009.049-.056.1-.108.153-.162,0,0,.138-.124.054-.055s.165-.1.164-.1a1.147,1.147,0,0,0-1.157-1.979Z" transform="translate(-8983.807 7966.701)" fill="#604938"/>
      <path id="Path_28051" data-name="Path 28051" d="M105.983,1732.968a4.069,4.069,0,0,0-.937,1.2c-.885,1.729-.431,3.821.165,5.669.047.146.116.313.264.354.25.069.408-.26.456-.514l.982-5.189a2.547,2.547,0,0,0,.063-.858.864.864,0,0,0-.472-.68" transform="translate(-8983.008 7966.405)" fill="#604938"/>
      <path id="Path_28052" data-name="Path 28052" d="M105.053,1732.032c-2.015,1.82-2,4.61-1.348,7.046a3.276,3.276,0,0,0,.875,1.853,1.462,1.462,0,0,0,2.251-.809,9.915,9.915,0,0,0,.376-1.8l.385-2.034c.265-1.4,1.032-3.6-.63-4.445a1.146,1.146,0,1,0-1.157,1.979c.19.1-.034-.089-.084-.144q-.041-.119.01.045-.016-.192-.006.036l-.006.123q.027-.149-.01.064c-.024.134-.05.268-.076.4l-.345,1.823-.345,1.823-.159.842c-.026.14-.047.282-.08.421a1.143,1.143,0,0,1-.048.176.7.7,0,0,1,.7-.5l.578.157a.673.673,0,0,1,.263.33q-.037-.116-.074-.232-.073-.235-.141-.471c-.079-.278-.152-.558-.215-.84a5.964,5.964,0,0,1-.19-1.575c0-.14,0-.279.013-.419q.008-.119.021-.237-.024.163.01-.047a5.058,5.058,0,0,1,.218-.8c-.053.141.111-.228.134-.27.057-.1.123-.2.184-.3q.121-.166.03-.054.074-.092.153-.18a4.66,4.66,0,0,1,.336-.331,1.154,1.154,0,0,0,0-1.62,1.172,1.172,0,0,0-1.62,0Z" transform="translate(-8982.887 7966.528)" fill="#604938"/>
      <path id="Path_28053" data-name="Path 28053" d="M108.34,1720.469a3.8,3.8,0,0,0,2.1-.592,18.753,18.753,0,0,1,3.866-1.185,105.379,105.379,0,0,1,20.517-2.49c4.377-.1,8.926.117,12.822,2.114-.014.355-.459.5-.813.534a26.876,26.876,0,0,1-6.132-.45,68.84,68.84,0,0,0-28.185,2.051,11.05,11.05,0,0,1-3.319.624.812.812,0,0,1-.713-.294.738.738,0,0,1,.128-.756,4.332,4.332,0,0,1,2.761-1.423,96.341,96.341,0,0,1,23.5-2.358" transform="translate(-8983.375 7968.035)" fill="#604938"/>
      <path id="Path_28054" data-name="Path 28054" d="M108.281,1720.969c1.447.069,2.79-.912,4.146-1.309,1.631-.477,3.319-.795,4.987-1.115a103.917,103.917,0,0,1,10.53-1.469c6.281-.55,13.517-1.235,19.348,1.661l-.263-.647c-.149.408-2.517.135-2.892.1-1.173-.094-2.335-.286-3.5-.442q-3.053-.409-6.133-.55a69.237,69.237,0,0,0-12.233.545q-3.053.408-6.063,1.078c-1.991.447-3.957,1.2-5.968,1.522-.514.083-1.767.18-.739-.551a3.812,3.812,0,0,1,1.019-.471,26.811,26.811,0,0,1,3.083-.706q3.186-.646,6.41-1.075a97.262,97.262,0,0,1,14.8-.8.573.573,0,0,0,0-1.146,97.978,97.978,0,0,0-15.025.831q-3.912.523-7.774,1.357c-1.381.3-3.633.651-4.149,2.257-.662,2.063,2.532,1.471,3.511,1.231,2.343-.574,4.637-1.272,7.01-1.735a68.316,68.316,0,0,1,15.059-1.228,83.643,83.643,0,0,1,8.79.813,20.819,20.819,0,0,0,4.1.26c.805-.051,1.5-.165,1.8-.988a.574.574,0,0,0-.263-.647c-5.809-2.886-12.773-2.388-19.048-1.891q-5.235.414-10.414,1.342c-1.71.306-3.419.641-5.109,1.048a19.075,19.075,0,0,0-2.329.69,6.916,6.916,0,0,1-2.689.885c-.737-.035-.735,1.111,0,1.146Z" transform="translate(-8983.316 7968.104)" fill="#604938"/>
      <path id="Path_28055" data-name="Path 28055" d="M136.077,1703.041c-3.7-.354-7.411-.666-11.124-.83a9.78,9.78,0,0,1-1.558.146l.745-.009a43.509,43.509,0,0,0-9.959,1.575c-.892.3-1.728.729-2.595,1.085a4.412,4.412,0,0,1,.517,1.033c2.482-.342,4.914-1.147,7.4-1.536a45.142,45.142,0,0,1,7.163-.354l12.619.047a4.718,4.718,0,0,0-3.208-1.157Z" transform="translate(-8983.69 7969.393)" fill="#604938"/>
      <path id="Path_28056" data-name="Path 28056" d="M136.015,1702.407c-2.147-.2-4.3-.4-6.448-.553q-1.558-.113-3.117-.2c-1.068-.058-2.055.028-3.118.069a.573.573,0,0,0,0,1.146l.745-.009v-1.14a38.853,38.853,0,0,0-6.624.788c-1.1.221-2.207.448-3.283.756a25.983,25.983,0,0,0-2.936,1.195.577.577,0,0,0-.206.784,4.012,4.012,0,0,1,.459.9.6.6,0,0,0,.7.4c2.221-.328,4.371-.976,6.574-1.392a35.692,35.692,0,0,1,6.57-.48c4.629-.01,9.258.032,13.886.049a.579.579,0,0,0,.405-.978,5.558,5.558,0,0,0-3.613-1.326c-.733-.074-.728,1.072,0,1.146a4.334,4.334,0,0,1,2.8.99l.405-.978c-4.769-.018-9.54-.076-14.309-.048a35.829,35.829,0,0,0-6.452.519c-2.2.416-4.353,1.064-6.574,1.392l.7.4a7.269,7.269,0,0,0-.575-1.17l-.205.784a33.736,33.736,0,0,1,12.264-2.582.573.573,0,0,0,0-1.146l-.745.009v1.146a95.168,95.168,0,0,1,12.682.684C136.749,1703.625,136.744,1702.479,136.015,1702.407Z" transform="translate(-8983.63 7969.45)" fill="#604938"/>
    </g>
  </g>
</svg>
