<svg xmlns="http://www.w3.org/2000/svg" xmlns:xlink="http://www.w3.org/1999/xlink" width="215" height="215" viewBox="0 0 215 215">
  <defs>
    <filter id="Rectangle_917" x="0" y="0" width="215" height="215" filterUnits="userSpaceOnUse">
      <feOffset dy="2" input="SourceAlpha"/>
      <feGaussianBlur stdDeviation="5" result="blur"/>
      <feFlood flood-color="#8be7fe" flood-opacity="0.2"/>
      <feComposite operator="in" in2="blur"/>
      <feComposite in="SourceGraphic"/>
    </filter>
    <filter id="Rectangle_900" x="4" y="4" width="207" height="207" filterUnits="userSpaceOnUse">
      <feOffset dy="2" input="SourceAlpha"/>
      <feGaussianBlur stdDeviation="5" result="blur-2"/>
      <feFlood flood-color="#8be7fe" flood-opacity="0.2"/>
      <feComposite operator="in" in2="blur-2"/>
      <feComposite in="SourceGraphic"/>
    </filter>
  </defs>
  <g id="Group_10988" data-name="Group 10988" transform="translate(8948 -10296)">
    <g transform="matrix(1, 0, 0, 1, -8948, 10296)" filter="url(#Rectangle_917)">
      <rect id="Rectangle_917-2" data-name="Rectangle 917" width="177" height="177" rx="6" transform="translate(19 17)" fill="#fff" stroke="#8be7fe" stroke-linecap="round" stroke-linejoin="round" stroke-width="8"/>
    </g>
    <g transform="matrix(1, 0, 0, 1, -8948, 10296)" filter="url(#Rectangle_900)">
      <g id="Rectangle_900-2" data-name="Rectangle 900" transform="translate(19 17)" fill="#dcf8fe" stroke="#fff" stroke-linecap="round" stroke-linejoin="round" stroke-width="3">
        <rect width="177" height="177" rx="6" stroke="none"/>
        <rect x="1.5" y="1.5" width="174" height="174" rx="4.5" fill="none"/>
      </g>
    </g>
    <g id="Gear" transform="matrix(0.755, 0.656, -0.656, 0.755, 4584.625, 8436.536)" style="mix-blend-mode: luminosity;isolation: isolate">
      <path id="Path_28072" data-name="Path 28072" d="M187.062,2312.46a7.632,7.632,0,0,1-1.948,3.776,11.621,11.621,0,0,1-3.056,2.223l.7-1.561c-1.565,1.306-3.025,2.969-5.037,2.946a1.429,1.429,0,0,0,.44-1.168.947.947,0,0,0-1.586-.787,3.953,3.953,0,0,0-1.31,1.363,9.9,9.9,0,0,1,1.223-4.294,14.626,14.626,0,0,1,2.448-2.991,1.235,1.235,0,0,0-1.2.04,6.166,6.166,0,0,1,5.288-3.568,3.425,3.425,0,0,1,1.734.256,5.772,5.772,0,0,1,1.743,1.615,4.429,4.429,0,0,1,.756,1.146,2.106,2.106,0,0,1,.063,1.494" transform="translate(-8977.999 7970.163)" fill="#788c51" stroke="#000" stroke-miterlimit="10" stroke-width="0.466"/>
      <path id="Path_28073" data-name="Path 28073" d="M177.71,2311.97a1.235,1.235,0,0,1,1.2-.04,14.625,14.625,0,0,0-2.448,2.991,9.893,9.893,0,0,0-1.222,4.286l.016-.019a4.035,4.035,0,0,1,1.133-1.232,14.632,14.632,0,0,1,1.915-1.586,9.113,9.113,0,0,0,1.8-1.144,8.1,8.1,0,0,1,1.628-1.447,7.619,7.619,0,0,0,1.7-1.342,3.109,3.109,0,0,1,.61-.631,1.289,1.289,0,0,1,.563-.169,7.707,7.707,0,0,1,2.784.526,1.978,1.978,0,0,0-.16-.744,4.437,4.437,0,0,0-.756-1.146,5.767,5.767,0,0,0-1.743-1.615A3.42,3.42,0,0,0,183,2308.4a6.166,6.166,0,0,0-5.288,3.567Z" transform="translate(-8977.999 7970.163)" fill="#657246"/>
      <path id="Path_28074" data-name="Path 28074" d="M187.062,2312.46a7.632,7.632,0,0,1-1.948,3.776,11.621,11.621,0,0,1-3.056,2.223l.7-1.561c-1.565,1.306-3.1,2.852-5.037,2.946a1.429,1.429,0,0,0,.44-1.168.947.947,0,0,0-1.586-.787,3.953,3.953,0,0,0-1.31,1.363,9.9,9.9,0,0,1,1.223-4.294,14.626,14.626,0,0,1,2.448-2.991,1.235,1.235,0,0,0-1.2.04,6.166,6.166,0,0,1,5.288-3.568,3.425,3.425,0,0,1,1.734.256,5.772,5.772,0,0,1,1.743,1.615,4.429,4.429,0,0,1,.756,1.146,2.106,2.106,0,0,1,.063,1.494" transform="translate(-8977.999 7970.163)" fill="none" stroke="#000" stroke-miterlimit="10" stroke-width="0.466"/>
      <path id="Path_28075" data-name="Path 28075" d="M186.152,2311.8c-.6.264-1.36-.315-2.005-.209a2.271,2.271,0,0,0-1.355.917,27.027,27.027,0,0,1-4.908,3.882c-.23.164-.009.549.224.383a35.83,35.83,0,0,0,4.417-3.2c.862-.847,1.11-1.565,2.593-1.385.572.069.687.252,1.258,0,.26-.115.035-.5-.224-.383Z" transform="translate(-8977.999 7970.163)" fill="#323a24"/>
      <path id="Path_28076" data-name="Path 28076" d="M187.215,2314.07c2.06,1.361,3.369,4.461,3.2,7.573-.584-.434-1.068-1.335-1.741-1.184-.488.11-.829.8-.855,1.454a3.807,3.807,0,0,0,.463,1.815c1.28,2.59,3.563,3.893,5.724,5.067a8.029,8.029,0,0,1-10.655-2.07,8.3,8.3,0,0,0-.344,1.32c-1.143-1.01-1.6-2.956-1.732-4.8a20.452,20.452,0,0,1,.748-7.12,6.234,6.234,0,0,1,2.2-3.627c1.284-.773,2.932-.007,3.53,1.64" transform="translate(-8977.999 7970.163)" fill="#788c51" stroke="#000" stroke-miterlimit="10" stroke-width="0.53"/>
      <path id="Path_28077" data-name="Path 28077" d="M193.225,2329.03a9.6,9.6,0,0,1-3.849-1.564,9.028,9.028,0,0,1-3.918-6.346c-.078-.666-.08-1.346-.135-2.016-.1-1.185-.361-2.327-.512-3.5a24.676,24.676,0,0,1-.171-3.5,2.129,2.129,0,0,0-.328.16,6.236,6.236,0,0,0-2.2,3.627,20.452,20.452,0,0,0-.748,7.12c.131,1.845.589,3.791,1.732,4.8a8.311,8.311,0,0,1,.344-1.32,8.072,8.072,0,0,0,9.786,2.541Z" transform="translate(-8977.999 7970.163)" fill="#657246"/>
      <path id="Path_28078" data-name="Path 28078" d="M187.215,2314.07c2.06,1.361,3.369,4.461,3.2,7.573-.584-.434-1.068-1.335-1.741-1.184-.488.11-.829.8-.855,1.454a3.807,3.807,0,0,0,.463,1.815c1.28,2.59,3.563,3.893,5.724,5.067a8.029,8.029,0,0,1-10.655-2.07,8.3,8.3,0,0,0-.344,1.32c-1.143-1.01-1.6-2.956-1.732-4.8a20.452,20.452,0,0,1,.748-7.12,6.234,6.234,0,0,1,2.2-3.627c1.284-.773,2.932-.007,3.53,1.64" transform="translate(-8977.999 7970.163)" fill="none" stroke="#000" stroke-miterlimit="10" stroke-width="0.53"/>
      <path id="Path_28079" data-name="Path 28079" d="M184.484,2312.95c-.293,4.207.19,9.96,2.844,13.389.2.256.553-.1.356-.356-2.537-3.278-2.975-9.031-2.7-13.033.023-.324-.482-.322-.5,0Z" transform="translate(-8977.999 7970.163)" fill="#323a24"/>
      <path id="Path_28080" data-name="Path 28080" d="M184.541,2316.44c.166,1.66-.429,2.7-1.112,4.141a7.058,7.058,0,0,0-.585,3.063.252.252,0,0,0,.5,0,9.723,9.723,0,0,1,1.282-4.287,5.2,5.2,0,0,0,.415-2.917C185.013,2316.12,184.509,2316.117,184.541,2316.44Z" transform="translate(-8977.999 7970.163)" fill="#323a24"/>
      <path id="Path_28081" data-name="Path 28081" d="M184.5,2314.82a2.084,2.084,0,0,0,.9,1.6,7.12,7.12,0,0,1,.98.587,2.419,2.419,0,0,0,.928.419c.316.069.451-.417.134-.486-.6-.13-.977-.584-1.513-.838a1.325,1.325,0,0,1-.657-.475,2.92,2.92,0,0,1-.288-.946c-.067-.317-.553-.183-.486.134Z" transform="translate(-8977.999 7970.163)" fill="#323a24"/>
      <path id="Path_28082" data-name="Path 28082" d="M62.731,2311.84c-1.086,1.62-1.793,3.671-1.169,5.451a3.724,3.724,0,0,1,.451,1.8,7.282,7.282,0,0,0-.189.794c-.033.607.5,1.078.605,1.671.074.415-.067.853,0,1.27.2,1.224,1.891,1.463,2.573,2.477a10.905,10.905,0,0,1,.567,1.3,5.051,5.051,0,0,0,1.463,1.579l1.225.99c.069-.008.138-.016.207-.026l59.323-8.276,74.648-8.627a1.778,1.778,0,0,0,1.562-1.813l-.216-5.82a1.6,1.6,0,0,0-1.664-1.55l-99.565,3.278-33.995.648a9.98,9.98,0,0,0-2.171.282C65.265,2308.86,63.817,2310.22,62.731,2311.84Z" transform="translate(-8977.999 7970.163)" fill="#997055" stroke="#000" stroke-miterlimit="10" stroke-width="0.582"/>
      <path id="Path_28083" data-name="Path 28083" d="M68.421,2329.1l59.323-8.276,74.648-8.627a1.778,1.778,0,0,0,1.562-1.813l-.076-2.056c-8.5,2.094-17.225,2.05-25.854,1.991l-16-.109a104.006,104.006,0,0,0-12.173-.867l-6.884-.246a9.988,9.988,0,0,0-2.315.1c-.484.1-.958.263-1.44.379a14.049,14.049,0,0,1-2.282.294l-10.444.765c-.989.073-2.963.3-4.907.576l.025-.012c-10.79,1.565-21.757,1.465-32.547,3.03-.6.087-16.237.656-16.648,1.117,1.192.01,17.5,1.365,18.682,1.458,1.51.118,3.016.276,4.525.4a36.464,36.464,0,0,0,4.588.034c1.522-.065,3.043-.17,4.564-.231l4.618-.182c.237-.009,2.266.252,2.24.5-.031.3-2.111.509-2.346.518-1.728.068-3.882.689-5.61.768-3.068.141-6.47.8-9.525.529-3.01-.266-5.25-1.587-8.285-1.471a.4.4,0,0,1-.352-.312c-3.889.174-12.368.75-16.258.923.365-2.187,5.328-3.547,3.558-4.236a28.727,28.727,0,0,0-7.776-1.69l-.056,0a1.856,1.856,0,0,1,.763-.33,5.9,5.9,0,0,0,1.609-.3.546.546,0,0,0,.187-.136.638.638,0,0,0,0-.667c-.106-.2-.268-.352-.375-.552a1.294,1.294,0,0,1,.249-1.47c.25-.223.624-.362.673-.721a.653.653,0,0,0-.423-.645,1.546,1.546,0,0,0-1.367.14,4.5,4.5,0,0,0-1.136,1.009,31.354,31.354,0,0,0-3.082,4.538l.142-.007a5.281,5.281,0,0,0-.467.328,5.3,5.3,0,0,0-.236,3.691,3.724,3.724,0,0,1,.451,1.8,7.287,7.287,0,0,0-.189.794c-.033.607.5,1.078.605,1.671.074.415-.067.853,0,1.27.2,1.224,1.891,1.463,2.573,2.477a10.906,10.906,0,0,1,.567,1.3,5.051,5.051,0,0,0,1.463,1.579l1.225.99C68.283,2329.12,68.352,2329.11,68.421,2329.1Zm47.479-15.163,3.935-1.891c1.859-.035,3.992-.091,4.788-.042a44.333,44.333,0,0,0,8.1-.289c4.927-.6,9.9-2.26,14.7-1.123,1.239.293,2.423.2,3.677.4a22.909,22.909,0,0,0,3.8.1,23.648,23.648,0,0,1,6.958,1.032c-.576,1.179-2.1,1.4-3.323,1.373l-19.4-.426a27.757,27.757,0,0,0-2.981-.382,16.355,16.355,0,0,0-2.809.224l-3.5.481c-.316.043-.307.589.01.59,2.946,0,6.062.744,9.064.989l.018.022a43.624,43.624,0,0,1-23.045-1.072Z" transform="translate(-8977.999 7970.163)" fill="#6d513c"/>
      <path id="Path_28084" data-name="Path 28084" d="M62.731,2311.84c-1.086,1.62-1.793,3.671-1.169,5.451a3.724,3.724,0,0,1,.451,1.8,7.282,7.282,0,0,0-.189.794c-.033.607.5,1.078.605,1.671.074.415-.067.853,0,1.27.2,1.224,1.891,1.463,2.573,2.477a10.905,10.905,0,0,1,.567,1.3,5.051,5.051,0,0,0,1.463,1.579l1.225.99c.069-.008.138-.016.207-.026l59.323-8.276,74.648-8.627a1.778,1.778,0,0,0,1.562-1.813l-.216-5.82a1.6,1.6,0,0,0-1.664-1.55l-99.565,3.278-33.995.648a9.98,9.98,0,0,0-2.171.282C65.265,2308.86,63.817,2310.22,62.731,2311.84Z" transform="translate(-8977.999 7970.163)" fill="none" stroke="#000" stroke-miterlimit="10" stroke-width="0.707"/>
      <path id="Path_28085" data-name="Path 28085" d="M203.537,2306.97q-3.788.974-7.608,1.634c-3.851.665-7.717,1.086-11.581,1.508a36.3,36.3,0,0,1-7.6.3l8.589-1.4,3.758-.612,5.227-.851a42.141,42.141,0,0,0,7.417-1.675c.73-.259,1.66-.473,2.08.334" transform="translate(-8977.999 7970.163)" fill="#6d513c"/>
      <path id="Path_28086" data-name="Path 28086" d="M181.426,2315.84a1.156,1.156,0,0,0,.525-.867c.64-3.351,1.06-6.823,1.406-10.3.07-.7.093-1.583-.24-1.924a.583.583,0,0,0-.487-.139l-.61.023a.378.378,0,0,0-.305.115,1.456,1.456,0,0,0-.209.659c-.568,3.581-.954,7.241-1.28,10.909a2.754,2.754,0,0,0,.145,1.519.515.515,0,0,0,.649.182.435.435,0,0,0,.055-.02Z" transform="translate(-8977.999 7970.163)" fill="#788c51" stroke="#000" stroke-miterlimit="10" stroke-width="0.466"/>
      <path id="Path_28087" data-name="Path 28087" d="M183.053,2305.38a1.5,1.5,0,0,1,.285.266q.048-.464.094-.928c.07-.7.093-1.583-.24-1.924a.582.582,0,0,0-.487-.139l-.61.023a.377.377,0,0,0-.305.115,1.454,1.454,0,0,0-.209.659q-.144.91-.273,1.825a2.481,2.481,0,0,1,.433-.131,1.658,1.658,0,0,1,1.311.234Z" transform="translate(-8977.999 7970.163)" fill="#657246"/>
      <path id="Path_28088" data-name="Path 28088" d="M180.447,2315.88a.515.515,0,0,0,.649.182.477.477,0,0,0,.055-.02l.351-.154a1.156,1.156,0,0,0,.525-.867q.135-.7.256-1.415a2.929,2.929,0,0,1-.405.253,1.444,1.444,0,0,1-1.51-.021l-.017-.013q-.024.268-.048.536a2.754,2.754,0,0,0,.145,1.519Z" transform="translate(-8977.999 7970.163)" fill="#657246"/>
      <path id="Path_28089" data-name="Path 28089" d="M181.426,2315.84a1.156,1.156,0,0,0,.525-.867c.64-3.351,1.06-6.823,1.406-10.3.07-.7.093-1.583-.24-1.924a.583.583,0,0,0-.487-.139l-.61.023a.378.378,0,0,0-.305.115,1.456,1.456,0,0,0-.209.659c-.568,3.581-.954,7.241-1.28,10.909a2.754,2.754,0,0,0,.145,1.519.515.515,0,0,0,.649.182.435.435,0,0,0,.055-.02Z" transform="translate(-8977.999 7970.163)" fill="none" stroke="#000" stroke-miterlimit="10" stroke-width="0.466"/>
      <path id="Path_28090" data-name="Path 28090" d="M185.56,2315.46a1.359,1.359,0,0,0,.328-1.02c-.081-3.423-.4-6.879-.8-10.315-.079-.691-.241-1.539-.636-1.739a.576.576,0,0,0-.5.05l-.587.25a.467.467,0,0,0-.272.223,1.56,1.56,0,0,0-.065.7c.2,3.615.592,7.236,1.045,10.844a2.427,2.427,0,0,0,.459,1.389c.221.19.461.077.668-.07a.525.525,0,0,0,.049-.04Z" transform="translate(-8977.999 7970.163)" fill="#788c51" stroke="#000" stroke-miterlimit="10" stroke-width="0.466"/>
      <path id="Path_28091" data-name="Path 28091" d="M184.947,2304.91a1.22,1.22,0,0,1,.332.146q-.051-.459-.1-.917c-.079-.691-.241-1.539-.636-1.739a.575.575,0,0,0-.5.05l-.587.25a.466.466,0,0,0-.272.223,1.56,1.56,0,0,0-.065.7q.051.918.118,1.836a3.066,3.066,0,0,1,.392-.287,1.714,1.714,0,0,1,1.321-.268Z" transform="translate(-8977.999 7970.163)" fill="#657246"/>
      <path id="Path_28092" data-name="Path 28092" d="M184.619,2315.86c.221.19.461.077.668-.07a.572.572,0,0,0,.049-.04l.308-.278a1.36,1.36,0,0,0,.328-1.02q-.017-.719-.048-1.44a3.716,3.716,0,0,1-.34.392,1.593,1.593,0,0,1-1.47.544l-.02-.006q.033.264.066.527a2.426,2.426,0,0,0,.459,1.389Z" transform="translate(-8977.999 7970.163)" fill="#657246"/>
      <path id="Path_28093" data-name="Path 28093" d="M185.56,2315.46a1.359,1.359,0,0,0,.328-1.02c-.081-3.423-.4-6.879-.8-10.315-.079-.691-.241-1.539-.636-1.739a.576.576,0,0,0-.5.05l-.587.25a.467.467,0,0,0-.272.223,1.56,1.56,0,0,0-.065.7c.2,3.615.592,7.236,1.045,10.844a2.427,2.427,0,0,0,.459,1.389c.221.19.461.077.668-.07a.525.525,0,0,0,.049-.04Z" transform="translate(-8977.999 7970.163)" fill="none" stroke="#000" stroke-miterlimit="10" stroke-width="0.466"/>
      <path id="Path_28094" data-name="Path 28094" d="M195.762,2315.05a1.359,1.359,0,0,0,.328-1.02c-.081-3.423-.4-6.879-.8-10.315-.079-.691-.241-1.539-.636-1.739a.576.576,0,0,0-.5.05l-.587.25a.468.468,0,0,0-.272.223,1.561,1.561,0,0,0-.065.705c.2,3.614.592,7.236,1.045,10.843a2.427,2.427,0,0,0,.459,1.389c.221.19.461.077.668-.07a.576.576,0,0,0,.049-.039Z" transform="translate(-8977.999 7970.163)" fill="#788c51" stroke="#000" stroke-miterlimit="10" stroke-width="0.466"/>
      <path id="Path_28095" data-name="Path 28095" d="M195.149,2304.51a1.235,1.235,0,0,1,.332.146q-.051-.459-.1-.917c-.079-.691-.241-1.539-.636-1.739a.576.576,0,0,0-.5.05l-.587.25a.468.468,0,0,0-.272.223,1.561,1.561,0,0,0-.065.7q.051.918.118,1.836a3.065,3.065,0,0,1,.392-.286,1.713,1.713,0,0,1,1.321-.268Z" transform="translate(-8977.999 7970.163)" fill="#657246"/>
      <path id="Path_28096" data-name="Path 28096" d="M194.821,2315.46c.221.19.461.077.668-.07a.583.583,0,0,0,.049-.04l.308-.278a1.359,1.359,0,0,0,.328-1.02q-.017-.719-.048-1.44a3.715,3.715,0,0,1-.34.392,1.593,1.593,0,0,1-1.47.545l-.02-.006q.033.264.066.527a2.426,2.426,0,0,0,.459,1.389Z" transform="translate(-8977.999 7970.163)" fill="#657246"/>
      <path id="Path_28097" data-name="Path 28097" d="M195.762,2315.05a1.359,1.359,0,0,0,.328-1.02c-.081-3.423-.4-6.879-.8-10.315-.079-.691-.241-1.539-.636-1.739a.576.576,0,0,0-.5.05l-.587.25a.468.468,0,0,0-.272.223,1.561,1.561,0,0,0-.065.705c.2,3.614.592,7.236,1.045,10.843a2.427,2.427,0,0,0,.459,1.389c.221.19.461.077.668-.07a.576.576,0,0,0,.049-.039Z" transform="translate(-8977.999 7970.163)" fill="none" stroke="#000" stroke-miterlimit="10" stroke-width="0.466"/>
      <path id="Path_28098" data-name="Path 28098" d="M189.059,2315.44a1.271,1.271,0,0,0,.4-.948c.238-3.414.256-6.908.2-10.4-.011-.7-.084-1.575-.434-1.851a.513.513,0,0,0-.472-.049l-.57.133a.381.381,0,0,0-.274.168,1.582,1.582,0,0,0-.125.687c-.145,3.628-.111,7.3-.019,10.97a2.76,2.76,0,0,0,.3,1.469c.189.231.423.167.63.062a.432.432,0,0,0,.049-.03Z" transform="translate(-8977.999 7970.163)" fill="#788c51" stroke="#000" stroke-miterlimit="10" stroke-width="0.452"/>
      <path id="Path_28099" data-name="Path 28099" d="M189.453,2304.84a1.306,1.306,0,0,1,.3.21q-.005-.465-.012-.931c-.011-.7-.084-1.575-.434-1.851a.513.513,0,0,0-.472-.049l-.57.133a.382.382,0,0,0-.274.168,1.582,1.582,0,0,0-.125.687q-.037.921-.058,1.845a2.481,2.481,0,0,1,.392-.207,1.484,1.484,0,0,1,1.257-.007Z" transform="translate(-8977.999 7970.163)" fill="#657246"/>
      <path id="Path_28100" data-name="Path 28100" d="M188.144,2315.65c.189.231.423.167.63.062a.433.433,0,0,0,.049-.03l.313-.215a1.271,1.271,0,0,0,.4-.948q.05-.717.087-1.439a3.078,3.078,0,0,1-.353.323,1.339,1.339,0,0,1-1.421.252l-.018-.01q.006.268.013.536a2.761,2.761,0,0,0,.3,1.469Z" transform="translate(-8977.999 7970.163)" fill="#657246"/>
      <path id="Path_28101" data-name="Path 28101" d="M189.059,2315.44a1.271,1.271,0,0,0,.4-.948c.238-3.414.256-6.908.2-10.4-.011-.7-.084-1.575-.434-1.851a.513.513,0,0,0-.472-.049l-.57.133a.381.381,0,0,0-.274.168,1.582,1.582,0,0,0-.125.687c-.145,3.628-.111,7.3-.019,10.97a2.76,2.76,0,0,0,.3,1.469c.189.231.423.167.63.062a.432.432,0,0,0,.049-.03Z" transform="translate(-8977.999 7970.163)" fill="none" stroke="#000" stroke-miterlimit="10" stroke-width="0.452"/>
      <path id="Path_28102" data-name="Path 28102" d="M190.23,2315.3a1.2,1.2,0,0,0,.465-.895c.487-3.379.761-6.865.966-10.356.041-.7.033-1.584-.294-1.905a.521.521,0,0,0-.465-.111l-.575.058a.356.356,0,0,0-.284.132,1.539,1.539,0,0,0-.175.67c-.41,3.6-.647,7.276-.826,10.953a2.867,2.867,0,0,0,.191,1.506.465.465,0,0,0,.62.144.394.394,0,0,0,.051-.023Z" transform="translate(-8977.999 7970.163)" fill="#788c51" stroke="#000" stroke-miterlimit="10" stroke-width="0.452"/>
      <path id="Path_28103" data-name="Path 28103" d="M191.4,2304.78a1.413,1.413,0,0,1,.279.249q.029-.465.057-.931c.041-.7.032-1.584-.294-1.905a.522.522,0,0,0-.465-.11l-.575.058a.356.356,0,0,0-.284.132,1.538,1.538,0,0,0-.175.669q-.1.915-.194,1.835a2.286,2.286,0,0,1,.4-.156,1.483,1.483,0,0,1,1.247.158Z" transform="translate(-8977.999 7970.163)" fill="#657246"/>
      <path id="Path_28104" data-name="Path 28104" d="M189.307,2315.4a.465.465,0,0,0,.62.144.391.391,0,0,0,.051-.023l.326-.174a1.2,1.2,0,0,0,.465-.895q.1-.71.192-1.426a2.829,2.829,0,0,1-.374.276,1.306,1.306,0,0,1-1.428.065l-.017-.012q-.014.268-.027.537A2.868,2.868,0,0,0,189.307,2315.4Z" transform="translate(-8977.999 7970.163)" fill="#657246"/>
      <path id="Path_28105" data-name="Path 28105" d="M190.23,2315.3a1.2,1.2,0,0,0,.465-.895c.487-3.379.761-6.865.966-10.356.041-.7.033-1.584-.294-1.905a.521.521,0,0,0-.465-.111l-.575.058a.356.356,0,0,0-.284.132,1.539,1.539,0,0,0-.175.67c-.41,3.6-.647,7.276-.826,10.953a2.867,2.867,0,0,0,.191,1.506.465.465,0,0,0,.62.144.394.394,0,0,0,.051-.023Z" transform="translate(-8977.999 7970.163)" fill="none" stroke="#000" stroke-miterlimit="10" stroke-width="0.452"/>
    </g>
  </g>
</svg>
